<svg width="491" height="552" viewBox="0 0 491 552" fill="none" xmlns="http://www.w3.org/2000/svg">
<path d="M62.289 2.28897C67.3018 4.92401 71.0316 8.52552 74.9297 12.5937C77.2338 14.5891 77.2338 14.5891 80.0781 14.0741C81.6984 13.6855 81.6984 13.6855 83.3515 13.289C97.8494 11.9174 107.837 13.853 119.298 23.1894C121.51 25.05 123.664 26.9683 125.809 28.9062C127.28 30.2251 128.784 31.5081 130.289 32.789C131.619 33.9337 131.619 33.9337 132.977 35.1015C133.753 35.7679 134.529 36.4344 135.328 37.121C137.669 39.6296 138.955 42.1709 140.352 45.289C141.246 44.8185 142.141 44.348 143.062 43.8632C154.554 37.9021 165.02 33.3951 178.352 35.289C184.823 37.5399 189.499 41.7165 194.352 46.414C195.051 47.0849 195.751 47.7557 196.472 48.4469C206.271 57.9621 217.76 70.6923 218.497 85.1388C218.522 88.7098 218.537 92.2804 218.539 95.8515C218.551 97.0767 218.564 98.302 218.576 99.5644C218.592 109.264 217.391 118.152 214.727 127.476C214.466 128.398 214.206 129.32 213.937 130.269C213.744 130.936 213.551 131.602 213.352 132.289C217.569 126.627 220.563 121.694 221.727 114.664C224.487 99.5712 233.381 87.6087 244.352 77.289C244.973 76.6896 245.594 76.0901 246.234 75.4726C251.321 72.629 258.711 73.4788 264.352 74.289C274.395 77.3928 283.833 86.4579 289.039 95.4765C289.472 96.4046 289.905 97.3327 290.352 98.289C290.752 97.7695 291.153 97.25 291.566 96.7148C296.566 90.5816 301.828 86.7969 309.352 84.289C320.792 83.5599 331.443 83.5616 340.539 91.289C352.724 103.242 359.886 117.283 361.352 134.289C361.666 133.651 361.981 133.013 362.305 132.355C362.733 131.529 363.161 130.703 363.602 129.851C364.019 129.028 364.437 128.204 364.867 127.355C366.352 125.289 366.352 125.289 368.523 124.504C369.127 124.433 369.73 124.362 370.352 124.289C371.012 125.939 371.672 127.589 372.352 129.289C378.251 112.493 383.103 95.5745 387.352 78.289C388.672 78.289 389.992 78.289 391.352 78.289C391.041 80.0393 390.728 81.7892 390.414 83.539C390.153 85.0008 390.153 85.0008 389.887 86.4921C389.352 89.289 389.352 89.289 388.684 91.1957C388.234 94.0261 389.037 95.1353 390.492 97.578C390.98 98.4234 391.469 99.2688 391.972 100.14C392.51 101.055 393.047 101.971 393.602 102.914C404.929 122.978 412.912 144.207 419.352 166.289C419.643 167.275 419.934 168.262 420.234 169.278C420.51 170.242 420.786 171.206 421.07 172.199C421.317 173.058 421.564 173.916 421.818 174.801C422.369 177.37 422.448 179.669 422.352 182.289C423.342 181.959 424.332 181.629 425.352 181.289C427.685 181.249 430.019 181.245 432.352 181.289C432.415 180.207 432.478 179.126 432.543 178.012C433.958 158.862 439.944 140.797 446.187 122.738C447.027 120.252 447.786 117.846 448.352 115.289C449.672 114.959 450.992 114.629 452.352 114.289C452.382 116.052 452.382 116.052 452.414 117.851C452.861 121.535 453.707 122.938 456.539 125.289C461.283 129.56 462.733 135 464.766 140.844C470.543 157.416 478.838 173.525 488.258 188.309C489.36 190.305 489.911 192.061 490.352 194.289C483.602 193.414 483.602 193.414 481.352 192.289C481.352 191.629 481.352 190.969 481.352 190.289C482.342 190.289 483.332 190.289 484.352 190.289C483.788 189.345 483.788 189.345 483.213 188.382C473.783 172.422 466.037 156.216 459.189 138.987C458.887 138.232 458.584 137.476 458.272 136.697C457.706 135.277 457.146 133.854 456.595 132.428C455.287 129.137 454.155 126.534 451.352 124.289C443.14 143.373 438.742 163.347 435.746 183.824C435.593 184.849 435.439 185.874 435.281 186.93C435.15 187.843 435.018 188.756 434.882 189.696C434.329 192.4 433.375 194.733 432.352 197.289C432.342 204.528 436.17 210.555 439.414 216.851C440.294 218.587 440.294 218.587 441.193 220.358C444.881 227.58 448.702 234.692 452.863 241.652C454.271 244.147 455.359 246.606 456.352 249.289C451.875 247.945 450.36 246.383 448.117 242.328C447.547 241.308 446.977 240.287 446.389 239.236C445.799 238.14 445.209 237.043 444.602 235.914C443.99 234.8 443.378 233.687 442.748 232.539C437.408 222.687 432.71 212.608 428.352 202.289C426.186 204.455 426.463 209.028 426.039 212.039C424.843 220.146 423.003 227.516 420.352 235.289C424.642 235.289 428.932 235.289 433.352 235.289C432.362 234.959 431.372 234.629 430.352 234.289C430.682 232.969 431.012 231.649 431.352 230.289C432.672 229.959 433.992 229.629 435.352 229.289C435.001 228.546 434.65 227.804 434.289 227.039C433.306 224.157 433.319 223.077 434.352 220.289C440.38 225.544 443.599 234.641 445.352 242.289C445.558 243.093 445.764 243.898 445.977 244.726C446.1 245.242 446.224 245.758 446.352 246.289C444.018 245.887 442.682 245.643 441.039 243.883C438.908 241.87 436.91 241.112 434.164 240.101C432.812 239.585 432.812 239.585 431.434 239.059C427.587 237.966 427.587 237.966 420.352 238.289C418.372 243.899 416.392 249.509 414.352 255.289C413.692 255.289 413.032 255.289 412.352 255.289C412.93 249.195 414.291 243.789 416.164 237.976C419.807 226.242 423.11 214.227 423.852 201.914C424.079 198.352 424.349 197.294 426.289 194.101C428.352 192.289 428.352 192.289 430.352 192.289C430.682 189.979 431.012 187.669 431.352 185.289C428.052 185.619 424.752 185.949 421.352 186.289C417.824 178.845 415.601 171.449 413.553 163.49C413.31 162.59 413.067 161.689 412.816 160.762C412.501 159.544 412.501 159.544 412.179 158.301C411.425 155.934 411.425 155.934 408.352 154.289C406.959 153.949 406.959 153.949 405.539 153.601C401.709 152.024 400.136 150.065 397.648 146.848C396.415 145.154 396.415 145.154 394.352 144.289C394.022 146.599 393.692 148.909 393.352 151.289C391.702 151.619 390.052 151.949 388.352 152.289C388.022 151.299 387.692 150.309 387.352 149.289C388.672 149.289 389.992 149.289 391.352 149.289C391.022 147.309 390.692 145.329 390.352 143.289C389.032 143.289 387.712 143.289 386.352 143.289C386.352 144.939 386.352 146.589 386.352 148.289C385.032 148.289 383.712 148.289 382.352 148.289C381.533 146.876 380.722 145.458 379.914 144.039C379.462 143.25 379.009 142.461 378.543 141.648C377.458 139.501 376.82 137.637 376.352 135.289C378.352 136.289 380.352 137.289 382.352 138.289C382.352 136.639 382.352 134.989 382.352 133.289C384.002 132.959 385.652 132.629 387.352 132.289C391.352 138.039 391.352 138.039 391.352 140.289C392.197 140.289 393.043 140.289 393.914 140.289C398.373 141.586 399.831 143.835 402.543 147.476C404.747 149.686 406.298 149.955 409.352 150.289C403.998 135.315 397.633 121.055 390.553 106.818C389.377 104.343 388.34 101.844 387.352 99.289C386.692 99.289 386.032 99.289 385.352 99.289C385.011 101.238 385.011 101.238 384.664 103.226C382.195 115.435 378.208 127.201 373.675 138.781C371.93 143.323 370.84 147.442 370.352 152.289C371.209 152.524 372.066 152.758 372.949 153C376.738 154.435 379.646 156.425 382.789 158.914C383.357 159.361 383.926 159.809 384.511 160.269C392.93 167.03 399.244 174.036 400.73 185.113C401.623 207.608 392.66 235.102 378.352 252.414C371.991 259.186 363.222 265.353 354.352 268.289C353.362 268.289 352.372 268.289 351.352 268.289C351.31 269.196 351.269 270.104 351.227 271.039C350.231 277.909 346.545 285.573 341.664 290.539C336.153 293.451 330.917 293.358 324.98 291.578C313.413 286.389 303.129 276.846 293.367 268.91C291.394 267.323 289.381 265.803 287.352 264.289C287.649 282.255 288.213 300.14 289.852 318.039C289.917 318.76 289.983 319.482 290.051 320.225C290.67 326.938 291.396 333.613 292.352 340.289C292.459 342.968 292.399 345.605 292.352 348.289C292.881 348.129 293.411 347.969 293.957 347.805C301.483 346.184 309.699 346.239 316.352 350.289C320.745 354.976 320.685 359.938 320.641 366.078C320.024 372.932 316.905 378.516 313.352 384.289C314.62 384.562 314.62 384.562 315.914 384.84C329.454 387.84 329.454 387.84 334.352 390.289C335.352 392.976 335.352 392.976 335.352 395.289C330.78 395.569 327.584 395.202 323.449 393.215C319.753 391.584 315.872 390.47 312.023 389.254C309.352 388.289 309.352 388.289 306.352 386.289C306.727 381.28 308.446 378.173 311.195 374.121C313.511 370.452 313.602 367.031 313.727 362.789C313.776 361.644 313.825 360.5 313.875 359.32C313.657 356.152 313.657 356.152 311.176 354.398C308.14 353.206 306.036 352.949 302.789 353.039C301.86 353.054 300.93 353.07 299.973 353.086C297.64 353.267 295.591 353.635 293.352 354.289C293.022 355.609 292.692 356.929 292.352 358.289C289.382 358.289 286.412 358.289 283.352 358.289C283.022 356.969 282.692 355.649 282.352 354.289C283.342 353.629 284.332 352.969 285.352 352.289C286.442 344.595 285.304 336.396 284.619 328.684C283.293 313.488 283.114 298.408 283.227 283.164C283.237 280.729 283.246 278.294 283.254 275.859C283.276 270.002 283.309 264.146 283.352 258.289C282.362 258.289 281.372 258.289 280.352 258.289C280.125 257.65 279.898 257.01 279.664 256.351C278.172 252.871 276.32 249.717 274.375 246.473C273.352 244.289 273.352 244.289 273.352 240.289C272.425 240.614 272.425 240.614 271.48 240.945C265.515 242.906 260.623 243.592 254.352 243.289C254.682 243.949 255.012 244.609 255.352 245.289C255.462 247.378 255.508 249.47 255.525 251.561C255.532 252.205 255.538 252.85 255.545 253.514C255.559 254.919 255.571 256.325 255.581 257.731C255.598 259.981 255.621 262.23 255.646 264.48C255.717 270.88 255.776 277.281 255.828 283.681C255.977 301.437 256.357 319.01 258.122 336.696C258.786 344.207 259.035 351.757 259.352 359.289C260.204 359.453 260.204 359.453 261.074 359.621C264.937 360.414 268.251 361.243 271.855 362.902C276.187 364.62 279.691 364.63 284.289 364.476C285.458 364.456 285.458 364.456 286.65 364.435C288.551 364.4 290.451 364.347 292.352 364.289C292.682 363.299 293.012 362.309 293.352 361.289C295.002 361.619 296.652 361.949 298.352 362.289C298.352 363.939 298.352 365.589 298.352 367.289C293.315 370.3 289.374 370.833 283.664 370.789C282.474 370.787 282.474 370.787 281.259 370.785C275.347 370.631 270.812 369.419 265.613 366.48C263.186 365.202 261.051 364.705 258.352 364.289C258.484 365.086 258.617 365.882 258.754 366.703C259.286 369.898 259.819 373.094 260.352 376.289C260.537 377.279 260.723 378.269 260.914 379.289C261.376 382.46 261.45 385.462 261.414 388.664C261.405 389.724 261.396 390.783 261.387 391.875C261.369 393.07 261.369 393.07 261.352 394.289C259.695 394.671 258.027 395.003 256.352 395.289C254.335 393.272 255.027 389.194 254.914 386.414C254.455 376.658 253.459 366.99 252.352 357.289C253.012 357.289 253.672 357.289 254.352 357.289C254.23 356.459 254.109 355.629 253.984 354.773C251.293 334.982 250.196 315.19 250.254 295.234C250.255 293.681 250.255 292.127 250.256 290.574C250.26 284.228 250.266 277.883 250.348 271.538C250.397 267.582 250.403 263.629 250.38 259.673C250.379 258.187 250.395 256.702 250.427 255.216C250.857 247.037 250.857 247.037 247.314 240.057C245.046 238.537 242.853 237.371 240.352 236.289C240.022 235.959 239.692 235.629 239.352 235.289C238.483 263.482 239.45 291.055 242.789 319.039C242.871 319.725 242.952 320.412 243.037 321.119C244.717 335.814 244.717 335.814 246.89 350.439C247.391 353.534 247.484 356.468 247.477 359.601C247.479 360.649 247.482 361.697 247.484 362.777C247.352 365.289 247.352 365.289 246.352 366.289C244.685 366.33 243.018 366.332 241.352 366.289C239.704 362.993 239.795 359.294 239.477 355.664C239.394 354.765 239.312 353.867 239.227 352.941C239.039 350.898 238.854 348.855 238.669 346.811C238.117 340.689 237.555 334.568 236.988 328.447C236.791 326.313 236.598 324.179 236.405 322.044C236.282 320.709 236.158 319.374 236.035 318.039C235.927 316.858 235.82 315.677 235.709 314.461C235.422 311.428 235.422 311.428 234.863 309.043C232.702 297.407 233.169 285.005 233.035 273.195C233.014 271.626 232.993 270.057 232.972 268.488C232.918 264.418 232.868 260.348 232.819 256.277C232.768 252.1 232.713 247.923 232.658 243.746C232.552 235.594 232.45 227.441 232.352 219.289C231.661 219.3 230.97 219.311 230.258 219.323C228.902 219.336 228.902 219.336 227.518 219.349C226.621 219.36 225.724 219.371 224.799 219.383C218.96 219.159 215.096 215.065 211.187 211.086C202.994 201.573 199.154 190.981 199.164 178.601C199.163 177.797 199.163 176.993 199.162 176.164C199.212 170.61 199.766 165.639 201.352 160.289C200.867 161.184 200.382 162.078 199.883 163C192.3 176.774 183.37 190.023 168.352 196.289C167.506 196.681 166.66 197.073 165.789 197.476C160.946 199.091 156.178 199.337 151.113 199.312C150.22 199.309 149.326 199.306 148.405 199.302C147.727 199.298 147.05 199.293 146.352 199.289C143.867 224.944 141.489 250.603 139.352 276.289C139.929 276.148 140.507 276.007 141.103 275.862C148.801 274.057 156.346 272.908 163.977 275.539C167.345 278.021 168.151 280.071 168.828 284.18C169.248 293.692 166.821 299.557 162.199 307.695C160.456 310.866 159.542 313.624 159.352 317.289C161.447 320.705 163.501 323.043 167.352 324.289C171.45 324.624 172.863 324.614 176.352 322.289C177.564 319.235 177.564 319.235 178.352 316.289C179.342 316.619 180.332 316.949 181.352 317.289C182.15 320.991 182.673 323.457 181.289 327.039C178.403 330.39 175.735 332.099 171.242 332.457C164.962 332.165 160.814 329.6 156.352 325.289C152.962 321.191 152.001 317.823 152.071 312.451C152.56 308.686 154.365 305.756 156.289 302.539C159.441 297.084 161.498 292.963 161.477 286.601C161.479 285.814 161.482 285.026 161.484 284.215C161.563 282.281 161.563 282.281 160.352 281.289C153.86 280.791 146.415 280.611 140.352 283.289C138.807 285.69 138.807 285.69 138.352 288.289C137.692 288.949 137.032 289.609 136.352 290.289C133.727 289.914 133.727 289.914 131.352 289.289C131.352 287.969 131.352 286.649 131.352 285.289C130.692 285.289 130.032 285.289 129.352 285.289C129.352 286.939 129.352 288.589 129.352 290.289C127.414 290.851 127.414 290.851 125.352 291.289C123.127 289.065 123.368 284.279 122.941 281.195C122.743 279.764 122.743 279.764 122.541 278.303C119.627 256.791 117.752 235.575 117.789 213.851C117.787 212.775 117.785 211.698 117.782 210.589C117.783 207.552 117.809 204.517 117.848 201.48C117.851 200.574 117.855 199.668 117.858 198.735C117.916 196.236 117.916 196.236 118.352 192.289C119.342 191.629 120.332 190.969 121.352 190.289C117.863 186.649 117.863 186.649 113.352 185.226C110.55 186.715 107.98 188.517 105.352 190.289C104.692 190.289 104.032 190.289 103.352 190.289C103.47 197.847 103.595 205.405 103.724 212.964C103.767 215.529 103.809 218.094 103.849 220.659C103.821 244.765 103.821 244.765 106.852 268.601C107.768 273.041 108.51 277.383 108.789 281.914C109.127 286.317 110.886 288.631 113.352 292.289C114.055 296.122 113.887 299.315 111.977 302.789C110.352 304.289 110.352 304.289 108.352 304.289C108.805 304.97 109.259 305.65 109.727 306.351C111.352 309.289 111.352 309.289 111.937 312.785C112.936 316.26 112.936 316.26 115.007 317.305C117.186 318.086 119.362 318.706 121.602 319.289C128.506 321.38 132.38 322.981 136.352 329.289C137.311 330.372 137.311 330.372 138.289 331.476C139.352 333.289 139.352 333.289 139.039 335.539C138.699 336.405 138.699 336.405 138.352 337.289C136.031 337.055 136.031 337.055 133.352 336.289C131.859 334.398 131.859 334.398 130.477 332.039C126.835 326.944 122.512 325.476 116.682 323.962C112.511 322.856 109.966 321.784 107.352 318.289C106.699 316.105 106.699 316.105 106.414 313.851C105.571 309.318 104.046 307.192 100.352 304.289C98.1853 302.994 98.1853 302.994 96.3515 302.289C96.3515 301.299 96.3515 300.309 96.3515 299.289C97.8056 298.887 97.8056 298.887 99.289 298.476C100.3 298.085 101.31 297.693 102.352 297.289C103.268 294.538 103.46 292.929 103.414 290.101C103.393 288.843 103.373 287.585 103.352 286.289C100.643 284.935 98.3422 285.224 95.3515 285.289C95.3025 286.337 95.2536 287.385 95.2031 288.465C95.1281 289.844 95.0525 291.223 94.9765 292.601C94.9456 293.292 94.9147 293.982 94.8828 294.693C94.6703 298.359 94.4322 300.168 92.3515 303.289C91.0315 302.959 89.7115 302.629 88.3515 302.289C87.3615 297.339 87.3615 297.339 86.3515 292.289C76.9206 304.188 67.581 316.355 61.3515 330.289C62.0876 330.401 62.8236 330.513 63.582 330.629C72.8243 332.832 80.072 341.272 85.8515 348.351C88.2863 353.119 87.6973 357.278 86.3515 362.289C86.871 362.736 87.3905 363.184 87.9258 363.644C93.8484 368.779 99.1658 373.623 103.352 380.289C103.727 379.541 104.102 378.794 104.488 378.023C109.759 367.879 109.759 367.879 114.352 365.289C117.23 364.386 118.661 363.95 121.414 365.301C132.473 374.866 134.773 390.348 136.352 404.289C136.471 407.629 136.46 410.949 136.352 414.289C134.712 414.753 134.712 414.753 133.039 415.226C130.797 415.872 128.565 416.551 126.352 417.289C118.025 418.161 111.334 416.936 103.622 414.079C98.9158 412.364 95.3071 411.783 90.3515 412.289C90.3515 411.299 90.3515 410.309 90.3515 409.289C85.3362 409.619 85.3362 409.619 81.3515 412.289C80.6323 414.607 79.9605 416.94 79.3515 419.289C77.7015 419.289 76.0515 419.289 74.3515 419.289C74.0009 418.196 73.6503 417.103 73.289 415.976C71.5456 412.826 70.4764 412.327 66.957 411.262C64.3353 410.738 61.7297 410.364 59.0781 409.992C55.352 409.289 52.6382 408.141 49.3515 406.289C49.7847 407.493 50.2178 408.697 50.664 409.937C51.2267 411.513 51.7892 413.088 52.3515 414.664C52.6377 415.458 52.9239 416.252 53.2187 417.07C53.6248 418.211 53.6248 418.211 54.039 419.375C54.4161 420.428 54.4161 420.428 54.8008 421.501C55.3515 423.289 55.3515 423.289 55.3515 425.289C55.9432 425.061 56.5349 424.833 57.1445 424.598C57.9347 424.31 58.7249 424.023 59.539 423.726C60.3163 423.436 61.0936 423.146 61.8945 422.848C66.0035 421.913 68.4687 422.753 72.0351 424.918C73.8705 426.207 75.7039 427.498 77.5351 428.793C80.8116 430.533 82.6912 430.705 86.3515 430.289C90.2774 428.813 93.0044 426.81 95.3515 423.289C95.7454 420.965 96.0864 418.631 96.3515 416.289C97.3415 416.619 98.3315 416.949 99.3515 417.289C99.8092 423.009 99.0681 425.888 95.3515 430.289C91.3893 433.698 87.8008 435.137 82.6601 435.527C77.633 435.008 73.8998 431.655 70.2265 428.414C68.2668 426.991 68.2668 426.991 65.2265 427.539C62.4338 428.162 62.4338 428.162 60.3515 429.289C57.539 429.851 57.539 429.851 54.3515 429.289C48.7415 423.679 46.692 414.579 46.0844 406.923C45.2329 402.701 44.0936 401.304 41.0468 398.328C40.1522 397.444 39.2576 396.559 38.3359 395.648C37.3923 394.746 36.4487 393.844 35.4765 392.914C34.5716 392.019 33.6667 391.125 32.7343 390.203C27.3032 384.895 21.6869 380.004 15.6779 375.36C11.1163 371.299 8.87677 366.579 7.92185 360.598C7.49035 351.676 10.0601 343.602 15.8515 336.789C21.7064 330.508 21.7064 330.508 26.3398 329.891C36.4015 329.961 36.4015 329.961 40.164 331.851C44.4281 333.774 46.8191 333.164 51.3515 332.289C51.3051 331.704 51.2587 331.119 51.2109 330.516C50.9408 324.091 51.786 318.221 53.164 311.976C53.3294 311.212 53.4947 310.448 53.665 309.661C54.7052 305.177 56.1004 301.346 58.3515 297.289C59.6715 297.289 60.9915 297.289 62.3515 297.289C62.2188 298.051 62.086 298.813 61.9492 299.598C60.8849 305.82 59.9797 312.008 59.3515 318.289C59.7292 317.657 60.1069 317.026 60.4961 316.375C63.95 310.761 67.6254 305.431 71.664 300.226C72.1262 299.619 72.5885 299.012 73.0647 298.387C76.0703 294.555 79.1604 291.941 83.1015 289.039C85.6613 286.505 87.223 284.539 87.5986 280.887C87.5453 277.868 87.3541 274.885 87.1211 271.875C86.9848 269.528 86.854 267.181 86.728 264.834C86.6257 262.985 86.6257 262.985 86.5214 261.1C86.2353 254.682 86.2415 248.267 86.2539 241.844C86.255 240.556 86.2561 239.269 86.2573 237.942C86.2637 234.016 86.2762 230.09 86.289 226.164C86.2947 223.44 86.2987 220.716 86.3027 217.992C86.3135 211.424 86.3301 204.857 86.3515 198.289C85.6983 198.43 85.0451 198.571 84.3721 198.716C77.5349 200.146 71.1474 200.639 64.164 200.601C63.0634 200.596 61.9628 200.59 60.8288 200.584C43.8886 200.333 25.755 196.795 13.3515 184.289C1.09372 169.277 -0.982613 151.018 0.351534 132.289C2.62163 119.421 9.37069 109.006 17.6914 99.2108C19.9058 95.3135 19.3568 93.6228 18.3515 89.289C18.0339 87.6363 17.7218 85.9826 17.414 84.328C16.8848 81.6188 16.3508 78.9105 15.8125 76.203C12.074 57.0085 10.404 36.8709 21.4609 19.6991C31.5193 6.87677 45.8933 -5.1613 62.289 2.28897Z" fill="#0D0D0D"/>
<path d="M54.3518 6.28897C60.5454 8.84316 65.4493 12.8037 70.3518 17.289C68.1424 19.6732 65.8701 21.2874 63.1018 22.9765C56.9028 27.0654 51.1039 32.4044 48.7893 39.6952C47.3322 48.3334 46.7282 58.7403 51.094 66.6171C54.2021 70.7484 57.0624 72.0956 62.1018 72.8515C69.9637 72.4005 76.4756 67.7183 81.8791 62.328C86.3782 56.0986 86.8701 50.4568 86.7893 42.9765C86.7854 42.0453 86.7814 41.1141 86.7773 40.1547C86.6375 33.4855 85.6319 28.1641 82.3518 22.289C81.8568 20.804 81.8568 20.804 81.3518 19.289C86.6752 16.6273 95.4058 17.7533 101.145 18.7968C108.406 21.237 113.521 26.6119 118.87 31.8564C121.179 34.0888 123.579 36.216 125.977 38.3515C128.15 40.296 130.29 42.2271 132.352 44.289C132.471 50.2636 130.343 52.9796 126.332 57.2382C125.679 57.915 125.025 58.5917 124.352 59.289C123.072 60.6973 121.801 62.1138 120.539 63.539C119.694 64.4748 119.694 64.4748 118.832 65.4296C115.594 69.4969 114.945 73.1507 114.352 78.289C118.841 77.5707 121.41 76.7491 124.227 73.1015C126.111 70.3966 127.728 67.6147 129.27 64.7069C136.178 51.9243 145.294 45.6696 159.352 41.289C163.342 40.3063 167.184 40.0612 171.289 39.9765C172.474 39.9391 173.659 39.9017 174.879 39.8632C185.605 41.1783 196.421 55.1001 202.867 63.1913C209.943 72.9961 212.917 82.8621 212.727 94.8515C212.714 95.8118 212.702 96.7722 212.689 97.7616C212.026 126.365 198.459 159.536 178.934 180.836C170.168 188.887 161.404 191.702 149.66 191.394C148.899 191.36 148.137 191.325 147.352 191.289C147.022 188.319 146.692 185.349 146.352 182.289C142.162 181.201 142.162 181.201 138.602 182.726C137.529 183.242 136.457 183.758 135.352 184.289C135.352 184.949 135.352 185.609 135.352 186.289C137.332 186.619 139.312 186.949 141.352 187.289C141.352 188.279 141.352 189.269 141.352 190.289C132.676 189.421 126.563 185.112 120.352 179.289C121.589 177.897 121.589 177.897 122.852 176.476C125.554 173.311 128.108 170.058 130.602 166.726C131.267 165.838 131.932 164.95 132.617 164.035C138.332 154.987 137.48 142.765 135.699 132.543C133.379 124.246 129.421 114.744 122.102 109.664C117.502 107.364 113.588 107.076 108.539 107.039C107.84 107.018 107.141 106.998 106.42 106.976C101.622 106.941 98.4127 107.744 94.3518 110.289C89.4421 115.845 89.7508 122.152 90.0315 129.226C91.19 147.097 100.366 164.722 110.352 179.289C104.852 183.289 104.852 183.289 100.352 183.289C100.146 183.908 99.9393 184.526 99.7268 185.164C98.3518 187.289 98.3518 187.289 92.3518 189.289C91.8568 178.894 91.8568 178.894 91.3518 168.289C90.3618 168.289 89.3718 168.289 88.3518 168.289C87.6918 175.879 87.0318 183.469 86.3518 191.289C67.9478 197.101 45.6121 195.853 28.0002 187.723C15.5418 180.979 10.8951 171.639 6.33227 158.586C1.71575 143.063 4.4049 128.585 11.7268 114.476C17.5133 104.223 17.5133 104.223 21.3518 100.289C22.0118 100.289 22.6718 100.289 23.3518 100.289C23.7759 101.146 24.2 102.003 24.637 102.887C30.0876 113.766 30.0876 113.766 39.3518 121.289C40.9745 121.385 42.6013 121.419 44.2268 121.414C45.0905 121.417 45.9541 121.419 46.844 121.422C49.1585 121.299 51.1347 120.939 53.3518 120.289C54.053 121.279 54.7543 122.269 55.4768 123.289C57.6814 125.98 57.996 126.249 61.6643 126.664C62.5512 126.54 63.438 126.416 64.3518 126.289C64.6264 125.555 64.9009 124.822 65.1838 124.066C68.3242 116.599 73.0218 111.226 79.3518 106.289C79.6818 107.609 80.0118 108.929 80.3518 110.289C81.3418 110.289 82.3318 110.289 83.3518 110.289C82.8568 106.824 82.8568 106.824 82.3518 103.289C74.9227 103.289 70.6272 107.397 65.3518 112.289C63.5326 114.226 61.9487 116.16 60.3518 118.289C56.2385 114.235 52.3341 110.029 48.4573 105.75C39.1757 94.9789 39.1757 94.9789 26.3518 90.289C24.0407 86.8223 23.4907 83.6796 22.7893 79.664C22.6636 78.9898 22.5379 78.3156 22.4084 77.621C20.7004 68.1954 20.122 58.9287 20.0393 49.3515C20.0103 48.2358 19.9813 47.1201 19.9514 45.9706C19.8638 34.4656 22.921 26.9861 30.8401 18.6874C44.9535 5.21048 44.9535 5.21049 54.3518 6.28897Z" fill="#FDFDFD"/>
<path d="M263.351 79.289C266.442 80.1634 268.769 81.4001 271.351 83.289C272.383 84.0315 273.414 84.774 274.476 85.539C277.922 88.8351 280.725 92.3155 283.351 96.289C284.069 97.279 284.787 98.269 285.527 99.289C288.38 104.349 287.663 109.783 287.414 115.414C287.328 117.541 287.256 119.669 287.199 121.797C287.137 123.199 287.137 123.199 287.074 124.629C287.413 127.88 288.399 129.69 290.351 132.289C292.943 133.176 292.943 133.176 295.351 133.289C298.046 129.247 297.904 125.963 297.351 121.289C296.382 117.394 295.301 113.58 294.129 109.742C293.064 105.011 293.669 102.571 295.914 98.3515C300.075 93.1228 304.594 89.1926 311.351 88.289C320.557 87.5442 329.843 87.8138 337.308 93.8788C348.892 106.247 354.735 120.588 354.5 137.316C354.323 142.06 353.944 145.814 352.351 150.289C350.226 152.039 350.226 152.039 347.351 153.289C341.76 156.424 337.308 159.376 334.351 165.289C334.282 166.829 334.267 168.372 334.289 169.914C334.298 170.731 334.307 171.549 334.316 172.391C334.328 173.017 334.339 173.644 334.351 174.289C341.087 175.565 341.087 175.565 347.351 173.289C348.4 171.436 348.4 171.436 349.351 169.289C350.685 166.622 352.018 163.956 353.351 161.289C354.011 161.289 354.671 161.289 355.351 161.289C355.351 161.949 355.351 162.609 355.351 163.289C360.308 162.05 362.468 160.503 365.351 156.289C371.557 156.607 375.545 159.682 380.351 163.289C381.413 164.082 381.413 164.082 382.496 164.891C388.288 169.564 393.556 174.8 394.665 182.453C395.59 193.866 394.139 204.487 390.351 215.289C390.078 216.105 389.804 216.922 389.522 217.763C383.428 235.772 376.268 250.536 358.586 259.726C356.525 260.66 354.466 261.492 352.351 262.289C352.302 261.059 352.253 259.829 352.203 258.562C352.128 256.93 352.052 255.297 351.976 253.664C351.945 252.856 351.914 252.048 351.883 251.215C351.656 246.571 351.092 242.662 349.351 238.289C346.019 237.871 346.019 237.871 342.351 238.289C338.052 242.475 337.205 246.104 337.117 251.996C337.112 252.711 337.107 253.427 337.101 254.164C337.081 254.872 337.06 255.579 337.039 256.309C337.005 260.823 337.481 263.752 340.351 267.289C343.427 268.649 343.427 268.649 346.351 269.289C346.026 275.476 342.904 280.375 339.351 285.289C336.479 287.204 334.958 287.916 331.539 287.773C320.826 285.401 311.402 275.721 303.24 268.865C301.494 267.408 299.732 265.976 297.957 264.555C296.973 263.766 295.99 262.977 294.976 262.164C293.696 261.139 293.696 261.139 292.39 260.094C288.696 256.824 287.984 254.033 287.351 249.289C286.609 249.268 285.866 249.248 285.101 249.226C281.513 248.003 280.677 246.418 279.004 243.125C278.074 240.51 278.463 238.885 279.351 236.289C279.63 234.897 279.63 234.897 279.914 233.476C280.058 232.755 280.203 232.033 280.351 231.289C275.906 231.66 275.906 231.66 272.414 234.226C268.704 237.936 263.976 238.402 258.914 238.664C252.968 238.482 248.647 236.494 244.367 232.383C237.679 224.976 237.679 224.976 237.039 219.726C237.351 217.289 237.351 217.289 238.914 215.789C239.625 215.046 239.625 215.046 240.351 214.289C240.121 211.634 240.121 211.634 239.351 209.289C238.031 208.959 236.711 208.629 235.351 208.289C235.351 206.639 235.351 204.989 235.351 203.289C232.554 205.357 232.324 206.433 231.664 209.976C231.561 211.07 231.458 212.163 231.351 213.289C227.663 213.827 225.504 214.033 222.316 211.976C220.219 210.166 218.274 208.282 216.351 206.289C215.791 205.726 215.23 205.162 214.652 204.582C204.391 193.545 204.808 179.908 205.224 165.704C205.479 160.866 206.534 156.756 208.351 152.289C208.604 151.667 208.856 151.044 209.116 150.403C212.113 143.096 215.339 136.097 219.351 129.289C219.681 129.289 220.011 129.289 220.351 129.289C220.461 130.302 220.57 131.315 220.683 132.359C220.843 133.711 221.003 135.062 221.164 136.414C221.234 137.079 221.304 137.744 221.377 138.43C221.928 142.93 223.116 146.357 225.351 150.289C229.964 150.703 229.964 150.703 234.164 149.164C237.275 144.252 237.678 139.153 237.601 133.476C237.594 132.422 237.594 132.422 237.587 131.347C237.484 125.438 237.033 119.652 234.351 114.289C231.307 114.207 229.28 114.313 226.351 115.289C226.875 109.752 228.286 105.489 230.789 100.539C231.136 99.846 231.484 99.1529 231.842 98.4389C239.206 84.4437 247.404 77.9406 263.351 79.289Z" fill="#FDFDFD"/>
<path d="M391.547 370.973C399.591 374.658 402.912 380.999 406.863 388.555C408.176 390.966 409.601 393.162 411.164 395.414C413.453 398.953 413.939 401.932 414.016 406.113C414.214 408.426 414.214 408.426 415.852 410.502C417.692 413.921 417.71 416.184 417.68 420.051C417.674 421.334 417.669 422.617 417.664 423.939C417.654 424.602 417.643 425.264 417.633 425.946C417.601 427.981 417.592 430.014 417.586 432.049C417.506 441.98 417.506 441.98 416.352 444.289C413.289 444.914 413.289 444.914 410.352 445.289C410.098 446.279 409.844 447.269 409.582 448.289C404.758 466.883 404.758 466.883 401.352 470.289C396.21 470.85 392.917 470.235 388.164 468.226C383.61 466.381 380.689 466.287 375.852 467.039C370.34 467.719 367.95 466.907 363.539 463.539C362.66 462.802 361.781 462.064 360.875 461.305C357.522 458.627 354.427 457.519 350.352 456.289C349.781 451.44 351.621 449.17 354.352 445.289C351.787 445.153 349.23 445.055 346.664 444.976C345.943 444.935 345.222 444.893 344.478 444.85C340.362 444.756 338.814 444.931 335.441 447.543C333.615 449.943 332.491 451.695 331.602 454.539C330.352 458.289 330.352 458.289 329.352 459.289C324.337 460.001 320.677 457.824 316.352 455.601C315.653 455.262 314.954 454.922 314.234 454.572C308.735 451.797 303.633 448.512 301.539 442.414C299.666 436.02 299.407 428.861 300.352 422.289C302.691 418.74 305.386 416.37 308.719 413.758C310.67 412.002 312.169 410.04 313.789 407.976C316.328 405.024 316.971 404.376 320.914 403.476C325.343 404.523 327.008 406.242 330.352 409.289C332.451 409.97 332.451 409.97 334.352 410.289C335.975 404.987 336.453 400.282 336.602 394.726C336.923 389.059 337.448 385.637 341.488 381.586C348.538 376.679 354.964 376.261 363.352 377.289C366.957 378.584 370.136 380.214 373.352 382.289C373.477 381.531 373.602 380.773 373.73 379.992C374.54 376.47 376.197 374.161 378.352 371.289C382.39 369.27 387.307 369.652 391.547 370.973Z" fill="#131313"/>
<path d="M35.5939 334.187C37.1349 334.919 38.6753 335.652 40.215 336.387C43.1179 337.613 45.2469 337.783 48.3517 337.289C49.1354 336.815 49.9192 336.34 50.7267 335.851C54.2346 333.763 57.318 332.958 61.3517 333.289C70.8255 336.286 78.7067 343.58 83.3517 352.289C83.7267 355.039 83.7267 355.039 83.3517 357.289C80.9888 359.652 80.139 359.606 76.9142 360.039C69.5882 361.377 63.2636 364.895 57.5392 369.601C54.8487 371.677 52.6692 371.837 49.3517 372.289C48.8567 373.279 48.8567 373.279 48.3517 374.289C54.5626 374.717 57.249 374.177 62.3517 370.289C63.0117 370.289 63.6717 370.289 64.3517 370.289C64.2963 370.993 64.2408 371.697 64.1837 372.422C64.1223 381.836 67.9796 386.577 73.8829 393.355C76.3517 396.289 76.3517 396.289 77.3517 399.289C73.6834 400.363 70.9977 400.519 67.3517 399.289C64.4557 396.457 62.2833 393.112 60.1083 389.713C59.4592 388.7 59.4592 388.7 58.797 387.668C58.4208 387.045 58.0445 386.422 57.6569 385.779C56.022 383.912 54.7621 383.666 52.3517 383.289C53.0736 384.276 53.7954 385.264 54.5392 386.281C55.4769 387.575 56.4144 388.87 57.3517 390.164C57.8286 390.815 58.3056 391.466 58.797 392.137C62.3517 397.062 62.3517 397.062 62.3517 399.289C55.9167 399.784 55.9167 399.784 49.3517 400.289C49.3517 399.299 49.3517 398.309 49.3517 397.289C48.6427 397.248 47.9337 397.206 47.2033 397.164C43.2508 395.951 41.3113 393.345 38.7267 390.289C34.1228 385.061 29.3266 380.608 23.84 376.289C14.9771 369.165 14.9771 369.165 13.3517 364.289C12.7563 353.268 12.9898 345.408 20.5001 336.988C24.9349 332.918 29.8589 331.889 35.5939 334.187Z" fill="#FBFBFB"/>
<path d="M365.789 382.039C368.815 383.631 370.646 385.303 372.352 388.289C374.525 404.377 370.956 422.216 369.352 438.289C364.897 438.784 364.897 438.784 360.352 439.289C360.352 438.629 360.352 437.969 360.352 437.289C359.692 437.289 359.032 437.289 358.352 437.289C358.352 438.279 358.352 439.269 358.352 440.289C355.581 441.07 353.11 441.41 350.234 441.43C349.462 441.449 348.69 441.468 347.895 441.488C346.291 441.522 344.686 441.54 343.082 441.543C338.997 441.672 336.171 441.994 332.898 444.566C330.617 447.005 329.433 448.468 328.477 451.601C328.105 452.818 327.734 454.035 327.352 455.289C326.652 455.008 325.952 454.727 325.231 454.437C323.284 453.661 321.334 452.896 319.379 452.141C318.359 451.736 317.34 451.331 316.289 450.914C315.267 450.514 314.245 450.115 313.191 449.703C308.792 447.513 306.857 445.658 305.141 441.012C303.807 434.72 303.287 428.661 304.352 422.289C306.112 420.031 307.698 419.005 310.191 417.629C313.348 415.671 314.903 412.94 316.832 409.828C318.352 408.289 318.352 408.289 320.844 407.906C323.352 408.289 323.352 408.289 326.289 410.789C329.124 413.505 329.124 413.505 332.539 413.914C335.546 413.563 335.546 413.563 337.164 410.914C337.556 410.048 337.948 409.181 338.352 408.289C338.682 407.629 339.012 406.969 339.352 406.289C339.617 402.633 339.796 398.984 339.957 395.322C340.251 389.39 340.251 389.39 341.352 388.289C346.58 388.023 350.423 388.317 355.352 390.289C355.352 390.949 355.352 391.609 355.352 392.289C357.002 392.289 358.652 392.289 360.352 392.289C359.855 390.285 359.855 390.285 358.352 388.289C355.038 386.926 355.038 386.926 351.227 386.039C350.568 385.866 349.909 385.694 349.231 385.516C347.608 385.092 345.98 384.689 344.352 384.289C350.681 379.269 358.426 378.562 365.789 382.039Z" fill="#FBFBFB"/>
<path d="M53.1952 448.683C56.5338 449.621 57.6753 451.339 59.3514 454.289C61.8546 459.734 61.6827 464.637 61.6639 470.539C61.68 471.538 61.6961 472.537 61.7127 473.566C61.7173 480.591 61.3558 487.994 56.4139 493.414C53.9344 494.466 52.8234 494.26 50.3514 493.289C50.6814 492.299 51.0114 491.309 51.3514 490.289C52.3414 490.289 53.3314 490.289 54.3514 490.289C55.581 484.813 55.5733 479.505 55.6014 473.914C55.622 472.898 55.6427 471.882 55.6639 470.836C55.695 464.846 55.1896 460.592 52.3514 455.289C48.6885 455.549 46.8578 455.793 44.1913 458.406C35.9703 470.324 28.3078 484.318 30.3514 499.289C31.7179 503.458 33.9731 505.974 37.3514 508.789C40.0672 510.446 40.0672 510.446 42.1913 510.223C45.4243 508.825 47.5399 506.373 49.9139 503.851C52.6003 501.043 55.094 498.461 58.3514 496.289C61.6738 496.613 62.9592 496.897 65.3514 499.289C66.3154 502.199 66.5309 505.004 66.6678 508.055C66.7307 509.389 66.7307 509.389 66.7948 510.75C66.8341 511.67 66.8734 512.591 66.9139 513.539C66.9787 514.943 66.9787 514.943 67.0448 516.375C67.1506 518.679 67.2527 520.984 67.3514 523.289C68.0114 523.289 68.6714 523.289 69.3514 523.289C69.6286 522.574 69.9057 521.858 70.1913 521.121C70.9367 519.301 71.7378 517.503 72.6053 515.738C76.1621 508.232 76.9357 502.022 77.0155 493.855C77.3658 490.137 78.1777 488.274 80.3514 485.289C82.3163 485.914 82.3163 485.914 84.3514 487.289C84.8553 490.039 84.8553 490.039 84.9139 493.289C84.9173 496.464 84.9173 496.464 85.3514 499.289C86.3414 499.949 87.3314 500.609 88.3514 501.289C89.0114 499.969 89.6714 498.649 90.3514 497.289C91.1145 497.454 91.8777 497.619 92.6639 497.789C95.3874 498.38 95.3874 498.38 98.3514 498.289C99.3414 497.299 99.3414 497.299 100.351 496.289C103.664 495.789 103.664 495.789 107.351 496.289C112.619 500.737 113.47 505.633 114.351 512.289C121.778 513.898 128.756 514.553 136.351 514.289C136.351 515.609 136.351 516.929 136.351 518.289C135.351 519.289 135.351 519.289 133.207 519.422C132.326 519.419 131.446 519.417 130.539 519.414C129.666 519.417 128.794 519.419 127.894 519.422C125.565 519.3 123.582 518.944 121.351 518.289C121.166 519.465 121.166 519.465 120.976 520.664C120.351 523.289 120.351 523.289 118.351 525.289C115.726 525.414 115.726 525.414 113.351 525.289C112.691 523.639 112.031 521.989 111.351 520.289C110.423 520.351 109.495 520.413 108.539 520.476C105.351 520.289 105.351 520.289 103.414 519.101C102.351 517.289 102.351 517.289 102.664 514.601C102.891 513.838 103.118 513.075 103.351 512.289C105.001 511.959 106.651 511.629 108.351 511.289C107.361 508.319 106.371 505.349 105.351 502.289C104.361 502.289 103.371 502.289 102.351 502.289C99.6184 508.5 98.6506 514.383 97.8788 521.117C97.4067 523.956 96.8107 525.843 95.3514 528.289C92.6014 528.664 92.6014 528.664 89.3514 528.289C85.9405 524.215 83.3312 519.789 83.3749 514.394C83.4909 513.431 83.6069 512.469 83.7264 511.476C83.8373 510.501 83.9481 509.525 84.0624 508.519C84.1577 507.783 84.2531 507.047 84.3514 506.289C82.092 507.133 82.092 507.133 81.4569 509.73C81.154 510.76 80.851 511.79 80.5389 512.851C78.4407 519.42 76.2288 525.371 70.3514 529.289C67.7889 529.539 67.7889 529.539 65.3514 529.289C61.9689 525.906 62.2234 521.591 62.035 516.988C61.9931 516.012 61.9512 515.035 61.9081 514.029C61.8687 513.022 61.8294 512.014 61.7889 510.976C61.7457 509.95 61.7026 508.923 61.6581 507.865C61.5524 505.34 61.4503 502.814 61.3514 500.289C57.5383 502.392 54.6485 504.748 51.6014 507.851C50.8228 508.636 50.0442 509.422 49.242 510.23C47.3077 512.147 47.3077 512.147 46.3514 514.289C47.362 514.371 48.3727 514.454 49.4139 514.539C53.8593 515.155 58.1326 517.07 61.3514 520.289C62.1187 529.036 59.235 534.257 53.7264 540.914C48.7406 546.261 42.6853 551.426 35.1014 551.976C30.2905 551.094 28.6976 549.798 25.3514 546.289C23.7477 541.478 23.4121 536.844 25.1874 532.016C28.3221 526.02 32.7083 521.163 37.3514 516.289C36.5084 515.553 35.6653 514.817 34.7967 514.058C33.6895 513.073 32.5828 512.088 31.4764 511.101C30.9208 510.619 30.3652 510.136 29.7928 509.639C25.6837 505.95 23.7642 503.103 22.9452 497.519C22.6428 487.706 25.445 480.099 29.3514 471.289C29.831 470.178 30.3105 469.067 30.8045 467.922C35.2375 458.35 41.4699 447.066 53.1952 448.683Z" fill="#0D0D0D"/>
<path d="M407.352 407.289C407.022 408.609 406.692 409.929 406.352 411.289C405.362 411.289 404.372 411.289 403.352 411.289C403.352 412.609 403.352 413.929 403.352 415.289C406.727 414.103 408.999 413.013 411.352 410.289C413.743 413.876 413.585 415.453 413.547 419.707C413.54 420.961 413.534 422.214 413.527 423.506C413.511 424.816 413.494 426.126 413.477 427.476C413.467 428.812 413.457 430.147 413.449 431.482C413.426 434.751 413.393 438.02 413.352 441.289C412.386 441.582 411.42 441.874 410.425 442.176C407.309 442.954 407.309 442.954 406.18 445.101C405.989 445.823 405.798 446.545 405.602 447.289C405.271 448.488 405.271 448.488 404.934 449.711C404.159 453.144 403.466 456.586 402.824 460.047C402.285 462.606 401.457 464.92 400.352 467.289C396.338 467.701 393.932 467.173 390.477 465.289C386.019 463.091 382.079 463.185 377.227 463.414C370.147 463.696 370.147 463.696 367.047 462.109C365.352 460.539 365.352 460.539 363.879 458.891C361.219 456.102 357.823 454.872 354.352 453.289C355.192 449.294 356.934 446.586 359.352 443.289C362.221 441.854 365.086 441.91 368.258 441.668C370.565 441.456 370.565 441.456 372.352 439.289C372.8 436.789 372.8 436.789 372.949 433.871C373.028 432.781 373.108 431.691 373.189 430.568C373.264 429.424 373.338 428.28 373.414 427.101C373.57 424.858 373.727 422.614 373.887 420.371C373.962 419.317 374.037 418.264 374.114 417.178C374.388 413.848 374.813 410.585 375.352 407.289C376.362 407.516 377.373 407.743 378.414 407.976C382.42 408.294 383.732 407.716 387.195 406C393.609 403.885 401.291 404.461 407.352 407.289Z" fill="#FCFCFC"/>
<path d="M87.6602 369.252C88.5593 370.044 88.5593 370.044 89.4766 370.851C90.0837 371.352 90.6909 371.853 91.3164 372.369C95.7502 376.199 98.0103 379.925 100.352 385.289C102.724 385.251 102.724 385.251 105.352 384.289C108.368 380.541 110.355 376.384 112.324 372.023C113.352 370.289 113.352 370.289 116.352 368.289C119.926 368.626 120.415 369.362 122.914 372.226C129.991 382.96 131.231 398.741 132.352 411.289C119.68 415.056 106.11 411.399 94.3516 406.289C92.9908 405.327 91.6477 404.337 90.3516 403.289C89.0722 402.893 87.7792 402.538 86.4766 402.226C81.6637 400.522 80.2306 397.402 77.9375 393.031C76.2382 390.093 74.2577 387.857 71.9766 385.351C68.2229 380.808 67.5314 377.553 67.7774 371.734C68.4392 368.916 69.3939 367.404 71.3516 365.289C77.8249 363.015 82.6965 365.058 87.6602 369.252Z" fill="#FAFAFA"/>
<path d="M118.102 110.789C126.26 116.279 130.278 125.992 132.352 135.289C133.338 149.635 131.841 158.594 122.195 169.695C120.055 171.546 118.014 172.377 115.352 173.289C105.206 161.875 99.5923 147.777 95.3516 133.289C95.048 132.274 95.048 132.274 94.7383 131.238C94.2136 128.594 94.1423 126.046 94.1016 123.351C94.0758 122.332 94.05 121.312 94.0234 120.262C94.4016 116.836 95.2944 115.032 97.3516 112.289C103.642 108.566 111.351 107.429 118.102 110.789Z" fill="#FBFBFB"/>
<path d="M74.3515 22.289C75.1716 23.8475 75.9822 25.411 76.789 26.9765C77.4676 28.2816 77.4676 28.2816 78.16 29.6132C81.1801 36.3959 82.0404 45.7245 79.4452 52.7382C75.9808 58.5678 70.9982 63.4142 64.3515 65.289C61.4899 65.6296 60.0425 65.7753 57.664 64.1015C52.8135 57.4033 53.4123 48.1937 54.3515 40.289C56.6003 32.9966 64.0382 26.747 70.5038 23.0624C72.3515 22.289 72.3515 22.289 74.3515 22.289Z" fill="#F9F9F9"/>
<path d="M122.352 191.289C126.139 192.793 129.904 194.344 133.664 195.914C134.733 196.36 135.801 196.806 136.902 197.266C138.115 197.772 138.115 197.772 139.352 198.289C139.514 203.152 139.379 207.596 138.473 212.379C137.092 220.364 136.332 228.399 135.547 236.46C135.291 239.087 135.028 241.712 134.764 244.338C133.873 253.296 133.097 262.24 132.6 271.229C132.376 273.993 131.962 276.588 131.352 279.289C130.362 279.289 129.372 279.289 128.352 279.289C123.998 224.047 123.998 224.047 123.592 202.838C123.571 201.725 123.549 200.612 123.527 199.465C123.516 198.525 123.505 197.586 123.493 196.618C123.443 194.132 123.443 194.132 122.352 191.289Z" fill="#F8F8F8"/>
<path d="M385.351 99.289C386.011 99.289 386.671 99.289 387.351 99.289C394.085 111.658 400.56 124.021 405.664 137.164C406.231 138.624 406.231 138.624 406.81 140.113C409.351 146.853 409.351 146.853 409.351 150.289C407.066 150.531 407.066 150.531 404.351 150.289C402.543 148.609 402.543 148.609 400.914 146.414C398.182 142.968 398.182 142.968 394.164 141.226C390.915 140.143 390.602 139.533 388.976 136.664C388.44 135.55 387.904 134.436 387.351 133.289C386.031 133.289 384.711 133.289 383.351 133.289C383.021 134.939 382.691 136.589 382.351 138.289C380.351 137.289 378.351 136.289 376.351 135.289C376.021 136.279 375.691 137.269 375.351 138.289C374.213 134.874 374.483 134.2 375.644 130.93C375.943 130.067 376.242 129.205 376.55 128.317C376.877 127.4 377.203 126.484 377.539 125.539C380.539 116.863 383.147 108.201 385.351 99.289Z" fill="#F7F7F7"/>
<path d="M383.914 373.976C388.87 374.127 392.583 374.93 396.352 378.289C398.652 381.716 400.612 385.213 402.52 388.867C403.985 391.604 405.446 393.925 407.352 396.351C409.421 399.391 409.895 400.702 409.352 404.289C408.423 403.959 407.495 403.629 406.539 403.289C398.308 400.999 391.168 401.781 383.543 405.512C380.997 406.415 379.842 406.247 377.352 405.289C376.352 404.289 376.352 404.289 376.289 401.726C376.31 400.922 376.33 400.118 376.352 399.289C377.012 399.619 377.672 399.949 378.352 400.289C378.352 400.949 378.352 401.609 378.352 402.289C379.012 402.289 379.672 402.289 380.352 402.289C379.712 401.196 379.073 400.103 378.414 398.976C375.618 393.314 374.134 386.988 376.156 380.844C379.331 374.379 379.331 374.379 383.914 373.976Z" fill="#F9F9F9"/>
<path d="M98.3516 194.289C98.3574 195.011 98.3633 195.733 98.3693 196.477C98.4279 203.373 98.5003 210.269 98.5873 217.165C98.6315 220.708 98.6708 224.251 98.698 227.794C98.8221 243.522 99.3193 258.807 102.352 274.289C102.714 276.619 103.036 278.952 103.352 281.289C100.382 280.959 97.4116 280.629 94.3516 280.289C93.1762 269.681 93.0055 259.075 92.7891 248.414C92.7689 247.446 92.7487 246.478 92.7279 245.48C92.6077 239.647 92.4987 233.814 92.3984 227.981C92.3547 225.467 92.3077 222.953 92.2603 220.439C92.1857 216.348 92.1399 212.256 92.1016 208.164C92.0802 206.969 92.0589 205.774 92.0369 204.543C92.0324 203.467 92.028 202.39 92.0234 201.281C92.0141 200.357 92.0047 199.432 91.9951 198.48C92.1127 197.757 92.2304 197.034 92.3516 196.289C95.3516 194.289 95.3516 194.289 98.3516 194.289Z" fill="#E8E8E8"/>
<path d="M43.4023 518.109C48.2645 518.764 52.0523 519.754 56.3516 522.289C56.2028 529.28 53.0481 533.283 48.3516 538.289C43.6504 542.747 39.7809 543.951 33.3516 544.289C31.405 542.498 30.4367 541.023 30.1289 538.371C30.4406 531.326 33.9664 526.593 38.3516 521.289C38.8324 520.696 39.3132 520.103 39.8086 519.492C41.3516 518.289 41.3516 518.289 43.4023 518.109Z" fill="#F7F7F7"/>
<path d="M273.352 256.289C276.666 261.26 275.692 267.023 275.664 272.851C275.664 273.534 275.664 274.216 275.664 274.92C275.632 294.424 273.95 313.862 272.352 333.289C270.702 332.959 269.052 332.629 267.352 332.289C267.122 317.095 267.409 302.141 268.84 287.012C269.643 278.455 269.991 269.874 270.352 261.289C268.702 260.959 267.052 260.629 265.352 260.289C265.682 259.299 266.012 258.309 266.352 257.289C268.886 256.022 270.546 256.008 273.352 256.289Z" fill="#111111"/>
<path d="M266.352 452.289C267.342 452.289 268.332 452.289 269.352 452.289C271.392 458.589 271.981 464.681 272.475 471.262C272.821 475.152 273.252 478.45 274.906 482.012C276.409 485.42 276.675 487.545 276.539 491.226C276.512 492.184 276.485 493.142 276.457 494.129C276.422 494.842 276.387 495.555 276.352 496.289C275.032 496.289 273.712 496.289 272.352 496.289C270.386 491.185 269.751 486.309 269.227 480.914C269.14 480.083 269.054 479.251 268.965 478.394C268.754 476.36 268.552 474.325 268.352 472.289C268.23 473.265 268.109 474.241 267.984 475.246C267.733 477.154 267.733 477.154 267.477 479.101C267.233 480.998 267.233 480.998 266.984 482.934C266.352 486.289 266.352 486.289 264.352 489.289C263.362 488.959 262.372 488.629 261.352 488.289C259.607 484.8 259.889 480.792 259.633 476.941C259.641 474.369 259.641 474.369 258.352 473.289C257.362 475.599 256.372 477.909 255.352 480.289C254.362 480.289 253.372 480.289 252.352 480.289C252.352 478.969 252.352 477.649 252.352 476.289C253.012 476.289 253.672 476.289 254.352 476.289C254.522 475.651 254.692 475.013 254.867 474.355C255.231 473.116 255.231 473.116 255.602 471.851C255.95 470.616 255.95 470.616 256.305 469.355C256.65 468.673 256.996 467.992 257.352 467.289C258.672 466.959 259.992 466.629 261.352 466.289C262.012 469.259 262.672 472.229 263.352 475.289C264.337 471.346 264.628 467.839 264.852 463.789C265.295 455.74 265.295 455.74 266.352 452.289Z" fill="#191919"/>
<path d="M427.352 200.289C429.586 202.523 430.4 204.358 431.672 207.242C432.121 208.248 432.571 209.253 433.034 210.289C433.748 211.898 433.748 211.898 434.477 213.539C438.211 221.882 442.124 229.807 447.086 237.484C448.622 240.888 448.301 242.735 447.352 246.289C445.077 243.797 444.006 241.46 443.039 238.289C441.176 232.289 438.254 226.841 435.352 221.289C434.096 225.055 434.981 226.661 436.352 230.289C434.702 230.619 433.052 230.949 431.352 231.289C430.857 232.774 430.857 232.774 430.352 234.289C431.672 234.619 432.992 234.949 434.352 235.289C431.082 236.32 428.491 236.253 425.102 235.851C424.21 235.75 423.317 235.648 422.398 235.543C421.723 235.459 421.048 235.375 420.352 235.289C420.617 234.236 420.883 233.183 421.156 232.098C423.275 223.509 424.95 215.056 425.957 206.266C426.352 203.289 426.352 203.289 427.352 200.289Z" fill="#F2F2F2"/>
<path d="M245.352 410.289C246.012 410.619 246.672 410.949 247.352 411.289C247.762 413.881 247.762 413.881 247.984 417.293C248.068 418.508 248.152 419.723 248.238 420.975C248.317 422.254 248.396 423.533 248.477 424.851C248.563 426.135 248.649 427.418 248.738 428.74C248.951 431.923 249.155 435.105 249.352 438.289C250.012 438.289 250.672 438.289 251.352 438.289C252.012 440.929 252.672 443.569 253.352 446.289C258.055 437.53 260.552 429.202 261.352 419.289C262.342 419.619 263.332 419.949 264.352 420.289C264.117 430.913 261.023 440.301 255.352 449.289C254.568 449.083 253.784 448.876 252.977 448.664C252.11 448.54 251.244 448.416 250.352 448.289C249.692 448.949 249.032 449.609 248.352 450.289C246.414 450.289 246.414 450.289 244.352 449.289C242.539 446.414 242.539 446.414 241.352 443.289C241.682 442.299 242.012 441.309 242.352 440.289C243.012 440.289 243.672 440.289 244.352 440.289C244.346 439.416 244.341 438.542 244.336 437.643C244.319 434.413 244.306 431.183 244.297 427.954C244.292 426.554 244.285 425.154 244.276 423.755C244.264 421.747 244.259 419.738 244.254 417.73C244.249 416.521 244.243 415.311 244.238 414.065C244.352 411.289 244.352 411.289 245.352 410.289Z" fill="#1D1D1D"/>
<path d="M233.352 357.289C234.672 357.289 235.992 357.289 237.352 357.289C238.145 359.949 238.145 359.949 238.352 363.289C236.402 366.035 236.402 366.035 233.664 368.726C229.806 372.685 226.558 376.173 224.352 381.289C224.372 382.279 224.393 383.269 224.414 384.289C224.324 388.638 222.053 391.028 219.352 394.289C217.702 393.959 216.052 393.629 214.352 393.289C213.296 383.262 219.321 375.497 225.133 367.953C227.102 365.588 229.174 363.457 231.352 361.289C232.587 359.156 232.587 359.156 233.352 357.289Z" fill="#0C0C0C"/>
<path d="M170.352 352.289C172.223 352.324 172.223 352.324 174.352 353.289C175.949 356.098 175.949 356.098 177.414 359.726C177.672 360.356 177.929 360.985 178.194 361.634C179.991 366.114 181.487 370.634 182.711 375.301C183.343 377.571 183.343 377.571 185.352 380.289C185.477 382.976 185.477 382.976 185.352 385.289C184.032 385.289 182.712 385.289 181.352 385.289C181.086 384.651 180.82 384.013 180.547 383.355C180.194 382.529 179.84 381.703 179.477 380.851C179.129 380.028 178.78 379.204 178.422 378.355C177.527 376.132 177.527 376.132 175.352 375.289C175.546 374.748 175.741 374.206 175.941 373.648C176.475 370.581 175.798 368.51 174.914 365.539C174.483 364.062 174.483 364.062 174.043 362.555C173.815 361.807 173.587 361.059 173.352 360.289C173.303 361.265 173.254 362.241 173.203 363.246C173.091 365.154 173.091 365.154 172.977 367.101C172.907 368.366 172.837 369.631 172.766 370.934C172.352 374.289 172.352 374.289 170.352 377.289C169.362 376.959 168.372 376.629 167.352 376.289C167.657 372.476 167.972 368.664 168.289 364.851C168.376 363.763 168.463 362.674 168.553 361.553C168.64 360.518 168.727 359.484 168.816 358.418C168.895 357.46 168.974 356.501 169.054 355.514C169.352 353.289 169.352 353.289 170.352 352.289Z" fill="#141414"/>
<path d="M232.352 119.289C234.159 122.904 233.579 127.121 233.602 131.101C233.622 132.004 233.643 132.907 233.664 133.838C233.694 138.827 233.595 142.218 230.352 146.289C229.362 145.959 228.372 145.629 227.352 145.289C225.033 140.332 224.985 135.465 224.977 130.101C224.952 129.295 224.928 128.489 224.903 127.658C224.874 121.839 224.874 121.839 227.188 119.176C229.352 118.289 229.352 118.289 232.352 119.289Z" fill="#F6F6F6"/>
<path d="M61.3516 500.289C62.6516 504.952 62.7838 509.601 63.0391 514.414C63.099 515.333 63.1589 516.252 63.2207 517.199C63.2678 518.077 63.3148 518.955 63.3633 519.859C63.4093 520.661 63.4553 521.463 63.5027 522.289C63.3516 524.289 63.3516 524.289 61.3516 526.289C61.135 524.68 61.135 524.68 60.9141 523.039C60.1815 520.398 59.6726 519.501 57.3555 517.969C53.7576 516.374 50.1834 515.181 46.3516 514.289C47.9365 510.456 50.3827 507.958 53.2891 505.039C54.1643 504.147 55.0396 503.255 55.9414 502.336C58.3516 500.289 58.3516 500.289 61.3516 500.289Z" fill="#EEEEEE"/>
<path d="M28.3516 95.289C37.4862 96.3288 43.5277 106.508 48.918 113.223C50.3516 115.289 50.3516 115.289 50.3516 117.289C45.6408 117.695 43.3313 117.877 39.2266 115.414C35.359 111.726 32.8679 106.95 30.3516 102.289C29.9648 101.589 29.5781 100.889 29.1797 100.168C28.3516 98.289 28.3516 98.289 28.3516 95.289Z" fill="#F2F2F2"/>
<path d="M457.352 153.289C458.672 153.619 459.992 153.949 461.352 154.289C462.363 156.18 462.363 156.18 463.039 158.539C463.276 159.356 463.513 160.174 463.758 161.016C464.052 162.141 464.052 162.141 464.352 163.289C464.692 164.588 464.692 164.588 465.039 165.914C465.452 169.051 465.414 172.129 465.352 175.289C464.692 175.289 464.032 175.289 463.352 175.289C462.692 174.299 462.032 173.309 461.352 172.289C460.362 173.609 459.372 174.929 458.352 176.289C452.035 175.886 447.702 173.577 442.352 170.289C442.352 169.629 442.352 168.969 442.352 168.289C447.352 169.956 452.352 171.622 457.352 173.289C457.352 166.689 457.352 160.089 457.352 153.289Z" fill="#171717"/>
<path d="M184.351 457.289C185.011 457.289 185.671 457.289 186.351 457.289C187.408 461.572 187.468 465.719 187.414 470.101C187.409 470.794 187.405 471.487 187.4 472.201C187.389 473.897 187.371 475.593 187.351 477.289C184.984 477.887 184.984 477.887 182.351 478.289C178.765 475.652 177.167 472.284 175.351 468.289C175.021 468.289 174.691 468.289 174.351 468.289C174.021 470.929 173.691 473.569 173.351 476.289C172.361 476.619 171.371 476.949 170.351 477.289C169.879 469.096 169.879 469.096 171.851 465.726C172.346 465.252 172.841 464.778 173.351 464.289C176.021 464.653 177.077 464.937 178.765 467.101C179.165 467.823 179.565 468.545 179.976 469.289C181.584 472.381 181.584 472.381 184.351 474.289C184.351 468.679 184.351 463.069 184.351 457.289Z" fill="#121212"/>
<path d="M93.3516 461.289C94.6716 461.289 95.9916 461.289 97.3516 461.289C97.9308 466.85 96.9329 470.046 93.7969 474.687C92.3516 476.289 92.3516 476.289 89.5391 477.289C88.8172 477.289 88.0953 477.289 87.3516 477.289C84.7178 473.636 82.8827 470.804 82.3516 466.289C78.6984 467.539 77.5709 467.96 75.3516 471.289C74.3616 470.959 73.3716 470.629 72.3516 470.289C73.6013 466.636 74.0226 465.508 77.3516 463.289C80.3516 462.914 80.3516 462.914 83.3516 463.289C85.9988 465.842 87.115 468.865 88.3516 472.289C89.0116 472.289 89.6716 472.289 90.3516 472.289C92.5046 468.431 93.7441 465.738 93.3516 461.289Z" fill="#151515"/>
<path d="M98.2265 284.101C101.351 284.289 101.351 284.289 104.351 286.289C104.777 290.613 104.759 293.259 103.164 297.289C101.351 299.289 101.351 299.289 98.664 299.601C97.9008 299.498 97.1377 299.395 96.3515 299.289C96.0215 299.949 95.6915 300.609 95.3515 301.289C93.5959 299.533 94.2192 297.253 94.2147 294.918C94.2186 294.215 94.2225 293.513 94.2265 292.789C94.2226 292.086 94.2187 291.384 94.2147 290.66C94.2269 284.362 94.2269 284.362 98.2265 284.101Z" fill="#F4F4F4"/>
<path d="M344.352 241.289C346.337 242.926 347.27 243.79 347.692 246.374C347.676 247.154 347.661 247.934 347.645 248.738C347.635 249.586 347.625 250.433 347.615 251.307C347.59 252.188 347.565 253.069 347.539 253.976C347.526 254.869 347.512 255.762 347.498 256.682C347.463 258.885 347.413 261.086 347.352 263.289C345.702 263.289 344.052 263.289 342.352 263.289C340.428 260.045 340.081 257.602 340.102 253.851C340.096 252.925 340.091 251.998 340.086 251.043C340.479 246.971 341.448 244.192 344.352 241.289Z" fill="#F0F0F0"/>
<path d="M269.352 465.289C270.012 465.289 270.672 465.289 271.352 465.289C271.461 466.146 271.571 467.003 271.684 467.887C272.643 475.085 272.643 475.085 274.977 481.914C276.928 486.704 276.601 491.183 276.352 496.289C275.032 496.289 273.712 496.289 272.352 496.289C268.407 486.559 269.216 475.592 269.352 465.289Z" fill="#0F0F0F"/>
<path d="M441.352 175.289C443.629 175.262 443.629 175.262 446.352 176.289C447.967 178.933 448.906 181.806 449.914 184.726C450.465 186.292 451.028 187.854 451.605 189.41C451.846 190.105 452.086 190.801 452.334 191.517C453.418 193.783 453.418 193.783 457.352 195.289C457.352 198.259 457.352 201.229 457.352 204.289C453.352 203.289 453.352 203.289 452.087 201.295C451.737 200.44 451.388 199.584 451.027 198.703C450.444 197.307 450.444 197.307 449.85 195.883C449.458 194.903 449.067 193.923 448.664 192.914C448.261 191.942 447.858 190.97 447.443 189.969C445.985 186.432 444.561 182.919 443.352 179.289C442.692 178.959 442.032 178.629 441.352 178.289C441.352 177.299 441.352 176.309 441.352 175.289Z" fill="#111111"/>
<path d="M367.352 128.289C367.682 128.289 368.012 128.289 368.352 128.289C368.433 130.831 368.492 133.371 368.539 135.914C368.577 136.983 368.577 136.983 368.615 138.074C368.682 142.912 367.907 146.036 365.352 150.289C363.372 150.289 361.392 150.289 359.352 150.289C359.517 142.005 363.519 135.414 367.352 128.289Z" fill="#EFEFEF"/>
<path d="M210.352 479.289C214.227 481.039 214.227 481.039 215.352 483.289C215.52 485.164 215.52 485.164 215.539 487.289C215.553 487.99 215.567 488.691 215.582 489.414C215.352 491.289 215.352 491.289 213.352 493.289C210.227 492.914 210.227 492.914 207.352 492.289C207.022 491.299 206.692 490.309 206.352 489.289C205.753 489.619 205.155 489.949 204.539 490.289C202.352 491.289 202.352 491.289 199.352 491.289C197.587 488.201 197.352 487.056 197.352 483.289C198.342 483.289 199.332 483.289 200.352 483.289C200.352 484.279 200.352 485.269 200.352 486.289C203.817 485.794 203.817 485.794 207.352 485.289C207.682 486.279 208.012 487.269 208.352 488.289C210.367 489.022 210.367 489.022 212.352 489.289C211.857 487.928 211.857 487.928 211.352 486.539C210.352 483.289 210.352 483.289 210.352 479.289Z" fill="#1B1B1B"/>
<path d="M321.164 493.101C325.041 494.546 327.15 496.703 330.125 499.512C333.231 501.991 336.503 503.138 340.25 504.367C342.352 505.289 342.352 505.289 344.352 508.289C335.362 508.289 327.617 503.412 321.352 497.289C317.698 498.539 316.571 498.96 314.352 502.289C313.692 502.289 313.032 502.289 312.352 502.289C312.637 498.864 313.175 497.48 315.539 494.914C318.352 493.289 318.352 493.289 321.164 493.101Z" fill="#171717"/>
<path d="M135.352 434.289C137.664 434.414 137.664 434.414 140.352 435.289C144.531 440.663 144.071 447.759 144.352 454.289C143.032 454.619 141.712 454.949 140.352 455.289C140.152 453.825 140.152 453.825 139.949 452.332C139.773 451.06 139.596 449.787 139.414 448.476C139.24 447.212 139.066 445.947 138.887 444.644C138.448 441.306 138.448 441.306 137.352 438.289C136.692 437.959 136.032 437.629 135.352 437.289C135.352 436.299 135.352 435.309 135.352 434.289Z" fill="#151515"/>
<path d="M266.352 452.289C267.342 452.289 268.332 452.289 269.352 452.289C270.803 456.826 271.587 460.47 271.352 465.289C270.692 465.289 270.032 465.289 269.352 465.289C269.352 467.599 269.352 469.909 269.352 472.289C268.692 471.959 268.032 471.629 267.352 471.289C266.727 468.226 266.727 468.226 266.352 465.289C266.022 465.289 265.692 465.289 265.352 465.289C265.324 463.872 265.305 462.456 265.289 461.039C265.277 460.25 265.266 459.461 265.254 458.648C265.348 456.382 265.719 454.46 266.352 452.289Z" fill="#2C2C2C"/>
<path d="M435.352 220.289C436.012 220.289 436.672 220.289 437.352 220.289C439.233 223.482 441.077 226.695 442.914 229.914C443.447 230.818 443.98 231.721 444.529 232.652C448.387 239.472 448.387 239.472 448.191 243.937C447.914 244.713 447.637 245.489 447.352 246.289C445.077 243.797 444.006 241.46 443.039 238.289C441.439 233.129 439.042 228.481 436.559 223.695C435.352 221.289 435.352 221.289 435.352 220.289Z" fill="#EAEAEA"/>
<path d="M348.352 157.289C348.682 157.949 349.012 158.609 349.352 159.289C348.396 160.749 347.437 162.207 346.477 163.664C345.943 164.476 345.409 165.288 344.859 166.125C343.352 168.289 343.352 168.289 341.352 170.289C340.362 170.289 339.372 170.289 338.352 170.289C338.427 167.11 338.719 164.98 340.906 162.59C343.286 160.55 345.542 158.694 348.352 157.289Z" fill="#EEEEEE"/>
<path d="M94.3514 505.289C95.9433 508.473 94.6389 511.57 93.9139 514.914C93.6925 515.974 93.6925 515.974 93.4666 517.055C93.1009 518.801 92.7269 520.545 92.3514 522.289C88.9719 518.415 88.7961 515.575 88.9139 510.574C89.3514 508.289 89.3514 508.289 91.8514 506.164C93.0889 505.731 93.0889 505.731 94.3514 505.289Z" fill="#ECECEC"/>
<path d="M416.352 237.289C416.682 237.949 417.012 238.609 417.352 239.289C418.012 239.289 418.672 239.289 419.352 239.289C418.897 241.019 418.438 242.748 417.977 244.476C417.721 245.439 417.466 246.402 417.203 247.394C416.404 250.111 415.448 252.68 414.352 255.289C413.692 255.289 413.032 255.289 412.352 255.289C412.935 248.985 414.392 243.302 416.352 237.289Z" fill="#222222"/>
<path d="M388.352 77.289C389.342 77.619 390.332 77.949 391.352 78.289C390.692 81.919 390.032 85.549 389.352 89.289C388.032 88.959 386.712 88.629 385.352 88.289C385.659 86.6423 385.973 84.9966 386.289 83.3515C386.463 82.4349 386.637 81.5184 386.816 80.5741C387.352 78.289 387.352 78.289 388.352 77.289Z" fill="#262626"/>
<path d="M108.352 292.289C110.352 294.289 110.352 294.289 110.664 296.726C110.352 299.289 110.352 299.289 109.102 301.101C107.352 302.289 107.352 302.289 103.352 302.289C105.018 298.956 106.685 295.622 108.352 292.289Z" fill="#D8D8D8"/>
<path d="M463.352 163.289C463.682 163.289 464.012 163.289 464.352 163.289C465.334 167.342 465.433 171.128 465.352 175.289C463.352 175.289 463.352 175.289 461.727 174.164C459.795 171.53 460.14 169.47 460.352 166.289C461.342 166.619 462.332 166.949 463.352 167.289C463.352 165.969 463.352 164.649 463.352 163.289Z" fill="#2B2B2B"/>
<path d="M140.352 500.289C142.332 500.289 144.312 500.289 146.352 500.289C146.022 501.939 145.692 503.589 145.352 505.289C144.032 505.289 142.712 505.289 141.352 505.289C141.352 504.629 141.352 503.969 141.352 503.289C140.692 503.289 140.032 503.289 139.352 503.289C139.682 502.299 140.012 501.309 140.352 500.289Z" fill="#121212"/>
<path d="M367.352 124.289C368.342 124.619 369.332 124.949 370.352 125.289C369.692 125.949 369.032 126.609 368.352 127.289C367.317 129.337 366.385 131.417 365.449 133.512C364.352 135.289 364.352 135.289 361.352 136.289C362.67 131.674 364.565 128.19 367.352 124.289Z" fill="#1F1F1F"/>
<path d="M54.3516 402.289C57.9816 402.289 61.6116 402.289 65.3516 402.289C66.0116 403.609 66.6716 404.929 67.3516 406.289C63.6356 406.49 62.5795 406.441 59.3516 404.289C57.6961 403.904 56.0293 403.561 54.3516 403.289C54.3516 402.959 54.3516 402.629 54.3516 402.289Z" fill="#BDBDBD"/>
<path d="M435.352 220.289C436.012 220.289 436.672 220.289 437.352 220.289C439.662 224.909 441.972 229.529 444.352 234.289C443.362 234.784 443.362 234.784 442.352 235.289C441.182 232.978 440.016 230.665 438.852 228.351C438.518 227.692 438.184 227.033 437.84 226.353C435.352 221.402 435.352 221.402 435.352 220.289Z" fill="#D8D8D8"/>
<path d="M70.3516 403.289C73.3216 403.619 76.2916 403.949 79.3516 404.289C79.3516 404.949 79.3516 405.609 79.3516 406.289C77.0416 406.619 74.7316 406.949 72.3516 407.289C71.6916 405.969 71.0316 404.649 70.3516 403.289Z" fill="#E3E3E3"/>
<path d="M266.352 464.289C266.682 464.289 267.012 464.289 267.352 464.289C267.352 468.249 267.352 472.209 267.352 476.289C266.362 475.959 265.372 475.629 264.352 475.289C264.492 473.643 264.639 471.997 264.789 470.351C264.87 469.435 264.951 468.518 265.035 467.574C265.352 465.289 265.352 465.289 266.352 464.289Z" fill="#0A0A0A"/>
<path d="M256.352 472.289C257.282 474.895 257.501 475.931 256.414 478.539C255.888 479.405 255.888 479.405 255.352 480.289C254.362 480.289 253.372 480.289 252.352 480.289C252.352 478.969 252.352 477.649 252.352 476.289C253.012 476.289 253.672 476.289 254.352 476.289C255.012 474.969 255.672 473.649 256.352 472.289Z" fill="#0D0D0D"/>
<path d="M316.352 494.289C317.012 494.619 317.672 494.949 318.352 495.289C317.032 497.599 315.712 499.909 314.352 502.289C313.692 502.289 313.032 502.289 312.352 502.289C312.85 498.601 313.452 496.684 316.352 494.289Z" fill="#212121"/>
<path d="M423.352 208.289C425.352 210.289 425.352 210.289 425.547 212.234C425.482 214.253 425.417 216.271 425.352 218.289C424.362 217.629 423.372 216.969 422.352 216.289C422.682 213.649 423.012 211.009 423.352 208.289Z" fill="#252525"/>
<path d="M216.352 124.289C217.352 127.289 217.352 127.289 216.574 129.113C214.963 131.701 214.963 131.701 213.352 134.289C212.088 130.499 212.855 128.914 214.352 125.289C215.012 124.959 215.672 124.629 216.352 124.289Z" fill="#C7C7C7"/>
<path d="M357.352 155.289C359.002 155.289 360.652 155.289 362.352 155.289C360.977 157.789 360.977 157.789 359.352 160.289C358.692 160.289 358.032 160.289 357.352 160.289C357.352 158.639 357.352 156.989 357.352 155.289Z" fill="#DDDDDD"/>
</svg>
