<svg width="275" height="320" viewBox="0 0 275 320" fill="none" xmlns="http://www.w3.org/2000/svg">
<path d="M114.762 2.15282C117.213 3.86822 118.692 5.37319 120.262 7.90282C127.271 7.04969 134.048 5.37548 140.905 3.71923C160.489 -0.874377 184.982 -2.34323 203.594 5.96923C204.634 6.42968 204.634 6.42968 205.695 6.89943C212.861 10.1102 219.877 13.6006 226.854 17.1997C228.955 18.2803 231.062 19.3456 233.17 20.4106C248.13 28.0486 262.208 35.7595 268.438 52.2505C277.215 80.4944 274.946 107.643 267.148 135.612C266.514 137.898 265.899 140.189 265.286 142.481C261.443 156.542 256.134 169.65 248.45 182.09C247.937 182.931 247.424 183.771 246.896 184.636C236.029 202.171 222.732 218.985 201.895 224.533C199.379 225.05 196.861 225.491 194.325 225.903C193.392 226.064 192.459 226.225 191.498 226.391C182.774 227.874 174.024 229.211 165.27 230.508C160.505 231.219 155.776 231.974 151.059 232.958C129.923 237.249 105.262 236.569 84.2622 231.903C82.8833 231.605 82.8833 231.605 81.4766 231.301C63.6416 227.342 47.4948 221.674 33.2622 209.903C31.9706 208.855 31.9706 208.855 30.6528 207.786C13.2804 192.993 3.23391 170.104 0.539541 147.676C-0.295818 136.311 -0.458237 125.027 2.2622 113.903C2.43364 113.013 2.60509 112.124 2.78173 111.208C7.70094 87.9126 22.544 66.8917 36.2622 47.9028C36.6821 47.3192 37.102 46.7356 37.5347 46.1343C49.7991 29.2359 63.9041 18.1991 82.1372 8.46532C82.9093 8.05209 83.6815 7.63887 84.477 7.21312C94.1051 2.21848 104.018 -1.68433 114.762 2.15282Z" fill="#FDFDFD"/>
<path d="M114.762 2.15282C117.213 3.86822 118.692 5.37319 120.262 7.90282C127.271 7.04969 134.048 5.37548 140.905 3.71923C160.489 -0.874377 184.982 -2.34323 203.594 5.96923C204.634 6.42968 204.634 6.42968 205.695 6.89943C212.861 10.1102 219.877 13.6006 226.854 17.1997C228.955 18.2803 231.062 19.3456 233.17 20.4106C248.13 28.0486 262.208 35.7595 268.438 52.2505C277.215 80.4944 274.946 107.643 267.148 135.612C266.514 137.898 265.899 140.189 265.286 142.481C261.443 156.542 256.134 169.65 248.45 182.09C247.937 182.931 247.424 183.771 246.896 184.636C236.029 202.171 222.732 218.985 201.895 224.533C199.379 225.05 196.861 225.491 194.325 225.903C193.392 226.064 192.459 226.225 191.498 226.391C182.774 227.874 174.024 229.211 165.27 230.508C160.505 231.219 155.776 231.974 151.059 232.958C129.923 237.249 105.262 236.569 84.2622 231.903C82.8833 231.605 82.8833 231.605 81.4766 231.301C63.6416 227.342 47.4948 221.674 33.2622 209.903C31.9706 208.855 31.9706 208.855 30.6528 207.786C13.2804 192.993 3.23391 170.104 0.539541 147.676C-0.295818 136.311 -0.458237 125.027 2.2622 113.903C2.43364 113.013 2.60509 112.124 2.78173 111.208C7.70094 87.9126 22.544 66.8917 36.2622 47.9028C36.6821 47.3192 37.102 46.7356 37.5347 46.1343C49.7991 29.2359 63.9041 18.1991 82.1372 8.46532C82.9093 8.05209 83.6815 7.63887 84.477 7.21312C94.1051 2.21848 104.018 -1.68433 114.762 2.15282ZM63.2622 30.9028C62.0054 31.8967 62.0054 31.8967 60.7231 32.9106C37.1356 52.6043 13.8604 91.0578 10.4365 121.802C8.26522 147.97 13.8616 173.098 30.9827 193.567C46.6474 211.346 68.6878 218.447 91.2622 222.903C92.177 223.086 93.0919 223.269 94.0344 223.458C102.152 224.957 110.202 225.508 118.45 225.59C119.184 225.598 119.919 225.607 120.676 225.615C137.073 225.682 153.104 223.237 169.262 220.653C171.136 220.356 171.136 220.356 173.048 220.053C176.664 219.472 180.276 218.872 183.887 218.262C184.958 218.086 186.029 217.91 187.132 217.728C208.473 213.985 221.164 205.272 233.481 187.946C243.759 173.18 250.203 157.974 255.325 140.778C255.543 140.05 255.76 139.323 255.985 138.574C262.595 116.449 265.569 98.2329 262.512 75.0903C262.353 73.7499 262.194 72.4094 262.036 71.0688C260.563 59.657 258.209 49.6978 249.262 41.9028C241.929 36.5832 233.998 32.7164 225.788 28.9819C220.64 26.6211 215.726 23.986 210.825 21.1528C198.522 14.0915 187.107 10.5013 172.825 10.5903C171.393 10.5977 171.393 10.5977 169.932 10.6052C160.509 10.7576 151.477 11.9902 142.262 13.9028C141.328 14.0957 140.393 14.2886 139.43 14.4873C136.514 15.1028 133.606 15.7454 130.7 16.4028C129.788 16.6042 128.877 16.8055 127.938 17.0129C127.095 17.2138 126.252 17.4146 125.383 17.6216C124.635 17.7962 123.887 17.9709 123.115 18.1509C120.89 18.8514 120.89 18.8514 119.262 21.9028C117.424 21.8347 115.585 21.7662 113.747 21.6958C107.288 22.234 100.545 25.4442 95.7622 29.7778C93.2622 31.9028 93.2622 31.9028 90.8872 31.7153C90.3509 31.4472 89.8147 31.1791 89.2622 30.9028C89.1461 28.001 89.1312 26.5121 90.2622 23.9028C96.4024 18.5702 104.777 15.8096 112.262 12.9028C111.767 11.4178 111.767 11.4178 111.262 9.90282C94.0799 8.58111 75.9515 20.395 63.2622 30.9028Z" fill="#070707"/>
<path d="M80.2621 244.903C82.6164 245.131 83.9536 245.663 85.8219 247.115C87.7293 249.483 87.9281 251.328 88.3676 254.329C88.5421 255.425 88.7166 256.521 88.8964 257.65C89.1702 259.415 89.1702 259.415 89.4496 261.215C92.3169 278.07 97.8548 293.484 105.18 308.896C106.8 312.385 107.612 315.047 107.262 318.903C105.942 319.233 104.622 319.563 103.262 319.903C99.2548 315.299 96.2166 311.009 93.9271 305.31C92.6195 302.153 91.3227 299.668 89.2621 296.903C84.8455 295.247 80.9101 295.525 76.2621 295.903C74.3245 295.895 72.3869 295.876 70.4496 295.84C69.0537 295.856 67.6578 295.874 66.2621 295.903C65.8496 297.037 65.4371 298.172 65.0121 299.34C63.2621 302.903 63.2621 302.903 61.0746 303.84C60.4765 303.861 59.8783 303.882 59.2621 303.903C57.7771 301.428 57.7771 301.428 56.2621 298.903C55.575 299.818 54.8879 300.733 54.1801 301.676C53.2701 302.877 52.36 304.077 51.4496 305.278C50.9978 305.881 50.546 306.484 50.0804 307.106C47.95 309.905 46.2139 311.935 43.2621 313.903C40.5746 313.528 40.5746 313.528 38.2621 312.903C37.9002 308.431 37.9002 308.431 39.4857 306.117C40.0565 305.549 40.6272 304.981 41.2152 304.395C46.1671 299.077 50.0346 293.08 54.0121 287.028C54.8084 285.824 55.6048 284.621 56.4012 283.417C60.9131 276.579 65.3536 269.699 69.6371 262.715C70.2689 261.686 70.2689 261.686 70.9135 260.636C73.2829 256.708 75.3959 252.722 77.3544 248.573C78.2621 246.903 78.2621 246.903 80.2621 244.903Z" fill="#080808"/>
<path d="M144.762 254.59C146 254.745 146 254.745 147.262 254.903C149.983 258.985 149.644 262.164 149.637 266.965C149.639 268.288 149.639 268.288 149.641 269.637C149.517 277.505 148.099 284.782 146.137 292.375C145.142 295.782 145.142 295.782 145.262 298.903C146.262 298.214 146.262 298.214 147.282 297.512C158.367 290.132 167.754 286.512 181.262 287.903C183.282 288.508 185.29 289.157 187.262 289.903C187.887 292.278 187.887 292.278 188.262 294.903C185.522 297.643 183.968 297.069 180.137 297.09C167.08 297.879 156.381 304.21 146.227 312.083C142.806 314.183 140.246 314.678 136.262 314.903C134.262 313.965 134.262 313.965 133.262 311.903C133.727 306.063 135.031 300.75 136.7 295.153C140.026 283.547 142.707 271.996 140.637 259.903C140.513 258.913 140.39 257.923 140.262 256.903C142.262 254.903 142.262 254.903 144.762 254.59Z" fill="#080808"/>
<path d="M161.262 136.903C162.582 136.903 163.902 136.903 165.262 136.903C168.307 141.47 167.987 145.555 167.262 150.903C163.92 161.693 155.802 169.833 148.262 177.903C147.754 178.455 147.246 179.007 146.722 179.576C139.325 187.563 133.853 192.959 122.637 193.403C117.341 193.207 114.175 192.72 110.262 188.903C103.368 181.189 101.025 174.373 100.95 164.215C100.944 163.478 100.938 162.741 100.933 161.981C100.988 157.862 101.428 154.607 103.262 150.903C107.137 151.778 107.137 151.778 108.262 152.903C108.423 155.067 108.54 157.235 108.637 159.403C109.175 167.666 110.815 173.915 115.262 180.903C115.262 181.563 115.262 182.223 115.262 182.903C117.99 183.812 119.809 184.095 122.637 184.153C123.387 184.179 124.138 184.204 124.911 184.231C130.561 183.442 134.502 179.097 138.512 175.34C139.081 174.809 139.651 174.277 140.237 173.729C153.692 161.75 153.692 161.75 160.59 145.864C160.58 143.926 160.514 141.988 160.375 140.055C160.319 138.99 160.319 138.99 160.262 137.903C160.592 137.573 160.922 137.243 161.262 136.903Z" fill="#090909"/>
<path d="M80.2622 259.903C80.5922 259.903 80.9222 259.903 81.2622 259.903C81.3781 260.579 81.4941 261.254 81.6135 261.951C82.1407 265.018 82.6702 268.086 83.1997 271.153C83.3821 272.216 83.5645 273.28 83.7524 274.375C83.9297 275.4 84.1069 276.425 84.2896 277.481C84.5331 278.895 84.5331 278.895 84.7815 280.337C85.1947 282.542 85.7181 284.726 86.2622 286.903C79.3322 286.573 72.4022 286.243 65.2622 285.903C66.6098 282.534 67.6616 280.043 69.5396 277.09C69.9707 276.407 70.4019 275.724 70.8462 275.02C71.2929 274.321 71.7395 273.623 72.1997 272.903C73.0842 271.507 73.9683 270.111 74.8521 268.715C75.2683 268.062 75.6845 267.408 76.1133 266.735C77.1116 265.143 78.0678 263.525 79.0161 261.903C79.4273 261.243 79.8385 260.583 80.2622 259.903Z" fill="#F1F1F1"/>
<path d="M124.762 294.653C127.262 294.903 127.262 294.903 129.262 296.903C129.528 299.215 129.528 299.215 129.512 301.903C129.517 302.79 129.523 303.677 129.528 304.59C129.262 306.903 129.262 306.903 127.262 308.903C125.325 308.903 125.325 308.903 123.262 307.903C120.922 304.226 119.655 301.277 120.262 296.903C122.262 294.903 122.262 294.903 124.762 294.653Z" fill="#0A0A0A"/>
<path d="M163.262 80.9028C167.494 81.279 170.071 82.0794 173.262 84.9028C172.932 86.2228 172.602 87.5428 172.262 88.9028C169.054 89.9112 167.621 90.0465 164.45 88.7778C162.262 86.9028 162.262 86.9028 161.887 84.2778C162.262 81.9028 162.262 81.9028 163.262 80.9028Z" fill="#121212"/>
<path d="M85.2623 89.9028C87.1998 90.1528 87.1998 90.1528 89.2623 90.9028C91.5524 94.338 91.4407 95.8882 91.2623 99.9028C89.6123 100.233 87.9623 100.563 86.2623 100.903C83.1969 95.5077 83.1969 95.5077 83.5123 92.5903C84.2623 90.9028 84.2623 90.9028 85.2623 89.9028Z" fill="#0E0E0E"/>
</svg>
