<svg width="477" height="461" viewBox="0 0 477 461" fill="none" xmlns="http://www.w3.org/2000/svg">
<path d="M343.968 258.648C346.687 259.624 347.627 260.273 349.405 262.523C350.859 267.083 351.6 271.81 352.405 276.523C352.719 278.311 352.719 278.311 353.038 280.136C357.116 308.249 356.743 338.732 339.241 362.456C334.84 367.566 329.897 371.743 324.472 375.734C322.348 377.572 321.555 379.009 320.405 381.523C317.697 382.877 315.396 382.588 312.405 382.523C312.735 383.513 313.065 384.503 313.405 385.523C313.625 387.798 313.796 390.077 313.941 392.359C313.984 393.034 314.027 393.709 314.071 394.405C314.161 395.839 314.249 397.273 314.335 398.707C314.465 400.855 314.604 403.003 314.743 405.152C316.263 429.236 316.263 429.236 313.405 433.523C309.78 433.71 309.78 433.71 306.405 433.523C306.386 434.113 306.366 434.703 306.345 435.311C306.25 437.986 306.14 440.661 306.03 443.335C305.999 444.264 305.969 445.193 305.937 446.15C305.879 447.489 305.879 447.489 305.819 448.855C305.788 449.677 305.757 450.499 305.724 451.346C305.405 453.523 305.405 453.523 303.405 456.523C300.405 456.898 300.405 456.898 297.405 456.523C296.745 455.533 296.085 454.543 295.405 453.523C289.265 452.564 282.926 453.529 276.843 454.523C271.066 455.415 265.427 455.776 259.593 455.835C258.817 455.853 258.041 455.87 257.241 455.888C250.309 455.882 244.207 454.39 238.405 450.523C236.75 450.138 235.083 449.795 233.405 449.523C232.378 444.216 232.623 440.222 233.78 434.96C235.344 427.474 236.059 420.172 236.405 412.523C235.085 412.193 233.765 411.863 232.405 411.523C233.28 407.648 233.28 407.648 234.405 406.523C237.843 406.773 237.843 406.773 241.405 407.523C243.541 410.726 243.637 411.542 243.53 415.21C243.512 416.018 243.494 416.827 243.476 417.659C243.453 418.274 243.429 418.889 243.405 419.523C244.725 419.523 246.045 419.523 247.405 419.523C247.405 428.103 247.405 436.683 247.405 445.523C257.814 445.675 267.466 445.558 277.737 443.968C283.959 443.213 290.147 443.363 296.405 443.523C296.447 442.285 296.488 441.048 296.53 439.773C296.955 435.562 298.2 433.041 300.425 429.476C304.533 421.489 304.207 413.568 304.023 404.747C303.967 402 303.961 399.255 303.962 396.507C303.947 394.752 303.93 392.997 303.909 391.241C303.906 390.425 303.903 389.608 303.899 388.767C303.788 384.358 303.438 381.776 300.405 378.523C300.075 377.533 299.745 376.543 299.405 375.523C275.516 366.213 245.371 368.069 220.072 368.317C216.477 368.348 212.882 368.361 209.286 368.376C202.326 368.408 195.366 368.458 188.405 368.523C188.447 369.306 188.488 370.09 188.53 370.898C188.405 373.523 188.405 373.523 186.405 375.523C184.241 375.499 184.241 375.499 181.78 375.148C180.963 375.037 180.146 374.926 179.304 374.812C178.677 374.716 178.051 374.621 177.405 374.523C177.271 375.399 177.137 376.276 176.999 377.179C175.69 384.55 173.436 391.531 170.14 398.241C162.639 413.938 162.346 427.372 163.405 444.523C164.372 444.124 165.339 443.726 166.335 443.316C179.435 437.965 191.169 434.358 205.468 434.273C206.776 434.242 206.776 434.242 208.11 434.21C213.319 434.179 216.894 434.623 221.405 437.523C223.405 439.523 223.405 439.523 223.593 442.585C223.405 445.523 223.405 445.523 222.405 446.523C219.65 446.544 216.91 446.514 214.155 446.46C202.414 446.384 191.891 448.255 180.593 451.398C179.267 451.764 179.267 451.764 177.914 452.138C171.19 454.089 165.237 456.635 159.405 460.523C156.843 460.773 156.843 460.773 154.405 460.523C151.302 457.42 152.039 453.654 151.999 449.484C151.988 448.57 151.976 447.656 151.965 446.715C151.946 444.77 151.933 442.824 151.925 440.879C151.906 437.957 151.844 435.038 151.78 432.116C151.641 419.895 153.311 410.593 158.405 399.523C159.266 397.401 160.118 395.276 160.96 393.148C161.731 391.272 162.504 389.397 163.28 387.523C163.884 386.057 163.884 386.057 164.499 384.562C165.466 382.214 166.434 379.868 167.405 377.523C166.912 377.07 166.418 376.617 165.91 376.15C164.405 374.523 164.405 374.523 164.331 372.48C164.689 370.494 165.047 368.508 165.405 366.523C164.818 366.274 164.23 366.025 163.624 365.769C157.266 362.198 153.244 354.54 151.069 347.8C148.601 335.615 149.902 324.677 155.405 313.523C156.005 312.259 156.604 310.994 157.202 309.73C161.842 300.094 167.08 290.792 172.405 281.523C174.055 281.853 175.705 282.183 177.405 282.523C177.803 289.481 176.852 293.891 173.78 300.085C173.046 301.668 172.314 303.253 171.585 304.839C171.035 306.019 171.035 306.019 170.475 307.222C164.667 319.716 159.959 332.63 164.331 346.448C165.509 348.73 166.752 350.563 168.405 352.523C168.909 353.149 169.413 353.776 169.933 354.421C171.587 356.376 171.587 356.376 174.405 358.523C176.304 358.347 176.304 358.347 178.405 357.523C179.368 357.213 180.331 356.904 181.323 356.585C183.491 355.881 185.658 355.172 187.823 354.46C196.436 352.206 205.187 352.363 214.03 352.355C215.331 352.351 216.632 352.348 217.973 352.345C220.719 352.339 223.466 352.337 226.213 352.337C228.994 352.337 231.774 352.33 234.555 352.317C263.956 352.174 263.956 352.174 278.405 354.523C279.398 354.669 280.391 354.815 281.414 354.965C293.119 356.76 303.612 359.654 314.405 364.523C316.069 365.198 317.734 365.868 319.405 366.523C339.098 345.83 343.116 322.513 342.501 295.001C342.24 285.503 341.868 276.012 341.405 266.523C339.755 266.193 338.105 265.863 336.405 265.523C336.775 262.846 337.254 261.679 339.155 259.71C341.405 258.523 341.405 258.523 343.968 258.648Z" fill="#060606"/>
<path d="M227.132 3.26083C230.88 5.34106 234.161 7.72772 237.405 10.5226C237.978 10.9892 238.55 11.4558 239.14 11.9366C245.46 17.5904 249.337 25.1979 253.405 32.5226C253.796 33.224 254.186 33.9254 254.589 34.648C265.639 54.6791 275.833 75.5647 282.405 97.5226C282.746 98.644 282.746 98.644 283.094 99.7882C286.784 112.332 288.502 125.218 290.218 138.148C290.329 138.964 290.44 139.78 290.555 140.621C291.789 149.788 292.608 158.853 292.667 168.108C292.675 168.923 292.684 169.738 292.693 170.577C292.654 176.273 292.654 176.273 290.405 178.523C285.85 177.967 285.85 177.967 284.405 176.523C284.176 174.827 284.007 173.122 283.862 171.417C283.71 169.751 283.71 169.751 283.555 168.051C283.444 166.824 283.333 165.598 283.218 164.335C282.014 151.888 280.307 139.559 278.343 127.21C278.213 126.387 278.083 125.563 277.95 124.715C277.574 122.341 277.192 119.969 276.808 117.597C276.696 116.899 276.585 116.201 276.47 115.482C275.511 106.75 275.511 106.75 271.28 99.7726C270.662 99.3601 270.043 98.9476 269.405 98.5226C269.405 97.2026 269.405 95.8826 269.405 94.5226C261.307 94.7966 252.64 95.1145 246.69 101.308C244.142 105.7 244.762 110.628 245.405 115.523C247.681 122.397 250.883 127.015 257.272 130.558C260.199 131.882 263.134 132.315 266.284 132.862C268.768 133.635 269.845 134.454 271.405 136.523C271.405 139.523 271.405 139.523 270.405 142.523C267.542 145.126 265.562 145.504 261.718 145.96C254.335 145.599 248.248 142.866 243.093 137.585C236.037 128.811 233.492 119.202 233.929 108.042C235.031 99.9034 238.79 94.0705 245.175 88.9913C252.257 84.3279 259.103 83.191 267.405 82.5226C253.083 40.7022 253.083 40.7022 224.03 10.0851C218.265 7.81044 212.85 7.3399 206.937 9.37021C196.732 14.1333 185.234 21.4188 180.655 32.1476C176.559 45.4345 177.166 59.0961 177.28 72.8351C177.29 74.9438 177.299 77.0525 177.308 79.1612C177.329 84.2818 177.364 89.4021 177.405 94.5226C178.237 94.101 179.068 93.6795 179.925 93.2452C181.011 92.6974 182.098 92.1495 183.218 91.5851C184.297 91.0398 185.376 90.4945 186.487 89.9327C193.2 86.6886 200.782 86.3113 208.015 88.2061C215.588 91.3531 221.305 95.9617 224.628 103.534C227.641 111.241 229.034 119.191 226.565 127.273C223.162 134.791 217.914 140.424 210.155 143.46C204.741 144.976 198.965 145.343 193.405 144.523C191.077 143.155 191.077 143.155 189.405 141.523C188.968 139.023 188.968 139.023 189.405 136.523C190.604 134.894 190.604 134.894 192.405 133.523C194.858 133.151 194.858 133.151 197.655 133.085C203.064 132.72 206.063 131.78 210.405 128.523C213.413 124.534 213.812 121.531 213.78 116.585C213.788 115.4 213.796 114.216 213.804 112.995C213.372 109.231 212.217 106.816 210.405 103.523C210.405 102.863 210.405 102.203 210.405 101.523C203.387 98.6773 197.556 96.8971 190.253 99.7569C183.63 102.718 183.63 102.718 178.405 107.523C178.001 109.949 178.001 109.949 178.155 112.71C178.194 114.336 178.194 114.336 178.233 115.995C178.407 119.551 178.65 123.097 178.905 126.648C181.758 168.993 181.758 168.993 173.405 181.523C171.755 181.193 170.105 180.863 168.405 180.523C167.112 176.127 167.932 173.779 169.405 169.523C170.383 163.57 170.554 157.608 170.538 151.589C170.539 150.763 170.541 149.937 170.542 149.086C170.544 146.419 170.538 143.752 170.53 141.085C170.529 140.164 170.528 139.242 170.528 138.293C170.516 127.775 170.416 117.281 169.905 106.773C169.376 95.62 169.262 84.4729 169.228 73.3095C169.221 71.3132 169.211 69.3168 169.197 67.3205C168.966 31.3196 168.966 31.3196 180.097 17.8194C184.969 12.9715 190.633 9.2148 196.405 5.52255C197.728 4.66017 197.728 4.66017 199.077 3.78036C207.964 -1.36011 217.922 -0.986394 227.132 3.26083Z" fill="#080808"/>
<path d="M128.718 176.273C129.897 176.279 131.076 176.285 132.29 176.291C155.69 176.557 155.69 176.557 162.405 181.523C162.843 184.085 162.843 184.085 162.405 186.523C160.405 188.523 160.405 188.523 158.584 188.736C157.846 188.72 157.109 188.703 156.349 188.686C155.509 188.673 154.67 188.66 153.805 188.647C152.891 188.624 151.976 188.601 151.034 188.577C149.076 188.552 147.119 188.527 145.161 188.503C142.092 188.454 139.023 188.399 135.955 188.331C117.89 187.955 102.121 190.283 85.0809 196.257C81.4049 197.523 77.7031 198.639 73.9676 199.71C66.0213 202.024 58.0894 204.387 50.1749 206.807C48.7647 207.237 47.3532 207.661 45.9403 208.082C30.2231 212.281 30.2231 212.281 18.4051 222.523C16.7953 226.31 16.1425 230.043 15.5301 234.085C14.3978 241.323 12.7003 248.932 9.40512 255.523C8.89112 259.378 9.00326 260.978 11.3426 264.148C20.7761 271.463 30.3879 271.145 41.8426 271.21C43.7786 271.236 45.7146 271.265 47.6505 271.294C54.169 271.388 60.6876 271.446 67.2064 271.503C71.2759 271.539 75.3454 271.579 79.4149 271.618C80.7339 271.631 80.7339 271.631 82.0795 271.644C89.4561 271.716 96.8327 271.794 104.209 271.874C109.771 271.934 115.332 271.982 120.894 272.022C124.427 272.049 127.96 272.084 131.492 272.12C133.147 272.136 134.802 272.148 136.457 272.156C159.52 272.28 159.52 272.28 164.177 275.9C166.053 278.379 165.666 280.518 165.405 283.523C163.618 285.31 160.968 284.65 158.554 284.652C157.296 284.655 156.039 284.658 154.744 284.662C153.351 284.66 151.958 284.658 150.565 284.655C149.127 284.656 147.688 284.657 146.25 284.658C143.211 284.66 140.172 284.658 137.132 284.653C133.319 284.647 129.506 284.651 125.693 284.656C107.572 284.68 89.5092 284.383 71.4051 283.523C69.7019 283.448 67.9987 283.374 66.2955 283.301C62.5282 283.138 58.7624 282.954 54.9967 282.757C53.5447 282.683 52.0926 282.614 50.6402 282.548C42.3961 282.176 34.3095 281.505 26.1707 280.101C25.4749 279.982 24.779 279.863 24.0621 279.741C15.6364 278.18 8.46086 274.578 2.40512 268.523C-0.814252 263.401 -0.267849 256.62 0.975437 250.898C2.06734 247.128 3.36646 243.609 4.96762 240.023C6.17188 237.09 6.79731 234.786 7.34262 231.71C9.26513 221.373 12.7346 214.822 21.2801 208.585C33.363 200.898 48.3967 196.879 61.7933 192.027C64.9019 190.899 68.007 189.762 71.1122 188.624C90.1142 181.705 108.303 176.105 128.718 176.273Z" fill="#070707"/>
<path d="M299.405 173.523C300.241 173.739 300.241 173.739 301.093 173.96C301.856 174.146 302.619 174.331 303.405 174.523C304.23 174.729 305.055 174.935 305.905 175.148C308.3 175.673 308.3 175.673 310.18 175.063C327.912 170.756 349.214 175.077 366.405 179.523C368.373 180.01 370.342 180.496 372.312 180.98C376.287 181.961 380.255 182.964 384.222 183.98C388.571 185.081 392.931 186.111 397.308 187.097C398.461 187.357 399.614 187.616 400.802 187.884C403.005 188.376 405.209 188.863 407.415 189.343C430.113 194.423 445.21 205.11 458.982 223.63C460.473 225.613 462.004 227.56 463.542 229.507C464.56 230.824 465.577 232.142 466.593 233.46C467.316 234.363 467.316 234.363 468.054 235.285C471.162 239.404 472.132 242.199 471.405 247.523C467.807 251.429 464.538 252.332 459.36 252.647C443.867 253.167 428.741 251.595 413.405 249.523C412.843 247.585 412.843 247.585 412.405 245.523C413.405 244.523 413.405 244.523 415.31 244.402C416.143 244.404 416.975 244.407 417.833 244.409C418.774 244.409 419.715 244.409 420.684 244.409C421.707 244.414 422.73 244.42 423.784 244.425C424.826 244.426 425.868 244.428 426.941 244.429C430.283 244.435 433.626 244.447 436.968 244.46C439.228 244.465 441.487 244.47 443.747 244.474C449.3 244.485 454.853 244.502 460.405 244.523C439.72 216.521 424.536 204.649 390.53 196.46C386.303 195.432 382.077 194.397 377.851 193.362C376.834 193.115 375.817 192.868 374.769 192.613C369.473 191.316 364.241 189.921 359.022 188.339C343.976 183.983 329.366 183.103 313.78 183.335C311.983 183.35 310.187 183.364 308.39 183.376C304.061 183.409 299.733 183.46 295.405 183.523C295.735 181.873 296.065 180.223 296.405 178.523C297.065 178.523 297.725 178.523 298.405 178.523C298.735 176.873 299.065 175.223 299.405 173.523Z" fill="#070707"/>
<path d="M392.405 139.523C393.405 140.523 393.405 140.523 393.968 142.773C393.405 145.523 393.405 145.523 391.691 146.894C390.263 147.764 388.816 148.603 387.351 149.409C385.26 150.493 385.26 150.493 383.405 152.523C384.104 152.777 384.803 153.03 385.523 153.292C386.888 153.808 386.888 153.808 388.28 154.335C389.185 154.672 390.09 155.008 391.023 155.355C393.405 156.523 393.405 156.523 395.405 159.523C395.844 158.942 396.282 158.362 396.734 157.765C401.877 151.429 407.504 146.946 415.405 144.523C418.773 144.874 418.773 144.874 421.405 145.523C421.9 147.998 421.9 147.998 422.405 150.523C421.669 150.898 420.933 151.273 420.175 151.659C412.488 155.589 412.488 155.589 406.405 161.523C405.533 164.2 405.533 164.2 405.405 166.523C406.968 166.55 408.53 166.569 410.093 166.585C410.963 166.597 411.833 166.608 412.73 166.62C418.117 166.53 418.117 166.53 422.32 163.483C425.551 158.599 428.251 153.965 430.405 148.523C431.065 147.863 431.725 147.203 432.405 146.523C436.961 147.078 436.961 147.078 438.405 148.523C438.641 154.052 438.641 154.052 437.405 156.523C436.745 156.523 436.085 156.523 435.405 156.523C434.745 159.163 434.085 161.803 433.405 164.523C435.385 163.863 437.365 163.203 439.405 162.523C440.065 158.563 440.725 154.603 441.405 150.523C446.405 149.523 446.405 149.523 448.202 150.569C449.925 153.365 449.731 155.512 449.655 158.773C449.63 159.926 449.604 161.08 449.577 162.269C449.393 165.76 449.044 169.088 448.405 172.523C446.92 173.018 446.92 173.018 445.405 173.523C445.034 174.76 445.034 174.76 444.655 176.023C442.89 180.967 440.135 184.831 436.405 188.523C433.03 189.648 433.03 189.648 430.405 189.523C429.405 188.523 429.405 188.523 429.03 185.085C429.051 179.548 431.71 175.22 434.405 170.523C432.755 170.523 431.105 170.523 429.405 170.523C429.224 171.114 429.042 171.706 428.855 172.316C425.873 181.69 425.873 181.69 423.405 184.523C420.343 184.96 420.343 184.96 417.405 184.523C414.643 181.76 414.827 179.315 414.405 175.523C413.415 176.018 413.415 176.018 412.405 176.523C408.134 177.139 404.09 177.492 400.261 175.288C397.447 172.895 395.464 170.61 393.405 167.523C392.931 167.997 392.457 168.471 391.968 168.96C388.374 171.151 384.605 171.693 380.405 171.523C379.745 170.863 379.085 170.203 378.405 169.523C378.78 167.398 378.78 167.398 379.405 165.523C380.54 165.254 381.674 164.986 382.843 164.71C384.019 164.318 385.194 163.926 386.405 163.523C386.735 162.533 387.065 161.543 387.405 160.523C386.189 160.296 384.972 160.069 383.718 159.835C379.428 158.744 377.013 157.224 374.405 153.523C374.218 150.523 374.218 150.523 375.405 147.523C380.073 142.855 385.48 138.731 392.405 139.523Z" fill="#090909"/>
<path d="M468.405 160.523C471.664 164.792 472.545 168.615 472.53 173.898C472.534 175.301 472.534 175.301 472.538 176.734C472.41 179.43 472.007 181.895 471.405 184.523C473.055 184.853 474.705 185.183 476.405 185.523C476.405 187.173 476.405 188.823 476.405 190.523C475.147 190.853 473.889 191.183 472.593 191.523C469.927 192.493 468.713 193.008 467.241 195.468C466.531 197.471 465.961 199.473 465.405 201.523C464.405 202.523 464.405 202.523 461.468 202.71C458.405 202.523 458.405 202.523 456.405 200.523C455.935 194.505 456.942 189.803 458.905 184.148C460.686 179.434 460.686 179.434 461.405 174.523C461.077 175.068 460.748 175.613 460.409 176.175C456.447 182.456 451.778 187.426 446.405 192.523C445.611 193.4 445.611 193.4 444.8 194.296C444.34 194.701 443.879 195.106 443.405 195.523C438.984 195.102 438.984 195.102 437.405 193.523C436.987 191.366 436.987 191.366 437.405 188.523C439.237 186.162 441.007 184.13 443.093 182.023C443.623 181.467 444.154 180.911 444.7 180.339C447.165 177.769 449.657 175.29 452.276 172.874C454.539 170.375 454.921 169.653 454.78 166.398C454.987 165.119 455.193 163.84 455.405 162.523C459.823 159.664 463.393 158.7 468.405 160.523Z" fill="#080808"/>
<path d="M361.405 132.523C363.593 132.148 363.593 132.148 366.405 132.523C371.005 136.984 372.209 140.295 372.655 146.585C373.117 152.026 373.117 152.026 374.077 157.394C374.185 158.096 374.294 158.799 374.405 159.523C373.745 160.183 373.085 160.843 372.405 161.523C371.858 162.837 371.361 164.174 370.905 165.523C369.978 168.265 369.499 169.429 367.405 171.523C363.78 171.148 363.78 171.148 360.405 170.523C360.405 167.553 360.405 164.583 360.405 161.523C359.663 161.523 358.92 161.523 358.155 161.523C355.905 161.523 353.655 161.523 351.405 161.523C350.745 162.183 350.085 162.843 349.405 163.523C345.87 162.987 345.87 162.987 344.405 161.523C343.373 154.594 346.386 150.027 350.405 144.523C353.876 140.586 353.876 140.586 357.53 140.148C360.405 140.523 360.405 140.523 362.405 142.523C362.249 141.968 362.093 141.414 361.933 140.843C361.641 139.756 361.641 139.756 361.343 138.648C361.146 137.928 360.948 137.209 360.745 136.468C360.405 134.523 360.405 134.523 361.405 132.523Z" fill="#070707"/>
<path d="M331.843 133.335C334.405 133.523 334.405 133.523 336.405 135.523C336.636 138.031 336.737 140.389 336.718 142.898C336.713 143.97 336.713 143.97 336.707 145.065C336.539 153.422 335.231 161.528 330.405 168.523C326.862 170.885 324.865 171.134 320.698 171.019C317.181 170.258 315.599 168.581 313.491 165.745C311.579 161.832 311.423 157.823 311.405 153.523C312.725 153.193 314.045 152.863 315.405 152.523C316.642 154.053 317.879 155.582 319.116 157.112C320.372 158.655 320.372 158.655 322.405 159.523C324.521 152.171 326.244 144.795 327.757 137.296C328.625 133.583 328.625 133.583 331.843 133.335Z" fill="#070707"/>
<path d="M361.405 146.523C361.735 146.523 362.065 146.523 362.405 146.523C362.53 152.273 362.53 152.273 361.405 154.523C359.755 154.523 358.105 154.523 356.405 154.523C357.213 153.187 358.027 151.854 358.843 150.523C359.295 149.78 359.748 149.038 360.214 148.273C360.607 147.695 361 147.118 361.405 146.523Z" fill="#E6E6E6"/>
</svg>
