<svg width="276" height="233" viewBox="0 0 276 233" fill="none" xmlns="http://www.w3.org/2000/svg">
<path d="M11 0C15 0 15 0 17.0703 2.04688C17.7484 2.93891 18.4264 3.83094 19.125 4.75C19.8082 5.63172 20.4914 6.51344 21.1953 7.42188C24.595 12.2785 25.8464 16.0257 25 22C23.8632 25.7515 22.492 29.3765 21 33C22.0312 32.9175 23.0625 32.835 24.125 32.75C29.5138 33.0977 32.1626 35.0446 35.8242 38.9414C37.0285 40.3123 38.2173 41.697 39.3867 43.0977C40.9529 45.0017 40.9529 45.0017 42.6445 46.6211C45.0139 49.0315 45.2355 51.0351 45.375 54.3125C45.1822 66.4793 38.8201 75.2756 31 84C26.1554 88.9206 26.1554 88.9206 23.793 95.1133C24.0332 97.2591 24.0332 97.2591 25 100C34.1933 102.483 43.3234 102.114 52.7458 101.808C60.0799 101.586 66.6734 101.683 73.7578 103.934C85.5444 107.44 97.9862 106.91 110.188 107.188C113.958 107.289 117.728 107.395 121.498 107.504C123.828 107.57 126.157 107.63 128.487 107.684C138.045 107.926 147.551 108.497 157 110C155.661 106.396 154.036 103.257 152 100C147.235 92.3758 146.648 86.8912 147 78C147.03 77.1982 147.059 76.3964 147.09 75.5703C147.466 70.4107 149.005 66.3078 151.027 61.5742C152.32 58.1541 152.865 54.7794 153.441 51.1797C154.128 47.2688 155.018 43.4243 155.938 39.5625C156.11 38.838 156.282 38.1136 156.46 37.3672C157.93 31.234 159.445 25.1123 161 19C162.65 18.67 164.3 18.34 166 18C166.557 18.9591 166.557 18.9591 167.125 19.9375C169.635 24.0365 172.316 28.0136 175 32C178.545 31.3518 180.952 29.8118 184 27.9375C193.016 23.2848 204.012 23.7971 213.859 25.4922C218.835 26.2968 223.843 26.3735 228.875 26.5625C229.945 26.6057 231.015 26.6489 232.117 26.6934C234.745 26.7989 237.372 26.901 240 27C240.288 26.2318 240.577 25.4636 240.874 24.6721C242.246 21.4168 244.11 19.143 246.375 16.4375C247.146 15.5081 247.917 14.5787 248.711 13.6211C252.833 8.90143 252.833 8.90143 255 7C259.3 7.3 259.3 7.3 261 9C261.16 11.3734 261.259 13.7212 261.316 16.0977C261.337 16.8065 261.358 17.5154 261.379 18.2457C261.445 20.5179 261.504 22.7902 261.562 25.0625C261.606 26.5996 261.649 28.1367 261.693 29.6738C261.801 33.4491 261.902 37.2245 262 41C261.34 41 260.68 41 260 41C260.023 41.6149 260.046 42.2298 260.07 42.8633C260.088 43.6715 260.106 44.4798 260.125 45.3125C260.148 46.113 260.171 46.9135 260.195 47.7383C260 50 260 50 258 53C259.74 61.3893 263.901 66.5742 270.793 71.3789C273 73 273 73 275 76C275.675 84.5898 272.417 91.3087 269 99C268.571 100.007 268.141 101.014 267.699 102.051C265.344 107.23 263.479 110.75 258 113C254.763 113.405 251.577 113.625 248.316 113.727C244.993 113.881 244.993 113.881 241.908 114.952C237.383 116.285 232.842 116.642 228.156 117.035C226.764 117.161 226.764 117.161 225.344 117.288C222.397 117.553 219.448 117.808 216.5 118.062C213.552 118.322 210.604 118.584 207.656 118.847C205.827 119.01 203.998 119.171 202.17 119.328C197.418 119.745 192.718 120.289 188 121C178.526 121.896 170.891 119.261 163 114C163.588 115.856 163.588 115.856 164.188 117.75C170.813 140.002 176.173 163.085 176.188 186.375C176.2 187.467 176.212 188.559 176.225 189.684C176.227 190.724 176.228 191.764 176.23 192.836C176.235 193.78 176.239 194.724 176.243 195.697C176 198 176 198 174 200C174.773 200.557 174.773 200.557 175.562 201.125C177 203 177 203 177.062 205.875C175.326 210.983 171.343 213.104 167 216C167.144 216.969 167.289 217.939 167.438 218.938C168.06 223.281 168.535 227.638 169 232C167.35 232.33 165.7 232.66 164 233C163.012 230.482 162.034 227.961 161.062 225.438C160.785 224.733 160.507 224.029 160.221 223.303C158.513 218.839 157.494 214.756 157 210C156.01 209.67 155.02 209.34 154 209C154.33 205.7 154.66 202.4 155 199C159 198 159 198 161.438 198.5C164.283 199.055 166.216 198.716 169 198C168.67 197.67 168.34 197.34 168 197C167.833 194.018 167.718 191.047 167.625 188.062C166.727 165.909 163.426 144.463 158 123C157.466 123.993 157.466 123.993 156.921 125.006C152.938 132.41 148.952 139.813 144.963 147.214C144.044 148.919 143.125 150.624 142.206 152.329C139.474 157.396 136.734 162.459 133.977 167.512C132.077 170.995 130.218 174.494 128.398 178.02C127.62 179.492 126.841 180.965 126.062 182.438C125.733 183.1 125.404 183.763 125.065 184.446C123.329 187.677 122.413 188.863 118.871 190.035C116 190 116 190 114 188C114.3 183.506 115.651 180.759 118 177C120.156 173.339 122.296 169.669 124.438 166C125.057 164.939 125.677 163.877 126.315 162.783C130.353 155.856 134.348 148.907 138.312 141.938C143.085 133.548 147.984 125.246 153 117C145.165 116.028 137.42 115.851 129.531 115.824C126.911 115.801 124.292 115.777 121.672 115.752C117.596 115.716 113.52 115.686 109.443 115.674C82.9959 115.586 82.9959 115.586 70.9897 112.415C63.5726 110.483 56.5207 110.55 48.875 110.75C47.5117 110.77 46.1485 110.788 44.7852 110.805C41.5226 110.851 38.2617 110.916 35 111C35.5453 112.191 36.0905 113.382 36.6523 114.609C41.4148 125.238 45.5263 135.991 49.125 147.062C49.5271 148.281 49.9292 149.499 50.3435 150.755C50.7071 151.899 51.0707 153.044 51.4453 154.223C51.9328 155.75 51.9328 155.75 52.4302 157.309C53.0036 160.017 52.9357 161.432 52 164C50.68 164.33 49.36 164.66 48 165C45.2189 160.912 43.9941 156.799 42.8125 152.062C40.8394 144.57 38.4543 137.283 35.8125 130C35.4674 129.038 35.1224 128.077 34.7668 127.086C34.4377 126.191 34.1086 125.297 33.7695 124.375C33.4767 123.578 33.1838 122.782 32.8821 121.961C32.06 119.823 32.06 119.823 30 118C28.748 120.624 27.4981 123.249 26.25 125.875C25.6569 127.122 25.6569 127.122 25.0518 128.394C22.6307 133.502 20.2498 138.626 17.9062 143.77C17.1207 145.49 17.1207 145.49 16.3193 147.245C15.2919 149.499 14.2689 151.755 13.251 154.013C10.5278 159.98 7.6241 165.531 4 171C2.68 170.67 1.36 170.34 0 170C0.713303 166.129 2.5095 162.888 4.3125 159.438C12.8245 142.774 20.3244 125.479 27 108C25.3488 106.311 23.7567 104.814 21.875 103.375C19.5147 100.385 18.9044 98.1884 18.6523 94.4141C19.3461 89.5965 22.8765 86.5265 26 83C27.6029 80.9527 29.1858 78.8895 30.75 76.8125C31.4873 75.8496 32.2247 74.8866 32.9844 73.8945C37.9655 66.7414 40.0398 59.7567 39 51C36.8285 47.8177 34.1966 46.0741 31 44C30.3606 43.2163 29.7212 42.4325 29.0625 41.625C26.195 39.3658 23.603 39.428 20.0234 39.2734C18 39 18 39 16 37C15.9883 34.5039 15.9883 34.5039 16.3125 31.5625C16.4118 30.5944 16.511 29.6263 16.6133 28.6289C17 26 17 26 18 23C18.7223 18.4254 18.9027 16.2747 16.1797 12.4297C14.7112 10.7156 13.2027 9.03494 11.6523 7.39453C10 5 10 5 10.2539 2.19922C10.5001 1.47348 10.7463 0.747734 11 0Z" fill="#FBFBFB"/>
<path d="M11 0C15 0 15 0 17.0703 2.04688C17.7484 2.93891 18.4264 3.83094 19.125 4.75C19.8082 5.63172 20.4914 6.51344 21.1953 7.42188C24.595 12.2785 25.8464 16.0257 25 22C23.8632 25.7515 22.492 29.3765 21 33C22.0312 32.9175 23.0625 32.835 24.125 32.75C29.5138 33.0977 32.1626 35.0446 35.8242 38.9414C37.0285 40.3123 38.2173 41.697 39.3867 43.0977C40.9529 45.0017 40.9529 45.0017 42.6445 46.6211C45.0139 49.0315 45.2355 51.0351 45.375 54.3125C45.1822 66.4793 38.8201 75.2756 31 84C26.1554 88.9206 26.1554 88.9206 23.793 95.1133C24.0332 97.2591 24.0332 97.2591 25 100C34.1933 102.483 43.3234 102.114 52.7458 101.808C60.0799 101.586 66.6734 101.683 73.7578 103.934C85.5444 107.44 97.9862 106.91 110.188 107.188C113.958 107.289 117.728 107.395 121.498 107.504C123.828 107.57 126.157 107.63 128.487 107.684C138.045 107.926 147.551 108.497 157 110C155.661 106.396 154.036 103.257 152 100C147.235 92.3758 146.648 86.8912 147 78C147.03 77.1982 147.059 76.3964 147.09 75.5703C147.466 70.4107 149.005 66.3078 151.027 61.5742C152.32 58.1541 152.865 54.7794 153.441 51.1797C154.128 47.2688 155.018 43.4243 155.938 39.5625C156.11 38.838 156.282 38.1136 156.46 37.3672C157.93 31.234 159.445 25.1123 161 19C162.65 18.67 164.3 18.34 166 18C166.557 18.9591 166.557 18.9591 167.125 19.9375C169.635 24.0365 172.316 28.0136 175 32C178.545 31.3518 180.952 29.8118 184 27.9375C193.016 23.2848 204.012 23.7971 213.859 25.4922C218.835 26.2968 223.843 26.3735 228.875 26.5625C229.945 26.6057 231.015 26.6489 232.117 26.6934C234.745 26.7989 237.372 26.901 240 27C240.288 26.2318 240.577 25.4636 240.874 24.6721C242.246 21.4168 244.11 19.143 246.375 16.4375C247.146 15.5081 247.917 14.5787 248.711 13.6211C252.833 8.90143 252.833 8.90143 255 7C259.3 7.3 259.3 7.3 261 9C261.16 11.3734 261.259 13.7212 261.316 16.0977C261.337 16.8065 261.358 17.5154 261.379 18.2457C261.445 20.5179 261.504 22.7902 261.562 25.0625C261.606 26.5996 261.649 28.1367 261.693 29.6738C261.801 33.4491 261.902 37.2245 262 41C261.34 41 260.68 41 260 41C260.023 41.6149 260.046 42.2298 260.07 42.8633C260.088 43.6715 260.106 44.4798 260.125 45.3125C260.148 46.113 260.171 46.9135 260.195 47.7383C260 50 260 50 258 53C259.74 61.3893 263.901 66.5742 270.793 71.3789C273 73 273 73 275 76C275.675 84.5898 272.417 91.3087 269 99C268.571 100.007 268.141 101.014 267.699 102.051C265.344 107.23 263.479 110.75 258 113C254.763 113.405 251.577 113.625 248.316 113.727C244.993 113.881 244.993 113.881 241.908 114.952C237.383 116.285 232.842 116.642 228.156 117.035C226.764 117.161 226.764 117.161 225.344 117.288C222.397 117.553 219.448 117.808 216.5 118.062C213.552 118.322 210.604 118.584 207.656 118.847C205.827 119.01 203.998 119.171 202.17 119.328C197.418 119.745 192.718 120.289 188 121C178.526 121.896 170.891 119.261 163 114C163.588 115.856 163.588 115.856 164.188 117.75C170.813 140.002 176.173 163.085 176.188 186.375C176.2 187.467 176.212 188.559 176.225 189.684C176.227 190.724 176.228 191.764 176.23 192.836C176.235 193.78 176.239 194.724 176.243 195.697C176 198 176 198 174 200C174.773 200.557 174.773 200.557 175.562 201.125C177 203 177 203 177.062 205.875C175.326 210.983 171.343 213.104 167 216C167.144 216.969 167.289 217.939 167.438 218.938C168.06 223.281 168.535 227.638 169 232C167.35 232.33 165.7 232.66 164 233C163.012 230.482 162.034 227.961 161.062 225.438C160.785 224.733 160.507 224.029 160.221 223.303C158.513 218.839 157.494 214.756 157 210C156.01 209.67 155.02 209.34 154 209C154.33 205.7 154.66 202.4 155 199C159 198 159 198 161.438 198.5C164.283 199.055 166.216 198.716 169 198C168.67 197.67 168.34 197.34 168 197C167.833 194.018 167.718 191.047 167.625 188.062C166.727 165.909 163.426 144.463 158 123C157.466 123.993 157.466 123.993 156.921 125.006C152.938 132.41 148.952 139.813 144.963 147.214C144.044 148.919 143.125 150.624 142.206 152.329C139.474 157.396 136.734 162.459 133.977 167.512C132.077 170.995 130.218 174.494 128.398 178.02C127.62 179.492 126.841 180.965 126.062 182.438C125.733 183.1 125.404 183.763 125.065 184.446C123.329 187.677 122.413 188.863 118.871 190.035C116 190 116 190 114 188C114.3 183.506 115.651 180.759 118 177C120.156 173.339 122.296 169.669 124.438 166C125.057 164.939 125.677 163.877 126.315 162.783C130.353 155.856 134.348 148.907 138.312 141.938C143.085 133.548 147.984 125.246 153 117C145.165 116.028 137.42 115.851 129.531 115.824C126.911 115.801 124.292 115.777 121.672 115.752C117.596 115.716 113.52 115.686 109.443 115.674C82.9959 115.586 82.9959 115.586 70.9897 112.415C63.5726 110.483 56.5207 110.55 48.875 110.75C47.5117 110.77 46.1485 110.788 44.7852 110.805C41.5226 110.851 38.2617 110.916 35 111C35.5453 112.191 36.0905 113.382 36.6523 114.609C41.4148 125.238 45.5263 135.991 49.125 147.062C49.5271 148.281 49.9292 149.499 50.3435 150.755C50.7071 151.899 51.0707 153.044 51.4453 154.223C51.9328 155.75 51.9328 155.75 52.4302 157.309C53.0036 160.017 52.9357 161.432 52 164C50.68 164.33 49.36 164.66 48 165C45.2189 160.912 43.9941 156.799 42.8125 152.062C40.8394 144.57 38.4543 137.283 35.8125 130C35.4674 129.038 35.1224 128.077 34.7668 127.086C34.4377 126.191 34.1086 125.297 33.7695 124.375C33.4767 123.578 33.1838 122.782 32.8821 121.961C32.06 119.823 32.06 119.823 30 118C28.748 120.624 27.4981 123.249 26.25 125.875C25.6569 127.122 25.6569 127.122 25.0518 128.394C22.6307 133.502 20.2498 138.626 17.9062 143.77C17.1207 145.49 17.1207 145.49 16.3193 147.245C15.2919 149.499 14.2689 151.755 13.251 154.013C10.5278 159.98 7.6241 165.531 4 171C2.68 170.67 1.36 170.34 0 170C0.713303 166.129 2.5095 162.888 4.3125 159.438C12.8245 142.774 20.3244 125.479 27 108C25.3488 106.311 23.7567 104.814 21.875 103.375C19.5147 100.385 18.9044 98.1884 18.6523 94.4141C19.3461 89.5965 22.8765 86.5265 26 83C27.6029 80.9527 29.1858 78.8895 30.75 76.8125C31.4873 75.8496 32.2247 74.8866 32.9844 73.8945C37.9655 66.7414 40.0398 59.7567 39 51C36.8285 47.8177 34.1966 46.0741 31 44C30.3606 43.2163 29.7212 42.4325 29.0625 41.625C26.195 39.3658 23.603 39.428 20.0234 39.2734C18 39 18 39 16 37C15.9883 34.5039 15.9883 34.5039 16.3125 31.5625C16.4118 30.5944 16.511 29.6263 16.6133 28.6289C17 26 17 26 18 23C18.7223 18.4254 18.9027 16.2747 16.1797 12.4297C14.7112 10.7156 13.2027 9.03494 11.6523 7.39453C10 5 10 5 10.2539 2.19922C10.5001 1.47348 10.7463 0.747734 11 0ZM179 36C179.33 38.31 179.66 40.62 180 43C179.423 42.835 178.845 42.67 178.25 42.5C175.365 41.8588 172.953 41.4335 170.324 42.9961C165.547 47.2032 161.74 51.8608 158 57C156.886 58.4541 156.886 58.4541 155.75 59.9375C150.308 69.4605 148.914 81.8803 151.656 92.5547C152.598 94.5769 153.659 96.2186 155 98C155.746 99.1002 155.746 99.1002 156.508 100.223C161.448 107.105 167.746 113.42 176 116C182.524 116.554 189.011 116.316 195.438 115.062C200.138 114.163 204.651 113.87 209.419 113.757C219.708 113.506 229.794 112.573 239.967 111.068C241.397 110.857 242.828 110.654 244.259 110.457C246.284 110.176 248.302 109.866 250.32 109.547C251.488 109.37 252.656 109.193 253.86 109.011C258.49 107.52 260.837 104.61 263.625 100.75C265.181 97.6372 266.262 94.5185 267.305 91.2031C267.878 89.388 268.523 87.5961 269.188 85.8125C270.112 82.6116 270.366 80.3181 270 77C268.061 75.0388 268.061 75.0388 265.438 73.5C256.889 67.1885 253.334 56.967 250.215 47.0859C247.772 42.8912 243.711 41.0497 239.168 39.8398C237.159 39.3659 235.144 38.9281 233.127 38.4902C231.395 38.081 229.693 37.549 228 37C227.505 35.515 227.505 35.515 227 34C230.076 33.707 230.076 33.707 233.152 33.4141C233.762 33.2774 234.372 33.1408 235 33C235.33 32.34 235.66 31.68 236 31C234.744 30.951 233.489 30.902 232.195 30.8516C224.4 30.5143 216.88 30.1841 209.258 28.418C197.336 26.2109 188.528 28.9865 179 36Z" fill="#0C0C0C"/>
<path d="M103 189C105.475 189.495 105.475 189.495 108 190C109.969 196.289 111.647 202.549 113 209C113.326 208.374 113.652 207.747 113.988 207.102C114.425 206.284 114.862 205.467 115.312 204.625C115.742 203.813 116.171 203.001 116.613 202.164C118 200 118 200 121 198C124.6 197.54 126.357 197.588 129.438 199.562C131 202 131 202 131 205.562C130 209 130 209 128.5 210.875C124.785 212.547 121.035 212.75 117 213C117.602 215.02 118.273 217.021 119 219C122.286 220.643 125.45 220.529 129 220C132.137 218.803 135.145 217.458 138.168 215.996C141.306 214.893 142.863 215.042 146 216C145.895 217.734 145.895 217.734 145 220C137.954 225.508 130.638 229.235 121.512 228.613C117.68 227.678 116.235 226.193 114 223C113.34 224.65 112.68 226.3 112 228C110.35 227.67 108.7 227.34 107 227C106.939 225.796 106.879 224.592 106.816 223.352C106.732 221.776 106.647 220.201 106.562 218.625C106.523 217.831 106.484 217.037 106.443 216.219C106.311 211.974 106.311 211.974 105 208C104.72 208.652 104.441 209.305 104.152 209.977C101.431 215.909 98.7298 220.607 93 224C90.375 224.688 90.375 224.688 88 224C85.1875 221.5 85.1875 221.5 83 219C82.01 219.66 81.02 220.32 80 221C75.4073 221.74 71.9754 221.61 68 219.125C65.7473 216.732 65.0982 215.671 64.625 212.438C65.2802 206.431 68.3204 201.766 72.4375 197.438C75.5922 195.668 77.436 195.458 81 196C82.9375 197.125 82.9375 197.125 84 199C83.6875 202.188 83.6875 202.188 83 205C80.525 204.505 80.525 204.505 78 204C78 203.34 78 202.68 78 202C75.3825 203.378 73.3897 204.469 71.625 206.875C70.836 209.558 71.2602 211.337 72 214C76.7516 213.534 80.3452 213.174 84 210C85.3581 207.506 86.5498 204.956 87.7578 202.387C89.3834 199.263 90.8731 197.638 94 196C99.9855 195.493 99.9855 195.493 103 197C103 194.36 103 191.72 103 189Z" fill="#0A0A0A"/>
<path d="M199.247 79.7729C200.158 79.7834 201.069 79.7939 202.008 79.8047C202.994 79.8111 203.98 79.8176 204.996 79.8242C206.545 79.8494 206.545 79.8494 208.125 79.875C209.165 79.884 210.206 79.893 211.277 79.9023C213.852 79.926 216.426 79.9589 219 80C220.092 84.243 219.773 86.1755 217.6 90.0605C217.257 90.6387 216.915 91.2168 216.562 91.8125C216.055 92.7087 216.055 92.7087 215.537 93.623C214.704 95.0894 213.854 96.5457 213 98C213.66 98 214.32 98 215 98C215 98.66 215 99.32 215 100C213.68 100 212.36 100 211 100C213.546 103.524 213.546 103.524 217 106C223.233 106.062 226.881 104.571 232 101C234.375 101.25 234.375 101.25 236 102C235.003 105.591 234.113 106.912 231.125 109.25C226.215 112 221.649 112.793 216 112C212.064 109.959 209.518 108.25 208 104C207.34 104 206.68 104 206 104C205.773 104.743 205.546 105.485 205.312 106.25C203.616 109.805 202.478 111.083 199 113C191.932 114.097 185.837 113.22 180 109C177.438 106.562 177.438 106.562 176 104C176.25 101.188 176.25 101.188 177 99C178.32 99 179.64 99 181 99C182.667 100.667 184.333 102.333 186 104C190.393 106.316 194.014 107.793 199 107C201.079 105.423 201.079 105.423 202 103C201.552 99.2232 200.304 96.3828 198.5 93.0625C196.602 89.372 195.106 86.2297 195 82C197 80 197 80 199.247 79.7729Z" fill="#0C0C0C"/>
<path d="M103 189C105.475 189.495 105.475 189.495 108 190C109.969 196.289 111.647 202.549 113 209C113.326 208.374 113.652 207.747 113.988 207.102C114.425 206.284 114.862 205.467 115.312 204.625C115.742 203.813 116.171 203.001 116.613 202.164C118 200 118 200 121 198C124.6 197.54 126.357 197.588 129.438 199.562C131 202 131 202 131 205.562C130 209 130 209 128.5 210.875C124.785 212.547 121.035 212.75 117 213C117.602 215.02 118.273 217.021 119 219C122.286 220.643 125.45 220.529 129 220C132.137 218.803 135.145 217.458 138.168 215.996C141.306 214.893 142.863 215.042 146 216C145.895 217.734 145.895 217.734 145 220C137.954 225.508 130.638 229.235 121.512 228.613C117.68 227.678 116.235 226.193 114 223C113.01 225.475 113.01 225.475 112 228C110.35 227.67 108.7 227.34 107 227C106.963 225.97 106.925 224.94 106.887 223.879C106.511 215.285 105.669 206.983 104.016 198.535C103.375 195.252 103 192.367 103 189Z" fill="#0D0D0D"/>
<path d="M46 183C46.99 183 47.98 183 49 183C51.5013 188.082 52.461 192.171 52.3125 197.875C52.3041 198.572 52.2957 199.268 52.2871 199.986C52.1649 205.243 51.4401 209.96 50 215C47.525 215.495 47.525 215.495 45 216C40.4898 210.274 36.6454 204.308 33 198C32.8904 199.025 32.7809 200.05 32.668 201.105C32.5084 202.466 32.3482 203.827 32.1875 205.188C32.1172 205.861 32.047 206.535 31.9746 207.229C31.4559 211.482 30.6198 214.58 28 218C25.4375 218.938 25.4375 218.938 23 219C21 217 21 217 20.7305 213.582C20.8716 208.147 22.0871 202.965 23.3125 197.688C23.5258 196.699 23.7392 195.711 23.959 194.693C24.1749 193.747 24.3908 192.8 24.6133 191.824C24.807 190.969 25.0008 190.114 25.2004 189.233C26.0809 186.774 26.9388 185.586 29 184C31.974 184.27 32.8545 184.854 35 187C35.6727 188.614 36.3441 190.229 37.0078 191.848C38.9628 196.089 41.3966 200.126 44 204C44.33 204 44.66 204 45 204C45.137 196.193 45.137 196.193 44.375 188.438C44.2512 187.303 44.1275 186.169 44 185C44.66 184.34 45.32 183.68 46 183Z" fill="#080808"/>
<path d="M254 15C254.33 15 254.66 15 255 15C255.111 24.0745 254.942 32.9628 254 42C253.373 41.6507 252.747 41.3013 252.101 40.9414C250.876 40.2588 250.876 40.2588 249.625 39.5625C248.813 39.11 248.001 38.6576 247.164 38.1914C245.79 37.4349 244.403 36.7015 243 36C242.286 30.7353 243.831 28.1916 246.861 24.1406C247.381 23.4755 247.901 22.8103 248.437 22.125C248.954 21.4366 249.47 20.7483 250.002 20.0391C251.298 18.3311 252.645 16.6616 254 15Z" fill="#EFEFEF"/>
<path d="M227 51C227.66 51.66 228.32 52.32 229 53C228.852 56.9209 228.305 59.4797 226.312 62.875C223.504 65.4556 221.783 65.9178 218 66C216 64 216 64 215.625 60.1875C215.716 56.0156 216.969 53.9414 220 51C222.706 49.647 224.133 50.2116 227 51Z" fill="#080808"/>
<path d="M187.75 49.5625C190 50 190 50 191 51C191.384 55.9904 191.087 58.9982 188 63C185 65 185 65 182.375 64.6875C180 64 180 64 179 63C179.236 56.9703 180.984 50.6389 187.75 49.5625Z" fill="#0C0C0C"/>
<path d="M57 197C58.6754 197.286 60.3439 197.618 62 198C62.33 199.32 62.66 200.64 63 202C62.01 202.33 61.02 202.66 60 203C60 207.95 60 212.9 60 218C58.35 217.67 56.7 217.34 55 217C53.6588 214.318 53.831 212.182 53.8125 209.188C53.7983 208.15 53.7841 207.112 53.7695 206.043C54.0213 202.719 54.5532 199.447 57 197Z" fill="#0E0E0E"/>
<path d="M206 104C206.66 104 207.32 104 208 104C208.619 104.784 209.238 105.567 209.875 106.375C211.993 108.992 212.844 110.036 216 111C220.019 111.194 223.366 111.12 227.312 110.375C230 110 230 110 233 112C225.476 113.076 217.989 113.342 210.4 113.605C204.188 113.838 204.188 113.838 198.035 114.656C194.852 115.017 193.61 114.775 191 113C191.675 112.914 192.351 112.827 193.047 112.738C198.885 111.884 198.885 111.884 203.562 108.5C204.413 107.021 205.237 105.526 206 104Z" fill="#DDDDDD"/>
<path d="M164 29C167.126 31.9616 169.048 34.0957 171 38C167.7 41.3 164.4 44.6 161 48C159.641 43.9215 160.855 40.8232 161.938 36.8125C162.133 36.0629 162.328 35.3133 162.529 34.541C163.012 32.6921 163.505 30.8458 164 29Z" fill="#F3F3F3"/>
<path d="M181 220C181.66 220.66 182.32 221.32 183 222C182.464 225.536 182.464 225.536 181 227C178.329 227.141 175.676 227.042 173 227C172.67 225.35 172.34 223.7 172 222C175.116 220.154 177.382 219.619 181 220Z" fill="#111111"/>
<path d="M213 85C211.55 89.1096 209.489 92.4326 207 96C203.746 93.1657 202.479 91.3139 202 87C203.458 86.6641 204.916 86.3313 206.375 86C207.593 85.7216 207.593 85.7216 208.836 85.4375C211 85 211 85 213 85Z" fill="#EEEEEE"/>
<path d="M58.9453 180.805C60.9635 180.87 62.9818 180.935 65 181C65.66 182.32 66.32 183.64 67 185C65 187 65 187 62.8359 187.195C61.6178 187.161 61.6178 187.161 60.375 187.125C59.5577 187.107 58.7405 187.089 57.8984 187.07C57.272 187.047 56.6455 187.024 56 187C55.375 185.125 55.375 185.125 55 183C57 181 57 181 58.9453 180.805Z" fill="#0D0D0D"/>
<path d="M96 202C96.66 202 97.32 202 98 202C97.6284 207.946 95.8535 212.378 92 217C91.34 217 90.68 217 90 217C89.6981 209.15 89.6981 209.15 92 206C92.99 205.67 93.98 205.34 95 205C95.33 204.01 95.66 203.02 96 202Z" fill="#F0F0F0"/>
<path d="M162 204C164.97 204 167.94 204 171 204C169 208 169 208 166 210C165.01 210 164.02 210 163 210C162.67 208.02 162.34 206.04 162 204Z" fill="#F4F4F4"/>
<path d="M121 202C122.32 202.33 123.64 202.66 125 203C125 203.99 125 204.98 125 206C122.69 206.33 120.38 206.66 118 207C118.99 205.35 119.98 203.7 121 202Z" fill="#F3F3F3"/>
</svg>
