<svg width="400" height="343" viewBox="0 0 400 343" fill="none" xmlns="http://www.w3.org/2000/svg">
<path d="M180.585 85.942C181.52 85.9317 182.454 85.9214 183.417 85.9109C200.055 85.7647 216.627 87.4518 229.393 99.2935C238.965 109.885 243.816 125.588 246.335 139.442C247.325 138.452 247.325 138.452 248.335 137.442C250.46 137.817 250.46 137.817 252.335 138.442C253.473 143.721 254.349 148.91 254.597 154.309C254.842 165.589 254.842 165.589 260.71 174.754C262.246 175.991 263.787 177.221 265.335 178.442C268.089 181.785 269.564 185.166 269.835 189.504C269.144 194.947 267.162 197.834 263.085 201.422C255.482 207.005 247.027 209.51 237.835 210.754C232.648 211.512 232.648 211.512 228.272 214.27C226.777 216.594 225.576 218.975 224.335 221.442C219.931 227.565 215.246 232.763 209.335 237.442C212.159 239.693 214.939 241.299 218.21 242.817C227.183 247.264 232.565 253.399 236.71 262.442C238.198 269.585 237.649 274.953 234.335 281.442C235.139 281.648 235.944 281.854 236.772 282.067C245.678 285.504 252.479 291.976 259.335 298.442C259.952 298.995 260.57 299.548 261.206 300.118C267.593 306.063 276.864 316.557 277.585 325.567C277.335 328.442 277.335 328.442 275.335 330.442C272.346 330.28 270.851 330.012 268.815 327.762C268.389 327.038 267.962 326.313 267.522 325.567C257.184 308.894 245.179 295.203 227.335 286.442C227.335 285.452 227.335 284.462 227.335 283.442C226.718 283.64 226.102 283.839 225.467 284.043C217.389 286.462 209.399 287.319 201.022 288.004C193.291 288.669 185.604 289.357 177.929 290.512C172.634 291.3 167.498 291.78 162.147 291.754C161.425 291.771 160.702 291.787 159.958 291.803C154.844 291.808 154.844 291.808 152.401 290.051C151.335 288.442 151.335 288.442 150.46 286.379C148.914 283.717 147.164 283.561 144.335 282.442C143.156 281.297 141.983 280.146 140.84 278.965C139.153 277.258 137.401 275.642 135.628 274.024C127.269 266.363 119.653 258.919 113.335 249.442C113.71 245.754 113.71 245.754 114.335 242.442C113.448 242.174 112.561 241.906 111.647 241.629C108.335 240.442 108.335 240.442 105.71 238.754C103.515 237.264 103.515 237.264 101.476 237.555C98.4156 238.823 96.8674 240.828 94.7099 243.317C93.9339 244.201 93.1579 245.086 92.3583 245.997C89.0258 250.024 87.6631 253.414 86.3349 258.442C84.4599 259.067 84.4599 259.067 82.3349 259.442C80.0083 257.115 79.9925 256.552 79.8974 253.379C80.1386 244.527 85.6154 238.703 91.7607 232.876C92.2802 232.402 92.7997 231.929 93.3349 231.442C91.8614 228.961 90.3735 226.501 88.7997 224.083C85.2596 218.542 83.3825 213.937 82.3349 207.442C81.4068 207.566 80.4786 207.689 79.5224 207.817C71.5327 207.801 63.8079 201.647 58.1825 196.426C50.4748 188.148 45.6253 179.678 45.913 168.2C46.3349 165.442 46.3349 165.442 48.5849 162.192C51.3349 160.442 51.3349 160.442 55.3349 160.442C55.3192 159.616 55.3035 158.79 55.2873 157.939C55.2357 154.826 55.1983 151.714 55.1701 148.601C55.1479 146.61 55.1097 144.62 55.0712 142.629C54.9833 131.021 56.5897 121.429 64.3349 112.442C77.1178 99.7953 91.47 94.0384 109.21 92.067C116.484 91.25 123.741 90.3997 130.987 89.3599C147.534 87.0431 163.873 86.021 180.585 85.942Z" fill="#070707"/>
<path d="M149.335 0.00445824C150.53 0.00913109 151.725 0.0138039 152.956 0.0186184C165.527 0.220145 177.781 2.03278 190.18 3.98102C193.677 4.49197 197.165 4.83611 200.686 5.13288C215.096 6.36723 230.558 9.72535 242.335 18.442C243.219 19.0259 244.104 19.6098 245.015 20.2115C256.88 28.2807 269.955 41.2546 272.821 55.9339C272.93 56.7912 273.039 57.6485 273.151 58.5318C273.276 59.4812 273.4 60.4306 273.528 61.4088C273.65 62.3891 273.772 63.3694 273.897 64.3795C274.148 66.3262 274.399 68.2728 274.651 70.2193C274.768 71.1347 274.884 72.0501 275.004 72.9932C275.261 74.8955 275.574 76.7902 275.909 78.6802C278.798 97.4194 271.973 112.522 261.307 127.555C257.416 132.745 252.858 136.085 247.335 139.442C246.675 140.102 246.015 140.762 245.335 141.442C245.176 140.678 245.018 139.913 244.854 139.126C239.776 115.382 239.776 115.382 225.265 96.6763C211.129 87.634 197.01 86.9009 180.71 87.0045C179.745 87.0065 178.779 87.0085 177.785 87.0107C160.669 87.0694 144.013 88.4935 127.09 90.9249C122.321 91.5815 117.543 92.0868 112.756 92.5921C93.7887 94.6441 76.3963 99.3854 63.3349 114.442C59.9239 119.895 57.528 125.127 56.3349 131.442C55.0849 133.254 55.0849 133.254 53.3349 134.442C50.8349 134.817 50.8349 134.817 48.3349 134.442C41.5256 129.044 40.1701 116.574 38.1474 108.567C37.8877 107.561 37.6279 106.556 37.3603 105.52C33.4679 90.353 31.2656 72.2885 38.4599 57.7545C43.4989 49.4482 51.9628 44.4587 59.7607 38.9849C62.9997 36.7018 66.1373 34.3038 69.2724 31.8795C85.0168 20.0505 104.259 8.52542 123.335 3.44196C124.3 3.18213 125.265 2.9223 126.259 2.6546C134.05 0.701181 141.314 -0.0663378 149.335 0.00445824Z" fill="#FCFCFC"/>
<path d="M132.335 97.4419C132.005 98.4319 131.675 99.4219 131.335 100.442C130.629 100.445 129.922 100.447 129.194 100.45C113.234 101.051 88.136 106.917 76.335 118.442C76.335 119.514 76.335 120.587 76.335 121.692C76.335 125.437 76.163 126.132 74.2725 129.067C71.9982 132.166 71.9982 132.166 72.835 134.879C73.5409 138.497 72.0879 140.438 70.3428 143.575C68.3898 147.193 68.225 150.093 68.2725 154.129C68.2815 155.123 68.2905 156.117 68.2998 157.141C68.3114 157.9 68.323 158.66 68.335 159.442C71.3841 160.453 71.3841 160.453 74.335 159.442C75.383 157.467 76.387 155.467 77.335 153.442C78.6851 157.492 77.9558 160.234 77.335 164.442C79.81 163.947 79.81 163.947 82.335 163.442C82.5773 162.31 82.8196 161.178 83.0693 160.012C83.407 158.53 83.7456 157.049 84.085 155.567C84.3209 154.447 84.3209 154.447 84.5615 153.305C85.8366 147.862 85.8366 147.862 88.1162 145.942C90.8398 145.328 93.2937 145.25 96.085 145.317C97.5622 145.344 97.5622 145.344 99.0693 145.372C99.817 145.395 100.565 145.418 101.335 145.442C100.84 146.432 100.84 146.432 100.335 147.442C99.6845 155.573 102.602 162.189 106.929 168.942C108.378 170.798 108.378 170.798 111.647 170.942C112.534 170.777 113.421 170.612 114.335 170.442C117.152 165.661 116.866 160.842 116.335 155.442C115.062 151.971 115.062 151.971 113.335 149.442C113.005 148.782 112.675 148.122 112.335 147.442C120.986 149.807 120.986 149.807 124.522 153.192C127.176 155.827 127.176 155.827 130.71 155.254C132.009 154.852 132.009 154.852 133.335 154.442C133.753 151.11 133.753 151.11 133.335 147.442C125.843 140.287 115.334 137.761 105.335 136.442C105.335 135.782 105.335 135.122 105.335 134.442C106.912 133.192 108.55 132.018 110.21 130.879C116.77 126.224 123.602 121.279 128.308 114.672C130.335 112.442 130.335 112.442 132.962 112.303C133.745 112.349 134.528 112.395 135.335 112.442C135.601 112.97 135.868 113.499 136.142 114.043C145.367 132.565 145.367 132.565 160.335 146.442C161.82 147.432 161.82 147.432 163.335 148.442C165.718 148.891 168.117 149.258 170.522 149.567C171.795 149.735 173.067 149.902 174.378 150.075C175.842 150.257 175.842 150.257 177.335 150.442C177.335 149.122 177.335 147.802 177.335 146.442C176.725 146.183 176.116 145.924 175.487 145.657C168.236 141.564 164.208 128.858 162.022 121.254C161.796 120.326 161.569 119.398 161.335 118.442C159.85 118.937 159.85 118.937 158.335 119.442C157.991 124.961 158.892 128.352 161.397 133.254C162.431 135.29 163.424 137.348 164.335 139.442C163.84 140.432 163.84 140.432 163.335 141.442C159.34 138.495 156.304 135.196 153.335 131.254C152.901 130.684 152.466 130.113 152.019 129.525C143.335 117.919 143.335 117.919 143.335 113.442C146.96 113.383 150.585 113.348 154.21 113.317C155.223 113.3 156.236 113.283 157.28 113.266C168.279 113.196 177.826 115.652 188.21 119.129C189.228 119.443 190.247 119.757 191.296 120.081C199.528 122.848 199.528 122.848 202.03 127.086C203.335 130.442 203.335 130.442 203.335 132.442C193.196 131.302 183.854 127.649 174.337 124.166C172.679 123.566 171.008 123 169.335 122.442C169.335 121.782 169.335 121.122 169.335 120.442C167.85 120.937 167.85 120.937 166.335 121.442C166.311 123.819 166.311 123.819 167.335 126.442C169.618 128.089 171.575 129.249 174.085 130.442C174.782 130.783 175.479 131.124 176.198 131.475C186.892 136.41 198.751 138.638 210.335 140.442C210.335 140.772 210.335 141.102 210.335 141.442C209.538 141.612 208.742 141.782 207.921 141.958C199.422 143.768 199.422 143.768 192.335 148.442C191.833 151.112 191.833 151.112 192.335 153.442C193.731 153.299 195.127 153.152 196.522 153.004C197.3 152.923 198.077 152.842 198.878 152.758C201.395 152.434 203.853 151.967 206.335 151.442C206.265 152.588 206.196 153.734 206.124 154.915C205.333 164.498 205.333 164.498 209.022 172.942C211.594 175.21 213.803 176.633 217.335 176.442C219.435 174.857 220.244 173.967 220.698 171.348C220.562 164.887 219.681 158.761 218.335 152.442C221.21 152.754 221.21 152.754 224.335 153.442C224.995 154.432 225.655 155.422 226.335 156.442C228.81 155.947 228.81 155.947 231.335 155.442C231.265 152.416 231.104 150.226 228.921 148.001C225.281 145.315 221.733 143.622 217.335 142.442C217.974 142.215 218.614 141.988 219.272 141.754C221.607 140.589 221.607 140.589 222.085 137.817C222.167 137.033 222.25 136.249 222.335 135.442C229.1 137.979 236.332 141.813 240.421 147.989C242.001 152.229 242.263 156.727 242.528 161.224C242.963 167.3 244.835 171.059 249.335 175.348C250.325 176.137 250.325 176.137 251.335 176.942C254.804 179.881 257.226 182.399 259.335 186.442C259.429 189.122 259.429 189.122 259.335 191.442C242.121 200.442 242.121 200.442 235.335 200.442C235.616 198.628 235.91 196.816 236.21 195.004C236.454 193.49 236.454 193.49 236.702 191.946C237.015 190.706 237.015 190.706 237.335 189.442C237.995 189.112 238.655 188.782 239.335 188.442C239.665 189.102 239.995 189.762 240.335 190.442C241.985 190.442 243.635 190.442 245.335 190.442C245.335 187.802 245.335 185.162 245.335 182.442C238.173 183.301 238.173 183.301 231.335 185.442C230.153 188.042 229.579 189.833 229.085 192.567C228.78 193.927 228.473 195.286 228.163 196.645C227.753 198.525 227.753 198.525 227.335 200.442C226.524 203.338 225.643 205.717 224.335 208.442C223.715 208.564 223.095 208.687 222.456 208.813C219.249 209.764 218.552 211.799 216.897 214.629C212.146 222.689 207.196 227.719 199.522 232.942C198.685 233.512 197.848 234.082 196.985 234.67C183.955 243.265 168.858 247.949 153.335 249.442C153.005 251.092 152.675 252.742 152.335 254.442C159.978 258.263 172.303 255.089 180.335 253.442C175.93 257.122 171.236 260.274 166.46 263.442C165.683 263.963 164.905 264.484 164.104 265.02C161.86 266.514 159.601 267.981 157.335 269.442C156.679 269.883 156.022 270.324 155.346 270.778C153.515 271.942 153.515 271.942 150.335 273.442C148.202 272.926 148.202 272.926 146.335 271.442C145.574 270.89 144.814 270.339 144.03 269.77C138.276 265.117 132.9 260.213 127.647 255.004C126.711 254.082 126.711 254.082 125.755 253.14C121.335 248.689 121.335 248.689 121.335 246.442C122.036 246.731 122.737 247.019 123.46 247.317C128.631 249.341 132.718 250.709 138.335 250.442C138.335 249.452 138.335 248.462 138.335 247.442C137.706 247.12 137.078 246.799 136.43 246.467C95.898 225.677 95.898 225.677 87.335 200.004C85.1851 193.584 82.9696 187.324 80.0693 181.2C79.335 179.442 79.335 179.442 79.335 177.442C80.325 177.442 81.315 177.442 82.335 177.442C81.84 176.452 81.84 176.452 81.335 175.442C78.695 175.442 76.055 175.442 73.335 175.442C73.6817 182.378 75.4333 187.553 78.374 193.84C79.335 196.442 79.335 196.442 78.335 199.442C69.214 193.944 59.7211 186.993 56.335 176.442C55.7982 173.744 55.5316 171.195 55.335 168.442C57.645 167.452 59.955 166.462 62.335 165.442C62.3114 163.968 62.3114 163.968 62.2874 162.464C62.2326 158.779 62.1984 155.095 62.1702 151.41C62.1552 149.822 62.1348 148.235 62.1086 146.647C61.9227 135.059 61.8164 125.24 70.1982 116.418C83.7357 103.896 98.3946 99.568 116.359 98.7828C121.763 98.5413 126.937 97.2877 132.335 97.4419Z" fill="#FBFBFB"/>
<path d="M40.1358 186.797C44.5282 188.085 48.9141 190.318 51.503 194.188C52.6062 197.177 52.9159 200.026 53.2725 203.192C53.9429 208.754 54.7833 214.251 55.835 219.754C55.963 220.425 56.0909 221.095 56.2227 221.786C57.097 226.311 58.0193 230.826 59.003 235.329C59.3797 237.726 59.3902 240.019 59.335 242.442C56.86 242.937 56.86 242.937 54.335 243.442C51.496 239.32 50.3415 235.212 49.335 230.379C49.1684 229.605 49.0018 228.831 48.8302 228.033C44.335 206.499 44.335 206.499 44.335 196.442C42.025 196.112 39.715 195.782 37.335 195.442C34.1774 199.652 33.6544 203.331 34.335 208.442C35.4375 211.967 36.9207 215.275 38.46 218.629C38.8666 219.55 39.2731 220.47 39.692 221.419C41.498 225.486 43.3572 229.522 45.3038 233.524C45.8503 234.652 46.3969 235.78 46.96 236.942C47.6909 238.381 47.6909 238.381 48.4366 239.848C49.4711 242.835 49.2342 244.452 48.335 247.442C47.015 247.442 45.695 247.442 44.335 247.442C43.3007 245.796 42.3074 244.125 41.335 242.442C40.4185 241.736 39.502 241.029 38.5577 240.301C34.6543 237.141 32.5764 233.209 30.1475 228.879C24.3915 219.062 18.0816 209.196 7.33503 204.442C8.87039 217.122 16.3517 224.931 24.335 234.442C25.7021 236.074 27.0685 237.707 28.4337 239.341C29.7094 240.866 30.9889 242.389 32.2686 243.911C36.335 248.892 36.335 248.892 36.335 251.879C34.9342 255.469 32.6585 256.797 29.335 258.442C26.7424 259.49 24.144 260.484 21.5069 261.415C19.0139 262.366 19.0139 262.366 17.335 265.442C17.335 273.186 19.6854 279.239 24.335 285.442C31.8127 292.217 39.0236 294.795 48.96 294.692C49.7103 294.7 50.4605 294.707 51.2335 294.715C56.6617 294.79 56.6617 294.79 61.335 292.442C62.6765 290.054 62.6765 290.054 63.585 287.317C63.9202 286.407 64.2553 285.497 64.6007 284.559C64.9642 283.511 64.9642 283.511 65.335 282.442C64.8142 282.764 64.2935 283.086 63.7569 283.419C58.1144 285.803 50.5729 285.345 44.7452 283.719C40.6322 281.827 37.96 279.809 36.335 275.442C35.2959 268.817 37.8177 263.887 41.335 258.442C44.7694 254.208 48.4828 250.294 52.335 246.442C54.96 246.817 54.96 246.817 57.335 247.442C58.0616 249.184 58.0616 249.184 58.335 251.442C56.8585 253.45 56.8585 253.45 54.71 255.567C50.5664 259.98 47.1106 264.582 45.335 270.442C45.6375 273.164 45.6375 273.164 46.335 275.442C49.7574 276.583 52.4218 276.54 56.0225 276.504C57.202 276.495 58.3815 276.486 59.5968 276.477C60.5004 276.465 61.404 276.454 62.335 276.442C62.6238 275.803 62.9125 275.163 63.21 274.504C64.335 272.442 64.335 272.442 66.335 271.442C66.005 269.462 65.675 267.482 65.335 265.442C68.21 264.817 68.21 264.817 71.335 264.442C73.335 266.442 73.335 266.442 73.5338 268.254C72.6605 291.68 72.6605 291.68 64.46 299.504C57.8243 305.213 47.5651 304.041 39.335 303.442C28.6362 301.006 19.6507 294.115 13.8077 284.985C9.93219 278.293 6.89039 272.359 8.33503 264.442C9.98846 260.089 12.349 256.885 16.335 254.442C19.3507 253.711 19.3507 253.711 22.585 253.254C23.6627 253.096 24.7403 252.937 25.8507 252.774C27.0804 252.61 27.0804 252.61 28.335 252.442C24.8139 247.791 21.2006 243.263 17.3631 238.868C8.46385 228.634 -0.184727 218.424 0.00300163 204.344C0.335033 201.442 0.335033 201.442 2.27253 198.129C5.90948 196.125 7.88216 195.899 11.921 196.594C17.9943 198.727 22.6915 203.252 26.335 208.442C26.3608 207.657 26.3866 206.872 26.4132 206.063C26.7744 199.372 27.3856 194.901 31.335 189.442C31.7475 188.782 32.16 188.122 32.585 187.442C35.1162 185.996 37.3342 186.326 40.1358 186.797Z" fill="#0A0A0A"/>
<path d="M149.335 0.00445824C150.53 0.00913109 151.725 0.0138039 152.956 0.0186184C165.527 0.220145 177.781 2.03278 190.18 3.98102C193.677 4.49197 197.165 4.83611 200.686 5.13288C215.096 6.36723 230.558 9.72535 242.335 18.442C243.219 19.0259 244.104 19.6098 245.015 20.2115C256.88 28.2807 269.955 41.2546 272.821 55.9339C272.93 56.7912 273.039 57.6485 273.151 58.5318C273.276 59.4812 273.4 60.4306 273.528 61.4088C273.65 62.3891 273.772 63.3694 273.897 64.3795C274.148 66.3262 274.399 68.2728 274.651 70.2193C274.768 71.1347 274.884 72.0501 275.004 72.9932C275.261 74.8955 275.574 76.7902 275.909 78.6802C278.707 96.8273 272.546 111.376 262.21 126.004C261.79 126.6 261.371 127.196 260.938 127.81C258.705 130.879 256.62 133.49 253.335 135.442C250.585 135.629 250.585 135.629 248.335 135.442C248.005 134.122 247.675 132.802 247.335 131.442C248.371 130.634 249.408 129.825 250.476 128.993C254.656 125.403 257.306 121.345 260.085 116.629C260.553 115.873 261.021 115.117 261.503 114.338C266.099 106.703 268.893 99.5294 268.71 90.5045C268.701 89.7608 268.693 89.0172 268.684 88.251C268.507 81.0783 267.837 73.9493 267.085 66.817C266.976 65.7149 266.867 64.6128 266.754 63.4774C265.415 51.9729 260.824 45.096 253.335 36.442C252.763 35.7613 252.19 35.0807 251.601 34.3795C241.586 23.3899 228.897 17.2779 214.438 14.815C212.194 14.417 209.979 13.9279 207.753 13.442C201.068 12.0968 194.306 11.5595 187.522 10.942C180.122 10.2621 172.767 9.55842 165.429 8.37165C131.969 3.01895 101.758 18.3198 75.0566 37.1949C71.0842 40.0722 67.2175 43.0846 63.3544 46.106C52.0068 54.8847 52.0068 54.8847 47.3349 56.442C46.1817 58.2685 46.1817 58.2685 45.3349 60.442C44.9134 61.3701 44.9134 61.3701 44.4834 62.317C37.9462 80.2775 43.9362 99.0519 49.3349 116.442C49.5739 117.214 49.8128 117.986 50.059 118.781C50.9171 121.538 51.7837 124.288 52.706 127.024C53.3735 129.59 53.4534 131.802 53.3349 134.442C48.8062 134.809 48.8062 134.809 46.7912 133.239C41.5685 126.793 40.1408 116.458 38.1474 108.567C37.8877 107.561 37.6279 106.556 37.3603 105.52C33.4679 90.353 31.2656 72.2885 38.4599 57.7545C43.4989 49.4482 51.9628 44.4587 59.7607 38.9849C62.9997 36.7018 66.1373 34.3038 69.2724 31.8795C85.0168 20.0505 104.259 8.52542 123.335 3.44196C124.3 3.18213 125.265 2.9223 126.259 2.6546C134.05 0.701181 141.314 -0.0663378 149.335 0.00445824Z" fill="#0C0C0C"/>
<path d="M375.542 228.813C388.313 229.048 388.313 229.048 393.335 233.442C398.855 239.765 400.252 245.733 399.847 254.04C398.576 262.49 394.636 267.857 388.104 273.165C385.024 275.388 383.097 275.578 379.335 275.567C378.448 275.57 377.561 275.572 376.647 275.575C374.335 275.442 374.335 275.442 372.335 274.442C372.358 275.429 372.381 276.417 372.405 277.434C372.432 279.356 372.432 279.356 372.46 281.317C372.483 282.593 372.506 283.869 372.53 285.184C372.335 288.442 372.335 288.442 370.335 290.442C367.772 290.192 367.772 290.192 365.335 289.442C363.635 286.042 363.861 282.159 363.616 278.411C363.553 277.505 363.49 276.599 363.426 275.666C363.225 272.758 363.03 269.85 362.835 266.942C362.639 264.062 362.442 261.183 362.244 258.303C362.121 256.511 361.999 254.719 361.88 252.927C361.823 252.094 361.766 251.26 361.708 250.401C361.626 249.185 361.626 249.185 361.542 247.945C361.252 244.439 360.802 240.955 360.333 237.47C360.335 235.442 360.335 235.442 362.335 233.442C364.897 233.254 364.897 233.254 367.335 233.442C367.665 233.772 367.995 234.102 368.335 234.442C368.854 233.629 369.374 232.815 369.909 231.977C372.335 229.442 372.335 229.442 375.542 228.813Z" fill="#070707"/>
<path d="M203.21 242.528C212.585 246.561 221.487 253.049 227.335 261.442C229.196 267.026 228.473 272.753 227.335 278.442C225.85 277.947 225.85 277.947 224.335 277.442C214.79 276.571 204.936 278.324 195.46 279.38C192.129 279.745 188.799 280.108 185.468 280.469C184.277 280.599 184.277 280.599 183.063 280.732C176.828 281.406 170.589 281.974 164.335 282.442C164.335 281.782 164.335 281.122 164.335 280.442C162.025 279.782 159.715 279.122 157.335 278.442C161.445 274.99 165.807 272.17 170.335 269.317C175.959 265.708 181.523 262.04 186.897 258.067C187.951 257.296 189.004 256.525 190.089 255.731C192.621 253.669 192.621 253.669 192.409 250.864C192.385 250.065 192.36 249.265 192.335 248.442C194.163 246.606 194.163 246.606 196.585 245.067C197.374 244.544 198.163 244.02 198.976 243.481C201.335 242.442 201.335 242.442 203.21 242.528Z" fill="#FAFAFA"/>
<path d="M137.335 197.442C137.335 198.102 137.335 198.762 137.335 199.442C138.451 199.43 139.568 199.419 140.718 199.407C149.952 199.341 159.17 199.458 168.398 199.817C169.355 199.848 170.312 199.879 171.298 199.91C172.633 199.969 172.633 199.969 173.995 200.028C174.785 200.059 175.576 200.091 176.39 200.123C178.335 200.442 178.335 200.442 180.335 202.442C179.542 210.546 175.346 220.24 169.273 225.692C163.659 230.146 158.363 230.959 151.335 230.813C144.144 229.924 139.337 225.098 134.878 219.68C130.584 213.451 128.392 206.986 129.335 199.442C132.563 197.29 133.619 197.241 137.335 197.442Z" fill="#090909"/>
<path d="M179.437 92.941C182.495 92.942 185.551 92.8998 188.608 92.856C201.723 92.7772 213.863 93.6955 224.491 102.387C230.846 109.469 237.335 120.808 237.335 130.442C233.273 130.927 231.614 130.624 228.136 128.352C226.967 127.411 225.804 126.461 224.647 125.504C212.951 116.443 199.62 111.129 185.835 106.004C184.952 105.674 184.069 105.344 183.159 105.004C172.238 101.093 161.696 100.116 150.147 99.8169C148.909 99.7783 147.671 99.7396 146.396 99.6998C143.375 99.6065 140.355 99.5207 137.335 99.4419C137.335 98.7819 137.335 98.1219 137.335 97.4419C136.675 97.1119 136.015 96.7819 135.335 96.4419C150.068 94.1622 164.525 92.9071 179.437 92.941Z" fill="#F8F8F8"/>
<path d="M144.022 18.942C148.264 19.5822 149.393 21.0012 151.948 24.3013C156.555 31.4123 158.497 38.013 158.335 46.442C159.913 45.6995 159.913 45.6995 161.522 44.942C164.599 43.6367 166.957 42.8789 170.335 43.442C173.357 45.7588 173.838 47.8179 174.397 51.5045C174.914 55.4242 174.914 55.4242 177.335 58.442C178.057 57.7613 178.779 57.0807 179.522 56.3795C182.335 54.442 182.335 54.442 184.647 54.3795C187.797 55.6247 190.452 57.2511 193.269 59.1216C195.222 60.3696 197.193 61.3632 199.272 62.3795C202.335 64.442 202.335 64.442 203.335 67.5045C203.335 70.442 203.335 70.442 202.335 73.442C202.296 75.1082 202.29 76.7759 202.335 78.442C201.015 78.772 199.695 79.102 198.335 79.442C194.389 74.2229 194.389 74.2229 194.085 69.817C193.712 66.4391 193.712 66.4391 191.608 65.1099C188.343 63.4299 186.045 62.442 182.335 62.442C181.345 63.102 180.355 63.762 179.335 64.442C176.96 64.942 176.96 64.942 174.335 64.442C169.493 60.0508 168.281 55.7968 167.335 49.442C166.732 49.7423 166.128 50.0427 165.507 50.3521C164.708 50.7324 163.908 51.1127 163.085 51.5045C162.296 51.8873 161.507 52.2702 160.694 52.6646C158.057 53.5335 156.892 53.4319 154.335 52.442C152.48 50.5874 152.808 47.4405 152.522 44.942C151.692 38.7674 150.141 33.945 147.335 28.442C147.005 27.452 146.675 26.462 146.335 25.442C143.61 27.8547 142.21 30.3923 140.585 33.6295C137.788 38.9141 134.483 43.1593 130.335 47.442C133.339 49.4449 135.045 49.9347 138.522 50.567C139.424 50.7345 140.325 50.9021 141.253 51.0748C141.94 51.1959 142.627 51.3171 143.335 51.442C143.665 53.092 143.995 54.742 144.335 56.442C143.345 57.102 142.355 57.762 141.335 58.442C140.92 60.4708 140.92 60.4708 141.042 62.7935C141.052 63.6443 141.061 64.4951 141.071 65.3716C141.096 66.2611 141.122 67.1505 141.147 68.067C141.161 68.9641 141.175 69.8613 141.188 70.7857C141.224 73.0051 141.273 75.2232 141.335 77.442C139.46 78.067 139.46 78.067 137.335 78.442C135.335 76.442 135.335 76.442 135.108 74.4708C135.118 73.6852 135.129 72.8997 135.14 72.0904C135.146 71.2396 135.153 70.3888 135.159 69.5123C135.176 68.6228 135.193 67.7334 135.21 66.817C135.219 65.9198 135.228 65.0226 135.237 64.0982C135.261 61.8792 135.294 59.6607 135.335 57.442C134.106 57.3234 132.878 57.2048 131.612 57.0826C126.672 56.4597 123.056 54.7919 119.335 51.442C118.335 48.6295 118.335 48.6295 118.335 46.442C118.831 46.1738 119.328 45.9057 119.839 45.6295C129.301 40.171 134.068 32.6402 138.952 23.1021C140.803 19.5409 140.803 19.5409 144.022 18.942Z" fill="#0C0C0C"/>
<path d="M260.335 228.442C261.985 228.772 263.635 229.102 265.335 229.442C265.665 235.052 265.995 240.662 266.335 246.442C267.304 245.246 268.274 244.049 269.273 242.817C273.907 237.535 278.961 233.424 285.773 231.442C286.618 231.442 287.464 231.442 288.335 231.442C290.335 233.442 290.335 233.442 290.335 236.442C289.302 236.973 288.27 237.504 287.206 238.051C283.189 240.347 280.402 243.218 277.398 246.692C276.904 247.246 276.411 247.801 275.903 248.372C274.705 249.721 273.519 251.08 272.335 252.442C273.518 254.85 274.753 257.216 276.026 259.579C279.532 266.175 282.204 271.822 282.335 279.442C280.355 279.937 280.355 279.937 278.335 280.442C277.864 279.333 277.394 278.225 276.909 277.083C276.281 275.619 275.652 274.155 275.023 272.692C274.714 271.962 274.405 271.233 274.087 270.481C271.8 265.106 271.8 265.106 268.335 260.442C267.675 260.442 267.015 260.442 266.335 260.442C266.286 261.718 266.237 262.994 266.187 264.309C266.112 265.978 266.036 267.648 265.96 269.317C265.929 270.159 265.898 271 265.866 271.868C265.828 272.673 265.789 273.479 265.749 274.309C265.702 275.425 265.702 275.425 265.654 276.563C265.335 278.442 265.335 278.442 263.335 280.442C259.799 279.906 259.799 279.906 258.335 278.442C258.232 276.949 258.196 275.451 258.19 273.954C258.183 272.999 258.177 272.045 258.17 271.062C258.169 270.023 258.168 268.985 258.167 267.915C258.164 266.855 258.16 265.796 258.157 264.705C258.152 262.459 258.15 260.214 258.15 257.969C258.148 254.523 258.129 251.077 258.11 247.631C258.107 245.455 258.105 243.279 258.105 241.102C258.097 240.066 258.09 239.029 258.083 237.961C258.086 237.004 258.089 236.046 258.092 235.059C258.091 234.214 258.089 233.369 258.088 232.498C258.335 230.442 258.335 230.442 260.335 228.442Z" fill="#0B0B0B"/>
<path d="M190.335 18.442C195.555 19.9037 201.276 21.7141 204.335 26.442C204.897 29.3795 204.897 29.3795 204.335 32.442C200.723 37.452 196.158 39.1152 190.335 40.442C187.272 40.6295 187.272 40.6295 185.335 40.442C185.665 43.412 185.995 46.382 186.335 49.442C183.335 51.442 183.335 51.442 181.272 51.2545C179.335 50.442 179.335 50.442 177.335 47.442C176.289 42.063 176.09 36.7162 176.022 31.2545C175.993 30.4611 175.964 29.6677 175.934 28.8502C175.893 25.0958 175.897 23.0789 178.065 19.9225C182.044 17.3273 185.756 17.7879 190.335 18.442Z" fill="#0A0A0A"/>
<path d="M345.335 254.442C345.005 256.092 344.675 257.742 344.335 259.442C342.21 259.777 340.085 260.11 337.96 260.442C336.777 260.628 335.593 260.813 334.374 261.004C331.335 261.442 331.335 261.442 329.335 261.442C331.798 264.11 334.386 266.227 337.335 268.317C340.908 270.989 343.432 273.305 345.335 277.442C345.653 281.647 345.04 284.526 342.46 287.879C338.694 290.649 335.086 290.838 330.562 290.794C328.335 290.442 328.335 290.442 325.335 288.192C323.575 285.772 322.66 284.37 322.335 281.442C321.531 281.463 320.726 281.483 319.897 281.504C317.335 281.442 317.335 281.442 316.335 280.442C316.207 277.535 316.15 274.662 316.147 271.754C316.135 270.951 316.123 270.147 316.11 269.319C316.099 264.621 316.529 260.86 318.335 256.442C318.995 256.442 319.655 256.442 320.335 256.442C322.41 261.92 322.65 266.809 322.796 272.614C323.063 274.014 323.063 274.014 323.335 275.442C325.26 276.754 325.26 276.754 327.335 277.442C328.085 279.567 328.085 279.567 328.335 281.442C329.614 281.628 330.892 281.813 332.21 282.004C332.929 282.109 333.649 282.213 334.39 282.321C336.416 282.61 336.416 282.61 338.335 281.442C338.348 278.089 338.348 278.089 337.335 274.442C335.098 272.623 333.338 271.423 330.835 270.129C324.418 266.607 324.418 266.607 323.335 264.442C322.96 261.567 322.96 261.567 323.335 258.442C327.135 254.521 330.096 253.874 335.46 253.629C336.679 253.561 337.899 253.493 339.155 253.422C342.335 253.442 342.335 253.442 345.335 254.442Z" fill="#0B0B0B"/>
<path d="M143.335 113.442C146.96 113.383 150.585 113.348 154.21 113.317C155.223 113.3 156.236 113.283 157.28 113.266C168.279 113.196 177.826 115.652 188.21 119.129C189.228 119.443 190.247 119.757 191.296 120.081C199.528 122.848 199.528 122.848 202.03 127.087C203.335 130.442 203.335 130.442 203.335 132.442C193.196 131.303 183.854 127.649 174.337 124.166C172.679 123.566 171.008 123 169.335 122.442C169.335 121.782 169.335 121.122 169.335 120.442C168.345 120.772 167.355 121.102 166.335 121.442C166.005 123.752 165.675 126.062 165.335 128.442C163.145 125.157 162.337 122.235 161.335 118.442C160.345 118.772 159.355 119.102 158.335 119.442C157.991 124.961 158.892 128.352 161.397 133.254C162.431 135.29 163.424 137.348 164.335 139.442C164.005 140.102 163.675 140.762 163.335 141.442C159.34 138.495 156.304 135.196 153.335 131.254C152.901 130.684 152.466 130.113 152.019 129.525C143.335 117.919 143.335 117.919 143.335 113.442Z" fill="#F4F4F4"/>
<path d="M369.335 237.442C371.563 237.333 373.793 237.256 376.023 237.192C377.264 237.146 378.505 237.099 379.784 237.051C383.95 237.51 385.446 238.465 388.335 241.442C390.885 245.237 390.551 248.432 390.011 252.833C388.72 257.818 385.706 262.035 381.261 264.672C378.787 265.661 377.787 265.438 375.335 264.442C373.288 263.336 373.288 263.336 371.335 261.442C370.507 258.184 370.507 258.184 370.085 254.317C370.009 253.649 369.933 252.981 369.855 252.293C369.324 247.315 369.16 242.441 369.335 237.442Z" fill="#F7F7F7"/>
<path d="M86.335 274.442C88.6475 274.712 90.96 274.983 93.2725 275.254C94.0159 275.341 94.7594 275.428 95.5254 275.518C100.21 276.068 104.892 276.631 109.573 277.208C111.744 277.474 113.914 277.739 116.085 278.004C117.159 278.136 118.234 278.268 119.341 278.404C125.951 279.2 132.521 279.838 139.175 280.133C141.335 280.442 141.335 280.442 143.335 282.442C142.799 285.978 142.799 285.978 141.335 287.442C126.471 288.209 112.084 286.262 97.5225 283.442C96.6558 283.276 95.7892 283.11 94.8962 282.939C94.0858 282.775 93.2754 282.611 92.4404 282.442C91.3599 282.225 91.3599 282.225 90.2576 282.004C88.335 281.442 88.335 281.442 85.335 279.442C85.665 277.792 85.995 276.142 86.335 274.442Z" fill="#0C0C0C"/>
<path d="M136.335 206.442C152.67 207.432 152.67 207.432 169.335 208.442C168.185 216.495 168.185 216.495 163.335 220.442C158.785 223.106 154.478 223.541 149.335 222.442C142.445 218.306 139.977 213.727 136.335 206.442Z" fill="#F9F9F9"/>
<path d="M288.335 245.442C291.161 246.475 292.165 247.121 293.6 249.825C293.925 250.73 294.25 251.635 294.585 252.567C294.92 253.477 295.255 254.387 295.6 255.325C295.964 256.373 295.964 256.373 296.335 257.442C297.18 256.638 298.026 255.833 298.897 255.004C302.259 252.229 304.894 251.361 309.335 251.442C312.703 253.346 314.045 254.46 315.147 258.192C315.209 258.934 315.271 259.677 315.335 260.442C312.468 259.869 311.473 259.581 309.335 257.442C306.683 257.629 305.595 258.174 303.737 260.086C299.581 266.238 297.736 272.179 296.335 279.442C294.46 280.067 294.46 280.067 292.335 280.442C289.532 277.639 289.959 274.89 289.835 271.129C289.544 264.682 288.817 258.47 287.64 252.114C287.344 249.526 287.509 247.886 288.335 245.442Z" fill="#0E0E0E"/>
<path d="M43.335 305.442C43.9263 313.55 41.8646 319.773 39.0225 327.317C38.6184 328.444 38.2142 329.57 37.7979 330.731C34.3134 340.204 34.3134 340.204 31.335 342.442C26.9139 342.021 26.9139 342.021 25.335 340.442C25.0339 336.084 25.6195 333.024 27.3467 329.036C27.7753 328.044 28.2039 327.053 28.6455 326.032C29.3271 324.502 29.3271 324.502 30.0225 322.942C30.6751 321.412 30.6751 321.412 31.3408 319.852C37.6652 305.442 37.6652 305.442 43.335 305.442Z" fill="#090909"/>
<path d="M322.335 260.442C322.603 261.04 322.871 261.638 323.147 262.254C325.839 267.213 330.279 269.248 335.058 271.942C337.335 273.442 337.335 273.442 339.335 276.442C339.647 279.004 339.647 279.004 339.335 281.442C336.087 283.607 335.104 283.994 331.335 283.442C329.272 281.692 329.272 281.692 327.335 279.442C326.662 278.872 325.989 278.302 325.296 277.715C322.769 274.786 322.517 272.625 322.022 268.817C321.861 267.67 321.7 266.522 321.534 265.34C321.335 262.442 321.335 262.442 322.335 260.442Z" fill="#F3F3F3"/>
<path d="M118.335 114.442C114.949 117.914 111.458 121.115 107.71 124.192C106.769 124.971 105.828 125.749 104.858 126.551C102.335 128.442 102.335 128.442 99.335 129.442C101.112 119.473 101.112 119.473 103.952 117.079C105.772 116.317 105.772 116.317 109.335 115.442C110.036 115.215 110.737 114.988 111.46 114.754C113.773 114.369 115.995 114.377 118.335 114.442Z" fill="#E9E9E9"/>
<path d="M183.335 25.442C188.308 25.9393 191.973 26.995 196.335 29.442C193.89 32.4072 191.889 32.9978 188.147 33.6295C187.246 33.788 186.345 33.9466 185.417 34.1099C184.73 34.2195 184.043 34.3291 183.335 34.442C183.335 31.472 183.335 28.502 183.335 25.442Z" fill="#F3F3F3"/>
<path d="M315.335 239.442C317.273 239.692 317.273 239.692 319.335 240.442C321.335 243.442 321.335 243.442 320.96 246.129C320.754 246.893 320.548 247.656 320.335 248.442C317.96 248.629 317.96 248.629 315.335 248.442C313.335 245.442 313.335 245.442 313.648 242.817C314.335 240.442 314.335 240.442 315.335 239.442Z" fill="#1B1B1B"/>
<path d="M132.335 97.4419C132.005 98.4319 131.675 99.4219 131.335 100.442C130.466 100.503 129.597 100.563 128.702 100.626C127.55 100.709 126.397 100.793 125.21 100.879C124.073 100.961 122.936 101.042 121.765 101.126C118.581 101.419 115.48 101.873 112.335 102.442C112.335 101.782 112.335 101.122 112.335 100.442C110.025 100.442 107.715 100.442 105.335 100.442C105.335 100.112 105.335 99.7819 105.335 99.4419C106.504 99.3814 107.673 99.3208 108.878 99.2584C110.426 99.1739 111.974 99.0893 113.522 99.0044C114.291 98.9651 115.06 98.9258 115.853 98.8853C121.405 98.5755 126.787 97.2834 132.335 97.4419Z" fill="#CBCBCB"/>
<path d="M209.335 127.442C211.318 128.393 213.296 129.353 215.272 130.317C216.375 130.851 217.477 131.384 218.612 131.934C221.335 133.442 221.335 133.442 222.335 135.442C215.015 135.93 215.015 135.93 211.897 133.692C210.368 131.489 209.892 130.014 209.335 127.442Z" fill="#E1E1E1"/>
<path d="M95.335 120.442C94.015 125.722 92.695 131.002 91.335 136.442C90.675 136.442 90.015 136.442 89.335 136.442C89.645 134.837 89.9581 133.233 90.2725 131.629C90.4465 130.736 90.6205 129.843 90.7998 128.922C91.335 126.442 91.335 126.442 92.335 123.442C90.685 123.442 89.035 123.442 87.335 123.442C90.1093 121.592 91.9754 120.442 95.335 120.442Z" fill="#BCBCBC"/>
<path d="M244.335 134.442C246.645 134.772 248.955 135.102 251.335 135.442C249.693 137.463 248.026 139.462 246.335 141.442C246.005 141.442 245.675 141.442 245.335 141.442C245.005 139.132 244.675 136.822 244.335 134.442Z" fill="#D9D9D9"/>
<path d="M95.335 120.442C95.005 122.092 94.675 123.742 94.335 125.442C93.675 125.442 93.015 125.442 92.335 125.442C92.335 124.782 92.335 124.122 92.335 123.442C90.685 123.442 89.035 123.442 87.335 123.442C90.1093 121.592 91.9754 120.442 95.335 120.442Z" fill="#A7A7A7"/>
</svg>
