<svg width="303" height="411" viewBox="0 0 303 411" fill="none" xmlns="http://www.w3.org/2000/svg">
<path d="M189.278 0C190.268 0 191.258 0 192.278 0C192.443 0.99 192.608 1.98 192.778 3C194.038 7.49578 196.925 9.89167 200.232 13.0352C207.006 19.5384 207.006 19.5384 207.532 24.2969C207.305 28.5146 206.806 30.4456 203.841 33.5625C201.278 35 201.278 35 199.278 35C199.313 35.7361 199.348 36.4721 199.384 37.2305C199.542 42.9343 199.458 46.1666 196.278 51C195.871 53.3398 195.657 55.6434 195.489 58.0117C195.278 60 195.278 60 194.278 62C195.311 61.8556 196.343 61.7113 197.407 61.5625C206.414 60.3878 215.318 59.7852 224.403 59.75C225.362 59.741 226.32 59.732 227.308 59.7227C241.821 59.7836 254.184 65.2461 264.403 75.4375C270.96 82.1957 276.541 89.6366 282.017 97.2773C283.665 99.5275 285.437 101.665 287.216 103.812C293.583 112.014 296.439 121.981 299.091 131.875C299.402 132.957 299.714 134.038 300.034 135.152C302.373 143.777 304.643 154.002 300.466 162.375C298.672 165.177 296.674 167.81 294.673 170.465C287.356 180.173 282.855 189.163 279.059 200.744C271.893 222.597 271.893 222.597 263.278 228C259.441 229.8 256.258 230.295 252.036 230.457C250.803 230.518 249.569 230.579 248.298 230.643C245.772 230.753 243.246 230.855 240.72 230.947C233.756 231.308 227.363 232.148 220.594 233.859C205.399 237.657 190.548 237.561 175.017 237.285C170.055 237.203 165.093 237.164 160.131 237.118C157.505 237.094 154.88 237.058 152.255 237.015C151.088 236.999 149.921 236.983 148.718 236.966C147.689 236.949 146.659 236.931 145.598 236.913C143.316 236.735 143.316 236.735 142.278 238C136.802 237.659 132.964 235.995 128.403 233.125C121.842 229.192 115.195 225.234 107.278 226C110.179 227.934 111.175 228.301 114.466 228.625C115.724 228.749 116.982 228.873 118.278 229C118.278 230.32 118.278 231.64 118.278 233C114.8 234.739 111.082 234.45 107.278 234C103.335 232.104 101.278 230.132 99.0284 226.5C96.4136 222.606 93.6749 221.783 89.3526 220.277C78.7842 215.886 68.8222 208.504 60.2784 201C59.6932 200.509 59.1079 200.018 58.505 199.512C37.2016 180.159 28.5077 150.286 26.9893 122.566C26.7375 111.2 28.9957 102.835 36.2784 94C45.9192 83.9736 57.2443 75.6364 69.7784 69.625C70.7367 69.1607 70.7367 69.1607 71.7144 68.687C83.6118 63.2646 95.1377 61.308 108.153 61.5C108.85 61.5035 109.547 61.5071 110.265 61.5107C120.684 61.5729 130.417 62.3669 140.278 66C140.586 65.0512 140.895 64.1025 141.212 63.125C142.278 60 142.278 60 143.341 58C146.346 51.5881 145.534 43.7367 145.574 36.7971C145.585 35.396 145.606 33.9949 145.635 32.594C145.873 21.779 145.873 21.779 142.045 11.8079C141.068 9.50393 141.465 8.31505 142.278 6C143.008 6.14437 143.738 6.28875 144.489 6.4375C154.146 8.15421 163.499 8.19756 173.278 8C173.608 9.32 173.938 10.64 174.278 12C172.958 12.66 171.638 13.32 170.278 14C169.948 22.58 169.618 31.16 169.278 40C171.258 39.01 171.258 39.01 173.278 38C175.603 37.6125 177.937 37.2702 180.278 37C179.453 36.505 178.628 36.01 177.778 35.5C175.278 33 175.278 33 174.716 29.0625C174.965 25.0175 176.347 22.8454 179.278 20C182.794 18.242 186.442 18.4641 190.278 19C193.388 20.2062 195.899 21.651 198.278 24C199.278 27.3125 199.278 27.3125 199.278 30C200.945 28.8355 200.945 28.8355 202.278 27C201.993 22.3866 199.928 19.9803 196.966 16.5625C196.158 15.6021 195.349 14.6418 194.517 13.6523C193.778 12.7771 193.039 11.9018 192.278 11C188.194 5.97062 188.194 5.97062 188.528 2.125C188.9 1.07313 188.9 1.07313 189.278 0Z" fill="#0D0D0D"/>
<path d="M111.013 284.434C115.288 287.389 118.944 291.333 121.278 296C122.131 304.487 121.784 311.255 116.278 318C111.503 322.998 106.423 326.862 100.278 330C101.413 330.516 102.547 331.031 103.716 331.563C113.494 336.495 120.887 343.962 127.278 352.75C128.383 356.34 128.088 358.596 127.778 362.313C127.67 366.478 127.666 368.281 130.399 371.492C132.313 372.984 134.266 374.427 136.251 375.824C144.402 381.682 152.187 390.564 153.903 400.688C153.265 404.07 152.341 406.288 149.989 408.844C146.762 411.025 143.076 410.984 139.278 411C138.618 409.68 137.958 408.36 137.278 407C141.238 405.515 141.238 405.515 145.278 404C145.053 395.231 137.186 388.512 131.278 382.731C128.469 380.3 125.595 378.658 122.278 377C121.578 377.897 120.878 378.795 120.157 379.719C106.248 396.368 79.7824 404.624 58.8969 406.789C41.4457 408.195 25.4025 407.269 9.27824 400C8.50093 399.715 7.72363 399.43 6.92277 399.137C4.76713 398.271 3.07028 397.479 1.27824 396C0.393693 392.904 0.217569 391.124 0.278236 388C0.23183 387.018 0.185424 386.036 0.137611 385.024C-0.147143 376.827 -0.147143 376.827 1.71427 373.21C3.29475 369.966 4.00488 367.259 4.6298 363.719C4.8412 362.547 5.05261 361.375 5.27042 360.168C5.47925 358.958 5.68808 357.747 5.90324 356.5C6.1198 355.29 6.33636 354.079 6.55949 352.832C7.14326 349.557 7.71651 346.28 8.27824 343C8.4811 341.955 8.68397 340.911 8.89298 339.834C9.45792 336.856 9.45792 336.856 8.52824 333.375C8.44574 332.261 8.36324 331.148 8.27824 330C10.4657 327.813 10.4657 327.813 13.2782 326C16.4757 323.064 18.9524 319.844 21.4657 316.313C25.2088 311.07 25.2088 311.07 26.2782 310C26.5148 307.474 26.7 304.969 26.8407 302.438C26.8839 301.727 26.9271 301.016 26.9716 300.283C27.078 298.523 27.1786 296.761 27.2782 295C29.1064 294.348 29.1064 294.348 31.2782 294C34.0282 296.438 34.0282 296.438 36.2782 299C39.7782 297.355 42.9575 295.328 46.2157 293.25C65.7622 281.072 89.1808 272.638 111.013 284.434Z" fill="#090909"/>
<path d="M213.278 65C215.31 66.6601 215.31 66.6601 216.778 69.0625C217.344 69.979 217.91 70.8955 218.493 71.8398C219.082 72.8827 219.671 73.9255 220.278 75C220.94 76.1357 221.601 77.2713 222.282 78.4414C227.284 87.2624 230.968 96.4299 234.278 106C234.625 106.996 234.972 107.992 235.33 109.018C237.286 114.632 239.228 120.251 241.157 125.875C243.142 131.645 245.226 137.37 247.403 143.07C252.055 158.646 249.311 176.755 247.966 192.687C247.907 193.422 247.848 194.156 247.787 194.912C247.11 203.22 246.193 211.118 243.278 219C242.618 219 241.958 219 241.278 219C240.948 221.31 240.618 223.62 240.278 226C238.967 226.039 238.967 226.039 237.63 226.078C231.361 226.367 225.552 226.818 219.461 228.451C206.512 231.906 193.3 231.672 179.992 231.885C174.804 231.973 169.641 232.204 164.466 232.562C145.586 233.769 145.586 233.769 139.278 231C138.524 230.709 137.77 230.417 136.993 230.117C132.951 228.454 129.108 226.423 125.216 224.437C118.833 221.314 112.888 220.176 105.872 219.074C100.698 217.528 98.4393 214.814 95.583 210.352C94.1283 207.577 92.6875 204.798 91.2783 202C90.7008 200.907 90.1233 199.814 89.5283 198.687C82.7057 178.561 85.2521 155.201 90.7271 135.139C91.4203 132.449 91.8876 129.748 92.2783 127C97.0231 127.679 101.067 129.498 105.403 131.437C106.119 131.75 106.834 132.063 107.571 132.385C110.656 133.748 113.466 135.125 116.278 137C116.966 140.125 116.966 140.125 117.278 143C122.756 144.583 122.756 144.583 128.278 146C128.608 144.35 128.938 142.7 129.278 141C128.288 140.67 127.298 140.34 126.278 140C126.938 138.02 127.598 136.04 128.278 134C129.268 134 130.258 134 131.278 134C131.306 136.208 131.325 138.417 131.341 140.625C131.352 141.855 131.364 143.085 131.376 144.352C131.286 147.699 130.838 150.707 130.278 154C130.023 157.122 129.868 160.247 129.716 163.375C129.673 164.206 129.629 165.038 129.585 165.895C129.48 167.93 129.379 169.965 129.278 172C124.18 171.306 119.713 169.207 115.028 167.187C114.22 166.844 113.412 166.5 112.579 166.146C107.786 164.102 103.029 161.994 98.301 159.801C95.2994 158.612 92.4852 158.273 89.2783 158C89.9383 158.99 90.5983 159.98 91.2783 161C92.2683 161 93.2583 161 94.2783 161C94.2783 162.65 94.2783 164.3 94.2783 166C92.7933 166.495 92.7933 166.495 91.2783 167C90.7833 167.99 90.7833 167.99 90.2783 169C92.2583 169 94.2383 169 96.2783 169C96.3995 169.687 96.5207 170.374 96.6455 171.082C96.8131 171.983 96.9807 172.884 97.1533 173.812C97.3158 174.706 97.4782 175.599 97.6455 176.52C98.1902 179.227 98.1902 179.227 100.278 182C102.888 182.384 105.284 182.603 107.903 182.687C108.61 182.722 109.316 182.756 110.044 182.791C111.788 182.874 113.533 182.938 115.278 183C115.113 183.66 114.948 184.32 114.778 185C113.762 190.499 113.762 190.499 114.278 196C116.237 198.239 118.558 199.528 121.153 200.937C121.804 201.322 122.455 201.707 123.126 202.104C125.472 203.48 127.846 204.784 130.278 206C130.806 208.512 130.806 208.512 131.216 211.687C132.174 218.243 132.174 218.243 135.278 224C138.226 225.158 138.226 225.158 141.278 225C142.268 224.34 143.258 223.68 144.278 223C146.966 222.875 146.966 222.875 149.278 223C149.278 222.01 149.278 221.02 149.278 220C145.978 220.33 142.678 220.66 139.278 221C137.177 215.922 136.199 212.533 136.278 207C137.743 207.016 137.743 207.016 139.237 207.032C142.943 207.069 146.648 207.091 150.353 207.11C151.941 207.12 153.53 207.133 155.118 207.151C164.781 207.255 174.084 206.873 183.647 205.433C187.587 204.963 191.316 204.931 195.278 205C194.228 208.57 192.931 210.405 190.153 212.75C188.083 214.669 187.35 215.563 186.888 218.383C186.902 220.618 187.012 222.782 187.278 225C187.938 225 188.598 225 189.278 225C189.32 224.278 189.361 223.556 189.403 222.812C190.439 219.484 191.892 218.653 194.638 216.664C196.81 214.46 197.55 212.105 198.716 209.25C200.157 206.34 200.157 206.34 202.278 204C207.362 202.722 212.069 202.715 217.278 203C217.53 202.032 217.781 201.064 218.04 200.066C218.449 199.054 218.857 198.043 219.278 197C221.254 196.449 223.237 195.909 225.251 195.523C228.783 194.612 230.146 192.903 232.278 190C236.43 181.548 237.754 172.201 239.278 163C234.79 163.731 232.81 165.141 229.278 168C222.149 172.159 218.683 171 209.278 171C209.278 162.42 209.278 153.84 209.278 145C210.598 145 211.918 145 213.278 145C213.448 144.394 213.619 143.788 213.794 143.164C215.594 136.94 217.775 130.974 220.278 125C220.938 125 221.598 125 222.278 125C222.278 124.01 222.278 123.02 222.278 122C223.928 122 225.578 122 227.278 122C227.278 121.01 227.278 120.02 227.278 119C226.288 118.67 225.298 118.34 224.278 118C225.732 117.629 225.732 117.629 227.216 117.25C228.226 116.837 229.237 116.425 230.278 116C231.014 113.974 231.014 113.974 231.278 112C230.693 112.144 230.108 112.289 229.505 112.437C220.431 114.399 211.507 114.183 202.278 114C201.863 112.708 201.863 112.708 201.44 111.389C200.394 108.149 199.34 104.912 198.281 101.677C197.826 100.285 197.375 98.891 196.928 97.4963C193.582 87.0784 190.392 77.6502 182.278 70C182.278 69.34 182.278 68.68 182.278 68C185.944 67.4913 189.611 66.9946 193.278 66.5C194.308 66.3569 195.338 66.2138 196.399 66.0664C208.187 64.4897 208.187 64.4897 213.278 65Z" fill="#FAFAFA"/>
<path d="M98.1103 66.9023C99.4026 66.9055 100.695 66.9088 102.026 66.9121C103.381 66.9204 104.736 66.9289 106.091 66.9375C107.465 66.9425 108.839 66.9471 110.214 66.9511C113.569 66.9629 116.923 66.9794 120.278 67C118.071 68.6841 115.899 70.2328 113.528 71.6875C99.2307 81.8608 94.5523 96.7313 90.2783 113C88.6283 113 86.9783 113 85.2783 113C85.8801 115.02 86.5513 117.021 87.2783 119C88.2683 119.495 88.2683 119.495 89.2783 120C88.6595 119.835 88.0408 119.67 87.4033 119.5C81.7192 118.591 75.8416 118.381 70.2783 120C70.2783 120.66 70.2783 121.32 70.2783 122C71.1587 121.977 72.0391 121.954 72.9463 121.93C74.1077 121.912 75.2691 121.894 76.4658 121.875C77.6143 121.852 78.7629 121.829 79.9463 121.805C83.1957 121.995 85.3649 122.606 88.2783 124C87.1384 131.784 85.5552 139.399 83.6875 147.035C78.8195 167.034 78.6397 191.552 89.1689 209.777C89.535 210.511 89.9011 211.244 90.2783 212C89.9483 212.66 89.6183 213.32 89.2783 214C63.8183 199.454 44.5813 179.737 36.2783 151C35.0247 146.044 34.107 141.044 33.2783 136C33.0965 135.069 32.9148 134.139 32.7275 133.18C31.3371 123.338 30.0832 110.855 35.5517 102.148C49.8067 84.4103 74.5094 66.7983 98.1103 66.9023Z" fill="#FCFCFC"/>
<path d="M175.278 69.9999C177.153 71.4999 177.153 71.4999 178.278 72.9999C178.608 72.3399 178.938 71.6799 179.278 70.9999C189.809 80.7515 193.622 96.4755 197.278 110C197.278 110.99 197.278 111.98 197.278 113C189.358 113.33 181.438 113.66 173.278 114C172.618 115.32 171.958 116.64 171.278 118C172.268 117.67 173.258 117.34 174.278 117C176.506 116.931 178.737 116.915 180.966 116.937C182.735 116.951 182.735 116.951 184.54 116.965C185.444 116.976 186.347 116.988 187.278 117C187.278 117.66 187.278 118.32 187.278 119C182.988 119 178.698 119 174.278 119C174.278 119.66 174.278 120.32 174.278 121C173.618 121 172.958 121 172.278 121C172.278 121.99 172.278 122.98 172.278 124C173.268 123.67 174.258 123.34 175.278 123C177.321 123.926 177.321 123.926 179.466 125.312C180.539 125.987 180.539 125.987 181.634 126.676C182.176 127.113 182.719 127.55 183.278 128C183.278 128.66 183.278 129.32 183.278 130C184.485 130.278 184.485 130.278 185.716 130.562C190.678 132.565 194.309 135.45 198.278 139C198.982 139.615 199.686 140.23 200.411 140.863C205.179 145.834 205.84 150.113 205.778 156.75C205.668 161.245 205.315 165.613 204.278 170C201.638 169.67 198.998 169.34 196.278 169C195.962 175.798 197.151 182.31 198.278 189C197.519 189.061 196.76 189.121 195.977 189.184C194.984 189.267 193.99 189.351 192.966 189.437C191.486 189.559 191.486 189.559 189.977 189.684C187.184 189.918 187.184 189.918 184.278 191C184.278 187.37 184.278 183.74 184.278 180C168.274 178.681 168.274 178.681 152.278 179C150.08 181.198 149.819 182.175 149.153 185.125C148.864 186.404 148.576 187.682 148.278 189C143.988 189 139.698 189 135.278 189C135.083 180.601 135.083 180.601 135.278 178C136.268 177.01 136.268 177.01 137.278 176C137.278 175.01 137.278 174.02 137.278 173C136.288 172.67 135.298 172.34 134.278 172C133.772 157.576 134.076 143.911 138.278 130C138.938 129.34 139.598 128.68 140.278 128C140.624 125.24 140.721 122.505 140.837 119.726C141.337 116.638 142.122 115.238 144.278 113C146.966 112.25 146.966 112.25 149.278 112C148.783 110.515 148.783 110.515 148.278 109C146.263 108.267 146.263 108.267 144.278 108C144.854 99.5475 147.878 90.7178 154.278 84.9999C153.612 88.9999 152.945 92.9999 152.278 96.9999C153.598 97.3299 154.918 97.6599 156.278 97.9999C156.072 97.2368 155.866 96.4737 155.653 95.6874C155.278 92.9999 155.278 92.9999 157.278 89.9999C157.982 83.9028 156.408 80.9887 153.278 75.9999C153.278 75.3399 153.278 74.6799 153.278 73.9999C153.938 73.9999 154.598 73.9999 155.278 73.9999C155.608 74.6599 155.938 75.3199 156.278 75.9999C157.598 75.9999 158.918 75.9999 160.278 75.9999C160.464 75.3812 160.649 74.7624 160.841 74.1249C163.856 69.6671 170.273 69.4312 175.278 69.9999Z" fill="#FCFCFC"/>
<path d="M216.278 64.0001C230.517 63.0484 244.19 64.6952 255.513 74.3438C256.387 75.1636 256.387 75.1636 257.278 76.0001C257.943 76.5879 258.609 77.1757 259.294 77.7813C266.353 84.3834 272.006 92.1845 277.729 99.9341C278.739 101.281 279.773 102.612 280.832 103.921C288.029 112.953 291.079 122.915 293.528 134.063C294.032 136.283 294.537 138.503 295.044 140.723C295.258 141.69 295.473 142.656 295.693 143.653C296.188 146.001 296.188 146.001 297.278 148C298.183 157.052 293.741 162.526 288.403 169.25C281.249 178.332 277.197 187.627 274.101 198.698C268.349 219.184 268.349 219.184 260.091 224.375C255.823 225.324 251.628 225.127 247.278 225C247.475 224.319 247.672 223.639 247.875 222.938C250.204 214.36 251.24 205.829 251.966 197C252.06 195.899 252.06 195.899 252.155 194.776C253.028 184.395 253.583 174.046 253.653 163.625C253.667 162.523 253.681 161.421 253.695 160.285C253.628 148.691 250.393 138.635 246.028 128C243.068 120.641 240.299 113.27 237.778 105.75C233.447 93.0591 228.501 79.6481 219.493 69.4961C218.278 68.0001 218.278 68.0001 218.278 66.0001C217.618 66.0001 216.958 66.0001 216.278 66.0001C216.278 65.3401 216.278 64.6801 216.278 64.0001Z" fill="#FCFCFC"/>
<path d="M116.278 372C112.69 380.99 99.8228 386.552 91.439 390.162C69.7247 398.583 40.298 403.42 18.1533 394C15.6824 392.806 13.5776 391.533 11.2783 390C12.2401 381.112 14.8688 370.775 21.8838 364.769C24.9674 363.151 27.9558 362.04 31.2783 361C32.3328 360.595 33.3872 360.19 34.4736 359.773C60.2674 351.136 93.9324 356.852 116.278 372Z" fill="#FCFCFC"/>
<path d="M109.278 291.437C112.494 294.184 113.952 295.947 114.614 300.113C114.711 305.581 113.92 309.736 110.278 314C104.056 320.104 95.5424 325.638 86.6416 326.152C83.4532 325.877 80.388 325.282 77.2871 324.493C68.386 322.339 59.2576 322.541 50.1533 322.375C48.4163 322.337 46.6793 322.298 44.9424 322.258C40.7212 322.162 36.4999 322.078 32.2783 322C32.2783 321.01 32.2783 320.02 32.2783 319C33.2683 319 34.2583 319 35.2783 319C34.7524 318.134 34.7524 318.134 34.2158 317.25C33.0722 314.505 33.2149 313.741 34.2783 311C43.2566 300.794 55.8579 294.084 68.2783 289C68.9551 288.68 69.6318 288.36 70.3291 288.031C82.0155 283.13 98.7808 284.51 109.278 291.437Z" fill="#FBFBFB"/>
<path d="M232.903 276C240.066 280.319 244.492 286.163 247.278 294C247.698 296.765 247.756 299.457 247.716 302.25C247.709 302.992 247.702 303.733 247.695 304.497C247.477 312.015 246.074 318.725 241.091 324.563C237.829 326.23 234.818 326.715 231.239 327.363C228.97 327.862 228.97 327.862 227.716 330.625C227.499 331.801 227.499 331.801 227.278 333C225.298 332.505 225.298 332.505 223.278 332C223.763 325.575 223.763 325.575 225.903 323.188C228.278 322 228.278 322 231.841 321.063C235.248 320.293 235.248 320.293 237.091 318.25C241.199 310.466 241.901 300.867 239.556 292.387C237.156 287.227 233.835 284.247 228.716 281.75C218.579 279.538 210.333 281.029 201.278 286C197.441 288.472 193.846 291.157 190.278 294C189.631 294.482 188.984 294.964 188.317 295.461C175.16 305.761 165.021 325.724 162.868 342.125C162.404 351.459 165.682 358.047 171.466 365.188C183.316 377.882 200.879 384.641 218.032 385.316C229.981 385.519 241.324 384.957 252.716 381C253.684 380.67 254.652 380.34 255.649 380C258.247 379.073 258.247 379.073 260.454 377.852C262.989 376.668 264.649 377.27 267.278 378C267.278 378.99 267.278 379.98 267.278 381C252.622 394.146 228.919 394.822 210.596 394.222C193.987 393.11 178.038 384.51 166.278 373C158.181 363.701 153.686 356.468 154.06 344.074C155.373 325.616 164.164 309.657 176.278 296C176.893 295.29 177.508 294.58 178.142 293.848C191.177 279.751 213.771 267.425 232.903 276Z" fill="#090909"/>
<path d="M131.278 69C132.598 69.33 133.918 69.66 135.278 70C134.948 71.98 134.618 73.96 134.278 76C136.789 74.7446 137.15 73.4994 138.278 71C143.409 73.279 147.757 75.4566 151.278 80C150.901 83.8437 148.735 87.1354 146.966 90.5C143.712 96.8073 141.289 103.183 139.278 110C124.893 111.765 110.766 112.256 96.2783 112C97.3814 97.2066 102.746 84.4606 114.028 74.4375C119.136 70.2592 122.792 69.6861 129.278 70C129.938 70.33 130.598 70.66 131.278 71C131.278 70.34 131.278 69.68 131.278 69Z" fill="#FBFBFB"/>
<path d="M106.278 341C112.12 345.572 117.702 350.443 121.278 357C121.515 359.693 121.362 362.289 121.278 365C119.803 364.238 119.803 364.238 118.298 363.461C101.323 354.955 84.0094 349.811 64.9983 349.76C62.8783 349.75 60.7594 349.719 58.6396 349.687C49.4319 349.617 41.2333 350.687 32.2783 353C30.9745 353.317 30.9745 353.317 29.6443 353.64C27.8518 354.078 26.0641 354.536 24.2783 355C24.5626 353.415 24.8561 351.832 25.1533 350.25C25.3157 349.368 25.4782 348.486 25.6455 347.578C26.2489 345.12 27.1134 343.23 28.2783 341C29.0259 340.996 29.7735 340.992 30.5437 340.987C47.5485 340.825 63.2751 339.483 79.876 335.557C90.531 333.088 97.1915 334.955 106.278 341Z" fill="#F6F6F6"/>
<path d="M148.278 12C153.888 12.33 159.498 12.66 165.278 13C165.227 18.4598 165.163 23.9169 165.071 29.3757C165.043 31.2269 165.022 33.0781 165.007 34.9294C164.815 58.704 164.815 58.704 160.278 66C157.133 67.3328 157.133 67.3328 154.278 68C152.956 62.9978 153.152 58.0185 153.181 52.8867C153.182 51.9172 153.183 50.9476 153.185 49.9487C153.191 46.8616 153.203 43.7746 153.216 40.6875C153.221 38.5905 153.225 36.4935 153.229 34.3965C153.24 29.2643 153.258 24.1322 153.278 19C151.958 19 150.638 19 149.278 19C148.948 16.69 148.618 14.38 148.278 12Z" fill="#F9F9F9"/>
<path d="M192.278 54C192.653 56.25 192.653 56.25 192.278 59C186.455 64.5002 177.35 66.1736 169.528 66.1875C167.92 66.0947 167.92 66.0947 166.278 66C166.938 62.37 167.598 58.74 168.278 55C169.459 55.0116 170.64 55.0232 171.856 55.0352C173.414 55.0445 174.971 55.0536 176.528 55.0625C177.306 55.0709 178.083 55.0793 178.884 55.0879C179.638 55.0911 180.392 55.0943 181.169 55.0977C181.86 55.1029 182.551 55.1081 183.264 55.1135C186.388 54.9375 189.115 54 192.278 54Z" fill="#F8F8F8"/>
<path d="M180.759 41.4376C184.523 42.2779 186.075 44.2625 188.317 47.2735C189.278 49.0001 189.278 49.0001 189.278 51.0001C185.929 52.1164 183.303 52.1677 179.778 52.1876C178.634 52.2018 177.489 52.216 176.31 52.2306C173.278 52.0001 173.278 52.0001 170.278 50.0001C169.903 47.5626 169.903 47.5626 170.278 45.0001C173.17 41.1663 176.228 41.3315 180.759 41.4376Z" fill="#F1F1F1"/>
<path d="M175.278 391C175.938 391.66 176.598 392.32 177.278 393C176.903 395.625 176.903 395.625 176.278 398C174.958 398 173.638 398 172.278 398C172.278 399.65 172.278 401.3 172.278 403C174.588 403 176.898 403 179.278 403C177.403 406.875 177.403 406.875 176.278 408C172.854 408.38 170.925 408.402 167.966 406.563C165.53 402.864 165.093 399.39 165.278 395C167.206 390.061 170.421 390.47 175.278 391Z" fill="#0E0E0E"/>
<path d="M31.2783 329C43.8183 329 56.3583 329 69.2783 329C69.2783 329.66 69.2783 330.32 69.2783 331C56.3435 333.592 43.4074 333.201 30.2783 333C30.6083 331.68 30.9383 330.36 31.2783 329Z" fill="#F1F1F1"/>
<path d="M182.278 22.9999C186.499 22.4318 188.853 22.7987 192.716 24.6249C195.278 26.9999 195.278 26.9999 195.438 30.1484C195.386 31.0894 195.333 32.0304 195.278 32.9999C193.153 33.0269 191.028 33.0463 188.903 33.0624C187.72 33.074 186.537 33.0856 185.317 33.0976C182.278 32.9999 182.278 32.9999 180.278 31.9999C180.028 26.3749 180.028 26.3749 182.278 22.9999Z" fill="#F5F5F5"/>
<path d="M276.278 381C279.779 381.194 281.293 382.011 284.091 384.188C286.278 387 286.278 387 286.653 390.25C286.278 393 286.278 393 285.278 394C282.528 394.5 282.528 394.5 279.278 394C277.015 391.966 275.514 389.776 274.278 387C274.46 382.818 274.46 382.818 276.278 381Z" fill="#0A0A0A"/>
<path d="M148.278 54C148.608 54 148.938 54 149.278 54C149.938 58.29 150.598 62.58 151.278 67C152.268 67.33 153.258 67.66 154.278 68C154.278 68.99 154.278 69.98 154.278 71C151.653 71.75 151.653 71.75 148.278 72C144.903 70.0625 144.903 70.0625 142.278 68C142.628 67.2407 142.977 66.4815 143.337 65.6992C144.019 64.2084 144.019 64.2084 144.716 62.6875C145.168 61.7014 145.621 60.7152 146.087 59.6992C147.336 56.9843 147.336 56.9843 148.278 54Z" fill="#EFEFEF"/>
<path d="M16.2783 340C17.9283 340 19.5783 340 21.2783 340C19.6272 347.393 17.658 354.206 14.2783 361C13.9483 361 13.6183 361 13.2783 361C12.9046 353.526 14.2377 347.179 16.2783 340Z" fill="#E7E7E7"/>
<path d="M195.278 37C195.65 44.5663 195.65 44.5663 193.767 46.7617C193.275 47.1704 192.784 47.579 192.278 48C191.796 47.4457 191.314 46.8914 190.817 46.3203C190.186 45.5959 189.554 44.8714 188.903 44.125C188.277 43.4057 187.65 42.6864 187.005 41.9453C185.804 40.5923 184.557 39.2792 183.278 38C187.363 37.4553 191.151 37 195.278 37Z" fill="#F3F3F3"/>
<path d="M172.278 183C174.918 183 177.558 183 180.278 183C180.278 186.63 180.278 190.26 180.278 194C178.958 194 177.638 194 176.278 194C176.278 191.36 176.278 188.72 176.278 186C174.958 185.67 173.638 185.34 172.278 185C172.278 184.34 172.278 183.68 172.278 183Z" fill="#C2C2C2"/>
<path d="M101.278 125C102.357 125.222 102.357 125.222 103.458 125.449C105.248 125.799 107.045 126.118 108.849 126.395C109.692 126.532 110.535 126.67 111.403 126.812C112.676 127.008 112.676 127.008 113.974 127.207C116.831 128.19 117.711 129.475 119.278 132C115 133.426 112.411 131.456 108.591 129.562C107.889 129.224 107.187 128.886 106.464 128.537C104.731 127.7 103.004 126.851 101.278 126C101.278 125.67 101.278 125.34 101.278 125Z" fill="#BFBFBF"/>
<path d="M138.278 114C137.948 114.99 137.618 115.98 137.278 117C129.358 117 121.438 117 113.278 117C113.278 116.67 113.278 116.34 113.278 116C116.32 115.663 119.361 115.33 122.403 115C123.259 114.905 124.115 114.809 124.997 114.711C129.449 114.232 133.793 113.882 138.278 114Z" fill="#5D5D5D"/>
<path d="M128.278 134C129.268 134 130.258 134 131.278 134C131.278 138.62 131.278 143.24 131.278 148C130.948 148 130.618 148 130.278 148C130.175 147.072 130.072 146.144 129.966 145.188C129.271 141.967 128.801 140.974 126.278 139C126.938 137.35 127.598 135.7 128.278 134Z" fill="#C6C6C6"/>
<path d="M106.278 225C107.716 225.142 109.154 225.289 110.591 225.438C111.391 225.519 112.192 225.6 113.017 225.684C115.278 226 115.278 226 118.278 227C118.278 227.66 118.278 228.32 118.278 229C110.894 229.492 110.894 229.492 107.778 227C107.283 226.34 106.788 225.68 106.278 225Z" fill="#E8E8E8"/>
<path d="M154.278 182C156.588 182 158.898 182 161.278 182C161.278 182.66 161.278 183.32 161.278 184C159.958 184 158.638 184 157.278 184C157.278 185.65 157.278 187.3 157.278 189C155.958 189 154.638 189 153.278 189C153.608 186.69 153.938 184.38 154.278 182Z" fill="#CDCDCD"/>
<path d="M153.278 85C154.233 87.1697 154.422 88.5633 153.677 90.8242C152.92 92.5685 152.102 94.2863 151.278 96C150.288 95.67 149.298 95.34 148.278 95C149.434 91.0879 150.634 88.1255 153.278 85Z" fill="#DEDEDE"/>
</svg>
