<svg width="696" height="474" viewBox="0 0 696 474" fill="none" xmlns="http://www.w3.org/2000/svg">
<path d="M650.352 124.125C653.352 125.875 653.352 125.875 655.352 129.125C655.994 134.599 655.762 139.803 654.352 145.125C655.136 144.694 655.136 144.694 655.937 144.255C658.362 142.931 660.794 141.622 663.227 140.312C664.049 139.861 664.871 139.409 665.719 138.943C674.518 134.235 682.332 131.64 692.352 132.125C696.502 138.697 696.036 145.297 694.602 152.687C691.17 166.2 683.018 177.166 673.164 186.75C672.334 187.57 671.504 188.389 670.649 189.234C664.597 195.126 658.39 200.447 651.352 205.125C652.483 205.102 653.615 205.079 654.781 205.055C656.263 205.036 657.745 205.018 659.227 205C659.973 204.983 660.719 204.966 661.488 204.949C663.444 204.932 665.399 205.022 667.352 205.125C669.352 207.125 669.352 207.125 669.539 208.973C668.586 220.235 660.578 228.024 652.352 235.125C634.157 249.988 614.2 261.927 593.148 272.236C589.895 273.846 586.68 275.53 583.465 277.215C581.352 278.125 581.352 278.125 578.645 278.629C577.888 278.793 577.131 278.956 576.352 279.125C576.022 279.785 575.692 280.445 575.352 281.125C567.67 286.004 559.208 289.974 550.352 292.125C550.488 293.185 550.488 293.185 550.627 294.267C552.854 312.004 553.77 329.24 553.352 347.125C552.032 347.125 550.712 347.125 549.352 347.125C549.403 348.266 549.455 349.407 549.508 350.582C549.508 355.048 548.952 359.36 548.258 363.762C545.359 382.341 543.826 400.228 544.361 419.05C544.379 419.823 544.396 420.596 544.414 421.393C544.449 422.832 544.498 424.272 544.564 425.71C544.673 430.066 544.069 432.695 541.352 436.125C539.637 437.395 539.637 437.395 537.77 438.293C537.084 438.629 536.399 438.965 535.693 439.311C534.982 439.641 534.272 439.972 533.539 440.312C532.84 440.655 532.14 440.997 531.42 441.35C524.549 444.66 518.996 446.389 511.352 446.125C511.352 446.785 511.352 447.445 511.352 448.125C514.982 448.125 518.612 448.125 522.352 448.125C522.682 449.775 523.012 451.425 523.352 453.125C503.191 461.725 477.716 459.731 456.234 459.978C450.79 460.057 445.417 460.385 439.996 460.909C435.532 461.274 431.077 461.231 426.602 461.188C425.702 461.183 424.802 461.178 423.875 461.174C421.7 461.162 419.526 461.144 417.352 461.125C417.352 459.805 417.352 458.485 417.352 457.125C418.945 457.142 418.945 457.142 420.57 457.16C430.998 457.247 430.998 457.247 441.352 456.125C441.682 455.135 442.012 454.145 442.352 453.125C452.403 450.791 462.525 450.504 472.789 450.062C476.205 449.908 479.62 449.75 483.035 449.59C483.847 449.552 484.659 449.515 485.496 449.476C491.797 449.176 498.069 448.705 504.352 448.125C504.022 444.825 503.692 441.525 503.352 438.125C504.012 438.125 504.672 438.125 505.352 438.125C505.484 437.233 505.617 436.341 505.754 435.422C505.931 434.251 506.107 433.081 506.289 431.875C506.55 430.135 506.55 430.135 506.816 428.359C507.224 425.894 507.691 423.531 508.352 421.125C507.674 420.955 506.995 420.785 506.297 420.609C494.334 417.494 484.666 412.786 474.352 406.125C474.327 406.8 474.301 407.474 474.276 408.169C474.158 411.28 474.036 414.39 473.914 417.5C473.855 419.091 473.855 419.091 473.795 420.715C473.061 439.122 473.061 439.122 470.539 442.688C466.63 445.256 463.026 445.194 458.411 445.264C448.543 445.466 439.646 447.273 430.182 450.042C425.039 451.531 420.712 452.473 415.352 452.125C414.664 450.312 414.664 450.312 414.352 448.125C418.274 443.005 426.412 441.252 432.539 440.375C433.467 440.292 434.395 440.21 435.352 440.125C433.13 432.429 430.619 425.024 427.402 417.684C426.502 415.492 425.846 413.436 425.352 411.125C428.975 409.917 429.993 410.582 433.352 412.125C433.443 413.102 433.535 414.079 433.629 415.086C434.391 420.429 436.728 425.096 438.912 429.984C440.581 433.84 441.819 436.827 441.352 441.125C442.138 440.798 442.924 440.47 443.734 440.133C448.327 438.853 452.489 438.907 457.227 439C458.106 439.009 458.985 439.018 459.891 439.027C462.044 439.051 464.198 439.087 466.352 439.125C466.305 437.276 466.305 437.276 466.258 435.391C466.258 429.481 467.052 423.721 467.852 417.875C468.136 415.766 468.417 413.657 468.695 411.547C468.884 410.164 468.884 410.164 469.076 408.753C469.752 403.811 469.752 403.811 468.215 399.289C467.703 398.781 467.191 398.273 466.664 397.75C466.165 397.227 465.666 396.703 465.152 396.164C463.369 394.92 463.369 394.92 461.074 395.227C457.624 396.365 454.611 398.074 451.477 399.875C439.913 406.293 427.995 410.292 414.684 410.258C413.431 410.259 413.431 410.259 412.154 410.261C410.39 410.261 408.625 410.26 406.861 410.255C404.191 410.25 401.52 410.255 398.85 410.262C390.619 410.265 382.528 410.195 374.352 409.125C374.245 410.145 374.245 410.145 374.136 411.186C372.166 428.078 360.546 444.952 347.664 455.508C341.886 459.196 335.167 458.379 328.586 458.199C323.462 458.065 318.436 458.51 313.352 459.125C319.967 460.217 326.538 460.444 333.232 460.643C334.09 460.677 334.948 460.711 335.832 460.746C336.604 460.771 337.377 460.796 338.173 460.822C340.577 461.156 342.252 461.932 344.352 463.125C344.022 464.115 343.692 465.105 343.352 466.125C332.462 466.62 332.462 466.62 321.352 467.125C324.652 467.785 327.952 468.445 331.352 469.125C331.682 470.445 332.012 471.765 332.352 473.125C328.164 472.647 323.976 472.168 319.789 471.688C318.017 471.485 318.017 471.485 316.209 471.279C310.578 470.633 304.956 469.973 299.352 469.125C299.022 467.475 298.692 465.825 298.352 464.125C297.429 464.16 297.429 464.16 296.488 464.195C295.68 464.213 294.872 464.231 294.039 464.25C293.239 464.273 292.438 464.296 291.613 464.32C289.352 464.125 289.352 464.125 286.352 462.125C286.682 460.805 287.012 459.485 287.352 458.125C286.857 458.29 286.362 458.455 285.852 458.625C281.087 459.578 277.445 460.24 273.078 457.914C267.102 453.57 263.151 448.394 259.352 442.125C258.974 441.508 258.596 440.89 258.207 440.254C251.467 429.106 246.468 417.647 242.147 405.372C241.494 403.528 240.806 401.695 240.109 399.867C229.998 372.355 231.192 341.073 231.102 312.188C231.096 311.217 231.091 310.246 231.085 309.245C230.973 282.605 230.973 282.605 235.977 276.438C236.76 275.674 237.544 274.911 238.352 274.125C235.273 272.734 235.273 272.734 232.051 274.496C230.708 275.173 229.371 275.863 228.039 276.562C226.979 277.107 226.979 277.107 225.897 277.663C213.13 284.187 213.13 284.187 201.289 292.188C198.352 294.125 198.352 294.125 195.414 293.938C194.733 293.669 194.053 293.401 193.352 293.125C193.685 290.176 193.972 288.533 196.022 286.33C201.958 281.939 208.095 278.232 214.602 274.75C215.568 274.218 216.535 273.685 217.531 273.137C221.836 270.806 225.475 268.894 230.352 268.125C229.918 267.354 229.485 266.583 229.039 265.789C228.482 264.786 227.925 263.783 227.352 262.75C226.795 261.752 226.238 260.755 225.664 259.727C224.352 257.125 224.352 257.125 224.352 255.125C213.525 257.233 203.662 259.882 193.498 264.222C189.144 266.054 184.75 267.781 180.352 269.5C179.467 269.858 178.582 270.216 177.671 270.585C172.644 272.543 168.749 273.55 163.352 273.125C162.727 271.25 162.727 271.25 162.352 269.125C164.586 266.89 165.645 266.629 168.641 265.844C176.417 263.621 183.756 260.314 191.188 257.152C201.467 252.865 211.126 249.564 222.352 250.125C222.207 249.479 222.063 248.833 221.914 248.168C218.382 230.236 219.127 212.99 228.727 197.062C232.535 191.541 236.762 186.851 242.352 183.125C241.692 182.465 241.032 181.805 240.352 181.125C239.871 167.181 250.488 153.858 258.352 143.125C258.91 142.273 259.468 141.421 260.043 140.543C263.503 135.385 263.503 135.385 267.414 134.187C271.675 135.547 273.263 138.271 275.352 142.125C276.018 144.921 276.442 147.286 276.68 150.105C276.759 150.841 276.838 151.576 276.92 152.334C277.167 154.658 277.385 156.985 277.602 159.312C277.839 161.65 278.081 163.987 278.326 166.324C278.475 167.771 278.619 169.219 278.757 170.668C279.07 173.899 279.431 177.005 280.352 180.125C281.151 179.594 281.95 179.063 282.773 178.516C301.629 166.388 318.571 167.494 340.039 170.125C342.448 170.413 344.857 170.698 347.266 170.981C348.747 171.155 350.227 171.333 351.707 171.515C357.021 172.208 357.021 172.208 362.352 172.125C364.535 170.173 366.34 168.332 368.227 166.125C368.756 165.528 369.286 164.932 369.831 164.317C371.352 162.599 372.855 160.865 374.352 159.125C375.581 157.708 376.81 156.291 378.039 154.875C378.568 154.265 379.096 153.656 379.641 153.027C383.052 149.234 386.675 145.66 390.352 142.125C390.923 141.571 391.494 141.016 392.082 140.445C394.496 138.249 395.937 137.17 399.227 136.812C399.928 136.916 400.629 137.019 401.352 137.125C402.061 138.934 402.758 140.747 403.418 142.574C404.05 144.301 404.726 146.013 405.441 147.707C410.754 161.831 409.922 179.589 406.352 194.125C407.093 194.358 407.834 194.592 408.598 194.832C411.852 196.36 413.23 197.977 415.414 200.812C416.065 201.641 416.716 202.47 417.387 203.324C419.611 206.494 421.476 209.738 423.352 213.125C424.37 212.836 425.388 212.547 426.438 212.25C434.405 210.115 441.954 208.736 450.227 208.75C450.993 208.749 451.759 208.747 452.548 208.746C456.321 208.821 458.144 208.987 461.352 211.125C461.352 212.445 461.352 213.765 461.352 215.125C460.058 215.146 460.058 215.146 458.738 215.168C449.103 215.544 440.438 217.427 431.176 220.066C427.352 221.125 427.352 221.125 425.352 221.125C425.375 222.054 425.398 222.984 425.422 223.941C425.44 225.178 425.458 226.414 425.477 227.687C425.5 228.906 425.523 230.124 425.547 231.379C425.34 235.351 424.58 238.367 423.352 242.125C423.971 242.004 424.59 241.883 425.228 241.758C428.08 241.205 430.935 240.665 433.789 240.125C435.25 239.839 435.25 239.839 436.74 239.547C442.723 238.426 448.265 237.924 454.352 238.125C454.682 239.445 455.012 240.765 455.352 242.125C452.353 244.682 450.127 245.605 446.246 246.187C445.262 246.345 444.278 246.502 443.264 246.664C442.241 246.816 441.218 246.968 440.164 247.125C427.956 248.427 427.956 248.427 417.406 253.922C417.017 254.566 416.628 255.211 416.227 255.875C410.937 263.781 404.24 268.903 396.352 274.125C396.92 273.984 397.488 273.843 398.073 273.698C400.727 273.043 403.383 272.396 406.039 271.75C406.932 271.528 407.824 271.307 408.744 271.078C425.581 267.004 442.354 266.322 459.597 265.448C462.99 265.273 466.381 265.09 469.773 264.906C470.802 264.857 471.83 264.808 472.89 264.758C478.236 264.466 483.251 263.881 488.442 262.547C491.095 261.961 493.649 261.986 496.352 262.125C496.114 260.402 496.114 260.402 495.871 258.645C493.235 237.314 496.815 211.709 509.781 193.957C514.606 188.328 519.272 184.57 526.789 183.75C531.193 184.214 533.044 185.185 536.352 188.125C537.501 190.119 537.501 190.119 538.527 192.281C539.046 193.361 539.046 193.361 539.575 194.463C539.832 195.011 540.088 195.56 540.352 196.125C540.946 195.132 541.54 194.14 542.152 193.117C547.587 184.162 553.415 175.809 560.055 167.709C561.269 166.226 562.465 164.729 563.66 163.23C583.602 138.383 583.602 138.383 594.039 136.437C598.421 137.347 600.339 138.832 603.352 142.125C604.085 144.438 604.761 146.771 605.352 149.125C606.298 148.314 607.244 147.503 608.219 146.668C637.428 122.063 637.428 122.063 650.352 124.125Z" fill="#FDFDFD"/>
<path d="M650.352 124.125C653.352 125.875 653.352 125.875 655.352 129.125C655.994 134.599 655.762 139.803 654.352 145.125C655.136 144.694 655.136 144.694 655.937 144.255C658.362 142.931 660.794 141.622 663.227 140.312C664.049 139.861 664.871 139.409 665.719 138.943C674.518 134.235 682.332 131.64 692.352 132.125C696.502 138.697 696.036 145.297 694.602 152.687C691.17 166.2 683.018 177.166 673.164 186.75C672.334 187.57 671.504 188.389 670.649 189.234C664.597 195.126 658.39 200.447 651.352 205.125C652.483 205.102 653.615 205.079 654.781 205.055C656.263 205.036 657.745 205.018 659.227 205C659.973 204.983 660.719 204.966 661.488 204.949C663.444 204.932 665.399 205.022 667.352 205.125C669.352 207.125 669.352 207.125 669.539 208.973C668.586 220.235 660.578 228.024 652.352 235.125C634.75 249.503 615.452 261.324 595.066 271.289C592.778 272.408 590.537 273.564 588.293 274.773C587.425 275.24 586.558 275.707 585.664 276.188C584.938 276.591 584.213 276.994 583.465 277.41C580.774 278.32 579.05 277.876 576.352 277.125C576.022 275.475 575.692 273.825 575.352 272.125C576.16 271.81 576.968 271.496 577.801 271.172C578.869 270.744 579.938 270.316 581.039 269.875C582.095 269.457 583.151 269.04 584.238 268.609C587.367 267.269 587.367 267.269 589.727 265.188C592.505 263.004 595.109 261.78 598.328 260.387C611.707 254.593 623.468 246.492 635.352 238.125C636.035 237.644 636.718 237.164 637.421 236.668C653.215 225.786 653.215 225.786 663.352 210.125C661.633 210.558 661.633 210.558 659.879 211C658.349 211.375 656.819 211.75 655.289 212.125C654.537 212.316 653.785 212.507 653.01 212.703C641.611 215.466 641.611 215.466 637.352 212.937C636.352 211.125 636.352 211.125 636.559 208.738C637.507 205.612 638.553 204.586 641.039 202.5C641.852 201.812 642.666 201.123 643.504 200.414C646.094 198.332 648.705 196.284 651.331 194.249C668.345 181.05 684.647 167.529 687.602 145C687.865 142.71 688.119 140.419 688.352 138.125C673.487 141.822 660.483 149.12 648.172 158.114C643.857 161.172 643.857 161.172 640.934 160.898C639.352 160.125 639.352 160.125 638.539 157.937C638.446 156.545 638.446 156.545 638.352 155.125C639.971 153.413 641.647 151.753 643.352 150.125C646.23 145.322 648.507 140.61 648.414 134.937C648.383 133.05 648.383 133.05 648.352 131.125C636.535 132.656 627.319 140.816 618.352 148.125C617.77 148.597 617.188 149.069 616.589 149.555C614.835 150.986 613.091 152.427 611.352 153.875C610.824 154.31 610.296 154.746 609.752 155.194C605.69 158.63 601.446 162.425 599.414 167.437C598.352 169.125 598.352 169.125 595.289 169.937C594.32 169.999 593.35 170.061 592.352 170.125C591.352 169.125 591.352 169.125 591.105 166.785C591.398 163.622 592.138 162.824 594.289 160.562C598.369 155.561 598.331 150.38 598.352 144.125C595.522 143.571 594.104 143.422 591.352 144.125C587.616 146.724 584.516 149.868 581.352 153.125C580.619 153.871 579.887 154.618 579.133 155.387C572.214 162.769 566.268 170.935 560.352 179.125C559.853 179.815 559.354 180.505 558.84 181.216C551.227 191.821 544.038 202.31 541.188 215.262C540.352 217.125 540.352 217.125 538.328 217.957C537.676 218.012 537.024 218.068 536.352 218.125C534.063 215.837 534.997 209.442 534.922 206.178C534.714 200.937 534.288 194.061 530.352 190.125C526.11 189.401 523.71 190.234 520.289 192.625C513.936 197.857 511.186 204.123 508.227 211.687C507.985 212.293 507.743 212.899 507.494 213.523C502.849 226.03 501.916 238.403 502.164 251.562C502.179 252.988 502.193 254.413 502.205 255.838C502.238 259.267 502.289 262.696 502.352 266.125C505.322 266.125 508.292 266.125 511.352 266.125C511.022 267.445 510.692 268.765 510.352 270.125C509.151 270.102 507.951 270.079 506.715 270.055C496.918 269.926 487.358 270.289 477.619 271.345C470.674 272.071 463.766 272.365 456.789 272.562C447.328 272.858 437.954 273.513 428.539 274.5C427.414 274.614 426.288 274.728 425.129 274.845C418.368 275.595 411.889 276.818 405.299 278.508C400.965 279.415 396.755 279.393 392.352 279.125C392.352 278.135 392.352 277.145 392.352 276.125C391.22 276.691 390.088 277.257 388.922 277.84C373.697 285.452 373.697 285.452 368.352 285.125C367.362 284.465 366.372 283.805 365.352 283.125C365.039 280.625 365.039 280.625 365.352 278.125C367.588 275.889 368.482 275.721 371.477 275C384.024 271.386 397.088 264.388 406.352 255.125C405.803 255.246 405.255 255.367 404.69 255.492C383.253 260.171 383.253 260.171 375.352 259.125C374.352 258.125 374.352 258.125 373.914 255.812C374.352 253.125 374.352 253.125 377.102 250.75C380.352 249.125 380.352 249.125 382.727 249.375C383.531 249.746 383.531 249.746 384.352 250.125C384.352 250.785 384.352 251.445 384.352 252.125C384.976 251.948 385.601 251.772 386.244 251.59C389.112 250.783 391.982 249.985 394.852 249.187C395.834 248.91 396.816 248.632 397.828 248.346C403.35 246.818 408.646 245.662 414.352 245.125C414.836 243.126 415.314 241.126 415.789 239.125C416.056 238.011 416.323 236.897 416.598 235.75C417.404 231.872 417.907 228.059 418.352 224.125C414.279 225.739 410.208 227.357 406.138 228.977C404.759 229.526 403.379 230.074 401.999 230.621C397.438 232.428 392.89 234.263 388.352 236.125C387.241 236.577 386.131 237.029 384.987 237.495C384 237.915 383.013 238.336 381.996 238.77C381.14 239.13 380.284 239.491 379.402 239.863C377.017 241.331 376.34 242.544 375.352 245.125C372.712 245.125 370.072 245.125 367.352 245.125C367.022 243.475 366.692 241.825 366.352 240.125C371.963 235.569 377.676 232.213 384.227 229.187C385.133 228.763 386.039 228.338 386.972 227.901C393.068 225.082 399.225 222.452 405.477 220C406.228 219.705 406.979 219.41 407.753 219.106C410.756 217.964 413.111 217.125 416.352 217.125C411.16 208.474 411.16 208.474 404.352 201.125C404.022 201.455 403.692 201.785 403.352 202.125C400.914 202.375 400.914 202.375 398.352 202.125C396.14 198.808 396.276 197.937 396.928 194.185C397.218 192.772 397.527 191.363 397.851 189.957C399.303 183.464 399.686 177.266 399.664 170.625C399.68 169.657 399.696 168.689 399.713 167.691C399.717 161.03 398.617 155.385 396.352 149.125C393.336 148.81 393.336 148.81 391.47 150.65C390.776 151.354 390.082 152.057 389.367 152.781C388.596 153.557 387.825 154.333 387.031 155.133C386.229 155.955 385.428 156.778 384.602 157.625C383.815 158.416 383.029 159.208 382.219 160.023C377.933 164.366 373.8 168.794 369.838 173.434C368.446 175.017 366.998 176.48 365.477 177.937C363.145 180.021 363.145 180.021 362.352 183.125C359.877 183.62 359.877 183.62 357.352 184.125C357.022 182.475 356.692 180.825 356.352 179.125C355.641 179.07 354.931 179.014 354.199 178.957C350.938 178.702 347.676 178.445 344.414 178.187C343.297 178.1 342.18 178.013 341.029 177.924C336.206 177.542 331.394 177.151 326.59 176.578C315.074 175.255 303.948 174.902 293.352 180.125C292.399 180.58 291.446 181.035 290.465 181.504C288.073 182.675 285.706 183.879 283.352 185.125C285.332 185.62 285.332 185.62 287.352 186.125C287.352 187.115 287.352 188.105 287.352 189.125C282.989 191.372 280.105 190.926 275.352 190.125C274.874 186.785 274.398 183.446 273.926 180.105C273.572 177.625 273.198 175.151 272.809 172.676C271.677 165.35 271.017 158.125 270.781 150.721C270.628 147.022 270.455 145.281 268.352 142.125C263.935 143.638 261.968 147.072 259.539 150.812C259.104 151.476 258.669 152.139 258.221 152.823C252.23 162.181 247.099 172.055 245.352 183.125C247.662 183.455 249.972 183.785 252.352 184.125C252.682 185.115 253.012 186.105 253.352 187.125C252.155 187.352 250.959 187.579 249.727 187.812C241.845 189.863 238.388 195.126 234.062 201.625C228.627 212.744 227.812 222.85 228.102 234.937C228.122 236.42 228.14 237.902 228.156 239.385C228.2 242.965 228.268 246.545 228.352 250.125C229.085 250.113 229.819 250.102 230.575 250.09C231.55 250.081 232.524 250.072 233.527 250.062C234.488 250.051 235.449 250.039 236.439 250.027C240.608 250.167 244.324 251.069 248.352 252.125C248.352 253.445 248.352 254.765 248.352 256.125C246.455 255.983 244.56 255.836 242.664 255.688C241.08 255.566 241.08 255.566 239.465 255.441C236.701 255.16 234.062 254.723 231.352 254.125C231.995 255.439 232.641 256.751 233.289 258.062C233.829 259.159 233.829 259.159 234.379 260.277C235.215 262.087 235.215 262.087 236.352 263.125C237.856 263.032 239.356 262.874 240.852 262.688C245.725 262.14 250.451 262.046 255.352 262.125C256.012 263.445 256.672 264.765 257.352 266.125C253.701 267.736 250.301 268.574 246.352 269.125C249.88 272.215 253.84 273.567 258.227 275C258.997 275.255 259.768 275.511 260.562 275.774C270.321 278.9 280.332 281.023 290.352 283.125C290.352 284.445 290.352 285.765 290.352 287.125C285.732 287.125 281.112 287.125 276.352 287.125C285.242 292.23 292.785 295.624 303.352 295.125C304.342 294.795 305.332 294.465 306.352 294.125C307.746 294.058 309.143 294.04 310.539 294.062C311.797 294.083 313.055 294.104 314.352 294.125C314.682 295.115 315.012 296.105 315.352 297.125C317.002 297.455 318.652 297.785 320.352 298.125C320.352 298.785 320.352 299.445 320.352 300.125C320.875 299.873 321.398 299.622 321.937 299.362C349.097 286.323 349.097 286.323 355.352 287.125C355.682 287.455 356.012 287.785 356.352 288.125C356.286 289.795 356.147 291.462 355.977 293.125C355.877 294.111 355.778 295.097 355.676 296.113C355.569 297.107 355.462 298.101 355.352 299.125C355.207 300.477 355.207 300.477 355.059 301.855C354.829 303.946 354.591 306.036 354.352 308.125C355.342 308.125 356.332 308.125 357.352 308.125C357.352 311.755 357.352 315.385 357.352 319.125C356.362 319.125 355.372 319.125 354.352 319.125C354.314 319.933 354.277 320.741 354.238 321.574C354.14 323.177 354.14 323.177 354.039 324.812C353.952 326.396 353.952 326.396 353.863 328.012C353.187 332.127 351.982 334.941 348.555 337.43C345.66 338.343 343.131 338.316 340.102 338.25C339.024 338.232 337.946 338.214 336.836 338.195C336.016 338.172 335.196 338.149 334.352 338.125C334.868 339.222 335.385 340.319 335.918 341.449C336.584 342.903 337.249 344.358 337.914 345.812C338.256 346.534 338.599 347.255 338.951 347.998C340.391 351.183 341.359 353.478 341.316 357.008C340.088 359.702 339.061 360.204 336.352 361.312C333.188 362.478 333.188 362.478 331.352 365.125C328.447 364.488 325.951 363.573 323.289 362.25C322.617 361.923 321.946 361.595 321.254 361.258C317.826 359.217 316.095 357.103 314.852 353.324C314.604 352.594 314.357 351.864 314.102 351.111C313.854 350.353 313.607 349.594 313.352 348.812C311.98 344.674 310.657 340.72 308.664 336.832C307.352 334.125 307.352 334.125 307.352 330.125C306.692 330.125 306.032 330.125 305.352 330.125C304.059 334.312 302.767 338.5 301.477 342.688C301.112 343.869 300.747 345.05 300.371 346.268C300.017 347.418 299.662 348.569 299.297 349.754C298.954 350.864 298.612 351.974 298.259 353.118C297.535 355.517 296.861 357.918 296.219 360.34C295.352 363.125 295.352 363.125 293.352 365.125C288.932 364.804 285.497 362.79 281.664 360.688C280.526 360.07 279.388 359.453 278.215 358.816C275.352 357.125 275.352 357.125 273.352 355.125C273.22 348.936 276.055 345.085 279.43 340.059C282.367 335.575 284.851 330.861 287.352 326.125C287.022 325.795 286.692 325.465 286.352 325.125C283.552 327.867 280.763 330.62 277.977 333.375C277.183 334.152 276.388 334.93 275.57 335.73C274.81 336.485 274.049 337.239 273.266 338.016C272.564 338.707 271.862 339.398 271.139 340.11C269.424 342.043 268.374 343.766 267.352 346.125C265.702 346.125 264.052 346.125 262.352 346.125C262.145 346.764 261.939 347.404 261.727 348.062C260.352 350.125 260.352 350.125 257.227 350.875C256.278 350.958 255.329 351.04 254.352 351.125C251.333 347.813 250.99 345.616 251.102 341.188C251.117 340.168 251.133 339.148 251.148 338.098C251.352 335.125 251.352 335.125 251.856 332.892C252.461 329.516 252.481 326.313 252.484 322.883C252.486 321.853 252.486 321.853 252.487 320.802C252.488 319.355 252.486 317.908 252.482 316.46C252.477 314.264 252.482 312.068 252.488 309.871C252.488 308.458 252.486 307.046 252.484 305.633C252.483 303.725 252.483 303.725 252.481 301.778C252.353 298.158 251.917 294.7 251.352 291.125C251.04 286.808 250.859 283.865 253.352 280.125C252.269 279.939 252.269 279.939 251.164 279.75C248.352 279.125 248.352 279.125 245.789 277.938C243.371 276.828 243.371 276.828 241.199 278.074C240.589 278.421 239.98 278.768 239.352 279.125C239.328 286.846 239.31 294.567 239.3 302.288C239.295 305.876 239.288 309.464 239.276 313.052C238.833 343.838 238.833 343.838 242.102 374.375C242.278 375.378 242.454 376.381 242.636 377.415C247.028 401.387 256.623 437.154 277.289 452.188C278.3 452.827 279.31 453.466 280.352 454.125C281.514 448.639 281.446 443.34 281.379 437.766C281.366 435.743 281.354 433.721 281.342 431.699C281.317 428.524 281.289 425.348 281.256 422.172C281.226 419.099 281.208 416.026 281.191 412.953C281.171 411.52 281.171 411.52 281.151 410.059C281.147 409.177 281.144 408.296 281.14 407.388C281.133 406.611 281.125 405.834 281.118 405.034C281.352 403.125 281.352 403.125 283.352 401.125C285.477 401.5 285.477 401.5 287.352 402.125C287.352 403.775 287.352 405.425 287.352 407.125C288.045 407.064 288.738 407.004 289.453 406.941C312.819 404.933 312.819 404.933 323.727 404.812C324.45 404.795 325.173 404.778 325.917 404.76C330.015 404.764 332.376 405.234 335.352 408.125C334.835 411.911 334.045 414.738 332.352 418.125C331.169 423.456 331.203 428.696 331.227 434.125C331.223 435.002 331.219 435.878 331.215 436.781C331.222 441.343 331.421 445.637 332.352 450.125C338.125 451.394 338.125 451.394 343.539 449.5C356.196 438.812 362.083 425.589 367.352 410.125C366.032 409.465 364.712 408.805 363.352 408.125C362.928 405.232 362.886 403.014 364.266 400.379C374.754 386.609 400.118 382.235 416.25 379.562C428.893 378.025 441.606 377.678 453.352 383.125C453.029 382.518 452.707 381.911 452.375 381.285C451.119 378.633 450.905 377.026 451.352 374.125C453.164 372.312 453.164 372.312 455.352 371.125C456.342 371.125 457.332 371.125 458.352 371.125C458.056 372.29 457.761 373.456 457.457 374.656C457.129 377.332 457.107 378.682 458.42 381.062C460.075 383.038 461.812 384.833 463.664 386.625C464.312 387.279 464.96 387.932 465.627 388.606C467.508 390.477 469.419 392.307 471.352 394.125C472.209 394.938 473.066 395.752 473.949 396.59C483.721 405.054 495.966 410.135 508.299 413.579C513.172 414.945 513.172 414.945 515.352 417.125C515.951 424.56 514.378 430.995 512.352 438.125C520.933 435.974 529.234 433.716 537.352 430.125C537.279 429.468 537.207 428.81 537.133 428.133C534.865 404.887 538.364 382.776 542.4 359.893C543.15 355.603 543.646 351.352 543.984 347.014C544.352 345.125 544.352 345.125 546.352 343.125C546.553 340.73 546.553 340.73 546.363 337.961C546.293 336.401 546.293 336.401 546.221 334.809C546.131 333.171 546.131 333.171 546.039 331.5C545.991 330.431 545.942 329.363 545.893 328.262C545.5 318.567 545.5 318.567 543.816 309.039C542.868 305.134 542.942 301.024 542.73 297.023C542.635 294.002 542.635 294.002 540.352 292.125C540.227 289.5 540.227 289.5 540.352 287.125C541.44 286.894 542.528 286.664 543.648 286.426C551.742 284.649 559.223 282.689 566.738 279.078C569.75 277.98 572.171 277.957 575.352 278.125C575.352 279.115 575.352 280.105 575.352 281.125C567.343 285.693 559.358 289.938 550.352 292.125C550.488 293.185 550.488 293.185 550.627 294.267C552.854 312.004 553.77 329.24 553.352 347.125C552.032 347.125 550.712 347.125 549.352 347.125C549.403 348.266 549.455 349.407 549.508 350.582C549.508 355.048 548.952 359.36 548.258 363.762C545.359 382.341 543.826 400.228 544.361 419.05C544.379 419.823 544.396 420.596 544.414 421.393C544.449 422.832 544.498 424.272 544.564 425.71C544.673 430.066 544.069 432.695 541.352 436.125C539.637 437.395 539.637 437.395 537.77 438.293C537.084 438.629 536.399 438.965 535.693 439.311C534.982 439.641 534.272 439.972 533.539 440.312C532.84 440.655 532.14 440.997 531.42 441.35C524.549 444.66 518.996 446.389 511.352 446.125C511.352 446.785 511.352 447.445 511.352 448.125C514.982 448.125 518.612 448.125 522.352 448.125C522.682 449.775 523.012 451.425 523.352 453.125C503.191 461.725 477.716 459.731 456.234 459.978C450.79 460.057 445.417 460.385 439.996 460.909C435.532 461.274 431.077 461.231 426.602 461.188C425.702 461.183 424.802 461.178 423.875 461.174C421.7 461.162 419.526 461.144 417.352 461.125C417.352 459.805 417.352 458.485 417.352 457.125C418.945 457.142 418.945 457.142 420.57 457.16C430.998 457.247 430.998 457.247 441.352 456.125C441.682 455.135 442.012 454.145 442.352 453.125C452.403 450.791 462.525 450.504 472.789 450.062C476.205 449.908 479.62 449.75 483.035 449.59C483.847 449.552 484.659 449.515 485.496 449.476C491.797 449.176 498.069 448.705 504.352 448.125C504.022 444.825 503.692 441.525 503.352 438.125C504.012 438.125 504.672 438.125 505.352 438.125C505.484 437.233 505.617 436.341 505.754 435.422C505.931 434.251 506.107 433.081 506.289 431.875C506.55 430.135 506.55 430.135 506.816 428.359C507.224 425.894 507.691 423.531 508.352 421.125C507.674 420.955 506.995 420.785 506.297 420.609C494.334 417.494 484.666 412.786 474.352 406.125C474.327 406.8 474.301 407.474 474.276 408.169C474.158 411.28 474.036 414.39 473.914 417.5C473.855 419.091 473.855 419.091 473.795 420.715C473.061 439.122 473.061 439.122 470.539 442.688C466.63 445.256 463.026 445.194 458.411 445.264C448.543 445.466 439.646 447.273 430.182 450.042C425.039 451.531 420.712 452.473 415.352 452.125C414.664 450.312 414.664 450.312 414.352 448.125C418.274 443.005 426.412 441.252 432.539 440.375C433.467 440.292 434.395 440.21 435.352 440.125C433.13 432.429 430.619 425.024 427.402 417.684C426.502 415.492 425.846 413.436 425.352 411.125C428.975 409.917 429.993 410.582 433.352 412.125C433.443 413.102 433.535 414.079 433.629 415.086C434.391 420.429 436.728 425.096 438.912 429.984C440.581 433.84 441.819 436.827 441.352 441.125C442.138 440.798 442.924 440.47 443.734 440.133C448.327 438.853 452.489 438.907 457.227 439C458.106 439.009 458.985 439.018 459.891 439.027C462.044 439.051 464.198 439.087 466.352 439.125C466.305 437.276 466.305 437.276 466.258 435.391C466.258 429.481 467.052 423.721 467.852 417.875C468.136 415.766 468.417 413.657 468.695 411.547C468.884 410.164 468.884 410.164 469.076 408.753C469.752 403.811 469.752 403.811 468.215 399.289C467.703 398.781 467.191 398.273 466.664 397.75C466.165 397.227 465.666 396.703 465.152 396.164C463.369 394.92 463.369 394.92 461.074 395.227C457.624 396.365 454.611 398.074 451.477 399.875C439.913 406.293 427.995 410.292 414.684 410.258C413.431 410.259 413.431 410.259 412.154 410.261C410.39 410.261 408.625 410.26 406.861 410.255C404.191 410.25 401.52 410.255 398.85 410.262C390.619 410.265 382.528 410.195 374.352 409.125C374.245 410.145 374.245 410.145 374.136 411.186C372.166 428.078 360.546 444.952 347.664 455.508C341.886 459.196 335.167 458.379 328.586 458.199C323.462 458.065 318.436 458.51 313.352 459.125C319.967 460.217 326.538 460.444 333.232 460.643C334.09 460.677 334.948 460.711 335.832 460.746C336.604 460.771 337.377 460.796 338.173 460.822C340.577 461.156 342.252 461.932 344.352 463.125C344.022 464.115 343.692 465.105 343.352 466.125C332.462 466.62 332.462 466.62 321.352 467.125C324.652 467.785 327.952 468.445 331.352 469.125C331.682 470.445 332.012 471.765 332.352 473.125C328.164 472.647 323.976 472.168 319.789 471.688C318.017 471.485 318.017 471.485 316.209 471.279C310.578 470.633 304.956 469.973 299.352 469.125C299.022 467.475 298.692 465.825 298.352 464.125C297.429 464.16 297.429 464.16 296.488 464.195C295.68 464.213 294.872 464.231 294.039 464.25C293.239 464.273 292.438 464.296 291.613 464.32C289.352 464.125 289.352 464.125 286.352 462.125C286.682 460.805 287.012 459.485 287.352 458.125C286.857 458.29 286.362 458.455 285.852 458.625C281.087 459.578 277.445 460.24 273.078 457.914C267.102 453.57 263.151 448.394 259.352 442.125C258.974 441.508 258.596 440.89 258.207 440.254C251.467 429.106 246.468 417.647 242.147 405.372C241.494 403.528 240.806 401.695 240.109 399.867C229.998 372.355 231.192 341.073 231.102 312.188C231.096 311.217 231.091 310.246 231.085 309.245C230.973 282.605 230.973 282.605 235.977 276.438C236.76 275.674 237.544 274.911 238.352 274.125C235.273 272.734 235.273 272.734 232.051 274.496C230.708 275.173 229.371 275.863 228.039 276.562C226.979 277.107 226.979 277.107 225.897 277.663C213.13 284.187 213.13 284.187 201.289 292.188C198.352 294.125 198.352 294.125 195.414 293.938C194.733 293.669 194.053 293.401 193.352 293.125C193.685 290.176 193.972 288.533 196.022 286.33C201.958 281.939 208.095 278.232 214.602 274.75C215.568 274.218 216.535 273.685 217.531 273.137C221.836 270.806 225.475 268.894 230.352 268.125C229.918 267.354 229.485 266.583 229.039 265.789C228.482 264.786 227.925 263.783 227.352 262.75C226.795 261.752 226.238 260.755 225.664 259.727C224.352 257.125 224.352 257.125 224.352 255.125C213.525 257.233 203.662 259.882 193.498 264.222C189.144 266.054 184.75 267.781 180.352 269.5C179.467 269.858 178.582 270.216 177.671 270.585C172.644 272.543 168.749 273.55 163.352 273.125C162.727 271.25 162.727 271.25 162.352 269.125C164.586 266.89 165.645 266.629 168.641 265.844C176.417 263.621 183.756 260.314 191.188 257.152C201.467 252.865 211.126 249.564 222.352 250.125C222.207 249.479 222.063 248.833 221.914 248.168C218.382 230.236 219.127 212.99 228.727 197.062C232.535 191.541 236.762 186.851 242.352 183.125C241.692 182.465 241.032 181.805 240.352 181.125C239.871 167.181 250.488 153.858 258.352 143.125C258.91 142.273 259.468 141.421 260.043 140.543C263.503 135.385 263.503 135.385 267.414 134.187C271.675 135.547 273.263 138.271 275.352 142.125C276.018 144.921 276.442 147.286 276.68 150.105C276.759 150.841 276.838 151.576 276.92 152.334C277.167 154.658 277.385 156.985 277.602 159.312C277.839 161.65 278.081 163.987 278.326 166.324C278.475 167.771 278.619 169.219 278.757 170.668C279.07 173.899 279.431 177.005 280.352 180.125C281.151 179.594 281.95 179.063 282.773 178.516C301.629 166.388 318.571 167.494 340.039 170.125C342.448 170.413 344.857 170.698 347.266 170.981C348.747 171.155 350.227 171.333 351.707 171.515C357.021 172.208 357.021 172.208 362.352 172.125C364.535 170.173 366.34 168.332 368.227 166.125C368.756 165.528 369.286 164.932 369.831 164.317C371.352 162.599 372.855 160.865 374.352 159.125C375.581 157.708 376.81 156.291 378.039 154.875C378.568 154.265 379.096 153.656 379.641 153.027C383.052 149.234 386.675 145.66 390.352 142.125C390.923 141.571 391.494 141.016 392.082 140.445C394.496 138.249 395.937 137.17 399.227 136.812C399.928 136.916 400.629 137.019 401.352 137.125C402.061 138.934 402.758 140.747 403.418 142.574C404.05 144.301 404.726 146.013 405.441 147.707C410.754 161.831 409.922 179.589 406.352 194.125C407.093 194.358 407.834 194.592 408.598 194.832C411.852 196.36 413.23 197.977 415.414 200.812C416.065 201.641 416.716 202.47 417.387 203.324C419.611 206.494 421.476 209.738 423.352 213.125C424.37 212.836 425.388 212.547 426.438 212.25C434.405 210.115 441.954 208.736 450.227 208.75C450.993 208.749 451.759 208.747 452.548 208.746C456.321 208.821 458.144 208.987 461.352 211.125C461.352 212.445 461.352 213.765 461.352 215.125C460.058 215.146 460.058 215.146 458.738 215.168C449.103 215.544 440.438 217.427 431.176 220.066C427.352 221.125 427.352 221.125 425.352 221.125C425.375 222.054 425.398 222.984 425.422 223.941C425.44 225.178 425.458 226.414 425.477 227.687C425.5 228.906 425.523 230.124 425.547 231.379C425.34 235.351 424.58 238.367 423.352 242.125C423.971 242.004 424.59 241.883 425.228 241.758C428.08 241.205 430.935 240.665 433.789 240.125C435.25 239.839 435.25 239.839 436.74 239.547C442.723 238.426 448.265 237.924 454.352 238.125C454.682 239.445 455.012 240.765 455.352 242.125C452.353 244.682 450.127 245.605 446.246 246.187C445.262 246.345 444.278 246.502 443.264 246.664C442.241 246.816 441.218 246.968 440.164 247.125C427.956 248.427 427.956 248.427 417.406 253.922C417.017 254.566 416.628 255.211 416.227 255.875C410.937 263.781 404.24 268.903 396.352 274.125C396.92 273.984 397.488 273.843 398.073 273.698C400.727 273.043 403.383 272.396 406.039 271.75C406.932 271.528 407.824 271.307 408.744 271.078C425.581 267.004 442.354 266.322 459.597 265.448C462.99 265.273 466.381 265.09 469.773 264.906C470.802 264.857 471.83 264.808 472.89 264.758C478.236 264.466 483.251 263.881 488.442 262.547C491.095 261.961 493.649 261.986 496.352 262.125C496.114 260.402 496.114 260.402 495.871 258.645C493.235 237.314 496.815 211.709 509.781 193.957C514.606 188.328 519.272 184.57 526.789 183.75C531.193 184.214 533.044 185.185 536.352 188.125C537.501 190.119 537.501 190.119 538.527 192.281C539.046 193.361 539.046 193.361 539.575 194.463C539.832 195.011 540.088 195.56 540.352 196.125C540.946 195.132 541.54 194.14 542.152 193.117C547.587 184.162 553.415 175.809 560.055 167.709C561.269 166.226 562.465 164.729 563.66 163.23C583.602 138.383 583.602 138.383 594.039 136.437C598.421 137.347 600.339 138.832 603.352 142.125C604.085 144.438 604.761 146.771 605.352 149.125C606.298 148.314 607.244 147.503 608.219 146.668C637.428 122.063 637.428 122.063 650.352 124.125Z" fill="#0A0A0A"/>
<path d="M239.352 274.125C240.342 274.455 241.332 274.785 242.352 275.125C242.022 276.445 241.692 277.765 241.352 279.125C240.692 279.125 240.032 279.125 239.352 279.125C239.328 286.846 239.311 294.567 239.3 302.288C239.295 305.876 239.288 309.464 239.276 313.052C238.833 343.838 238.833 343.838 242.102 374.375C242.278 375.378 242.454 376.381 242.636 377.415C247.029 401.387 256.624 437.154 277.289 452.188C278.3 452.827 279.31 453.466 280.352 454.125C281.514 448.639 281.446 443.34 281.379 437.766C281.366 435.743 281.354 433.721 281.342 431.699C281.317 428.524 281.289 425.348 281.256 422.172C281.226 419.099 281.208 416.026 281.192 412.953C281.178 411.998 281.165 411.043 281.151 410.059C281.147 409.177 281.144 408.296 281.141 407.388C281.129 406.222 281.129 406.222 281.118 405.034C281.352 403.125 281.352 403.125 283.352 401.125C285.477 401.5 285.477 401.5 287.352 402.125C287.352 403.775 287.352 405.425 287.352 407.125C288.045 407.064 288.738 407.004 289.453 406.941C312.82 404.933 312.82 404.933 323.727 404.812C324.45 404.795 325.173 404.778 325.918 404.76C330.015 404.764 332.377 405.234 335.352 408.125C334.835 411.911 334.045 414.738 332.352 418.125C331.169 423.456 331.203 428.696 331.227 434.125C331.223 435.002 331.219 435.878 331.215 436.781C331.222 441.343 331.422 445.637 332.352 450.125C338.125 451.394 338.125 451.394 343.539 449.5C356.196 438.812 362.083 425.589 367.352 410.125C366.032 409.465 364.712 408.805 363.352 408.125C362.928 405.232 362.886 403.014 364.266 400.379C374.754 386.609 400.118 382.235 416.25 379.562C428.893 378.025 441.607 377.678 453.352 383.125C452.868 382.214 452.868 382.214 452.375 381.285C451.119 378.633 450.905 377.026 451.352 374.125C453.164 372.312 453.164 372.312 455.352 371.125C456.342 371.125 457.332 371.125 458.352 371.125C458.057 372.29 457.761 373.456 457.457 374.656C457.129 377.332 457.108 378.682 458.421 381.062C460.075 383.038 461.813 384.833 463.664 386.625C464.312 387.279 464.96 387.932 465.628 388.606C467.508 390.477 469.419 392.307 471.352 394.125C472.209 394.938 473.066 395.752 473.949 396.59C483.721 405.054 495.966 410.135 508.299 413.579C513.172 414.945 513.172 414.945 515.352 417.125C515.951 424.56 514.379 430.995 512.352 438.125C520.933 435.974 529.234 433.716 537.352 430.125C537.28 429.468 537.207 428.81 537.133 428.133C534.865 404.887 538.365 382.776 542.4 359.893C543.15 355.603 543.646 351.352 543.984 347.014C544.352 345.125 544.352 345.125 546.352 343.125C546.553 340.73 546.553 340.73 546.363 337.961C546.293 336.401 546.293 336.401 546.221 334.809C546.161 333.717 546.101 332.625 546.039 331.5C545.991 330.431 545.943 329.363 545.893 328.262C545.5 318.567 545.5 318.567 543.817 309.039C542.868 305.134 542.942 301.024 542.731 297.023C542.635 294.002 542.635 294.002 540.352 292.125C540.227 289.5 540.227 289.5 540.352 287.125C541.44 286.894 542.528 286.664 543.649 286.426C551.742 284.649 559.223 282.689 566.738 279.078C569.75 277.98 572.171 277.957 575.352 278.125C575.352 279.115 575.352 280.105 575.352 281.125C567.343 285.693 559.358 289.938 550.352 292.125C550.488 293.185 550.488 293.185 550.627 294.267C552.854 312.004 553.77 329.24 553.352 347.125C552.032 347.125 550.712 347.125 549.352 347.125C549.429 348.836 549.429 348.836 549.508 350.582C549.508 355.048 548.952 359.36 548.258 363.762C545.359 382.341 543.827 400.228 544.361 419.05C544.379 419.823 544.397 420.596 544.415 421.393C544.45 422.832 544.498 424.272 544.564 425.71C544.674 430.066 544.069 432.695 541.352 436.125C539.638 437.395 539.638 437.395 537.77 438.293C537.085 438.629 536.399 438.965 535.694 439.311C534.983 439.641 534.272 439.972 533.539 440.312C532.84 440.655 532.141 440.997 531.42 441.35C524.549 444.66 518.996 446.389 511.352 446.125C511.352 446.785 511.352 447.445 511.352 448.125C514.982 448.125 518.612 448.125 522.352 448.125C522.682 449.775 523.012 451.425 523.352 453.125C503.191 461.725 477.716 459.731 456.235 459.978C450.791 460.057 445.417 460.385 439.996 460.909C435.532 461.274 431.077 461.231 426.602 461.188C425.702 461.183 424.802 461.178 423.875 461.174C421.701 461.162 419.526 461.144 417.352 461.125C417.352 459.805 417.352 458.485 417.352 457.125C418.945 457.142 418.945 457.142 420.57 457.16C430.998 457.247 430.998 457.247 441.352 456.125C441.682 455.135 442.012 454.145 442.352 453.125C452.403 450.791 462.525 450.504 472.789 450.062C476.205 449.908 479.62 449.75 483.035 449.59C483.847 449.552 484.659 449.515 485.496 449.476C491.797 449.176 498.07 448.705 504.352 448.125C504.022 444.825 503.692 441.525 503.352 438.125C504.012 438.125 504.672 438.125 505.352 438.125C505.484 437.233 505.617 436.341 505.754 435.422C505.931 434.251 506.107 433.081 506.289 431.875C506.55 430.135 506.55 430.135 506.817 428.359C507.224 425.894 507.691 423.531 508.352 421.125C507.674 420.955 506.996 420.785 506.297 420.609C494.334 417.494 484.667 412.786 474.352 406.125C474.314 407.137 474.314 407.137 474.276 408.169C474.158 411.28 474.036 414.39 473.914 417.5C473.875 418.561 473.836 419.622 473.795 420.715C473.061 439.122 473.061 439.122 470.539 442.688C466.63 445.256 463.026 445.194 458.411 445.264C448.543 445.466 439.646 447.273 430.183 450.042C425.039 451.531 420.712 452.473 415.352 452.125C414.664 450.312 414.664 450.312 414.352 448.125C418.275 443.005 426.412 441.252 432.539 440.375C433.467 440.292 434.395 440.21 435.352 440.125C433.13 432.429 430.619 425.024 427.402 417.684C426.502 415.492 425.846 413.436 425.352 411.125C428.975 409.917 429.993 410.582 433.352 412.125C433.443 413.102 433.535 414.079 433.629 415.086C434.391 420.429 436.729 425.096 438.912 429.984C440.581 433.84 441.819 436.827 441.352 441.125C442.138 440.798 442.924 440.47 443.735 440.133C448.327 438.853 452.49 438.907 457.227 439C458.106 439.009 458.985 439.018 459.891 439.027C462.045 439.051 464.198 439.087 466.352 439.125C466.305 437.276 466.305 437.276 466.258 435.391C466.258 429.481 467.053 423.721 467.852 417.875C468.136 415.766 468.417 413.657 468.695 411.547C468.821 410.625 468.947 409.703 469.076 408.753C469.752 403.811 469.752 403.811 468.215 399.289C467.703 398.781 467.191 398.273 466.664 397.75C465.916 396.965 465.916 396.965 465.152 396.164C463.369 394.92 463.369 394.92 461.074 395.227C457.624 396.365 454.611 398.074 451.477 399.875C439.913 406.293 427.995 410.292 414.684 410.258C413.431 410.259 413.431 410.259 412.154 410.261C410.39 410.261 408.625 410.26 406.861 410.255C404.191 410.25 401.52 410.255 398.85 410.262C390.619 410.265 382.528 410.195 374.352 409.125C374.245 410.145 374.245 410.145 374.136 411.186C372.166 428.078 360.546 444.952 347.664 455.508C341.886 459.196 335.167 458.379 328.586 458.199C323.462 458.065 318.436 458.51 313.352 459.125C319.967 460.217 326.538 460.444 333.233 460.643C334.09 460.677 334.948 460.711 335.832 460.746C336.605 460.771 337.377 460.796 338.173 460.822C340.577 461.156 342.252 461.932 344.352 463.125C344.022 464.115 343.692 465.105 343.352 466.125C336.092 466.455 328.832 466.785 321.352 467.125C324.652 467.785 327.952 468.445 331.352 469.125C331.682 470.445 332.012 471.765 332.352 473.125C328.164 472.647 323.977 472.168 319.789 471.688C318.017 471.485 318.017 471.485 316.209 471.279C310.578 470.633 304.957 469.973 299.352 469.125C298.857 466.65 298.857 466.65 298.352 464.125C297.737 464.148 297.122 464.171 296.488 464.195C295.68 464.213 294.872 464.231 294.039 464.25C293.239 464.273 292.438 464.296 291.613 464.32C289.352 464.125 289.352 464.125 286.352 462.125C286.682 460.805 287.012 459.485 287.352 458.125C286.857 458.29 286.362 458.455 285.852 458.625C281.087 459.578 277.445 460.24 273.078 457.914C267.103 453.57 263.151 448.394 259.352 442.125C258.974 441.508 258.596 440.89 258.207 440.254C251.467 429.106 246.468 417.647 242.148 405.372C241.494 403.528 240.807 401.695 240.11 399.867C229.998 372.355 231.192 341.073 231.102 312.188C231.096 311.217 231.091 310.246 231.085 309.245C230.979 283.833 230.979 283.833 235.352 277C237.352 275.125 237.352 275.125 239.352 274.125Z" fill="#0B0B0B"/>
<path d="M96.4139 332.188C99.0561 333.612 100.038 334.139 103.101 334C105.327 333.195 105.327 333.195 107.183 332.094C111.094 330.346 115.161 330.567 119.351 331.125C122.879 333.226 125.058 335.746 127.351 339.125C128.527 338.609 129.703 338.094 130.914 337.563C135.103 336.016 137.985 335.807 142.351 337.125C147.424 340.869 149.974 346.41 152.351 352.125C152.351 352.785 152.351 353.445 152.351 354.125C153.053 353.981 153.754 353.836 154.476 353.688C155.425 353.502 156.374 353.316 157.351 353.125C158.238 352.939 159.125 352.754 160.039 352.563C168.069 351.502 174.527 351.328 181.351 356.125C186.802 360.467 190.13 365.713 193.48 371.77C195.828 374.725 197.804 375.041 201.351 376.125C202.926 377.789 202.926 377.789 204.039 379.75C204.438 380.454 204.838 381.158 205.25 381.883C206.892 385.225 208.155 388.599 209.351 392.125C210.073 391.279 210.795 390.434 211.539 389.563C214.351 387.125 214.351 387.125 217.101 387.25C219.351 388.125 219.351 388.125 220.351 389.125C220.289 390.053 220.228 390.981 220.164 391.938C220.226 392.989 220.288 394.041 220.351 395.125C221.032 395.723 221.713 396.321 222.414 396.938C224.635 399.446 224.687 399.966 224.539 403.188C222.078 417.907 207.764 428.262 196.722 436.898C189.285 442.107 180.709 444.322 172.039 446.625C165.657 448.339 159.336 450.092 153.086 452.242C148.381 453.838 143.822 455.014 138.914 455.75C138.159 455.868 137.405 455.985 136.627 456.107C111.759 459.835 87.6603 461.453 63.3514 454.125C62.4029 453.852 61.4545 453.578 60.4773 453.296C25.2658 443.039 25.2658 443.039 14.3514 432.125C14.3514 430.805 14.3514 429.485 14.3514 428.125C12.5126 426.28 12.5126 426.28 10.1014 424.688C5.60929 421.389 2.15687 418.542 0.351369 413.125C-0.6914 404.281 0.693184 396.597 3.10137 388.125C3.35346 387.229 3.60555 386.334 3.86529 385.411C5.82 378.924 8.15531 372.631 14.3514 369.125C17.0506 368.465 17.0506 368.465 20.0389 368.063C21.6264 367.811 21.6264 367.811 23.2459 367.555C25.132 367.294 27.0261 367.078 28.9256 366.945C31.4259 366.665 33.1386 366.338 35.3514 365.125C37.1502 362.579 38.426 359.968 39.7615 357.152C43.5613 349.917 49.6453 343.099 57.3514 340.125C61.8613 339.53 65.7585 339.068 69.6522 341.652C70.4933 342.381 70.4933 342.381 71.3514 343.125C71.6027 342.54 71.8541 341.955 72.1131 341.352C74.7023 336.696 79.3563 333.218 83.9764 330.688C88.883 329.525 92.0092 329.795 96.4139 332.188ZM81.3514 341.125C80.1665 342.527 79.0006 343.944 77.8514 345.375C74.7641 349.028 74.7641 349.028 71.1639 349.875C68.3514 349.125 68.3514 349.125 66.4139 347.063C64.413 344.74 64.413 344.74 60.9764 345.125C51.0841 347.854 45.5156 356.081 40.5428 364.547C38.7367 368.455 38.4895 371.844 38.3514 376.125C37.0314 376.125 35.7114 376.125 34.3514 376.125C34.0214 375.135 33.6914 374.145 33.3514 373.125C30.1254 373.581 26.9091 374.063 23.6951 374.598C20.3514 375.125 20.3514 375.125 18.0701 375.246C15.9864 375.349 15.9864 375.349 13.3514 377.125C11.4095 381.322 10.3675 385.626 9.35137 390.125C9.01299 391.442 9.01299 391.442 8.66778 392.785C6.09826 403.548 6.09826 403.548 8.35528 413.938C14.6776 420.012 26.6532 425.957 35.3514 427.125C36.0114 425.145 36.6714 423.165 37.3514 421.125C46.6818 420.257 55.3889 424.22 63.772 427.912C71.2615 431.184 77.0681 433.188 85.3514 432.125C86.4097 432.027 87.468 431.929 88.5584 431.828C92.8435 431.372 97.0914 430.772 101.351 430.125C102.349 429.974 103.347 429.824 104.375 429.668C148.934 423.325 148.934 423.325 189.351 405.125C190.285 404.51 191.218 403.895 192.179 403.262C195.851 400.808 195.851 400.808 199.351 398.125C199.351 397.465 199.351 396.805 199.351 396.125C198.779 395.59 198.207 395.055 197.617 394.504C194.629 391.367 193.017 387.917 191.101 384.063C183.896 369.746 183.896 369.746 172.351 359.125C169.3 358.753 166.406 358.82 163.351 359.125C163.351 360.094 163.351 361.064 163.351 362.063C162.442 367.835 158.738 371.528 154.351 375.125C145.563 380.249 136.133 383.433 126.351 386.125C124.876 386.551 123.4 386.978 121.926 387.406C93.5384 395.577 62.1541 398.718 34.2889 387.309C31.3427 386.122 28.3733 385.101 25.3514 384.125C25.3514 382.805 25.3514 381.485 25.3514 380.125C26.4445 379.981 27.5376 379.836 28.6639 379.688C32.2826 379.242 32.2826 379.242 35.3514 378.125C35.6814 379.115 36.0114 380.105 36.3514 381.125C39.095 382.317 39.095 382.317 42.4139 383.188C43.5186 383.508 44.6233 383.829 45.7615 384.16C47.5385 384.638 47.5385 384.638 49.3514 385.125C50.4973 385.489 51.6433 385.852 52.824 386.227C59.3084 387.818 66.0899 387.476 72.7264 387.438C73.445 387.434 74.1636 387.431 74.904 387.428C91.8106 387.319 106.379 384.586 122.601 379.875C123.845 379.517 125.09 379.158 126.371 378.789C142.342 374.386 142.342 374.386 154.351 364.125C154.351 362.805 154.351 361.485 154.351 360.125C153.258 360.352 152.165 360.579 151.039 360.813C147.351 361.125 147.351 361.125 145.769 360.027C143.268 356.671 142.209 352.66 140.828 348.742C139.601 345.92 139.601 345.92 136.875 345.168C133.447 345.11 131.362 346.557 128.351 348.125C125.16 348.422 123.416 348.147 120.351 347.125C119.621 345.148 118.957 343.144 118.351 341.125C117.361 339.64 117.361 339.64 116.351 338.125C113.36 338.542 110.744 338.949 107.976 340.188C104.409 341.462 101.066 341.753 97.3514 341.125C94.1014 339.125 94.1014 339.125 91.3514 337.125C86.8003 337.125 84.6746 338.238 81.3514 341.125Z" fill="#060606"/>
<path d="M246.977 184.062C248.481 184.076 248.481 184.076 250.016 184.09C250.786 184.101 251.557 184.113 252.352 184.125C252.847 185.61 252.847 185.61 253.352 187.125C252.155 187.352 250.959 187.579 249.727 187.812C241.845 189.863 238.388 195.126 234.062 201.625C228.627 212.744 227.812 222.85 228.102 234.938C228.122 236.42 228.14 237.902 228.156 239.385C228.2 242.965 228.268 246.545 228.352 250.125C229.085 250.113 229.819 250.102 230.575 250.09C231.55 250.081 232.524 250.072 233.527 250.062C234.488 250.051 235.449 250.039 236.439 250.027C240.608 250.167 244.324 251.069 248.352 252.125C248.352 253.445 248.352 254.765 248.352 256.125C246.455 255.983 244.56 255.836 242.664 255.688C241.08 255.566 241.08 255.566 239.465 255.441C236.701 255.16 234.062 254.723 231.352 254.125C231.995 255.439 232.641 256.751 233.289 258.062C233.829 259.159 233.829 259.159 234.379 260.277C235.215 262.087 235.215 262.087 236.352 263.125C237.856 263.032 239.356 262.874 240.852 262.688C245.725 262.14 250.451 262.046 255.352 262.125C256.012 263.445 256.672 264.765 257.352 266.125C253.701 267.736 250.301 268.574 246.352 269.125C249.88 272.215 253.84 273.567 258.227 275C258.997 275.255 259.768 275.511 260.562 275.774C270.321 278.9 280.332 281.023 290.352 283.125C290.352 284.445 290.352 285.765 290.352 287.125C285.732 287.125 281.112 287.125 276.352 287.125C285.242 292.23 292.785 295.624 303.352 295.125C304.342 294.795 305.332 294.465 306.352 294.125C307.746 294.058 309.143 294.04 310.539 294.062C311.797 294.083 313.055 294.104 314.352 294.125C314.682 295.115 315.012 296.105 315.352 297.125C317.002 297.455 318.652 297.785 320.352 298.125C320.352 298.785 320.352 299.445 320.352 300.125C320.875 299.873 321.398 299.622 321.937 299.362C349.097 286.323 349.097 286.323 355.352 287.125C355.682 287.455 356.012 287.785 356.352 288.125C356.286 289.795 356.147 291.462 355.977 293.125C355.877 294.111 355.778 295.097 355.676 296.113C355.569 297.107 355.462 298.101 355.352 299.125C355.255 300.026 355.158 300.927 355.059 301.855C354.829 303.946 354.591 306.036 354.352 308.125C355.342 308.125 356.332 308.125 357.352 308.125C357.352 311.755 357.352 315.385 357.352 319.125C356.362 319.125 355.372 319.125 354.352 319.125C354.314 319.933 354.277 320.741 354.238 321.574C354.14 323.177 354.14 323.177 354.039 324.812C353.952 326.396 353.952 326.396 353.863 328.012C353.187 332.127 351.982 334.941 348.555 337.43C345.66 338.343 343.131 338.316 340.102 338.25C339.024 338.232 337.946 338.214 336.836 338.195C336.016 338.172 335.196 338.149 334.352 338.125C334.868 339.222 335.385 340.319 335.918 341.449C336.584 342.903 337.249 344.358 337.914 345.812C338.256 346.534 338.599 347.255 338.951 347.998C340.391 351.183 341.359 353.478 341.316 357.008C340.088 359.702 339.061 360.204 336.352 361.312C333.188 362.478 333.188 362.478 331.352 365.125C328.447 364.488 325.951 363.573 323.289 362.25C322.617 361.923 321.946 361.595 321.254 361.258C317.826 359.217 316.095 357.103 314.852 353.324C314.604 352.594 314.357 351.864 314.102 351.111C313.854 350.353 313.607 349.594 313.352 348.812C311.98 344.674 310.657 340.72 308.664 336.832C307.352 334.125 307.352 334.125 307.352 330.125C306.692 330.125 306.032 330.125 305.352 330.125C304.059 334.312 302.767 338.5 301.477 342.688C301.112 343.869 300.747 345.05 300.371 346.268C300.017 347.418 299.662 348.569 299.297 349.754C298.954 350.864 298.612 351.974 298.259 353.118C297.535 355.517 296.861 357.918 296.219 360.34C295.352 363.125 295.352 363.125 293.352 365.125C288.932 364.804 285.497 362.79 281.664 360.688C280.526 360.07 279.388 359.453 278.215 358.816C275.352 357.125 275.352 357.125 273.352 355.125C273.22 348.936 276.055 345.085 279.43 340.059C282.367 335.575 284.851 330.861 287.352 326.125C287.022 325.795 286.692 325.465 286.352 325.125C283.552 327.867 280.763 330.62 277.977 333.375C277.183 334.152 276.388 334.93 275.57 335.73C274.81 336.485 274.049 337.239 273.266 338.016C272.564 338.707 271.862 339.398 271.139 340.11C269.424 342.043 268.374 343.766 267.352 346.125C265.702 346.125 264.052 346.125 262.352 346.125C262.145 346.764 261.939 347.404 261.727 348.062C260.352 350.125 260.352 350.125 257.227 350.875C256.278 350.958 255.329 351.04 254.352 351.125C251.333 347.813 250.99 345.616 251.102 341.188C251.117 340.168 251.133 339.148 251.148 338.098C251.352 335.125 251.352 335.125 251.856 332.892C252.461 329.516 252.481 326.313 252.484 322.883C252.486 321.853 252.486 321.853 252.487 320.802C252.488 319.355 252.486 317.908 252.482 316.46C252.477 314.264 252.482 312.068 252.488 309.871C252.488 308.458 252.486 307.046 252.484 305.633C252.483 303.725 252.483 303.725 252.481 301.778C252.353 298.158 251.917 294.7 251.352 291.125C251.04 286.808 250.859 283.865 253.352 280.125C252.646 280.033 251.941 279.942 251.215 279.848C247.826 278.992 245.511 277.39 242.539 275.562C238.16 273.448 238.16 273.448 233.413 273.501C229.102 275.092 225.225 277.45 221.345 279.886C219.416 281.085 217.461 282.196 215.469 283.285C210.538 285.992 205.732 288.721 201.289 292.188C198.352 294.125 198.352 294.125 195.414 293.938C194.733 293.669 194.053 293.401 193.352 293.125C193.685 290.176 193.972 288.533 196.022 286.33C201.958 281.939 208.095 278.232 214.602 274.75C215.568 274.218 216.535 273.685 217.531 273.137C221.836 270.806 225.475 268.894 230.352 268.125C229.918 267.354 229.485 266.583 229.039 265.789C228.482 264.786 227.925 263.783 227.352 262.75C226.795 261.752 226.238 260.755 225.664 259.727C224.352 257.125 224.352 257.125 224.352 255.125C213.525 257.233 203.662 259.882 193.498 264.222C189.144 266.054 184.75 267.781 180.352 269.5C179.467 269.858 178.582 270.216 177.671 270.585C172.644 272.543 168.749 273.55 163.352 273.125C162.727 271.25 162.727 271.25 162.352 269.125C164.586 266.89 165.645 266.629 168.641 265.844C176.417 263.621 183.756 260.314 191.188 257.152C201.467 252.865 211.126 249.564 222.352 250.125C222.207 249.479 222.063 248.833 221.914 248.168C218.382 230.236 219.127 212.99 228.727 197.062C233.652 189.917 237.927 183.957 246.977 184.062Z" fill="#080808"/>
<path d="M161.727 0C165.072 1.43358 165.815 3.29309 167.33 6.49854C169.453 11.9567 170.635 17.6722 171.914 23.375C172.065 24.0351 172.216 24.6952 172.371 25.3752C178.678 52.9797 178.678 52.9797 178.352 65.125C179.366 65.0863 180.381 65.0477 181.426 65.0078C185.391 65.1262 188.38 65.8568 192.164 67C200.84 69.446 209.593 69.9243 218.566 70.353C219.645 70.4131 220.724 70.4732 221.836 70.5352C223.286 70.5991 223.286 70.5991 224.765 70.6643C227.752 71.1964 229.185 72.0199 231.352 74.125C231.914 77 231.914 77 231.352 80.125C227.475 85.7392 221.608 87.2429 215.352 89.125C214.653 89.3416 213.954 89.5581 213.234 89.7812C208.855 90.94 204.799 91.1383 200.268 91.1577C191.168 91.2793 186.406 93.1676 179.574 99.1914C177.352 101.125 177.352 101.125 175.352 101.125C174.712 105.808 174.195 110.395 174.352 115.125C176.664 118.192 176.664 118.192 179.352 120.125C179.465 124.56 176.993 127.707 174.352 131.125C173.362 131.455 172.372 131.785 171.352 132.125C170.143 134.125 170.143 134.125 169.352 136.125C166.977 136.25 166.977 136.25 164.352 136.125C163.692 135.465 163.032 134.805 162.352 134.125C162.352 133.135 162.352 132.145 162.352 131.125C159.31 130.875 156.27 130.65 153.227 130.438C152.371 130.365 151.515 130.292 150.633 130.217C145.263 129.866 142.096 130.29 137.352 133.125C134.23 133.492 132.308 133.653 129.539 132.125C125.6 125.49 127.452 115.465 127.789 108.125C127.841 106.873 127.893 105.622 127.947 104.332C128.076 101.263 128.211 98.1938 128.352 95.125C127.572 94.8293 126.793 94.5336 125.99 94.229C117.819 90.8097 110.864 82.0799 105.82 74.9648C103.953 72.6263 102.142 72.0798 99.3516 71.125C98.3516 70.125 98.3516 70.125 98.1016 67.1875C98.1841 66.1769 98.2666 65.1662 98.3516 64.125C101.708 61.8877 102.427 61.9477 106.289 62.125C111.998 62.2356 117.502 61.7586 123.164 61.125C131.611 60.1947 139.857 59.8933 148.352 60.125C148.294 58.8437 148.236 57.5623 148.176 56.2422C148.18 48.9305 149.509 41.8322 150.75 34.6489C151.162 32.2636 151.559 29.8763 151.955 27.4883C156.526 0.273729 156.526 0.27373 161.727 0Z" fill="#070707"/>
<path d="M160.352 31.125C163.152 33.9252 162.981 36.8452 163.352 40.6172C163.433 41.3595 163.514 42.1019 163.598 42.8667C163.857 45.2437 164.106 47.6216 164.352 50C164.598 52.3712 164.847 54.7419 165.105 57.1118C165.266 58.5869 165.42 60.0627 165.566 61.5393C165.957 65.1173 166.442 68.0384 168.352 71.125C171.184 71.4595 171.184 71.4595 174.352 71.125C176.729 69.25 176.729 69.25 178.352 67.125C178.826 68.0325 179.3 68.94 179.789 69.875C183.22 74.9614 188.614 76.5042 194.383 77.8125C197.034 78.3045 199.682 78.7458 202.352 79.125C201.857 80.115 201.857 80.115 201.352 81.125C198.846 81.412 196.428 81.5923 193.914 81.6875C188.982 81.7227 188.982 81.7227 184.352 83.125C184.091 83.7257 183.831 84.3264 183.562 84.9453C181.915 87.91 179.784 89.126 176.977 91C170.232 95.8137 167.544 99.2087 166.164 107.438C166.026 108.486 165.888 109.534 165.746 110.613C165.352 113.125 165.352 113.125 164.352 114.125C162.022 114.425 159.687 114.69 157.352 114.938C151.791 115.585 147.054 116.682 142.086 119.32C140.352 120.125 140.352 120.125 137.352 120.125C137.337 119.531 137.322 118.936 137.307 118.324C137.232 115.591 137.136 112.858 137.039 110.125C137.017 109.19 136.994 108.256 136.971 107.293C136.418 92.9237 128.939 82.9986 118.566 73.332C118.166 72.9337 117.765 72.5354 117.352 72.125C117.352 71.795 117.352 71.465 117.352 71.125C117.914 71.1104 118.477 71.0958 119.057 71.0808C131.53 70.7211 143.412 70.1048 155.352 66.125C157.472 54.5244 158.868 42.8201 160.352 31.125Z" fill="#FBFBFB"/>
<path d="M322.352 113.125C324.645 113.246 324.645 113.246 327.352 114.125C329.152 116.848 329.152 116.848 330.664 120.188C331.176 121.292 331.688 122.397 332.215 123.535C332.59 124.39 332.965 125.244 333.352 126.125C335.553 123.434 337.505 120.868 339.289 117.875C341.352 115.125 341.352 115.125 343.914 114.062C346.352 114.125 346.352 114.125 348.039 115.062C350.052 118.225 350.572 121.467 351.352 125.125C352.624 124.022 353.894 122.918 355.164 121.812C355.872 121.198 356.579 120.583 357.309 119.949C359.338 118.194 359.338 118.194 360.977 116.375C361.43 115.963 361.884 115.55 362.352 115.125C364.539 115.438 364.539 115.438 366.352 116.125C367.151 119.412 367.448 120.835 366.352 124.125C366.991 124.29 367.63 124.455 368.289 124.625C370.352 126.125 370.352 126.125 371.102 130C371.523 135.041 371.389 138.557 368.98 143.074C368.243 144.469 368.243 144.469 367.49 145.893C366.97 146.856 366.45 147.82 365.914 148.812C365.398 149.788 364.882 150.763 364.35 151.768C360.525 158.951 360.525 158.951 359.352 160.125C352.454 160.746 347.671 159.958 341.352 157.125C337.954 156.598 334.566 156.19 331.145 155.848C328.352 155.125 328.352 155.125 326.965 153.059C326.661 152.101 326.661 152.101 326.352 151.125C327.342 150.135 328.332 149.145 329.352 148.125C323.267 147.927 323.267 147.927 317.352 149.125C316.857 147.64 316.857 147.64 316.352 146.125C313.847 144.906 313.847 144.906 311.352 144.125C311.895 137.752 313.461 132.339 315.727 126.375C316.031 125.538 316.335 124.702 316.648 123.84C318.133 119.862 319.476 116.336 322.352 113.125Z" fill="#040404"/>
<path d="M167.352 166.125C167.847 168.105 167.847 168.105 168.352 170.125C167.032 170.455 165.712 170.785 164.352 171.125C164.847 175.58 164.847 175.58 165.352 180.125C172.612 180.125 179.872 180.125 187.352 180.125C187.022 181.775 186.692 183.425 186.352 185.125C175.957 186.115 175.957 186.115 165.352 187.125C165.073 192.199 165.073 192.199 164.789 197.375C164.697 198.965 164.697 198.965 164.603 200.587C164.56 201.43 164.517 202.272 164.473 203.141C164.426 203.999 164.379 204.858 164.33 205.743C164.249 208.113 164.249 208.113 164.946 210.265C165.352 212.125 165.352 212.125 163.727 214.875C161.352 217.125 161.352 217.125 158.727 217.5C156.352 217.125 156.352 217.125 154.352 216.125C153.877 217.094 153.403 218.064 152.914 219.063C151.352 222.125 151.352 222.125 150.352 223.125C147.477 223.5 147.477 223.5 144.352 223.125C141.666 219.864 140.564 216.136 139.352 212.125C138.919 213.053 138.485 213.981 138.039 214.938C135.492 219.749 135.492 219.749 133.352 221.125C127.834 221.562 124.113 220.517 119.102 218.25C117.9 217.716 116.699 217.183 115.461 216.633C112.352 215.125 112.352 215.125 109.352 213.125C109.847 213.558 110.342 213.991 110.852 214.438C112.352 216.125 112.352 216.125 112.352 219.125C109.477 218.938 109.477 218.938 106.352 218.125C102.738 213.033 104.006 205.509 104.852 199.68C106.819 189.33 109.595 181.352 118.352 175.125C122.049 173.276 126.316 173.649 130.352 174.125C133.286 175.921 134.824 177.069 136.352 180.125C136.893 186.083 135.051 189.731 131.652 194.52C129.02 197.501 126.092 199.595 122.789 201.75C117.742 205.033 117.742 205.033 113.352 209.125C114.177 209.393 115.002 209.661 115.852 209.938C117.703 210.566 119.552 211.208 121.356 211.961C122.035 212.242 122.714 212.523 123.414 212.813C124.045 213.085 124.675 213.356 125.324 213.637C128.231 214.337 129.567 214.323 132.352 213.125C134.167 210.613 135.395 207.882 136.664 205.063C137.023 204.304 137.382 203.545 137.752 202.764C138.635 200.892 139.496 199.009 140.352 197.125C141.672 197.125 142.992 197.125 144.352 197.125C145.342 204.055 146.332 210.985 147.352 218.125C148.012 218.125 148.672 218.125 149.352 218.125C150.012 216.145 150.672 214.165 151.352 212.125C152.342 212.125 153.332 212.125 154.352 212.125C154.317 211.554 154.282 210.983 154.246 210.395C153.998 202.958 155.464 196.292 157.352 189.125C156.362 189.455 155.372 189.785 154.352 190.125C148.183 190.686 148.183 190.686 144.852 188.438C143.352 186.125 143.352 186.125 143.352 183.5C144.352 181.125 144.352 181.125 146.102 179.75C148.85 178.987 150.631 179.369 153.352 180.125C153.352 180.785 153.352 181.445 153.352 182.125C155.002 182.125 156.652 182.125 158.352 182.125C158.104 181.104 158.104 181.104 157.852 180.063C157.108 175.693 156.609 171.829 158.414 167.688C161.302 165.359 163.767 165.855 167.352 166.125Z" fill="#0A0A0A"/>
<path d="M325.352 412.125C325.189 412.945 325.026 413.765 324.858 414.61C324.29 418.551 324.226 422.397 324.254 426.367C324.256 427.52 324.256 427.52 324.258 428.696C324.264 431.13 324.276 433.565 324.289 436C324.294 437.659 324.299 439.318 324.303 440.977C324.314 445.026 324.331 449.076 324.352 453.125C315.762 453.753 307.217 454.306 298.602 454.313C297.74 454.325 296.879 454.337 295.992 454.35C295.167 454.352 294.342 454.353 293.492 454.355C292.765 454.36 292.039 454.364 291.29 454.368C289.352 454.125 289.352 454.125 286.352 452.125C286.589 450.875 286.589 450.875 286.832 449.599C287.387 445.885 287.563 442.292 287.668 438.539C287.689 437.837 287.71 437.136 287.731 436.412C287.796 434.192 287.855 431.971 287.914 429.75C287.957 428.236 288.001 426.721 288.045 425.207C288.151 421.513 288.253 417.819 288.352 414.125C292.268 413.783 296.184 413.453 300.102 413.125C301.193 413.03 302.285 412.934 303.41 412.836C310.743 412.229 317.995 412.005 325.352 412.125Z" fill="#FCFCFC"/>
<path d="M308.227 232.75C309.451 232.713 309.451 232.713 310.699 232.676C316.684 232.647 316.684 232.647 319.891 234.945C322.08 238.212 321.868 240.255 321.352 244.125C320.309 246.982 319.148 249.662 317.352 252.125C316.362 252.455 315.372 252.785 314.352 253.125C315.672 255.435 316.992 257.745 318.352 260.125C320.332 260.125 322.312 260.125 324.352 260.125C324.477 262.5 324.477 262.5 324.352 265.125C322.352 267.125 322.352 267.125 319.727 267.25C318.943 267.209 318.159 267.168 317.352 267.125C317.475 268.301 317.475 268.301 317.602 269.5C317.217 275.078 315.371 281.105 311.352 285.125C309.039 285.563 309.039 285.563 306.352 285.125C301.781 281.697 299.905 277.513 297.66 272.332C296.171 269.82 295.043 269.143 292.352 268.125C292.474 264.083 293.914 262.352 296.727 259.688C301.128 255.589 301.128 255.589 303.352 250.125C302.046 247.408 300.523 245.041 298.77 242.59C297.162 239.796 296.908 238.295 297.352 235.125C300.485 231.991 303.962 232.757 308.227 232.75Z" fill="#0A0A0A"/>
<path d="M349.352 200.125C353.504 203.333 354.973 206.152 356.352 211.125C357.247 218.671 356.229 225.846 354.539 233.188C354.374 233.914 354.209 234.64 354.039 235.388C353.092 239.191 352.21 242.358 349.352 245.125C345.852 245.563 345.852 245.563 342.352 245.125C337.884 241.514 335.707 235.936 335.001 230.351C334.888 227.39 334.903 224.462 334.977 221.5C334.978 220.502 334.979 219.505 334.981 218.477C335.137 205.34 335.137 205.34 339.352 201.125C342.693 199.932 345.839 199.695 349.352 200.125Z" fill="#090909"/>
<path d="M281.043 199.715C283.352 200.125 283.352 200.125 285.289 202.187C285.64 203.157 285.99 204.126 286.352 205.125C286.861 206.103 287.37 207.082 287.895 208.09C290.057 213.12 289.789 218.235 289.727 223.625C289.738 224.632 289.75 225.639 289.762 226.676C289.714 238.762 289.714 238.762 285.352 243.125C282.517 243.412 280.82 243.377 278.289 242.016C271.311 236.106 267.895 229.343 266.945 220.227C266.769 212.732 267.135 207.438 271.727 201.281C274.627 199.217 277.603 199.6 281.043 199.715Z" fill="#080808"/>
<path d="M416.781 389.992C417.457 389.991 418.133 389.99 418.829 389.989C420.243 389.989 421.656 389.99 423.069 389.995C425.242 390 427.414 389.995 429.586 389.988C430.964 389.989 432.341 389.99 433.719 389.992C435.592 389.994 435.592 389.994 437.503 389.996C440.352 390.125 440.352 390.125 441.352 391.125C444.407 391.264 447.054 391.194 450.039 390.5C452.352 390.125 452.352 390.125 455.352 392.125C452.252 393.406 449.146 394.673 446.039 395.938C445.177 396.294 444.316 396.65 443.428 397.018C440.752 398.102 438.06 399.125 435.352 400.125C434.567 400.429 433.782 400.732 432.974 401.045C424.219 403.963 415.137 403.542 406.017 403.461C403.16 403.437 400.304 403.441 397.447 403.447C395.609 403.442 393.771 403.435 391.934 403.426C391.091 403.427 390.248 403.428 389.379 403.429C384.06 403.366 379.466 402.601 374.352 401.125C376.902 398.018 379.482 397.233 383.289 396.125C384.445 395.789 385.602 395.452 386.793 395.105C396.831 392.34 406.3 390.002 416.781 389.992Z" fill="#F7F7F7"/>
<path d="M198.352 186.125C199.012 186.785 199.672 187.445 200.352 188.125C200.039 195.636 197.211 202.957 192.602 208.875C190.165 212.395 189.843 213.951 190.352 218.125C196.642 218.461 200.739 218.258 206.352 215.125C209.227 214.938 209.227 214.938 211.352 215.125C211.002 217.956 210.584 218.931 208.356 220.793C207.55 221.294 206.744 221.796 205.914 222.313C205.111 222.822 204.308 223.331 203.481 223.855C198.79 226.653 194.75 226.593 189.352 226.125C185.117 224.413 183.338 222.202 181.352 218.125C181.352 217.465 181.352 216.805 181.352 216.125C180.238 216.249 180.238 216.249 179.102 216.375C176.352 216.125 176.352 216.125 174.039 214.438C171.979 211.615 171.929 210.555 172.352 207.125C175.853 201.386 180.596 196.623 185.817 192.438C187.982 190.586 189.617 188.374 191.352 186.125C194.058 184.772 195.485 185.337 198.352 186.125Z" fill="#0D0D0D"/>
<path d="M167.352 166.125C167.682 167.445 168.012 168.765 168.352 170.125C167.032 170.455 165.712 170.785 164.352 171.125C164.682 174.095 165.012 177.065 165.352 180.125C172.612 180.125 179.872 180.125 187.352 180.125C187.022 181.775 186.692 183.425 186.352 185.125C175.957 186.115 175.957 186.115 165.352 187.125C165.073 192.199 165.073 192.199 164.789 197.375C164.728 198.435 164.666 199.495 164.603 200.587C164.56 201.43 164.517 202.272 164.473 203.141C164.402 204.429 164.402 204.429 164.33 205.743C164.249 208.113 164.249 208.113 164.946 210.265C165.352 212.125 165.352 212.125 163.727 214.875C161.352 217.125 161.352 217.125 158.789 217.5C156.352 217.125 156.352 217.125 153.352 216.125C152.164 214.063 152.164 214.063 151.352 212.125C152.342 212.125 153.332 212.125 154.352 212.125C154.317 211.554 154.282 210.983 154.246 210.395C153.998 202.958 155.464 196.292 157.352 189.125C156.362 189.455 155.372 189.785 154.352 190.125C148.182 190.686 148.182 190.686 144.852 188.438C143.352 186.125 143.352 186.125 143.352 183.5C144.352 181.125 144.352 181.125 146.102 179.75C148.85 178.987 150.631 179.369 153.352 180.125C153.352 180.785 153.352 181.445 153.352 182.125C155.002 182.125 156.652 182.125 158.352 182.125C158.187 181.444 158.022 180.764 157.852 180.063C157.108 175.693 156.609 171.829 158.414 167.688C161.302 165.359 163.767 165.855 167.352 166.125Z" fill="#0F0F0F"/>
<path d="M128.352 179.125C129.012 179.455 129.672 179.785 130.352 180.125C130.9 184.619 130.164 187.557 127.395 191.18C122.704 195.646 116.889 198.82 111.352 202.125C109.464 197.255 111.904 193.557 113.879 189.051C117.353 182.149 120.376 178.793 128.352 179.125Z" fill="#F2F2F2"/>
<path d="M309.352 259.125C310.012 259.455 310.672 259.785 311.352 260.125C311.406 262.354 311.444 264.583 311.477 266.812C311.5 268.054 311.523 269.295 311.547 270.574C311.362 273.937 310.809 276.124 309.352 279.125C306.577 278.099 305.529 277.45 304.086 274.812C303.761 273.926 303.436 273.039 303.102 272.125C302.766 271.238 302.431 270.351 302.086 269.438C301.352 267.125 301.352 267.125 301.352 265.125C303.102 263.617 303.102 263.617 305.352 262C306.094 261.461 306.837 260.922 307.602 260.367C308.179 259.957 308.757 259.547 309.352 259.125Z" fill="#F5F5F5"/>
<path d="M344.352 311.125C344.682 311.125 345.012 311.125 345.352 311.125C346.175 317.507 346.472 323.692 346.352 330.125C344.914 330.179 343.477 330.218 342.039 330.25C340.838 330.285 340.838 330.285 339.613 330.32C337.352 330.125 337.352 330.125 334.352 328.125C335.829 325.478 337.308 322.832 338.789 320.188C339.21 319.433 339.631 318.678 340.064 317.9C340.669 316.822 340.669 316.822 341.285 315.723C341.657 315.058 342.029 314.393 342.412 313.707C343.352 312.125 343.352 312.125 344.352 311.125Z" fill="#F4F4F4"/>
<path d="M41.3516 439.125C43.3473 439.339 45.3426 439.558 47.3359 439.793C49.5719 440.039 51.8126 440.244 54.0547 440.426C62.4263 441.182 68.9608 442.854 76.5547 446.727C79.7943 448.346 82.8378 449.308 86.3516 450.125C86.3516 450.455 86.3516 450.785 86.3516 451.125C77.535 450.822 69.3781 448.75 60.9597 446.314C58.7649 445.681 56.5656 445.065 54.3652 444.451C43.6298 441.403 43.6298 441.403 41.3516 439.125Z" fill="#D7D7D7"/>
<path d="M304.352 238.125C308.312 238.125 312.272 238.125 316.352 238.125C316.352 244.3 316.255 244.978 312.352 249.125C308.86 247.961 308.499 247.235 306.664 244.188C306.227 243.477 305.79 242.767 305.34 242.035C304.352 240.125 304.352 240.125 304.352 238.125Z" fill="#F3F3F3"/>
<path d="M346.539 208.875C347.467 208.958 348.395 209.04 349.352 209.125C350.012 210.445 350.672 211.765 351.352 213.125C350.145 214.393 350.145 214.393 348.914 215.688C346.135 218.977 345.61 221.811 345.352 226.125C345.022 226.125 344.692 226.125 344.352 226.125C344.352 223.815 344.352 221.505 344.352 219.125C343.362 219.125 342.372 219.125 341.352 219.125C340.031 213.842 340.031 213.842 341.414 210.75C343.352 209.125 343.352 209.125 346.539 208.875Z" fill="#F0F0F0"/>
<path d="M323.352 333.125C325.973 335.433 327.135 337.552 328.395 340.793C328.921 342.132 328.921 342.132 329.459 343.498C329.815 344.427 330.172 345.356 330.539 346.312C330.907 347.253 331.275 348.193 331.654 349.162C332.56 351.48 333.459 353.801 334.352 356.125C333.032 356.455 331.712 356.785 330.352 357.125C329.003 353.464 327.672 349.797 326.352 346.125C326.043 345.269 325.735 344.413 325.418 343.531C325.149 342.758 324.879 341.984 324.602 341.188C324.359 340.498 324.117 339.808 323.867 339.098C323.352 337.125 323.352 337.125 323.352 333.125Z" fill="#E6E6E6"/>
<path d="M349.352 294.125C349.102 297 349.102 297 348.352 300.125C346.352 301.375 346.352 301.375 344.352 302.125C344.022 302.785 343.692 303.445 343.352 304.125C342.692 304.125 342.032 304.125 341.352 304.125C341.352 303.465 341.352 302.805 341.352 302.125C339.702 302.125 338.052 302.125 336.352 302.125C336.352 301.135 336.352 300.145 336.352 299.125C338.141 298.287 339.933 297.455 341.727 296.625C342.724 296.161 343.722 295.697 344.75 295.219C347.352 294.125 347.352 294.125 349.352 294.125Z" fill="#E4E4E4"/>
<path d="M260.352 288.125C265.106 288.701 268.322 290.676 272.352 293.125C271.566 298.938 269.945 304.494 268.352 310.125C268.022 310.125 267.692 310.125 267.352 310.125C267.682 304.515 268.012 298.905 268.352 293.125C267.032 293.125 265.712 293.125 264.352 293.125C264.022 292.135 263.692 291.145 263.352 290.125C262.362 289.465 261.372 288.805 260.352 288.125Z" fill="#C8C8C8"/>
<path d="M278.039 209.5C278.802 209.706 279.565 209.913 280.352 210.125C279.853 213.813 279.251 215.73 276.352 218.125C275.032 217.465 273.712 216.805 272.352 216.125C272.164 213.75 272.164 213.75 272.352 211.125C275.352 209.125 275.352 209.125 278.039 209.5Z" fill="#EDEDED"/>
<path d="M214.352 402.125C215.342 402.455 216.332 402.785 217.352 403.125C215.98 407.19 214.131 409.799 211.227 412.938C210.14 414.123 210.14 414.123 209.031 415.332C208.477 415.924 207.923 416.515 207.352 417.125C207.022 416.465 206.692 415.805 206.352 415.125C207.75 412.34 207.75 412.34 209.727 409.062C210.697 407.436 210.697 407.436 211.688 405.777C213.352 403.125 213.352 403.125 214.352 402.125Z" fill="#E6E6E6"/>
<path d="M314.352 329.125C316.8 332.797 317.801 336.361 319.039 340.562C319.277 341.326 319.515 342.09 319.76 342.877C319.98 343.618 320.199 344.358 320.426 345.121C320.628 345.793 320.83 346.465 321.038 347.158C321.399 349.425 321.043 350.955 320.352 353.125C319.202 350.21 318.057 347.293 316.914 344.375C316.589 343.55 316.263 342.725 315.928 341.875C315.615 341.076 315.303 340.277 314.98 339.453C314.692 338.72 314.404 337.987 314.108 337.231C312.655 333.184 312.655 333.184 312.352 331.125C313.012 330.465 313.672 329.805 314.352 329.125Z" fill="#A2A2A2"/>
<path d="M288.352 301.125C290.332 301.62 290.332 301.62 292.352 302.125C292.487 303.727 292.584 305.332 292.664 306.938C292.751 308.277 292.751 308.277 292.84 309.645C292.679 310.463 292.518 311.282 292.352 312.125C289.877 313.61 289.877 313.61 287.352 315.125C287.682 310.505 288.012 305.885 288.352 301.125Z" fill="#D6D6D6"/>
<path d="M287.352 323.125C287.682 324.115 288.012 325.105 288.352 326.125C287.039 328.312 287.039 328.312 285.352 330.125C284.692 330.125 284.032 330.125 283.352 330.125C281.755 331.443 281.755 331.443 280.094 333.188C279.469 333.819 278.843 334.451 278.199 335.102C277.548 335.769 276.897 336.437 276.227 337.125C275.238 338.127 275.238 338.127 274.23 339.148C272.6 340.803 270.974 342.462 269.352 344.125C269.352 341.125 269.352 341.125 271.004 339.132C272.135 338.024 272.135 338.024 273.289 336.895C274.101 336.092 274.913 335.29 275.75 334.463C276.609 333.63 277.467 332.796 278.352 331.938C279.639 330.67 279.639 330.67 280.953 329.377C283.079 327.286 285.212 325.203 287.352 323.125Z" fill="#C5C5C5"/>
<path d="M78.8516 447.938C80.0117 448.195 80.0117 448.195 81.1953 448.457C83.3516 449.125 83.3516 449.125 86.3516 451.125C84.6009 451.01 82.851 450.883 81.1016 450.75C80.127 450.68 79.1525 450.611 78.1484 450.539C75.4552 450.14 73.6819 449.49 71.3516 448.125C74.5759 447.05 75.6395 447.193 78.8516 447.938Z" fill="#CFCFCF"/>
<path d="M303.352 302.125C303.682 302.785 304.012 303.445 304.352 304.125C303.898 304.558 303.444 304.991 302.977 305.438C301.151 307.233 301.151 307.233 299.352 310.125C297.891 307.478 297.352 306.231 297.352 303.125C299.332 302.795 301.312 302.465 303.352 302.125Z" fill="#D8D8D8"/>
<path d="M314.352 329.125C316.642 332.56 316.53 334.11 316.352 338.125C314.289 336.375 314.289 336.375 312.352 334.125C312.542 331.907 312.767 330.71 314.352 329.125Z" fill="#E8E8E8"/>
</svg>
