<svg width="331" height="199" viewBox="0 0 331 199" fill="none" xmlns="http://www.w3.org/2000/svg">
<path d="M5.68042 112.224C8.33966 113.017 10.4766 114.057 12.8945 115.41C18.2971 118.194 23.5257 119.356 29.4688 120.437C48.9968 124.391 64.2886 133.005 80.2656 144.625C82.2092 145.951 84.1533 147.003 86.2812 148C85.7862 146.206 85.7862 146.206 85.2812 144.375C84.4023 140.828 83.9396 137.672 84.2812 134C85.2713 132.515 85.2713 132.515 86.2812 131C88.3408 130.612 88.3408 130.612 90.8594 130.602C91.7733 130.598 92.6873 130.594 93.6289 130.59C94.5867 130.601 95.5445 130.613 96.5312 130.625C97.4736 130.613 98.4159 130.602 99.3867 130.59C104.753 130.612 108.673 130.945 113.281 134C116.308 137.733 116.398 140.31 116.281 145C117.218 144.48 118.156 143.961 119.121 143.426C128.769 138.354 137.954 135.77 148.663 133.871C159.544 131.899 169.844 128.598 180.281 125C187.739 122.441 187.739 122.441 191.281 123C193.967 124.96 195.078 126.206 195.906 129.437C194.983 133.223 192.463 135.008 189.281 137C186.498 138.015 183.694 138.547 180.781 139.062C179.161 139.383 177.541 139.707 175.922 140.035C175.128 140.194 174.335 140.353 173.518 140.516C170.467 141.176 167.511 142.075 164.531 143C157.581 145.077 150.549 146.221 143.402 147.421C136.625 148.614 130.684 150.518 124.273 153.023C118.514 154.903 113.06 154.595 107.281 153C107.281 153.66 107.281 154.32 107.281 155C108.034 154.991 108.787 154.982 109.562 154.973C120.429 155.276 128.686 159.202 138.281 164C138.549 162.886 138.817 161.772 139.094 160.625C140.281 157 140.281 157 143.281 155C145.969 155.375 145.969 155.375 148.281 156C149.406 160.75 149.406 160.75 148.281 163C147.581 165.839 147.581 165.839 148.281 169C150.429 171.377 152.974 173.022 155.656 174.75C156.386 175.238 157.115 175.726 157.866 176.229C162.607 179.277 166.634 181.003 172.281 181.633C174.281 182 174.281 182 177.469 184.25C179.281 187 179.281 187 179.281 190.125C177.718 194.619 177.718 194.619 175.281 196C172.281 195.812 172.281 195.812 170.414 195.422C168.242 194.946 168.242 194.946 165.836 194.828C158.446 194.096 154.135 191.139 148.697 186.367C145.84 183.777 145.84 183.777 142.215 182.949C139.638 184.349 137.54 186.131 135.281 188C133.178 189.387 131.051 190.74 128.906 192.062C127.286 193.07 127.286 193.07 125.633 194.098C119.877 197.365 115.206 199.784 108.48 198.687C101.474 196.497 97.9273 190.367 94.3477 184.367C93.2812 182 93.2812 182 93.2812 178C92.6212 178 91.9613 178 91.2812 178C90.8984 178.893 90.8984 178.893 90.5078 179.805C88.1144 184.088 83.7759 186.961 79.293 188.828C71.5722 190.994 64.3985 190.894 57.2812 187C51.8298 183.579 50.1255 180.1 47.9453 174.109C47.0759 170.038 47.1472 166.145 47.2812 162C42.8438 161.971 38.4063 161.953 33.9688 161.937C32.7061 161.929 31.4435 161.921 30.1426 161.912C28.9341 161.909 27.7256 161.906 26.4805 161.902C25.365 161.897 24.2496 161.892 23.1003 161.886C20.2007 161.872 20.2007 161.872 17.2812 163C13.6562 163.125 13.6562 163.125 10.2812 163C9.28125 162 9.28125 162 8.96875 159.187C9.28125 156 9.28125 156 10.8438 153.75C21.1372 146.36 36.6131 150.192 48.2812 152C48.2297 151.08 48.1781 150.159 48.125 149.211C48.3518 144.55 50.1415 143.297 53.2812 140C43.0991 134.743 32.9705 132.568 21.6562 131.187C14.2502 130.116 5.06333 127.166 0.28125 121C-0.09375 117.437 -0.09375 117.437 0.28125 114C3.28125 112 3.28125 112 5.68042 112.224Z" fill="#070707"/>
<path d="M260.469 66.75C261.329 66.7448 262.188 66.7397 263.074 66.7344C265.281 67 265.281 67 267.281 69C267.789 72.24 267.906 74.7271 266.43 77.7344C260.341 85.8781 248.724 90.9783 239.281 94C240.332 94.098 241.382 94.1959 242.465 94.2969C261.133 96.2073 261.133 96.2073 267.719 103.438C272.213 109.339 273.259 114.654 272.281 122C269.631 131.192 265.015 138.898 257.156 144.5C251.971 147.134 245.903 146.716 240.281 146C235.772 143.901 233.286 141.567 231.281 137C231.094 134.188 231.094 134.188 231.281 132C235.787 130.749 235.787 130.749 238.148 131.949C242.031 133.862 246.068 133.627 250.281 133C255.986 129.725 258.332 125.198 260.281 119C260.951 115.786 260.951 115.786 260.281 113C257.467 109.57 255.196 108.351 250.906 107.375C249.854 107.135 248.803 106.895 247.719 106.648C243.006 105.759 238.274 105.151 233.508 104.625C230.017 103.949 227.429 102.614 224.281 101C221.138 101.189 218.98 101.619 216.219 103.125C213.587 104.314 211.996 103.807 209.281 103C208.281 102 208.281 102 208.219 98.9375C208.239 97.9681 208.26 96.9987 208.281 96C209.309 95.5269 210.336 95.0538 211.395 94.5664C219.198 90.8789 225.874 87.0889 232.418 81.3789C235.851 78.5267 239.445 76.0355 243.156 73.5625C243.787 73.1373 244.418 72.712 245.069 72.2739C250.217 68.8763 254.25 66.7124 260.469 66.75Z" fill="#060606"/>
<path d="M144.511 76.7031C149.927 79.1011 153.61 82.6581 156.281 88C156.837 93.78 155.94 96.5226 152.281 101C149.747 102.744 147.072 104.031 144.281 105.312C143.569 105.659 142.858 106.005 142.125 106.361C136.416 109.093 131.739 110.577 125.281 110C121.634 107.366 120.193 103.991 118.281 100C117.724 99.3194 117.167 98.6387 116.594 97.9375C114.871 95.3947 114.982 94.036 115.281 91C121.012 80.0891 132.267 72.8433 144.511 76.7031Z" fill="#050505"/>
<path d="M165.281 11C166.941 12.1109 166.941 12.1109 168.281 14C168.682 16.9517 168.682 16.9517 168.723 20.5391C168.749 21.8423 168.776 23.1456 168.803 24.4883C168.818 25.8672 168.831 27.2461 168.844 28.625C168.572 42.2045 168.572 42.2045 172.334 55.0415C173.663 57.7893 173.543 59.9929 173.281 63C171.281 65 171.281 65 168.406 65.4375C165.281 65 165.281 65 163.094 63.125C158.304 54.8662 157.784 46.2445 157.594 36.875C157.56 35.7278 157.525 34.5805 157.49 33.3985C157.409 30.5991 157.339 27.8 157.281 25C154.669 27.5542 152.068 30.1198 149.469 32.6875C148.731 33.4088 147.993 34.13 147.232 34.8731C146.52 35.5789 145.808 36.2846 145.074 37.0118C144.42 37.6559 143.765 38.3 143.091 38.9637C141.166 40.9969 141.166 40.9969 139.704 43.6907C138.281 46 138.281 46 135.719 46.9375C134.914 46.9582 134.11 46.9788 133.281 47C131.281 45 131.281 45 131.184 41.9024C132.135 36.5486 136.133 33.26 139.844 29.5625C140.881 28.4942 140.881 28.4942 141.939 27.4043C144.037 25.2524 146.157 23.1253 148.281 21C149.009 20.2587 149.738 19.5173 150.488 18.7535C151.192 18.0395 151.896 17.3255 152.621 16.5899C153.253 15.9479 153.884 15.3058 154.535 14.6443C158.136 11.2535 160.405 10.4921 165.281 11Z" fill="#060606"/>
<path d="M78.1834 73.5156C82.1438 74.4301 84.686 76.9879 87.2811 80C89.7197 84.029 89.8822 88.3973 89.2811 93C88.0936 95.625 88.0936 95.625 86.2811 98C85.5386 99.0312 84.7961 100.062 84.0311 101.125C80.8849 104.414 78.6386 105.723 74.2811 107C70.494 106.936 68.2261 106.648 65.0936 104.5C62.5075 100.933 60.9497 97.0579 59.2811 93C58.9511 92.34 58.6211 91.68 58.2811 91C57.7863 86.6292 57.7229 84.7175 60.4686 81.1875C63.11 79.133 65.1696 78.1169 68.2811 77C68.8792 76.4637 69.4773 75.9275 70.0936 75.375C72.768 73.6939 75.0416 73.3981 78.1834 73.5156Z" fill="#050505"/>
<path d="M68.2812 0C71.1328 0.0429688 71.1328 0.0429688 74.2812 1C76.1172 3.73828 76.1172 3.73828 77.6562 7.3125C80.4676 13.5871 83.7607 18.8445 87.875 24.3789C89.2812 27 89.2812 27 89.0625 29.7773C88.2812 32 88.2812 32 87.2812 33C85.0312 33.5625 85.0312 33.5625 82.2812 33C80.194 30.5777 78.7854 27.8094 77.2812 25C76.8107 24.1866 76.3402 23.3732 75.8555 22.5352C72.2812 16.3231 72.2812 16.3231 72.2812 14C71.6212 14 70.9613 14 70.2812 14C70.0234 14.5994 69.7656 15.1988 69.5 15.8164C64.364 25.0183 50.3525 29.1562 41.043 32.3008C38.2874 32.9984 36.1067 33.2869 33.2812 33C31.2812 31 31.2812 31 30.9062 28.0625C31.2812 25 31.2812 25 32.793 23.4844C36.1856 21.4605 39.7202 20.3888 43.4688 19.1875C52.3085 16.2194 61.3947 12.5511 65.9062 3.875C66.36 2.92625 66.8137 1.9775 67.2812 1C67.6113 0.67 67.9412 0.34 68.2812 0Z" fill="#080808"/>
<path d="M309.281 61C310.957 61.286 312.625 61.6178 314.281 62C314.44 62.5529 314.598 63.1059 314.762 63.6755C317.021 71.3908 319.638 78.9721 322.281 86.5625C323.952 91.3736 325.618 96.1864 327.281 101C327.601 101.914 327.92 102.828 328.249 103.77C328.52 104.558 328.791 105.347 329.07 106.16C329.299 106.82 329.528 107.48 329.764 108.16C330.622 111.211 330.656 113.876 330.281 117C329.094 119 329.094 119 327.281 120C324.844 120.25 324.844 120.25 322.281 119C320.499 116.177 319.426 113.126 318.281 110C317.976 109.251 317.67 108.502 317.356 107.73C311.714 93.3608 306.435 77.5886 308.281 62C308.611 61.67 308.941 61.34 309.281 61Z" fill="#080808"/>
<path d="M327.219 34.1054C328.24 34.5482 328.24 34.5482 329.281 35C329.634 38.2166 329.541 39.6265 327.664 42.3242C326.919 43.1041 326.174 43.8839 325.406 44.6875C324.577 45.5563 323.749 46.4251 322.895 47.3203C321.601 48.6467 321.601 48.6467 320.281 50C319.512 50.843 318.742 51.686 317.949 52.5546C308.921 62.1665 295.063 72.8343 281.535 74.2968C279.031 74.3125 279.031 74.3125 275.281 74C275.281 72.02 275.281 70.04 275.281 68C275.792 67.7808 276.302 67.5617 276.828 67.3359C279.324 66.2475 281.803 65.1265 284.281 64C285.209 63.5875 286.137 63.175 287.094 62.75C297.031 58.0984 305.405 51.7907 313.262 44.207C313.931 43.5625 314.6 42.9179 315.29 42.2539C316.598 40.9787 317.892 39.6886 319.169 38.3828C323.649 33.9773 323.649 33.9773 327.219 34.1054Z" fill="#060606"/>
<path d="M101.281 159C103.281 162 103.281 162 103.281 164C103.794 164.124 104.307 164.248 104.836 164.375C111.07 166.054 116.934 168.43 122.844 171C123.654 171.344 124.464 171.688 125.298 172.043C126.436 172.548 126.436 172.548 127.597 173.062C128.625 173.513 128.625 173.513 129.674 173.973C131.281 175 131.281 175 132.281 178C129.935 179.494 127.581 180.97 125.219 182.438C124.233 183.069 124.233 183.069 123.228 183.713C118.959 186.342 115.433 187.962 110.281 188C108.39 186.777 108.39 186.777 107.031 184.938C106.548 184.289 106.064 183.641 105.566 182.973C100.681 175.475 99.7264 168.809 100.281 160C100.611 159.67 100.941 159.34 101.281 159Z" fill="#F8F8F8"/>
<path d="M56.2812 164C66.8413 164.66 77.4012 165.32 88.2812 166C86.729 169.881 85.9642 171.739 83.4062 174.688C82.9138 175.269 82.4214 175.85 81.9141 176.449C77.1807 180.945 71.8343 180.547 65.5859 180.43C61.0883 179.845 61.0883 179.845 58.9688 177.625C57.2812 174 57.2812 174 56.2812 164Z" fill="#FAFAFA"/>
<path d="M64.2812 146C66.6784 147.283 69.0434 148.595 71.4062 149.938C76.7207 152.891 81.4045 154.942 87.5234 155.648C88.1035 155.764 88.6836 155.881 89.2812 156C89.7763 156.99 89.7763 156.99 90.2812 158C78.4964 157.426 66.9352 155.773 55.2812 154C55.2812 151.69 55.2812 149.38 55.2812 147C58.8316 145.323 60.5784 144.689 64.2812 146Z" fill="#F1F1F1"/>
<path d="M93.2812 140C97.2413 140 101.201 140 105.281 140C105.281 144 105.281 144 103.312 146.141C102.06 147.185 102.06 147.185 100.781 148.25C99.9459 148.956 99.1106 149.663 98.25 150.391C97.6003 150.922 96.9506 151.453 96.2812 152C92.9788 148.698 93.6313 144.55 93.2812 140Z" fill="#F6F6F6"/>
<path d="M289.281 127.875C292.281 128 292.281 128 293.281 129C293.469 131.438 293.469 131.438 293.281 134C291.281 136 291.281 136 288.719 136.188C286.281 136 286.281 136 285.281 135C285.156 132 285.156 132 285.281 129C286.281 128 286.281 128 289.281 127.875Z" fill="#0B0B0B"/>
<path d="M134.281 87C135.601 87.99 136.921 88.98 138.281 90C137.531 91.9375 137.531 91.9375 136.281 94C134.156 94.75 134.156 94.75 132.281 95C132.156 92.125 132.156 92.125 132.281 89C132.941 88.34 133.601 87.68 134.281 87Z" fill="#E4E4E4"/>
<path d="M114.406 152.938C115.771 153.229 115.771 153.229 117.164 153.527C117.863 153.683 118.561 153.839 119.281 154C115.928 156.236 115.374 156.173 111.594 155.625C110.786 155.514 109.977 155.403 109.145 155.289C108.53 155.194 107.915 155.098 107.281 155C107.281 154.34 107.281 153.68 107.281 153C110.003 151.639 111.464 152.296 114.406 152.938Z" fill="#B3B3B3"/>
</svg>
