<svg width="451" height="418" viewBox="0 0 451 418" fill="none" xmlns="http://www.w3.org/2000/svg">
<path d="M343 40C344.65 40.33 346.3 40.66 348 41C348.208 41.8018 348.415 42.6036 348.629 43.4297C350.798 51.4338 353.443 59.0393 356.625 66.6929C358.445 71.1653 359.385 75.179 360 80C360.975 82.8186 360.975 82.8186 362 85C362.496 83.9494 362.993 82.8988 363.504 81.8164C367.302 73.9162 371.054 66.5478 377 60C377.516 59.4225 378.031 58.845 378.562 58.25C379.037 57.8375 379.511 57.425 380 57C382.188 57.3125 382.188 57.3125 384 58C383.468 61.9775 382.455 64.013 379.812 67C371.383 77.5541 369.017 86.8405 370 100C372.367 97.6448 374.727 95.2877 377.027 92.8672C377.658 92.2098 378.288 91.5523 378.938 90.875C379.565 90.2124 380.193 89.5498 380.84 88.8672C383 87 383 87 385.973 85.7227C390.053 83.4011 391.397 80.6491 393.5 76.5625C393.883 75.854 394.266 75.1455 394.661 74.4155C397.5 69.1207 400.131 63.7291 402.613 58.2578C404.157 55.745 405.273 55.0119 408 54C408.94 56.5387 409.076 57.7589 408.247 60.375C407.838 61.2412 407.429 62.1075 407.008 63C406.554 63.9644 406.101 64.9288 405.634 65.9224C405.136 66.938 404.638 67.9536 404.125 69C403.623 70.035 403.12 71.0699 402.603 72.1362C397.606 82.1862 392.099 91.176 383 98C376.921 103.439 371.413 110.561 368 118C366.35 118 364.7 118 363 118C363 113.71 363 109.42 363 105C361.68 105 360.36 105 359 105C359.104 106.255 359.104 106.255 359.211 107.535C359.685 117.731 357.287 124.889 353 134C354.98 134.495 354.98 134.495 357 135C355.527 140.009 352.725 142.518 349 146C353.365 145.433 356.154 143.837 359.812 141.438C365.466 137.818 371.278 134.739 377.315 131.811C381.032 130.004 384.592 128.091 388.125 125.938C391.839 123.824 393.802 123.928 398 125C399.879 124.763 401.758 124.522 403.635 124.262C408.079 123.77 412.533 123.816 417 123.812C417.946 123.8 418.892 123.788 419.867 123.775C426.994 123.761 433.696 124.322 440 128C440 129.32 440 130.64 440 132C438.88 131.839 437.76 131.678 436.605 131.512C424.203 129.971 411.207 130.405 399 133C397.894 133.229 396.788 133.459 395.648 133.695C390.027 134.647 390.027 134.647 385.477 137.66C384.989 138.102 384.502 138.544 384 139C383.29 138.807 382.579 138.613 381.848 138.414C377.309 137.754 374.283 140.122 370.438 142.375C369.641 142.834 368.845 143.293 368.024 143.766C357.018 150.217 348.19 155.821 343 168C343.932 167.602 344.864 167.203 345.824 166.793C353.092 163.751 360.048 161.374 367.793 159.789C372.401 158.655 376.672 156.855 381.027 154.988C384.195 153.935 386.686 153.817 390 154C390 155.32 390 156.64 390 158C384.743 160.359 379.479 162.703 374.205 165.025C372.419 165.815 370.638 166.616 368.859 167.422C364.275 169.411 361.403 170.045 356.344 169.672C352.178 170.255 348.546 172.544 344.923 174.599C340.476 177.056 340.476 177.056 337.578 176.715C337.057 176.479 336.537 176.243 336 176C334.387 171.162 335.917 168.486 338 164C338.144 163.113 338.289 162.226 338.438 161.312C339.178 158.269 340.747 157.117 343 155C343.7 153.684 344.373 152.352 345 151C344.31 151.773 343.621 152.547 342.91 153.344C337.805 159.017 332.732 164.371 326.777 169.184C324.821 170.927 324.821 170.927 324.094 173.586C323 176 323 176 320.504 177.293C319.533 177.588 318.563 177.883 317.562 178.188C314.233 179.229 311.93 180.047 309 182C307.28 182.416 305.549 182.785 303.812 183.125C282.952 188.158 260.486 203.577 248 221C246.712 223.145 245.454 225.29 244.273 227.496C243.853 227.992 243.433 228.489 243 229C241.68 229 240.36 229 239 229C239 228.34 239 227.68 239 227C237.68 227 236.36 227 235 227C235.351 220.505 236.09 214.341 237.562 208C240.241 195.094 239.761 182.256 237.074 169.401C235.412 160.989 235.747 152.534 236 144C237.98 143.505 237.98 143.505 240 143C240.106 142.444 240.211 141.889 240.32 141.316C245.163 124.813 262.628 113.959 275.818 104.562C277.712 103.206 279.59 101.831 281.457 100.438C282.399 99.7362 283.342 99.035 284.312 98.3125C285.092 97.7311 285.872 97.1498 286.676 96.5508C290.835 93.7758 294.281 91.5568 299.375 92.0625C304.993 92.2759 309.932 90.9397 315.291 89.4221C319.308 88.3094 322.834 87.793 327 88C327.495 89.98 327.495 89.98 328 92C320.642 94.7253 313.154 96.3877 305.5 98.0352C304.39 98.2794 304.39 98.2794 303.258 98.5286C301.738 98.846 300.21 99.1305 298.677 99.3835C292.929 100.414 289.441 102.384 285.062 106.188C283.852 107.191 282.64 108.192 281.426 109.191C280.843 109.676 280.26 110.161 279.659 110.661C277.443 112.45 275.116 114.041 272.75 115.625C261.775 123.187 247.563 134.596 244 148C243.11 155.831 243.478 163.64 245.012 171.355C246.113 177.066 246.305 182.571 246.25 188.375C246.246 189.374 246.242 190.374 246.238 191.403C246.162 197.969 245.68 204.217 244.438 210.672C243.908 213.097 243.908 213.097 244 216C244.783 215.091 244.783 215.091 245.582 214.164C262.768 194.6 284.022 180.656 309 173C309.66 173 310.32 173 311 173C311.063 172.426 311.126 171.853 311.191 171.262C312.338 168.055 314.255 166.878 316.938 164.812C320.788 161.766 324.578 158.698 328.25 155.438C328.998 154.776 329.745 154.115 330.516 153.434C337.16 146.925 341.554 140.692 345.375 132.188C345.812 131.247 346.249 130.307 346.699 129.338C350.673 120.733 351.611 113.382 352 104C352.051 102.926 352.103 101.853 352.156 100.747C352.82 85.2939 352.555 72.7616 345.782 58.7422C343.126 52.8237 342.722 46.3917 343 40Z" fill="#0B0B0B"/>
<path d="M381.762 188.113C386.472 189.403 391.134 189.805 396 190C396.382 191.656 396.714 193.325 397 195C394.799 197.201 389.68 196.366 386.647 196.398C380.135 196.295 375.022 194.68 368.988 192.191C363.502 190.004 358.36 189.808 352.5 189.813C351.704 189.812 350.908 189.811 350.088 189.811C344.201 189.863 338.593 190.514 332.797 191.574C330.289 191.956 328.201 191.987 325.688 191.813C312.365 191.546 292.37 199.916 282.375 208.5C281.232 209.649 280.106 210.815 279 212C278.341 212.615 277.683 213.23 277.004 213.863C272.571 218.044 269.208 222.469 265.836 227.527C263.976 230.032 262.006 231.921 259.688 234C253.568 239.89 250.06 247.301 246.185 254.756C245.108 256.796 243.988 258.799 242.836 260.797C235.195 274.189 230.593 288.786 226.836 303.688C226.083 306.671 225.242 309.611 224.375 312.562C221.109 324.52 219.319 336.57 223.375 348.438C223.638 349.21 223.902 349.983 224.173 350.779C228.614 363.106 235.007 373.879 244.715 382.746C247.023 385.023 248.553 387.249 250.25 390C253.595 395.054 257.7 397.962 262.644 401.298C268.237 405.074 273.112 409.337 278 414C277.67 415.32 277.34 416.64 277 418C271.856 417.548 268.711 414.911 264.75 411.875C263.752 411.121 263.752 411.121 262.734 410.351C261.413 409.352 260.094 408.349 258.778 407.342C257.321 406.242 255.832 405.183 254.336 404.137C248.749 400.158 245.1 395.418 241.129 389.852C239.312 387.418 237.529 385.43 235.313 383.375C231.975 380.19 229.789 376.717 227.535 372.707C226.498 370.878 225.399 369.083 224.246 367.324C215.649 353.9 213.008 340.628 215 325C212.03 335.395 212.03 335.395 209 346C209.99 346.33 210.98 346.66 212 347C211.505 348.98 211.505 348.98 211 351C209.02 351.33 207.04 351.66 205 352C201.297 344.594 205.743 335.021 208 327.75C208.202 327.088 208.403 326.425 208.611 325.743C211.669 315.696 215.211 305.936 219.281 296.254C221.308 291.385 222.769 286.436 224.113 281.336C225 279 225 279 228 277C229.041 274.608 229.041 274.608 229.938 271.688C232.326 265.155 235.471 259.274 238.938 253.25C239.44 252.376 239.942 251.501 240.459 250.6C249.608 234.899 249.608 234.899 255.875 229.125C261.397 223.778 267.25 217.686 269.98 210.375C274.19 200.569 292.858 194.78 302 191C311.377 187.516 321.073 185.221 331 184C331.829 183.889 332.658 183.778 333.512 183.664C350.346 181.756 365.665 182.928 381.762 188.113Z" fill="#0B0B0B"/>
<path d="M73.8125 39.8125C90.4343 40.0114 104.905 44.6663 118 55C118.861 55.66 119.722 56.32 120.609 57C122.753 58.6508 124.882 60.3168 127 62C127.66 60.35 128.32 58.7 129 57C130.906 57.2265 130.906 57.2265 133 58C133.906 59.8984 133.906 59.8984 134.5 62.375C135.422 66.0535 136.55 69.5069 137.953 73.0273C140.269 79.306 141.306 85.5828 142.25 92.1875C142.423 93.3302 142.595 94.473 142.773 95.6504C143.192 98.4322 143.601 101.215 144 104C145.98 104.495 145.98 104.495 148 105C147.867 105.724 147.734 106.449 147.598 107.195C147.421 108.162 147.244 109.129 147.062 110.125C146.888 111.076 146.714 112.028 146.535 113.008C146.27 114.489 146.27 114.489 146 116C145.744 117.377 145.744 117.377 145.484 118.781C142.049 141.641 143.502 172.721 156.75 192.25C158.964 195.599 159.598 197.915 159 202C158.67 202.33 158.34 202.66 158 203C150.588 202.874 144.975 200.401 138.43 197.18C134.418 195.8 132.112 196.15 128 197C121.994 197.545 117.971 197.484 112.816 193.98C110.633 192.802 108.899 192.682 106.438 192.437C100.451 191.469 96.6139 187.959 92.1736 184.074C88.5107 180.926 85.319 179.255 80.7534 177.714C76.5522 176.003 74.7821 171.934 73 168C69.9149 158.166 70.6108 147.192 71 137C71.0335 135.891 71.067 134.783 71.1016 133.641C72.358 120.358 83.1108 109.162 92 100C92.5788 99.3593 93.1576 98.7186 93.7539 98.0586C95.3125 96.375 95.3125 96.375 98 94C99.32 94 100.64 94 102 94C101.672 99.5717 99.4878 102.005 95.5 105.562C85.9615 114.582 78.1559 124.153 77.6992 137.801C77.6847 139.971 77.6811 142.142 77.6875 144.312C77.6714 145.389 77.6553 146.466 77.6387 147.576C77.634 155.32 78.0003 163.114 82.8906 169.449C85.111 171.082 87.3377 172.48 89.75 173.812C93.2437 175.819 96.0186 177.855 98.875 180.687C102.939 184.46 107.107 185.421 112.461 186.492C115 187 115 187 117 188C119.208 188.08 121.416 188.139 123.625 188.187C133.766 188.626 143.06 192.315 152 197C151.518 196.143 151.036 195.286 150.539 194.402C149.907 193.259 149.276 192.116 148.625 190.937C147.999 189.812 147.372 188.687 146.727 187.527C143.252 180.429 142.284 173.06 141.232 165.32C141.116 164.549 140.999 163.779 140.879 162.984C140.782 162.291 140.684 161.597 140.584 160.882C140.146 158.894 140.146 158.894 138.479 157.661C136.55 155.494 136.665 154.411 136.755 151.546C136.784 150.188 136.784 150.188 136.813 148.803C136.865 147.329 136.865 147.329 136.918 145.824C136.961 143.708 137.002 141.592 137.042 139.475C137.067 138.366 137.092 137.256 137.117 136.113C138.675 102.304 138.675 102.304 128 71C125.688 68.9782 125.688 68.9782 123 67.1875C119.101 64.4687 115.281 61.6919 111.5 58.8125C106.31 55.0278 100.944 52.3886 95 50C94.175 49.6481 93.35 49.2961 92.5 48.9336C84.7711 46.0473 76.165 45.6001 68 45C67.4375 43.0625 67.4375 43.0625 67 41C68.791 39.209 71.3937 39.8268 73.8125 39.8125Z" fill="#0D0D0D"/>
<path d="M267 3.99995C267.99 4.65995 268.98 5.31994 270 5.99994C269.67 7.31994 269.34 8.63995 269 9.99995C267.94 10.0773 267.94 10.0773 266.859 10.1562C246.823 12.3713 225.151 22.7518 211 36.9999C210.232 37.7321 209.463 38.4643 208.672 39.2187C203.266 44.4408 198.577 50.0475 194 55.9999C193.488 56.6213 192.976 57.2426 192.449 57.8828C184.258 68.083 176.443 82.6061 174.062 95.4999C173.343 99.3107 171.926 102.318 170.125 105.75C163.434 118.705 160.562 131.32 164.625 145.625C166.821 152.047 169.777 158.037 173 164C175.556 161.444 175.438 160.067 175.867 156.508C177.888 141.546 180.989 127.506 185.812 113.187C186.057 112.452 186.301 111.717 186.552 110.959C189.325 102.671 192.474 94.623 196.148 86.6914C196.474 85.9825 196.799 85.2736 197.135 84.5432C198.946 80.7462 200.784 77.7419 203.812 74.7499C210.823 67.7674 214.661 57.772 219 48.9999C220.98 49.4949 220.98 49.4949 223 49.9999C222.461 55.4471 220.505 59.4597 217.938 64.1874C217.534 64.9421 217.131 65.6968 216.715 66.4743C214.385 70.7432 211.901 74.6937 208.938 78.5624C201.098 88.8741 196.394 100.581 193 113C192.341 115.169 191.674 117.336 191 119.5C190.67 120.588 190.34 121.676 190 122.797C189.369 124.819 188.706 126.831 188 128.828C184.743 138.344 183.408 148.091 181.93 158.012C179.607 173.393 179.607 173.393 178 175C175.75 175.562 175.75 175.562 173 175C167.963 168.373 164.65 160.456 161 153C160.221 151.509 160.221 151.509 159.426 149.988C157.91 146.812 156.833 143.679 155.812 140.312C155.468 139.195 155.124 138.077 154.77 136.926C154 134 154 134 154 131C154.99 130.505 154.99 130.505 156 130C156.105 128.545 156.129 127.084 156.125 125.625C156.602 118.917 159.095 113.511 161.795 107.452C164.138 102.159 166.03 96.9149 167.688 91.3749C170.454 82.4213 174.753 74.3869 179.166 66.1474C183.065 58.8652 186.561 51.5377 189.73 43.914C191 40.9999 191 40.9999 193 37.9999C194.32 38.3299 195.64 38.6599 197 38.9999C197 40.3199 197 41.6399 197 42.9999C197.762 42.1543 198.524 41.3087 199.309 40.4374C215.631 22.4353 240.933 2.26214 267 3.99995Z" fill="#0D0D0D"/>
<path d="M271 48C270.805 49.8516 270.805 49.8516 270 52C267.945 53.2109 267.945 53.2109 265.125 54.375C256.335 58.4975 248.905 64.4653 241.209 70.3228C239.269 71.7957 237.319 73.2527 235.359 74.6992C232.554 76.7754 229.776 78.8838 227 81C226.027 81.6864 226.027 81.6864 225.035 82.3867C216.843 88.5729 210.231 100.079 207.633 109.852C207.168 111.428 206.631 112.984 206.055 114.523C199.207 133.036 200.075 154.463 199 174C199.291 173.084 199.583 172.168 199.883 171.225C210.502 137.979 210.502 137.979 218 125C218.688 123.768 219.374 122.535 220.059 121.301C221.993 117.84 223.997 114.422 226 111C226.49 110.107 226.98 109.213 227.484 108.293C231.935 100.355 238.237 91.9697 246 87C248.75 86.8125 248.75 86.8125 251 87C251 91 251 91 249.531 92.5703C248.526 93.3399 248.526 93.3399 247.5 94.125C237.692 102.37 232.395 112.506 226.711 123.781C224.894 127.368 222.936 130.807 220.828 134.23C218.536 137.991 216.784 141.621 215.375 145.812C214.969 147.011 214.563 148.21 214.145 149.445C212.757 153.755 211.398 158.07 210.098 162.406C209.279 165.085 208.434 167.746 207.559 170.406C204.65 179.298 202.117 188.118 200.293 197.302C199.592 200.755 198.982 203.027 197 206C195.68 205.67 194.36 205.34 193 205C191.951 201.56 191.871 198.395 191.867 194.809C191.866 193.617 191.865 192.425 191.863 191.197C191.867 189.957 191.871 188.716 191.875 187.438C191.871 186.193 191.867 184.948 191.863 183.666C191.865 182.476 191.866 181.285 191.867 180.059C191.868 178.969 191.869 177.879 191.871 176.756C192 174 192 174 193 171C193.096 168.931 193.185 166.861 193.24 164.791C193.54 153.797 194.477 142.883 195.615 131.95C195.788 130.28 195.957 128.609 196.121 126.938C196.357 124.56 196.61 122.184 196.867 119.809C196.936 119.095 197.005 118.381 197.076 117.646C197.566 113.365 198.631 110.566 201 107C201.704 105.047 201.704 105.047 202.098 103.117C202.259 102.425 202.421 101.733 202.588 101.02C202.745 100.312 202.901 99.6041 203.062 98.875C204.742 91.3865 204.742 91.3865 207 88C208.32 88.33 209.64 88.66 211 89C211.308 88.5011 211.616 88.0023 211.934 87.4883C217.949 78.7862 226.534 73.1128 235 67C236.129 66.1797 236.129 66.1797 237.282 65.3428C264.536 45.6061 264.536 45.6061 271 48Z" fill="#0B0B0B"/>
<path d="M111.062 197.75C122.465 197.881 133.499 200.72 144 205C145.394 205.525 146.79 206.046 148.188 206.563C148.818 206.802 149.448 207.042 150.098 207.289C151.412 207.78 152.733 208.253 154.059 208.711C162.715 211.755 169.375 216.83 174.074 224.828C178.779 235.018 177.33 247.727 177.405 258.646C177.426 260.984 177.46 263.322 177.508 265.659C177.817 281.199 176.726 294.491 171 309C170.677 309.824 170.355 310.648 170.022 311.497C167.624 317.525 165.028 323.456 162.375 329.375C161.783 330.712 161.783 330.712 161.178 332.075C155.462 344.967 149.39 357.487 142.314 369.696C140.028 373.704 137.893 377.79 135.75 381.875C135.366 382.603 134.983 383.33 134.588 384.08C133.724 385.719 132.862 387.36 132 389C130.68 389 129.36 389 128 389C128.563 384.608 129.657 381.152 131.59 377.176C132.121 376.076 132.653 374.976 133.201 373.842C133.774 372.677 134.347 371.513 134.938 370.313C135.535 369.082 136.132 367.852 136.729 366.621C139.601 360.724 142.559 354.89 145.729 349.146C151.174 339.253 155.574 328.965 159.938 318.563C160.267 317.784 160.596 317.005 160.936 316.203C161.893 313.933 162.837 311.657 163.777 309.379C164.058 308.714 164.339 308.049 164.628 307.363C168.858 296.967 170.458 287.052 170.398 275.859C170.401 274.652 170.404 273.445 170.407 272.202C170.409 269.671 170.404 267.14 170.391 264.608C170.375 260.746 170.391 256.885 170.41 253.023C170.408 250.552 170.404 248.081 170.398 245.609C170.405 244.463 170.411 243.317 170.417 242.137C170.361 235.733 169.838 230.785 167 225C164.608 223.265 164.608 223.265 162 222C161.167 220.817 161.167 220.817 160.316 219.609C157.424 216.352 154.397 215.269 150.375 213.938C148.94 213.433 147.505 212.928 146.07 212.422C145.375 212.182 144.679 211.941 143.962 211.693C140.597 210.504 137.311 209.127 134.016 207.762C132.029 207.011 130.069 206.471 128 206C128 207.65 128 209.3 128 211C126.68 211.33 125.36 211.66 124 212C123.505 210.515 123.505 210.515 123 209C103.328 210.491 88.4843 213.135 74.1406 227.559C72 229 72 229 69.2344 228.723C68.1284 228.365 68.1284 228.365 67 228C71.7652 217.416 81.7375 210.641 92 206C94.4406 205.365 96.9012 204.803 99.375 204.313C100.62 204.061 101.865 203.81 103.148 203.551C104.089 203.369 105.03 203.187 106 203C106 201.68 106 200.36 106 199C107.539 197.461 108.912 197.793 111.062 197.75Z" fill="#0D0D0D"/>
<path d="M171 4C173.063 4.4375 173.063 4.4375 175 5C174.393 9.85963 172.272 13.7406 170 18C171.32 18.33 172.64 18.66 174 19C174.495 27.91 174.495 27.91 175 37C175.908 35.8038 176.815 34.6075 177.75 33.375C196.048 9.97617 196.048 9.97617 206 5C208 4.96001 210 4.95653 212 5C212.495 6.98 212.495 6.98 213 9C212.432 9.36352 211.863 9.72703 211.277 10.1016C202.937 15.5319 196.382 21.3804 190 29C189.19 29.9449 188.381 30.8898 187.547 31.8633C182.61 37.6589 178.021 43.5274 174 50C172.35 49.67 170.7 49.34 169 49C169 40.09 169 31.18 169 22C168.34 22 167.68 22 167 22C166.794 23.1756 166.588 24.3513 166.375 25.5625C165.403 29.9862 163.85 34.0758 162.125 38.25C157.25 50.1983 154.478 61.2469 153.395 74.1055C153 78 153 78 152 80C149.75 80.3125 149.75 80.3125 147 80C143.641 76.737 142.247 73.4678 141 69C139.68 69 138.36 69 137 69C135.255 64.4247 134.592 60.1682 134.375 55.3125C134.339 54.5872 134.302 53.8618 134.264 53.1145C134.001 47.3081 133.867 41.4995 133.813 35.6875C133.799 34.8816 133.786 34.0757 133.773 33.2454C133.767 29.3619 133.773 26.2831 136 23C136.66 23 137.32 23 138 23C138.121 22.3245 138.242 21.6491 138.367 20.9531C138.535 20.0611 138.702 19.1691 138.875 18.25C139.037 17.3683 139.2 16.4866 139.367 15.5781C139.968 13.1305 140.78 11.194 142 9C143.32 9.33 144.64 9.66 146 10C144.177 19.4644 144.177 19.4644 142.875 23.9375C141.179 30.5082 141.519 37.4252 143 44C141.515 44.495 141.515 44.495 140 45C140.259 47.0224 140.532 49.0429 140.813 51.0625C140.963 52.1879 141.114 53.3132 141.27 54.4727C142.072 58.3494 143.336 61.4212 145 65C145.086 63.8166 145.173 62.6333 145.262 61.4141C146.027 52.386 146.89 44.762 152 37C152.99 37 153.98 37 155 37C155.33 35.35 155.66 33.7 156 32C156.99 31.67 157.98 31.34 159 31C159.119 30.3052 159.237 29.6104 159.359 28.8945C161.219 20.4923 164.773 10.2271 171 4Z" fill="#0B0B0B"/>
<path d="M0 113C3.69906 113.588 6.5267 114.615 9.80859 116.406C10.7144 116.899 11.6202 117.391 12.5535 117.899C13.5052 118.427 14.4569 118.956 15.4375 119.5C16.4144 120.038 17.3912 120.576 18.3977 121.131C38.0975 132.084 38.0975 132.084 42.6758 136.684C44.0785 138.273 44.0785 138.273 47 139C48.4546 140.563 48.4546 140.563 49.9609 142.57C50.7924 143.669 50.7924 143.669 51.6406 144.789C52.213 145.56 52.7853 146.331 53.375 147.125C53.9396 147.873 54.5042 148.62 55.0859 149.391C56.737 151.584 58.3708 153.79 60 156C60.5043 156.675 61.0087 157.35 61.5283 158.046C65 162.765 65 162.765 65 165C66.485 165.495 66.485 165.495 68 166C68.4462 168.094 68.8867 170.189 69.3008 172.289C71.6203 181.282 77.0489 188.927 82.748 196.104C85.622 199.866 86.528 202.276 86 207C84.747 207.277 83.4941 207.554 82.2031 207.84C80.5521 208.206 78.901 208.572 77.25 208.938C76.0125 209.211 76.0125 209.211 74.75 209.49C73.9508 209.667 73.1516 209.845 72.3281 210.027C71.595 210.19 70.8618 210.352 70.1064 210.519C67.9857 210.969 67.9857 210.969 65.917 211.686C64 212 64 212 61 210C61.33 208.35 61.66 206.7 62 205C63.8949 204.662 65.791 204.329 67.6875 204C68.7432 203.814 69.799 203.629 70.8867 203.438C73.649 203.049 76.2174 202.917 79 203C78.3361 202.033 77.6723 201.066 76.9883 200.07C65.5468 183.264 65.5468 183.264 63.4285 176.055C61.5251 169.65 58.5 164.644 54.6875 159.188C54.1313 158.355 53.575 157.523 53.002 156.666C49.7628 151.964 46.9227 149.022 42 146C41.4289 145.22 40.8579 144.44 40.2695 143.637C36.7826 139.586 32.3076 137.416 27.6875 134.812C25.7067 133.666 23.7275 132.516 21.75 131.363C20.7768 130.797 19.8035 130.231 18.8008 129.647C14.8786 127.341 11.0099 124.968 7.1875 122.5C6.56641 122.116 5.94533 121.731 5.30542 121.335C2.51086 119.5 1.14601 118.458 0.113281 115.219C0.0758984 114.487 0.0385156 113.754 0 113Z" fill="#0B0B0B"/>
<path d="M445 82.0001C444.703 83.8751 444.703 83.8751 444 86.0001C439.519 88.7578 435.095 90.3286 430.062 91.8126C418.331 95.3142 407.28 99.3731 397.582 107C393.277 110.335 388.627 113.136 384 116C384.613 115.909 385.226 115.818 385.857 115.725C420.507 110.671 420.507 110.671 429 116C429.875 118.688 429.875 118.688 430 121C428.732 120.76 428.732 120.76 427.438 120.516C413.405 118.411 397.559 120.1 383.844 123.541C381.751 124.062 379.902 124.098 377.75 124.063C375.894 124.032 375.894 124.032 374 124C373.188 121.875 373.188 121.875 373 119C375.806 114.791 378.886 112.128 383.156 109.469C385.218 107.957 385.218 107.957 387.051 105.215C390.665 100.768 395.649 98.592 400.688 96.0626C401.706 95.5426 402.725 95.0226 403.774 94.4869C434.822 78.8964 434.822 78.8964 445 82.0001Z" fill="#0C0C0C"/>
<path d="M68 73C70.475 73.495 70.475 73.495 73 74C72.916 81.2365 72.7679 88.4715 72.4883 95.7031C72.4449 96.9216 72.4014 98.1401 72.3567 99.3955C71.8666 104.348 70.5245 108.72 68.8594 113.414C66.2281 124.394 67.5034 136.988 68.8899 148.11C68.9262 148.734 68.9626 149.358 69 150C68 151 68 151 65.7188 151.422C63 151 63 151 60.7188 148.516C59.9866 147.438 59.2544 146.36 58.5 145.25C55.6365 141.076 53.0278 138.053 49 135C38.3418 124.41 33.9616 105.384 33.75 90.6875C34 87 34 87 35 85C36.98 85.495 36.98 85.495 39 86C39.1644 87.4328 39.1644 87.4328 39.332 88.8945C41.8484 110.904 41.8484 110.904 53 129C55.3333 131.333 57.6667 133.667 60 136C60.0374 134.756 60.0748 133.512 60.1133 132.23C60.8857 111.286 60.8857 111.286 65.0273 104.256C66.2825 101.345 66.3066 98.9397 66.3789 95.7734C66.4131 94.5772 66.4472 93.3809 66.4824 92.1484C66.5088 90.9032 66.5353 89.658 66.5625 88.375C66.6223 85.9035 66.6859 83.4322 66.7539 80.9609C66.7778 79.8657 66.8018 78.7705 66.8264 77.6421C67 75 67 75 68 73Z" fill="#080808"/>
<path d="M316 53C318.125 53.375 318.125 53.375 320 54C319.378 57.6879 317.785 59.9643 315.562 62.9375C314.843 63.9004 314.124 64.8634 313.383 65.8555C312.596 66.8932 311.81 67.9309 311 69C310.164 70.1209 309.328 71.242 308.492 72.3633C301.263 82.0003 295.31 88.5185 284.461 94.0547C280.252 96.4204 276.637 99.2245 272.881 102.235C268.22 105.934 263.271 108.942 258.148 111.969C253.882 114.722 250.176 117.985 246.437 121.41C244 123 244 123 241.25 122.809C239 122 239 122 238 121C237.254 114.605 239.044 111.619 242.812 106.812C243.49 105.909 243.49 105.909 244.182 104.986C245.44 103.313 246.718 101.655 248 100C249.002 98.668 250.003 97.3353 251 96C252.65 96.33 254.3 96.66 256 97C256 101 256 101 254.187 102.938C253.466 103.618 252.744 104.299 252 105C250.973 106.65 249.969 108.315 249 110C254.548 106.566 259.999 103.064 265.25 99.1875C269.687 95.9232 274.185 92.7697 278.75 89.6875C279.671 89.0565 279.671 89.0565 280.61 88.4128C283.6 86.4099 286.187 84.9289 289.586 83.6406C293.959 81.539 296.026 78.8938 298.875 75.0625C299.385 74.401 299.896 73.7394 300.421 73.0579C301.964 71.0503 303.484 69.0278 305 67C305.901 65.8046 306.802 64.6092 307.703 63.4141C309.233 61.3815 310.749 59.341 312.258 57.293C314 55 314 55 316 53Z" fill="#0C0C0C"/>
<path d="M403 163C403.625 164.875 403.625 164.875 404 167C401.777 169.223 401.077 169.36 398.086 169.852C396.945 170.045 396.945 170.045 395.781 170.242C394.59 170.432 394.59 170.432 393.375 170.625C392.573 170.759 391.771 170.893 390.945 171.031C388.965 171.361 386.983 171.682 385 172C386.155 172.371 387.31 172.742 388.5 173.125C394.424 175.1 400.262 177.295 406.094 179.523C408.459 180.427 410.822 181.281 413.219 182.102C414.116 182.419 415.013 182.736 415.938 183.062C416.71 183.322 417.482 183.581 418.277 183.848C420 185 420 185 420.754 187.621C420.835 188.406 420.916 189.191 421 190C416.185 189.391 411.618 188.466 406.938 187.187C406.288 187.013 405.638 186.838 404.968 186.659C401.805 185.803 398.674 184.898 395.547 183.918C387.979 181.568 380.737 180.316 372.864 179.683C367.196 179.196 367.196 179.196 365 177C365.062 174.562 365.062 174.562 366 172C376.068 164.914 390.877 162.542 403 163Z" fill="#0D0D0D"/>
<path d="M450 57C450.495 58.98 450.495 58.98 451 61C443.385 66.6279 435.638 72.0115 427.75 77.25C426.714 77.9435 425.677 78.6371 424.61 79.3516C409.992 89.0844 409.992 89.0844 406.063 88.75C405.382 88.5025 404.701 88.255 404 88C403.227 85.7287 402.87 84.4205 403.589 82.0965C403.917 81.4498 404.245 80.803 404.582 80.1367C404.937 79.4142 405.292 78.6917 405.658 77.9473C406.039 77.2016 406.42 76.4558 406.813 75.6875C409.418 70.5091 411.593 65.6363 413 60C414.65 60.33 416.3 60.66 418 61C418.561 67.4551 416.635 72.1544 414 78C414.897 77.322 415.795 76.6439 416.719 75.9453C423.539 70.8381 430.445 65.9033 437.625 61.3125C438.287 60.8789 438.949 60.4453 439.631 59.9986C443.205 57.7552 445.741 56.437 450 57Z" fill="#090909"/>
<path d="M119 0C119.99 0 120.98 0 122 0C121.835 1.155 121.67 2.31 121.5 3.5C120.327 14.638 120.173 24.4958 124.027 35.1328C125.036 38.1048 125.651 40.8824 126 44C125.505 44.99 125.505 44.99 125 46C121.048 45.5728 117.72 44.5312 114.062 43.0625C108.19 40.8251 102.39 40.115 96.1875 39.4922C93 39 93 39 90 37C90.33 35.68 90.66 34.36 91 33C100.099 33.3561 108.297 34.123 117 37C116.505 35.845 116.01 34.69 115.5 33.5C112.286 23.812 112.658 11.2811 117 2C117.66 1.34 118.32 0.68 119 0Z" fill="#0E0E0E"/>
<path d="M26 73C27.32 73.33 28.64 73.66 30 74C29.9843 74.7248 29.9686 75.4496 29.9524 76.1963C29.8892 79.5474 29.8508 82.8985 29.8125 86.25C29.7874 87.3895 29.7622 88.5291 29.7363 89.7031C29.6776 96.5952 30.342 102.642 32.2527 109.272C33.0452 112.165 33.5501 115.037 34 118C31.9375 118.938 31.9375 118.938 29 119C26.9685 117.374 25.2888 115.599 23.5508 113.664C21.1743 111.114 20.1937 111.007 16.625 110.875C13.8198 110.972 11.6396 111.155 9 112C8.25 110.25 8.25 110.25 8 108C9.375 105.75 9.375 105.75 12 104C15.7768 103.511 19.5459 103.273 23 105C22.9764 103.972 22.9764 103.972 22.9524 102.924C22.8896 99.7826 22.8509 96.6416 22.8125 93.5C22.7874 92.4223 22.7622 91.3447 22.7363 90.2344C22.6769 83.7325 23.2635 78.9184 26 73Z" fill="#0A0A0A"/>
<path d="M261 42.0001C261 43.3201 261 44.6401 261 46.0001C259.156 47.5001 259.156 47.5001 256.5 49.0001C251.371 52.0683 246.626 55.4381 241.875 59.0626C225.494 71.4695 225.494 71.4695 220 72.0001C219.34 71.3401 218.68 70.6801 218 70.0001C218.549 65.6573 220.906 61.6888 222.742 57.7696C223.778 55.4895 224.653 53.2272 225.5 50.8751C227 48.0001 227 48.0001 229.688 47.0626C230.451 47.0419 231.214 47.0213 232 47.0001C231.581 51.0211 230.924 54.4744 229.457 58.2501C229.185 58.9565 228.913 59.6629 228.632 60.3907C228.423 60.9218 228.215 61.4529 228 62.0001C228.848 61.3104 229.696 60.6208 230.57 59.9102C236.729 54.9544 242.957 50.1619 249.562 45.8126C250.133 45.4266 250.704 45.0406 251.292 44.6429C254.657 42.4791 256.992 41.5447 261 42.0001Z" fill="#0D0D0D"/>
<path d="M319 68C321.688 68.3125 321.688 68.3125 324 69C324 70.98 324 72.96 324 75C322.886 75.3094 322.886 75.3094 321.75 75.625C318.211 77.3945 317.072 79.6967 315 83C315.539 82.7326 316.078 82.4652 316.633 82.1897C319.105 80.9705 321.583 79.7664 324.062 78.5625C324.91 78.1416 325.758 77.7207 326.631 77.2871C331.456 74.9586 335.603 73.1614 341 73C343 75 343 75 343.09 76.9375C341.315 80.2954 337.98 80.8692 334.562 82C333.096 82.5118 331.63 83.0248 330.164 83.5391C329.449 83.7856 328.734 84.0321 327.997 84.2861C325.427 85.2048 322.938 86.2834 320.438 87.375C316.378 89.0178 313.358 89.5447 309 89C308.34 88.34 307.68 87.68 307 87C307.259 82.5612 309.254 79.8602 311.875 76.375C312.574 75.434 313.272 74.493 313.992 73.5234C317.269 69.4046 317.269 69.4046 319 68Z" fill="#0C0C0C"/>
<path d="M93 78C95.25 78.25 95.25 78.25 97 79C96.4767 83.2458 95.1911 85.3251 92.375 88.5C87.5807 94.2289 84.3365 100.348 81 107C79.35 106.67 77.7 106.34 76 106C75.9265 104.658 75.9265 104.658 75.8516 103.289C75.4031 96.0366 74.6789 89.074 73 82C74.32 81.67 75.64 81.34 77 81C79.6447 84.1255 80.8441 87.0879 82 91C82.4589 90.3967 82.9178 89.7934 83.3906 89.1719C84.0042 88.3727 84.6178 87.5734 85.25 86.75C85.8533 85.9611 86.4566 85.1722 87.0781 84.3594C88.9453 82.0672 90.7855 79.9604 93 78Z" fill="#0C0C0C"/>
<path d="M175 318C178.33 318.621 180.451 319.843 183.187 321.812C187.576 324.838 192.065 327.017 197 329C197 329.99 197 330.98 197 332C191.365 332.55 188.61 330.95 184 328C184.33 328.495 184.66 328.99 185 329.5C186.468 333.17 186.255 336.051 186 340C183.861 342.139 182.867 342.427 180 343C180.65 343.615 181.299 344.23 181.969 344.863C182.804 345.672 183.639 346.48 184.5 347.312C185.335 348.113 186.171 348.914 187.031 349.738C189 352 189 352 189 355C187.68 355 186.36 355 185 355C185 354.34 185 353.68 185 353C184.464 352.773 183.927 352.546 183.375 352.312C178.22 349.464 174.871 346.612 173 341C172.443 340.319 171.886 339.639 171.312 338.938C170 337 170 337 170.312 334.75C170.539 334.173 170.766 333.595 171 333C175.308 334.566 179.062 336.683 183 339C182.689 337.416 182.376 335.833 182.062 334.25C181.888 333.368 181.714 332.487 181.535 331.578C181.359 330.727 181.182 329.877 181 329C180.781 327.877 180.781 327.877 180.559 326.73C180.374 326.159 180.19 325.588 180 325C179.34 324.691 178.68 324.381 178 324.062C177.34 323.712 176.68 323.361 176 323C175.25 320.375 175.25 320.375 175 318Z" fill="#0F0F0F"/>
<path d="M372 35C374.475 35.495 374.475 35.495 377 36C376.406 39.6124 375.425 42.5253 373.785 45.793C373.346 46.6702 372.907 47.5474 372.455 48.4512C371.996 49.3542 371.536 50.2571 371.063 51.1875C370.607 52.1021 370.151 53.0167 369.682 53.959C366.267 60.7327 366.267 60.7327 364 63C361.688 63.125 361.688 63.125 359 62C357.058 59.479 355.553 56.771 354 54C353.67 53.67 353.34 53.34 353 53C352.959 51.3338 352.957 49.6661 353 48C355.188 47.6875 355.188 47.6875 358 48C360.813 50.5 360.813 50.5 363 53C363.383 51.7122 363.383 51.7122 363.773 50.3984C365.057 46.8427 366.682 43.8631 368.625 40.625C369.257 39.5654 369.888 38.5058 370.539 37.4141C371.262 36.2191 371.262 36.2191 372 35Z" fill="#0C0C0C"/>
<path d="M193 286C193.66 286 194.32 286 195 286C194.881 287.025 194.763 288.05 194.641 289.105C194.509 290.466 194.379 291.827 194.25 293.188C194.169 293.861 194.088 294.535 194.004 295.229C193.678 298.942 193.838 300.745 195.859 303.926C197.823 306.037 197.823 306.037 200 307C200 302.38 200 297.76 200 293C200.99 293.33 201.98 293.66 203 294C205.253 298.744 205.67 303.824 205 309C204.34 309.99 203.68 310.98 203 312C197.294 311.819 194.836 310.484 190.91 306.389C190.362 305.786 189.814 305.183 189.25 304.562C188.132 303.374 187.013 302.188 185.891 301.004C185.164 300.212 185.164 300.212 184.423 299.405C182.85 297.763 182.85 297.763 180 296C180.33 295.01 180.66 294.02 181 293C184 293 184 293 186.188 295C186.786 295.66 187.384 296.32 188 297C188.277 296.29 188.554 295.579 188.84 294.848C189.202 293.929 189.564 293.009 189.938 292.062C190.477 290.688 190.477 290.688 191.027 289.285C192 287 192 287 193 286Z" fill="#181818"/>
<path d="M194 273C197.147 273.274 199.336 273.491 201.875 275.438C203 277 203 277 203 279C205.31 279.66 207.62 280.32 210 281C210 280.34 210 279.68 210 279C210.66 279 211.32 279 212 279C212 280.65 212 282.3 212 284C210.68 284.33 209.36 284.66 208 285C208 286.98 208 288.96 208 291C205.092 291.914 203.426 292.138 200.5 291.188C196.216 287.439 193.215 281.97 192.801 276.242C193 274 193 274 194 273Z" fill="#151515"/>
<path d="M191 249C191.99 249 192.98 249 194 249C194.267 250.06 194.267 250.06 194.539 251.141C196.62 255.214 199.687 257.158 203.375 259.75C204.048 260.244 204.721 260.737 205.414 261.246C208.61 263.542 211.092 265.219 215 266C215 265.01 215 264.02 215 263C215.99 263.33 216.98 263.66 218 264C217.427 266.867 217.139 267.861 215 270C210.206 269.745 207.401 268.243 203.625 265.375C202.683 264.661 201.74 263.947 200.77 263.211C197.07 260.258 193.489 257.199 190 254C190.33 252.35 190.66 250.7 191 249Z" fill="#191919"/>
<path d="M196 286C198.439 287.926 200.801 289.801 203 292C202.01 292.33 201.02 292.66 200 293C200 297.62 200 302.24 200 307C194.852 304.426 194.852 304.426 193 301C192.335 295.238 193.804 291.216 196 286Z" fill="#F3F3F3"/>
<path d="M221 56C221.99 56 222.98 56 224 56C222.325 61.8626 220.168 66.5548 215 70C216.492 65.0277 218.605 60.5815 221 56Z" fill="#DCDCDC"/>
<path d="M188 315C191.871 315.574 194.082 317.487 197 320C196.67 320.99 196.34 321.98 196 323C193.05 321.63 190.435 320.174 188 318C188 317.01 188 316.02 188 315Z" fill="#1E1E1E"/>
<path d="M209 252C214.492 252.61 214.492 252.61 216.875 254.438C218 256 218 256 218 258C214.265 257.502 212.188 257.125 209 255C209 254.01 209 253.02 209 252Z" fill="#222222"/>
<path d="M236 62C236.66 62.33 237.32 62.66 238 63C235.02 67.2345 232.013 71.3289 227 73C228.401 67.7084 231.855 65.2252 236 62Z" fill="#E7E7E7"/>
<path d="M198 280C200.862 281.283 203.025 282.531 205 285C205 285.99 205 286.98 205 288C203.188 287.812 203.188 287.812 201 287C198 282.821 198 282.821 198 280Z" fill="#E5E5E5"/>
<path d="M200 242C201.65 242 203.3 242 205 242C205 243.32 205 244.64 205 246C203.02 246 201.04 246 199 246C199.33 244.68 199.66 243.36 200 242Z" fill="#171717"/>
<path d="M177 302C179.475 302.495 179.475 302.495 182 303C182 304.32 182 305.64 182 307C180.35 306.67 178.7 306.34 177 306C177 304.68 177 303.36 177 302Z" fill="#393939"/>
</svg>
