<svg width="427" height="269" viewBox="0 0 427 269" fill="none" xmlns="http://www.w3.org/2000/svg">
<path d="M218.306 0.843348C220.842 4.53205 220.382 8.04561 219.782 12.273C218.641 18.4285 217.028 24.4503 215.22 30.441C213.306 36.7884 211.774 42.2008 212.306 48.8433C215.223 49.6628 217.93 50.0216 220.954 50.1598C221.867 50.2021 222.78 50.2445 223.72 50.2882C227.847 50.4522 231.974 50.6069 236.102 50.7393C238.209 50.8078 240.317 50.8834 242.424 50.9669C245.385 51.0784 248.344 51.1535 251.306 51.2183C252.656 51.2755 252.656 51.2755 254.034 51.3338C259.363 51.4018 262.725 50.7121 266.884 47.2784C268.936 45.2071 270.338 43.0159 271.743 40.4683C275.146 34.7713 279.274 29.8595 285.306 26.8433C288.17 26.7453 291.005 26.7043 293.868 26.7183C294.662 26.7145 295.455 26.7106 296.273 26.7066C302.179 26.7167 302.179 26.7167 303.306 27.8433C302.949 33.5842 301.176 37.6338 298.368 42.5933C298.008 43.2521 297.648 43.9108 297.277 44.5894C295.717 47.4208 294.1 50.1529 292.306 52.8433C299.886 54.5896 307.366 55.3768 315.118 55.9058C317.313 56.0607 319.507 56.2181 321.7 56.3785C322.658 56.4443 323.615 56.5102 324.602 56.578C327.224 56.8354 329.734 57.2798 332.306 57.8433C332.966 56.5233 333.626 55.2033 334.306 53.8433C339.839 54.349 343.866 55.7995 348.743 58.4058C349.38 58.7352 350.016 59.0646 350.671 59.4039C352.221 60.2079 353.764 61.0243 355.306 61.8433C355.294 60.8675 355.283 59.8917 355.271 58.8863C355.257 56.9779 355.257 56.9779 355.243 55.0308C355.232 53.7663 355.22 52.5017 355.208 51.1988C355.306 47.8433 355.306 47.8433 356.306 44.8433C358.286 44.5133 360.266 44.1833 362.306 43.8433C362.904 44.8333 363.502 45.8233 364.118 46.8433C367.836 52.0115 372.732 55.819 378.306 58.8433C381.982 59.021 381.982 59.021 385.306 57.8433C388.029 57.6289 390.564 57.7039 393.306 57.8433C393.966 58.5033 394.626 59.1633 395.306 59.8433C394.931 63.4683 394.931 63.4683 394.306 66.8433C389.379 68.8143 385.526 69.0233 380.306 68.8433C385.001 74.3206 391.109 75.3396 397.915 76.316C400.306 76.8433 400.306 76.8433 402.306 78.8433C401.976 80.8233 401.646 82.8033 401.306 84.8433C397.016 85.1733 392.726 85.5033 388.306 85.8433C392.963 88.6947 397.004 90.388 402.306 91.8433C402.966 92.5033 403.626 93.1633 404.306 93.8433C404.056 96.9058 404.056 96.9058 403.306 99.8433C400.4 101.296 397.526 101.388 394.306 101.781C388.243 102.544 382.273 103.524 376.306 104.843C383.394 111.702 390.317 117.749 398.657 123.046C401.731 125.132 404.166 127.436 406.669 130.164C408.271 131.895 408.271 131.895 410.224 133.273C419.179 139.959 424.369 152.006 426.306 162.843C427.295 173.123 426.266 181.476 420.075 189.867C407.832 204.082 385.136 207.186 367.608 208.64C365.645 208.813 363.687 209.043 361.732 209.285C342.716 210.73 320.333 196.75 306.306 184.843C305.593 184.275 304.88 183.706 304.146 183.121C289.768 171.178 273.459 149.595 271.306 130.843C270.115 115.697 271.139 97.9007 280.841 85.4332C287.357 78.3609 295.323 75.9304 304.7 75.4644C317.885 74.9727 327.401 75.7276 338.617 82.8214C341.238 84.4072 344.005 85.6132 346.806 86.8433C347.682 87.2352 348.559 87.6271 349.462 88.0308C350.071 88.299 350.679 88.5671 351.306 88.8433C350.133 85.8697 348.912 82.9183 347.681 79.9683C347.35 79.1266 347.018 78.2848 346.677 77.4176C346.165 76.2091 346.165 76.2091 345.642 74.9762C345.338 74.2325 345.034 73.4889 344.721 72.7227C340.736 67.4314 330.261 67.2225 323.982 66.2194C313.874 64.7987 303.66 64.0907 293.493 63.2183C289.78 62.895 286.066 62.5694 282.353 62.2397C280.059 62.0365 277.764 61.8371 275.469 61.642C274.439 61.5517 273.41 61.4613 272.35 61.3683C271.445 61.2907 270.541 61.2131 269.609 61.1332C267.306 60.8433 267.306 60.8433 264.306 59.8433C264.368 61.2974 264.368 61.2974 264.431 62.7808C263.553 68.3266 259.317 71.3405 255.049 74.5914C245.947 81.1284 236.046 86.5597 226.181 91.8433C225.507 92.2049 224.834 92.5665 224.14 92.939C217.566 96.3799 210.903 99.8467 203.306 98.8433C200.368 97.4683 200.368 97.4683 198.306 94.8433C196.693 88.7825 198.353 84.0679 201.306 78.7183C207.998 68.3203 214.834 63.4602 226.306 58.8433C225.485 58.9342 225.485 58.9342 224.648 59.0269C203.698 61.302 183.337 60.7553 162.306 59.8433C162.278 60.9249 162.249 62.0064 162.22 63.1207C161.306 66.8433 161.306 66.8433 158.392 68.8473C157.165 69.3903 155.927 69.9089 154.681 70.4058C149.911 72.5364 145.945 74.6095 142.161 78.2379C138.713 81.2213 134.74 83.502 130.88 85.9137C128.361 87.8021 127.372 88.9345 126.306 91.8433C127.131 92.2558 127.956 92.6683 128.806 93.0933C130.602 93.9913 132.398 94.8896 134.191 95.7926C137.616 97.514 141.051 99.2046 144.517 100.843C145.559 101.344 145.559 101.344 146.622 101.855C147.951 102.493 149.284 103.121 150.622 103.738C155.948 106.318 159.998 109.824 164.306 113.843C164.966 114.439 165.627 115.034 166.307 115.648C178.607 126.829 189.098 139.322 190.642 156.605C190.78 170.467 187.993 180.668 178.341 190.933C162.575 206.243 133.605 209.549 112.493 210.156C104.371 210.035 96.4749 208.617 88.4949 207.215C85.5243 206.711 82.5411 206.313 79.5559 205.906C55.4259 202.093 38.0042 191.461 20.3059 174.843C19.3681 174.02 19.3681 174.02 18.4114 173.179C8.34239 163.951 1.07934 149.931 0.0324464 136.277C-0.204132 126.968 0.783519 120.196 5.30588 111.843C5.7635 110.982 6.22112 110.121 6.6926 109.234C15.4125 93.8488 27.0795 81.9037 44.3059 76.8433C46.9434 76.3973 49.5279 76.0159 52.1809 75.7183C52.9198 75.6349 53.6586 75.5514 54.4199 75.4654C74.5362 73.3693 89.9876 76.616 108.342 85.0489C110.262 85.9683 110.262 85.9683 112.306 85.8433C110.526 80.084 108.213 76.0606 104.404 71.4098C102.828 69.4817 101.303 67.5431 99.802 65.5582C99.3683 64.9854 98.9346 64.4127 98.4878 63.8226C97.6387 62.6992 96.7915 61.5744 95.9463 60.4481C92.346 55.7225 88.6697 51.4945 83.5559 48.4058C80.6794 46.4466 80.3778 46.0973 79.3684 42.5308C79.3478 41.644 79.3271 40.7571 79.3059 39.8433C85.087 36.3443 88.5304 35.2188 95.3059 35.8433C100.294 37.7707 102.45 41.5183 105.306 45.8433C105.753 45.4566 106.2 45.0699 106.661 44.6715C109.4 42.3124 112.125 39.9823 114.993 37.7808C117.486 35.6923 119.359 33.4394 121.306 30.8433C124.126 31.0152 124.126 31.0152 127.306 31.8433C132.76 39.1995 132.943 48.0626 132.306 56.8433C135.286 56.7554 138.264 56.6484 141.243 56.5308C142.074 56.5083 142.905 56.4857 143.761 56.4625C147.99 56.2815 151.519 55.8874 155.462 54.3121C162.017 51.9117 168.993 52.5267 175.868 52.6558C177.273 52.6709 178.677 52.6846 180.081 52.6969C183.49 52.732 186.898 52.7812 190.306 52.8433C189.976 51.8533 189.646 50.8633 189.306 49.8433C188.346 39.4807 188.43 29.2172 193.306 19.8433C193.959 18.5382 193.959 18.5382 194.626 17.2066C198.646 9.85831 208.58 -3.47947 218.306 0.843348Z" fill="#080808"/>
<path d="M93.3058 86.8433C94.1036 87.1867 94.9014 87.5301 95.7233 87.8839C101.627 90.4437 107.493 93.0824 113.306 95.8433C114.406 96.3352 114.406 96.3352 115.528 96.837C117.306 97.8433 117.306 97.8433 118.056 99.9683C118.138 100.587 118.221 101.206 118.306 101.843C119.456 101.77 120.606 101.696 121.79 101.621C126.697 101.628 130.24 103.21 134.556 105.406C135.292 105.769 136.029 106.133 136.788 106.507C138.972 107.598 141.14 108.716 143.306 109.843C144.469 110.44 145.631 111.037 146.829 111.652C152.375 114.676 156.56 117.651 160.462 122.625C162.73 125.354 165.278 127.67 167.868 130.093C173.273 135.439 176.488 140.824 179.306 147.843C179.76 148.957 180.213 150.071 180.681 151.218C182.509 161.824 182.094 171.534 176.306 180.843C163.036 196.5 137.012 199.305 117.677 201.199C85.5493 202.481 53.1371 192.414 29.0558 171.343C18.5774 161.621 9.22313 150.524 8.05585 135.66C7.78447 127.781 8.60629 121.805 12.3058 114.843C12.7299 114.023 13.154 113.204 13.591 112.359C20.0697 100.737 30.2053 88.833 43.3058 84.8433C59.2051 81.3586 78.1836 80.323 93.3058 86.8433Z" fill="#FDFDFD"/>
<path d="M337.505 90.7277C339.333 91.8602 341.184 92.8244 343.114 93.7692C352.466 98.3577 360.374 104.122 368.306 110.843C369.254 111.639 370.203 112.434 371.181 113.254C375.679 117.126 375.679 117.126 377.306 118.843C377.306 119.503 377.306 120.163 377.306 120.843C378.41 120.501 378.41 120.501 379.536 120.152C382.306 119.843 382.306 119.843 384.481 121.066C385.186 121.673 385.892 122.28 386.618 122.906C387.401 123.561 388.183 124.216 388.989 124.89C389.754 125.535 390.518 126.179 391.306 126.843C392.591 127.79 393.882 128.728 395.181 129.656C396.564 130.708 397.938 131.771 399.306 132.843C400.196 133.538 401.087 134.233 402.005 134.949C410.322 141.905 416.843 150.775 418.306 161.843C419.301 179.117 419.301 179.117 413.852 185.562C404.96 194.377 392.495 198.619 380.306 199.843C378.829 200.024 377.352 200.208 375.876 200.394C371.356 200.945 366.846 201.49 362.306 201.843C361.593 201.907 360.88 201.97 360.146 202.036C353.529 202.364 348.187 200.383 342.118 197.906C340.602 197.297 340.602 197.297 339.055 196.675C326.4 191.431 316.15 184.42 306.306 174.843C305.186 173.817 305.186 173.817 304.044 172.769C291.943 161.344 279.411 143.873 277.97 126.883C277.712 114.313 278.322 98.6559 287.306 88.8434C300.776 78.1222 323.98 82.0074 337.505 90.7277Z" fill="#FDFDFD"/>
<path d="M213.305 193.843C214.625 194.173 215.945 194.503 217.305 194.843C217.071 196.687 217.071 196.687 216.305 198.843C209.578 203.788 198.634 207.843 190.305 207.843C189.975 210.483 189.645 213.123 189.305 215.843C192.605 215.183 195.905 214.523 199.305 213.843C199.305 214.833 199.305 215.823 199.305 216.843C196.821 218.316 196.821 218.316 193.555 219.906C187.788 223.075 185.656 225.662 183.759 231.902C183.609 232.543 183.46 233.183 183.305 233.843C196.925 232.556 196.925 232.556 208.794 226.683C210.474 224.471 211.887 222.228 213.305 219.843C214.786 218.066 214.786 218.066 216.305 216.843C217.295 216.843 218.285 216.843 219.305 216.843C219.305 218.493 219.305 220.143 219.305 221.843C220.027 221.328 220.749 220.812 221.493 220.281C224.305 218.843 224.305 218.843 227.055 219.031C229.305 219.843 229.305 219.843 230.305 221.843C231.069 221.183 231.832 220.523 232.618 219.843C235.305 217.843 235.305 217.843 238.305 217.843C237.798 222.161 237.109 225.876 235.305 229.843C237.641 227.586 239.493 225.563 241.305 222.843C242.295 222.843 243.285 222.843 244.305 222.843C244.635 219.213 244.965 215.583 245.305 211.843C246.295 211.843 247.285 211.843 248.305 211.843C247.859 215.595 247.396 219.344 246.93 223.093C246.741 224.689 246.741 224.689 246.548 226.316C246.419 227.341 246.29 228.366 246.157 229.422C246.042 230.364 245.927 231.307 245.808 232.278C245.316 234.789 244.566 236.632 243.305 238.843C241.82 238.348 241.82 238.348 240.305 237.843C240.305 235.863 240.305 233.883 240.305 231.843C239.315 232.503 238.325 233.163 237.305 233.843C234.618 233.468 234.618 233.468 232.305 232.843C231.81 229.378 231.81 229.378 231.305 225.843C230.763 226.565 230.22 227.287 229.661 228.031C228.946 228.959 228.23 229.887 227.493 230.843C226.785 231.772 226.078 232.7 225.348 233.656C224.674 234.378 224 235.1 223.305 235.843C222.315 235.843 221.325 235.843 220.305 235.843C221.724 231.371 223.419 227.132 225.305 222.843C217.582 228.305 217.582 228.305 210.368 234.406C209.357 235.21 208.347 236.015 207.305 236.843C205.114 236.496 205.114 236.496 203.305 235.843C203.305 235.183 203.305 234.523 203.305 233.843C202.544 234.037 201.782 234.23 200.997 234.429C199.448 234.82 199.448 234.82 197.868 235.218C196.78 235.494 195.692 235.77 194.571 236.054C191.761 236.733 188.957 237.303 186.118 237.843C184.231 238.338 184.231 238.338 182.305 238.843C181.975 239.833 181.645 240.823 181.305 241.843C180.315 241.843 179.325 241.843 178.305 241.843C176.431 229.251 176.431 229.251 178.575 225.8C180.243 224.468 180.243 224.468 183.305 222.843C182.975 221.193 182.645 219.543 182.305 217.843C183.295 217.513 184.285 217.183 185.305 216.843C186.111 214.738 186.111 214.738 186.493 212.281C186.731 211.041 186.731 211.041 186.973 209.777C187.083 209.139 187.193 208.501 187.305 207.843C186.645 207.843 185.985 207.843 185.305 207.843C185.305 206.853 185.305 205.863 185.305 204.843C188.09 202.987 189.507 202.85 192.93 202.968C197.689 203.029 201.45 201.634 205.805 199.843C206.896 199.414 206.896 199.414 208.009 198.976C209.779 198.277 211.543 197.562 213.305 196.843C213.305 195.853 213.305 194.863 213.305 193.843Z" fill="#121212"/>
<path d="M88.3057 90.8433C87.9757 92.4933 87.6457 94.1433 87.3057 95.8433C86.6457 95.8433 85.9857 95.8433 85.3057 95.8433C84.9368 96.7942 84.9368 96.7942 84.5605 97.7642C83.3057 99.8433 83.3057 99.8433 81.4648 100.665C80.3574 100.885 80.3574 100.885 79.2275 101.109C78.4025 101.277 77.5774 101.445 76.7273 101.618C75.8457 101.775 74.964 101.932 74.0557 102.093C72.711 102.346 72.711 102.346 71.3391 102.604C52.4444 105.936 52.4444 105.936 46.3057 101.843C45.295 101.513 44.2844 101.183 43.2432 100.843C40.3057 99.8433 40.3057 99.8433 38.3057 97.8433C38.4385 95.3824 38.4385 95.3824 39.3057 92.8433C52.1681 81.5363 74.6828 81.7614 88.3057 90.8433Z" fill="#050505"/>
<path d="M254.306 205.843C254.966 205.843 255.626 205.843 256.306 205.843C255.804 211.963 254.7 217.483 252.927 223.363C252.144 226.064 252.144 226.064 252.306 229.843C252.788 229.122 253.27 228.4 253.767 227.656C254.398 226.728 255.03 225.8 255.681 224.843C256.307 223.915 256.934 222.987 257.579 222.031C258.149 221.309 258.719 220.587 259.306 219.843C259.966 219.843 260.626 219.843 261.306 219.843C260.646 224.463 259.986 229.083 259.306 233.843C263.234 231.486 265.871 229.543 269.118 226.468C277.574 218.745 277.574 218.745 282.306 216.843C283.296 217.173 284.286 217.503 285.306 217.843C285.484 222.391 285.304 225.723 283.306 229.843C284.626 230.173 285.946 230.503 287.306 230.843C287.306 231.833 287.306 232.823 287.306 233.843C285.326 233.843 283.346 233.843 281.306 233.843C281.047 234.726 280.787 235.609 280.521 236.519C276.022 248.828 263.996 260.591 252.665 266.816C249.024 268.402 246.292 268.913 242.306 268.843C240.243 267.781 240.243 267.781 239.306 265.843C239.434 260.058 242.196 256.104 246.056 251.968C246.468 251.597 246.881 251.226 247.306 250.843C248.296 251.173 249.286 251.503 250.306 251.843C249.884 252.363 249.463 252.882 249.028 253.418C244.871 258.545 244.871 258.545 243.306 264.843C257.568 261.226 267.141 251.522 275.021 239.589C276.489 236.452 276.552 234.267 276.306 230.843C277.626 230.513 278.946 230.183 280.306 229.843C280.636 227.203 280.966 224.563 281.306 221.843C279.804 223.028 278.304 224.217 276.806 225.406C275.893 226.129 274.98 226.852 274.04 227.597C271.608 229.595 269.338 231.68 267.056 233.843C264.312 236.303 263.611 236.805 259.806 237.281C258.568 237.064 258.568 237.064 257.306 236.843C256.646 234.863 255.986 232.883 255.306 230.843C253.986 232.493 252.666 234.143 251.306 235.843C249.986 235.183 248.666 234.523 247.306 233.843C247.933 227.674 249.189 221.887 250.806 215.906C251.031 215.044 251.257 214.182 251.489 213.295C253.172 206.977 253.172 206.977 254.306 205.843Z" fill="#131313"/>
<path d="M120.306 42.8434C120.966 42.8434 121.626 42.8434 122.306 42.8434C123.452 45.1365 123.503 46.6425 123.622 49.1949C123.664 50.0457 123.706 50.8965 123.749 51.7731C123.788 52.6625 123.828 53.552 123.868 54.4684C123.911 55.3656 123.955 56.2628 123.999 57.1871C124.105 59.4057 124.206 61.6245 124.306 63.8434C127.606 64.5034 130.906 65.1634 134.306 65.8434C129.739 70.7141 124.556 74.7349 119.306 78.8434C116.931 76.6296 115.23 74.3304 113.493 71.5934C111.06 67.8556 108.428 64.5298 105.407 61.2535C104.306 59.8434 104.306 59.8434 104.306 57.8434C105.512 57.1009 105.512 57.1009 106.743 56.3434C111.817 53.1754 115.431 48.3219 119.306 43.8434C119.636 43.5134 119.966 43.1834 120.306 42.8434Z" fill="#F7F7F7"/>
<path d="M370.306 70.8434C371.203 72.2356 371.203 72.2356 372.118 73.6559C374.313 76.8535 375.893 78.1369 379.306 79.8434C379.079 80.8953 378.852 81.9471 378.618 83.0309C378.272 87.2521 378.722 88.5895 381.306 91.8434C381.966 92.1734 382.626 92.5034 383.306 92.8434C383.306 93.5034 383.306 94.1634 383.306 94.8434C377.486 96.4488 372.573 97.5859 366.556 96.2184C365.813 96.0946 365.071 95.9709 364.306 95.8434C363.646 96.5034 362.986 97.1634 362.306 97.8434C361.316 97.1834 360.326 96.5234 359.306 95.8434C359.368 94.7709 359.429 93.6984 359.493 92.5934C359.781 86.8193 356.983 81.9248 354.618 76.8199C353.306 73.8434 353.306 73.8434 353.306 71.8434C354.296 72.1734 355.286 72.5034 356.306 72.8434C356.993 74.9059 356.993 74.9059 357.306 76.8434C358.956 76.8434 360.606 76.8434 362.306 76.8434C362.677 75.6368 362.677 75.6368 363.056 74.4059C364.306 71.8434 364.306 71.8434 366.306 71.0309C368.306 70.8434 368.306 70.8434 370.306 70.8434Z" fill="#F7F7F7"/>
<path d="M378.306 129.843C381.038 130.054 382.779 130.453 384.993 132.093C386.306 133.843 386.306 133.843 387.243 136.281C388.123 138.939 388.123 138.939 390.263 140.55C392.965 143.583 393.321 146.128 394.056 150.093C394.298 151.357 394.54 152.62 394.79 153.922C394.96 154.886 395.13 155.85 395.306 156.843C396.626 157.173 397.946 157.503 399.306 157.843C399.017 161.312 398.489 162.65 396.056 165.218C393.306 166.843 393.306 166.843 390.825 166.726C387.557 165.581 386.904 164.342 385.243 161.343C384.491 159.986 384.491 159.986 383.724 158.601C379.31 150.017 375.513 141.754 376.306 131.843C376.966 131.183 377.626 130.523 378.306 129.843Z" fill="#070707"/>
<path d="M257.306 59.8433C257.306 63.8433 257.306 63.8433 255.532 65.816C241.582 77.0226 223.529 90.2084 205.306 91.8433C205.636 90.8533 205.966 89.8633 206.306 88.8433C208.032 88.2691 208.032 88.2691 210.306 87.8433C221.076 84.5589 228.218 78.3085 236.306 70.8433C237.99 69.3191 239.677 67.7977 241.368 66.2808C242.019 65.6814 242.67 65.082 243.341 64.4644C248.07 60.5627 251.127 59.4799 257.306 59.8433Z" fill="#F3F3F3"/>
<path d="M213.306 193.843C214.626 194.173 215.946 194.503 217.306 194.843C217.071 196.687 217.071 196.687 216.306 198.843C209.578 203.788 198.635 207.843 190.306 207.843C189.976 210.483 189.646 213.123 189.306 215.843C192.606 215.183 195.906 214.523 199.306 213.843C199.306 214.833 199.306 215.823 199.306 216.843C196.786 218.422 196.786 218.422 193.493 220.093C187.864 223.198 186.283 224.911 184.306 230.843C181.618 232.281 181.618 232.281 179.306 232.843C178.646 231.193 177.986 229.543 177.306 227.843C180.276 225.368 180.276 225.368 183.306 222.843C182.976 221.193 182.646 219.543 182.306 217.843C183.296 217.513 184.286 217.183 185.306 216.843C186.111 214.738 186.111 214.738 186.493 212.281C186.731 211.041 186.731 211.041 186.974 209.777C187.083 209.139 187.193 208.501 187.306 207.843C186.646 207.843 185.986 207.843 185.306 207.843C185.306 206.853 185.306 205.863 185.306 204.843C188.09 202.987 189.507 202.85 192.931 202.968C197.689 203.029 201.45 201.634 205.806 199.843C206.896 199.414 206.896 199.414 208.009 198.976C209.779 198.277 211.543 197.562 213.306 196.843C213.306 195.853 213.306 194.863 213.306 193.843Z" fill="#181818"/>
<path d="M254.306 205.843C254.966 205.843 255.626 205.843 256.306 205.843C255.804 211.963 254.7 217.483 252.927 223.363C252.144 226.064 252.144 226.064 252.306 229.843C253.029 228.761 253.029 228.761 253.767 227.656C254.398 226.728 255.03 225.8 255.681 224.843C256.307 223.915 256.934 222.987 257.579 222.031C258.149 221.309 258.719 220.587 259.306 219.843C259.966 219.843 260.626 219.843 261.306 219.843C260.646 224.463 259.986 229.083 259.306 233.843C263.257 231.472 266.053 229.418 269.368 226.343C272.254 223.676 275.116 221.142 278.306 218.843C278.966 219.173 279.626 219.503 280.306 219.843C277.859 224.638 274.505 227.698 270.493 231.156C269.889 231.706 269.285 232.255 268.663 232.822C265.568 235.504 264.032 236.769 259.856 237.199C259.015 237.082 258.173 236.964 257.306 236.843C256.646 234.863 255.986 232.883 255.306 230.843C253.986 232.493 252.666 234.143 251.306 235.843C249.986 235.183 248.666 234.523 247.306 233.843C247.933 227.674 249.189 221.887 250.806 215.906C251.031 215.044 251.257 214.182 251.489 213.295C253.172 206.977 253.172 206.977 254.306 205.843Z" fill="#161616"/>
<path d="M237.306 61.8434C219.275 80.3808 219.275 80.3808 208.306 82.8434C213.268 72.0557 223.003 66.1118 233.458 61.4098C235.306 60.8434 235.306 60.8434 237.306 61.8434Z" fill="#EDEDED"/>
<path d="M213.306 193.843C214.626 194.173 215.946 194.503 217.306 194.843C217.071 196.687 217.071 196.687 216.306 198.843C209.578 203.788 198.635 207.843 190.306 207.843C189.976 208.833 189.646 209.823 189.306 210.843C188.646 210.843 187.986 210.843 187.306 210.843C187.306 209.853 187.306 208.863 187.306 207.843C186.646 207.843 185.986 207.843 185.306 207.843C185.306 206.853 185.306 205.863 185.306 204.843C188.09 202.987 189.507 202.85 192.931 202.968C197.689 203.029 201.45 201.634 205.806 199.843C206.896 199.414 206.896 199.414 208.009 198.976C209.779 198.277 211.543 197.562 213.306 196.843C213.306 195.853 213.306 194.863 213.306 193.843Z" fill="#151515"/>
<path d="M211.305 12.8434C211.635 12.8434 211.965 12.8434 212.305 12.8434C212.128 19.7162 210.499 25.5442 208.185 31.9982C205.927 38.5093 205.013 44.9864 204.305 51.8434C203.975 51.8434 203.645 51.8434 203.305 51.8434C202.356 24.261 202.356 24.261 211.305 12.8434Z" fill="#E6E6E6"/>
<path d="M293.306 35.8434C293.306 39.6573 292.057 41.1645 289.993 44.3434C289.378 45.3024 288.763 46.2615 288.13 47.2496C285.106 51.5497 285.106 51.5497 283.306 52.8434C280.606 53.1364 280.606 53.1364 277.618 53.0309C276.127 52.9903 276.127 52.9903 274.606 52.9489C273.847 52.914 273.088 52.8792 272.306 52.8434C272.306 52.1834 272.306 51.5234 272.306 50.8434C273.695 49.67 273.695 49.67 275.63 48.3824C276.329 47.9106 277.029 47.4389 277.749 46.9528C278.49 46.4629 279.23 45.9731 279.993 45.4684C284.571 42.4081 289.067 39.3716 293.306 35.8434Z" fill="#EFEFEF"/>
<path d="M254.305 205.843C254.965 205.843 255.625 205.843 256.305 205.843C255.804 211.963 254.7 217.483 252.927 223.363C252.144 226.064 252.144 226.064 252.305 229.843C252.965 229.843 253.625 229.843 254.305 229.843C253.315 232.318 253.315 232.318 252.305 234.843C250.985 234.843 249.665 234.843 248.305 234.843C247.257 230.903 247.431 228.28 248.485 224.359C248.755 223.342 249.024 222.325 249.302 221.277C249.592 220.226 249.882 219.176 250.18 218.093C250.604 216.494 250.604 216.494 251.036 214.863C253.15 206.999 253.15 206.999 254.305 205.843Z" fill="#171717"/>
<path d="M200.306 18.8434C200.636 19.5034 200.966 20.1634 201.306 20.8434C201.017 21.5446 200.728 22.2459 200.431 22.9684C197.839 29.5928 198.173 36.8312 198.243 43.8434C198.248 44.7135 198.252 45.5836 198.257 46.4801C198.268 48.6012 198.286 50.7223 198.306 52.8434C195.538 50.5976 194.407 49.4121 193.774 45.8473C193.861 36.3462 194.919 26.9236 200.306 18.8434Z" fill="#CCCCCC"/>
<path d="M259.306 219.843C259.966 219.843 260.626 219.843 261.306 219.843C260.646 224.463 259.986 229.083 259.306 233.843C260.296 234.173 261.286 234.503 262.306 234.843C261.976 235.503 261.646 236.163 261.306 236.843C259.656 236.513 258.006 236.183 256.306 235.843C256.182 235.039 256.058 234.235 255.931 233.406C255.621 232.137 255.621 232.137 255.306 230.843C254.646 230.513 253.986 230.183 253.306 229.843C254.959 226.261 256.985 223.034 259.306 219.843Z" fill="#121212"/>
<path d="M223.306 81.8434C223.966 82.1734 224.626 82.5034 225.306 82.8434C224.306 85.8434 224.306 85.8434 222.083 87.1949C216.387 89.7492 211.553 91.4898 205.306 91.8434C205.636 90.8534 205.966 89.8634 206.306 88.8434C207.981 88.3121 207.981 88.3121 210.306 87.8434C212.38 87.0388 214.441 86.203 216.493 85.3434C217.559 84.8999 218.625 84.4565 219.724 83.9996C222.187 83.0805 222.187 83.0805 223.306 81.8434Z" fill="#E3E3E3"/>
<path d="M197.306 203.843C197.306 204.833 197.306 205.823 197.306 206.843C194.996 207.173 192.686 207.503 190.306 207.843C189.976 208.833 189.646 209.823 189.306 210.843C188.646 210.843 187.986 210.843 187.306 210.843C187.306 209.853 187.306 208.863 187.306 207.843C186.646 207.843 185.986 207.843 185.306 207.843C185.306 206.853 185.306 205.863 185.306 204.843C189.301 202.013 192.733 203.081 197.306 203.843Z" fill="#0A0A0A"/>
<path d="M254.306 205.843C254.966 205.843 255.626 205.843 256.306 205.843C255.826 211.412 255.007 216.514 253.306 221.843C252.316 221.843 251.326 221.843 250.306 221.843C250.83 215.975 252.067 211.295 254.306 205.843Z" fill="#242424"/>
<path d="M58.3057 82.8434C65.5657 82.8434 72.8257 82.8434 80.3057 82.8434C77.3057 85.8434 77.3057 85.8434 75.2209 86.184C74.4407 86.1682 73.6604 86.1525 72.8564 86.1364C72.0089 86.1267 71.1613 86.117 70.2881 86.1071C69.407 86.0819 68.5259 86.0568 67.6182 86.0309C66.7255 86.0173 65.8328 86.0038 64.9131 85.9899C62.71 85.9545 60.5081 85.9052 58.3057 85.8434C58.3057 84.8534 58.3057 83.8634 58.3057 82.8434Z" fill="#D7D7D7"/>
<path d="M208.306 200.843C208.306 201.503 208.306 202.163 208.306 202.843C207.061 203.378 205.81 203.895 204.556 204.406C203.86 204.696 203.163 204.986 202.446 205.285C200.006 205.922 198.665 205.646 196.306 204.843C197.306 202.843 197.306 202.843 199.302 201.957C200.51 201.56 200.51 201.56 201.743 201.156C202.546 200.884 203.349 200.612 204.177 200.332C206.306 199.843 206.306 199.843 208.306 200.843Z" fill="#1B1B1B"/>
<path d="M195.306 37.8434C195.636 37.8434 195.966 37.8434 196.306 37.8434C196.966 42.7934 197.626 47.7434 198.306 52.8434C194.306 48.8434 194.306 48.8434 193.88 46.3004C193.917 45.4277 193.955 44.555 193.993 43.6559C194.018 42.7755 194.042 41.895 194.067 40.9879C194.306 38.8434 194.306 38.8434 195.306 37.8434Z" fill="#F1F1F1"/>
<path d="M252.306 220.843C252.306 224.473 252.306 228.103 252.306 231.843C251.646 231.843 250.986 231.843 250.306 231.843C248.306 229.843 248.306 229.843 248.259 227.933C248.357 227.223 248.455 226.513 248.556 225.781C248.643 225.068 248.731 224.355 248.821 223.621C248.981 223.034 249.141 222.448 249.306 221.843C251.306 220.843 251.306 220.843 252.306 220.843Z" fill="#1D1D1D"/>
<path d="M247.306 250.843C248.296 251.173 249.286 251.503 250.306 251.843C245.681 256.718 245.681 256.718 242.306 257.843C243.599 254.959 244.965 252.971 247.306 250.843Z" fill="#242424"/>
<path d="M364.306 59.8434C366.286 60.8334 368.266 61.8234 370.306 62.8434C370.306 63.5034 370.306 64.1634 370.306 64.8434C368.326 64.8434 366.346 64.8434 364.306 64.8434C364.306 63.1934 364.306 61.5434 364.306 59.8434Z" fill="#E9E9E9"/>
<path d="M267.306 227.843C267.966 228.173 268.626 228.503 269.306 228.843C268.036 230.341 266.767 231.838 265.497 233.336C264.218 234.849 264.218 234.849 263.306 236.843C262.646 236.843 261.986 236.843 261.306 236.843C262.618 232.907 264.225 230.616 267.306 227.843Z" fill="#262626"/>
<path d="M188.306 209.843C188.966 210.173 189.626 210.503 190.306 210.843C189.976 212.493 189.646 214.143 189.306 215.843C189.966 216.173 190.626 216.503 191.306 216.843C190.316 216.843 189.326 216.843 188.306 216.843C187.646 216.183 186.986 215.523 186.306 214.843C186.306 213.523 186.306 212.203 186.306 210.843C186.966 210.513 187.626 210.183 188.306 209.843Z" fill="#2A2A2A"/>
</svg>
