<svg width="442" height="311" viewBox="0 0 442 311" fill="none" xmlns="http://www.w3.org/2000/svg">
<path d="M307.55 0.0119232C309.258 0.0175327 310.965 0.0217964 312.673 0.0247863C317.123 0.0361285 321.573 0.0655013 326.023 0.0988983C330.582 0.129831 335.141 0.143341 339.7 0.158408C348.612 0.190383 357.524 0.241448 366.436 0.304892C366.436 1.62489 366.436 2.94489 366.436 4.30489C365.776 4.63489 365.116 4.96489 364.436 5.30489C365.135 5.34453 365.834 5.38417 366.553 5.42501C384.247 6.47698 400.539 7.87203 416.854 15.215C419.191 16.2014 421.339 16.8412 423.811 17.3674C429.375 18.8061 433.425 21.3978 436.436 26.3049C437.339 29.0351 437.955 31.8086 438.561 34.6174C438.73 35.3515 438.899 36.0856 439.073 36.842C443.447 56.2489 443.277 75.1266 433.136 92.676C430.229 97.1735 426.96 101.278 423.436 105.305C422.871 105.955 422.305 106.604 421.722 107.274C415.767 113.662 409.107 118.002 400.436 119.305C400.442 120.044 400.447 120.784 400.452 121.545C400.612 147.493 400.612 147.493 399.558 158.387C399.32 161.314 399.32 161.314 400.015 164.168C400.573 168.317 399.765 171.658 398.749 175.68C398.56 176.436 398.37 177.192 398.175 177.97C395.751 187.296 393.495 192.412 385.124 197.778C377.249 202.253 368.916 204.319 360.171 206.375C356.579 207.18 356.579 207.18 353.833 208.342C349.295 209.628 345.046 209.63 340.351 209.641C338.889 209.651 338.889 209.651 337.397 209.661C335.335 209.671 333.272 209.676 331.209 209.675C328.106 209.68 325.004 209.716 321.901 209.754C306.032 209.845 290.957 209.24 278.436 198.305C277.816 197.793 277.196 197.281 276.558 196.754C267.873 188.925 262.546 177.821 259.436 166.742C258.535 163.301 258.535 163.301 256.979 160.246C254.956 155.593 254.396 150.805 253.749 145.805C253.619 144.894 253.49 143.982 253.356 143.043C252.68 138.083 252.292 133.31 252.436 128.305C251.651 128.34 250.866 128.374 250.058 128.41C240.517 128.656 233.677 126.607 226.436 120.305C215.086 107.063 216.539 81.177 217.246 64.7492C217.901 56.3563 221.73 50.4216 226.659 43.8361C228.477 41.2469 229.845 38.6367 231.249 35.8049C238.718 21.8487 252.754 13.0115 266.936 6.92989C268.056 6.44722 268.056 6.44722 269.198 5.95479C281.915 0.781734 294.029 -0.1202 307.55 0.0119232Z" fill="#FCFCFC"/>
<path d="M207.683 119.942C213.143 124.186 215.389 130.183 217.999 136.367C218.385 137.246 218.771 138.124 219.169 139.03C220.337 141.764 221.409 144.514 222.437 147.305C222.744 148.138 223.052 148.971 223.368 149.829C226.362 159.568 225.888 169.754 225.828 179.839C225.812 183.034 225.828 186.227 225.847 189.422C225.859 201.096 225.188 211.94 222.437 223.305C222.223 224.264 222.009 225.224 221.789 226.212C218.003 242.495 211.429 253.039 197.077 262.391C188.492 267.218 178.27 270.013 168.437 269.305C165.722 268.246 165.722 268.246 163.499 266.867C162.372 266.189 162.372 266.189 161.222 265.496C159.437 264.305 159.437 264.305 158.437 263.305C158.278 263.995 158.12 264.684 157.956 265.395C154.207 280.494 145.918 291.062 132.741 299.249C127.508 302.378 122.162 305.185 116.437 307.305C115.746 307.565 115.055 307.824 114.343 308.092C107.308 310.496 100.764 310.733 93.3741 310.617C91.5846 310.599 91.5846 310.599 89.7589 310.581C66.7822 310.216 39.2458 307.111 21.4366 291.305C20.1682 290.267 20.1682 290.267 18.8741 289.207C8.595 280.534 2.76386 269.559 0.436645 256.305C-0.620837 242.176 0.0437422 229.094 4.64954 215.697C5.53355 213.01 6.29399 210.304 7.04602 207.578C12.8538 186.802 21.8806 168.167 41.132 156.699C52.5288 150.904 63.8042 153.136 75.6105 156.655C79.5618 158.062 82.3411 160.578 85.4366 163.305C96.2885 171.014 112.883 179.647 126.437 178.305C137.123 176.552 137.123 176.552 145.437 170.305C149.149 163.281 148.447 153.616 146.187 146.18C144.552 142.044 142.475 139.486 138.597 137.238C134.582 135.503 130.709 135.604 126.437 136.305C120.548 138.788 116.348 141.509 113.437 147.305C111.946 151.855 111.673 156.589 112.437 161.305C114.057 164.356 116.065 166.807 118.437 169.305C118.929 169.866 119.421 170.426 119.929 171.004C121.528 172.63 121.528 172.63 124.749 172.68C128.732 172.275 131.092 171.483 134.437 169.305C135.841 167.254 135.841 167.254 136.437 165.305C135.447 165.8 135.447 165.8 134.437 166.305C131.812 166.805 131.812 166.805 128.437 166.305C123.484 162.897 118.127 158.483 116.812 152.43C117.757 147.705 120.615 145.98 124.437 143.305C125.012 142.876 125.586 142.446 126.179 142.004C130.091 139.381 133.073 138.775 137.577 139.621C141.821 141.181 144.026 144.688 146.437 148.305C147.724 157.03 144.15 164.104 139.437 171.305C135.202 175.604 131.318 177.468 125.312 177.93C120.334 177.89 118.07 176.751 114.499 173.305C108.909 166.883 105.672 161.517 106.046 152.828C107.113 145.935 110.59 139.136 116.257 134.965C122.364 130.959 127.989 128.436 135.437 129.305C142.126 131.687 147.744 135.105 151.437 141.305C155.126 150.02 155.011 162.332 151.749 171.18C150.093 174.982 147.871 176.998 144.437 179.305C141.026 180.535 141.026 180.535 137.374 181.492C136.166 181.816 134.958 182.14 133.714 182.473C132.092 182.885 132.092 182.885 130.437 183.305C129.795 183.482 129.154 183.659 128.493 183.841C121.302 185.462 115.094 183.92 108.374 181.305C107.219 180.876 107.219 180.876 106.04 180.438C104.167 179.74 102.301 179.024 100.437 178.305C101.556 179.569 101.556 179.569 102.698 180.86C109.126 188.6 113.636 198.515 112.917 208.668C110.953 219.448 102.243 228.554 93.6788 234.836C84.7573 240.68 77.0324 242.123 66.4366 241.305C61.1 239.245 58.656 235.487 56.3663 230.399C53.0614 219.401 55.0952 210.173 60.3195 200.293C62.7493 196.864 64.9254 194.63 68.4366 192.305C72.0929 191.711 72.0929 191.711 75.9366 191.805C77.2051 191.815 78.4735 191.826 79.7804 191.836C85.09 192.517 88.3478 194.334 92.3116 197.867C94.9157 201.294 95.2102 204.484 94.9874 208.711C93.737 214.6 89.8316 219.211 85.5616 223.305C81.4454 225.939 79.3362 226.46 74.4366 226.305C71.4366 224.305 71.4366 224.305 69.4366 221.305C68.7224 216.94 69.0905 214.926 71.2491 211.055C71.971 210.147 72.6929 209.24 73.4366 208.305C73.8904 207.686 74.3441 207.067 74.8116 206.43C77.2854 204.717 79.5188 205.11 82.4366 205.305C82.4366 206.295 82.4366 207.285 82.4366 208.305C81.261 208.707 81.261 208.707 80.0616 209.117C77.1555 210.153 77.1555 210.153 75.4366 213.305C74.9853 215.354 74.9853 215.354 74.8116 217.492C74.626 219.38 74.626 219.38 74.4366 221.305C80.0873 220.288 82.5883 218.618 86.1749 214.156C88.6379 210.542 90.1036 207.751 89.4366 203.305C86.8153 199.482 83.811 198.51 79.4562 197.629C76.5974 197.17 74.3211 196.856 71.4366 197.305C66.3844 201.002 63.3768 206.437 61.4366 212.305C60.3259 220.291 60.9774 226.552 65.4366 233.305C69.9631 236.323 74.1338 235.961 79.4366 235.305C90.7191 231.805 99.8907 222.496 105.437 212.305C108.029 204.527 106.198 198.377 102.909 191.168C98.8283 183.234 93.9463 177.615 85.4366 174.305C73.3141 172 61.7828 177.73 51.9406 184.363C47.804 187.571 44.542 191.103 41.4366 195.305C40.9081 195.973 40.3796 196.64 39.8351 197.328C33.185 207.619 35.5021 223.746 37.8558 235.193C39.6894 241.86 45.089 246.304 50.4366 250.305C56.301 253.624 61.8342 254.054 68.4366 254.305C69.1983 254.337 69.96 254.37 70.7448 254.404C73.3504 254.503 75.9547 254.565 78.5616 254.617C79.3966 254.647 80.2315 254.677 81.0917 254.708C91.7403 254.806 100.987 249.345 108.675 242.235C114.246 236.388 116.714 231.205 117.886 223.258C120.132 209.429 128.552 194.322 139.437 185.305C151.113 177.104 160.822 173.063 175.437 174.305C182.789 176.217 188.408 181.947 192.249 188.305C197.025 200.37 196.792 213.105 192.437 225.305C189.711 230.957 186.129 233.124 180.437 235.305C179.276 235.752 178.116 236.2 176.921 236.66C166.529 240.407 154.468 243.133 143.749 238.93C139.14 236.048 137.089 231.316 135.437 226.305C134.128 220.502 136.084 216.21 139.097 211.336C139.539 210.666 139.981 209.996 140.437 209.305C140.994 208.418 141.55 207.531 142.124 206.617C146.57 202.172 151.734 198.836 157.937 197.617C165.375 199.078 171.507 202.581 176.437 208.305C176.767 208.635 177.097 208.965 177.437 209.305C177.792 214.633 177.91 217.993 174.437 222.305C168.172 228.395 161.513 228.531 153.206 228.766C149.72 228.186 148.551 227.088 146.437 224.305C146.312 221.305 146.312 221.305 147.437 218.305C150.52 215.58 152.526 214.412 156.624 213.93C159.437 214.305 159.437 214.305 162.437 216.305C162.437 217.295 162.437 218.285 162.437 219.305C157.487 219.8 157.487 219.8 152.437 220.305C152.437 221.295 152.437 222.285 152.437 223.305C154.875 222.828 157.312 222.349 159.749 221.867C160.439 221.733 161.13 221.598 161.841 221.459C164.78 220.877 167.591 220.253 170.437 219.305C170.767 216.665 171.097 214.025 171.437 211.305C170.146 210.491 168.854 209.679 167.562 208.867C166.842 208.415 166.123 207.962 165.382 207.496C161.489 205.112 159.063 204.783 154.437 205.305C148.621 208.29 143.683 213.096 141.437 219.305C141.021 224.588 142.142 229.087 145.437 233.305C152.092 236.633 162.837 234.799 169.678 232.661C178.209 230.129 178.209 230.129 184.546 224.438C184.757 223.775 184.969 223.113 185.187 222.43C185.408 221.772 185.63 221.115 185.859 220.438C188.439 210.918 189.217 199.254 184.437 190.305C180.986 186.445 177.169 182.674 171.89 181.961C160.542 181.408 151.806 185.589 142.999 192.492C139.095 196.188 136.62 200.644 134.077 205.34C132.437 208.305 132.437 208.305 130.39 211.02C127.765 215.434 126.947 219.808 125.937 224.805C124.642 231.206 123.479 236.108 119.437 241.305C118.777 242.295 118.117 243.285 117.437 244.305C117.974 244.146 118.512 243.988 119.066 243.824C128.682 241.717 138.534 243.351 147.437 247.305C150.138 249.13 152.144 250.959 154.437 253.305C154.986 252.651 154.986 252.651 155.546 251.985C161.877 245.02 170.842 239.484 180.46 239.012C184.395 239.595 185.896 241.257 188.437 244.305C189.624 247.805 189.624 247.805 189.437 251.305C186.655 254.987 183.903 257.135 179.437 258.305C175.422 258.727 173.319 258.9 169.937 256.617C168.437 254.305 168.437 254.305 168.687 251.555C168.934 250.812 169.182 250.07 169.437 249.305C164.569 251.467 164.569 251.467 161.499 255.43C161.456 256.721 161.437 258.013 161.437 259.305C162.22 259.614 163.004 259.924 163.812 260.242C166.437 261.305 166.437 261.305 168.437 262.305C179.431 263.641 189.418 259.854 198.116 253.281C205.269 247.189 209.596 241.249 212.437 232.305C212.785 231.27 213.133 230.235 213.491 229.168C216.963 218.463 218.747 208.256 218.773 197.004C218.779 195.965 218.786 194.926 218.793 193.856C218.803 191.674 218.808 189.491 218.807 187.309C218.812 184.011 218.848 180.714 218.886 177.416C218.948 166.032 218.658 156.014 214.437 145.305C214.102 144.415 213.767 143.524 213.422 142.607C212.491 140.243 211.486 137.932 210.437 135.617C210.107 134.847 209.777 134.077 209.437 133.283C207.069 127.812 207.069 127.812 202.437 124.305C193.677 122.881 186.842 124.624 179.437 129.305C180.427 128.975 181.417 128.645 182.437 128.305C187.303 126.683 192.564 126.405 197.507 127.953C201.082 129.764 203.972 132.246 205.773 135.856C207.697 142.953 208.076 152.504 204.437 159.055C201.344 162.896 198.274 165.192 193.437 166.305C185.059 167.02 174.899 167.86 167.437 163.305C164.422 160.561 161.686 157.427 161.198 153.274C160.916 143.881 163.494 137.229 169.562 130.055C179.488 119.654 193.922 112.719 207.683 119.942Z" fill="#0C0C0C"/>
<path d="M307.55 0.0119232C309.258 0.0175327 310.965 0.0217964 312.673 0.0247863C317.123 0.0361285 321.573 0.0655013 326.023 0.0988983C330.582 0.129831 335.141 0.143341 339.7 0.158408C348.612 0.190383 357.524 0.241448 366.436 0.304892C366.436 1.62489 366.436 2.94489 366.436 4.30489C365.776 4.63489 365.116 4.96489 364.436 5.30489C365.135 5.34453 365.834 5.38417 366.553 5.42501C384.247 6.47698 400.539 7.87203 416.854 15.215C419.191 16.2014 421.339 16.8412 423.811 17.3674C429.375 18.8061 433.425 21.3978 436.436 26.3049C437.339 29.0351 437.955 31.8086 438.561 34.6174C438.73 35.3515 438.899 36.0856 439.073 36.842C443.447 56.2489 443.277 75.1266 433.136 92.676C430.229 97.1735 426.96 101.278 423.436 105.305C422.871 105.955 422.305 106.604 421.722 107.274C415.767 113.662 409.107 118.002 400.436 119.305C400.442 120.044 400.447 120.784 400.452 121.545C400.612 147.493 400.612 147.493 399.558 158.387C399.32 161.314 399.32 161.314 400.015 164.168C400.573 168.317 399.765 171.658 398.749 175.68C398.56 176.436 398.37 177.192 398.175 177.97C395.751 187.296 393.495 192.412 385.124 197.778C377.249 202.253 368.916 204.319 360.171 206.375C356.579 207.18 356.579 207.18 353.833 208.342C349.295 209.628 345.046 209.63 340.351 209.641C338.889 209.651 338.889 209.651 337.397 209.661C335.335 209.671 333.272 209.676 331.209 209.675C328.106 209.68 325.004 209.716 321.901 209.754C306.032 209.845 290.957 209.24 278.436 198.305C277.816 197.793 277.196 197.281 276.558 196.754C267.873 188.925 262.546 177.821 259.436 166.742C258.535 163.301 258.535 163.301 256.979 160.246C254.956 155.593 254.396 150.805 253.749 145.805C253.619 144.894 253.49 143.982 253.356 143.043C252.68 138.083 252.292 133.31 252.436 128.305C251.651 128.34 250.866 128.374 250.058 128.41C240.517 128.656 233.677 126.607 226.436 120.305C215.086 107.063 216.539 81.177 217.246 64.7492C217.901 56.3563 221.73 50.4216 226.659 43.8361C228.477 41.2469 229.845 38.6367 231.249 35.8049C238.718 21.8487 252.754 13.0115 266.936 6.92989C268.056 6.44722 268.056 6.44722 269.198 5.95479C281.915 0.781734 294.029 -0.1202 307.55 0.0119232ZM242.436 33.3049C242.766 34.9549 243.096 36.6049 243.436 38.3049C242.535 38.9623 241.634 39.6197 240.706 40.2971C236.948 43.4308 235.148 47.0456 233.124 51.4299C232.605 52.503 232.605 52.503 232.075 53.5979C226.101 66.0591 228.277 79.5991 229.749 92.9924C229.867 94.1146 229.984 95.2368 230.105 96.393C230.908 103.197 231.674 109.597 237.374 114.117C242.732 117.945 248.094 117.586 254.538 117.926C257.436 118.305 257.436 118.305 259.436 120.305C260.01 122.774 260.474 125.182 260.874 127.68C261.061 128.797 261.061 128.797 261.252 129.936C261.659 132.39 262.05 134.847 262.436 137.305C262.572 138.168 262.708 139.03 262.848 139.919C265.294 155.589 265.294 155.589 265.835 162C267.098 173.595 276.382 185.013 284.917 192.473C293.627 199.022 302.254 199.618 312.909 199.641C314.531 199.651 314.531 199.651 316.186 199.661C318.466 199.671 320.746 199.676 323.026 199.675C326.465 199.68 329.902 199.716 333.341 199.754C345.669 199.817 356.683 199.212 368.436 195.305C369.435 194.983 370.433 194.662 371.462 194.331C378.074 192.091 383.674 188.444 387.597 182.567C390.01 177.325 389.546 171.94 389.409 166.285C389.438 162.043 389.895 158.003 390.436 153.805C391.714 143.614 391.554 133.432 391.362 123.184C391.346 121.933 391.329 120.683 391.311 119.395C391.288 118.269 391.265 117.144 391.241 115.984C391.436 113.305 391.436 113.305 393.436 111.305C394.904 110.886 396.386 110.518 397.874 110.18C411.684 106.174 419.85 94.771 427.112 83.1174C430.885 75.1046 431.962 67.5419 431.874 58.7424C431.866 57.1827 431.866 57.1827 431.858 55.5915C431.683 46.5942 430.652 37.7583 427.436 29.3049C424.382 27.2686 423.745 27.05 420.304 27.0393C419.497 27.0367 418.69 27.0341 417.858 27.0315C416.598 27.0431 416.598 27.0431 415.311 27.0549C414.494 27.0472 413.677 27.0394 412.835 27.0315C407.135 27.0495 401.943 27.8491 396.436 29.3049C396.766 27.3249 397.096 25.3449 397.436 23.3049C395.395 23.2776 393.353 23.2584 391.311 23.2424C389.606 23.225 389.606 23.225 387.866 23.2072C384.624 23.2996 381.617 23.691 378.436 24.3049C378.106 22.9849 377.776 21.6649 377.436 20.3049C369.784 19.0695 362.161 17.9675 354.436 17.3049C353.446 14.3349 353.446 14.3349 352.436 11.3049C341.451 10.0312 330.477 10.204 319.437 10.3049C318.942 9.31489 318.942 9.31489 318.437 8.30489C288.644 7.43008 265.424 13.8976 242.436 33.3049Z" fill="#080808"/>
<path d="M68.6866 161.055C69.3602 161.212 70.0338 161.368 70.7278 161.53C75.3866 162.732 78.6659 164.424 82.4366 167.305C82.4366 167.635 82.4366 167.965 82.4366 168.305C81.8771 168.319 81.3177 168.333 80.7413 168.348C65.2605 169.269 49.9925 176.636 39.4092 187.91C32.3365 196.496 29.0475 204.89 29.1866 215.992C29.1941 216.783 29.2016 217.573 29.2093 218.387C29.432 230.613 31.0398 241.891 39.7491 251.117C40.9553 252.206 42.1843 253.27 43.4366 254.305C44.2429 255.015 44.2429 255.015 45.0655 255.738C55.7532 263.796 73.6639 263.257 86.4366 262.305C89.5809 261.846 92.3859 261.209 95.4366 260.305C94.9416 261.883 94.9416 261.883 94.4366 263.492C92.3962 271.742 91.9729 280.865 96.4366 288.305C101.799 291.88 109.187 291.271 115.437 290.305C123.496 287.962 131.487 283.176 136.437 276.305C137.634 272.712 137.768 270.078 137.437 266.305C134.772 262.468 130.911 260.438 126.437 259.305C121.523 258.783 117.095 258.683 112.437 260.43C109.371 263.304 107.664 266.124 107.222 270.367C107.168 273.595 107.413 276.235 108.437 279.305C114.611 280.613 114.611 280.613 120.374 278.617C123.774 274.806 124.722 272.435 124.437 267.305C122.241 266.346 122.241 266.346 119.437 266.305C117.135 267.749 115.42 269.414 113.437 271.305C113.822 269.072 114.332 267.468 115.562 265.555C118.65 263.496 120.801 263.828 124.437 264.305C127.282 265.738 129.862 267.433 132.437 269.305C130.859 275.265 126.462 278.524 121.339 281.539C114.87 284.877 108.762 286.344 101.437 285.305C98.7675 283.028 98.5572 281.279 98.1358 277.875C97.7967 271.035 98.9806 265.248 102.437 259.305C107.631 253.748 114.722 250.247 122.339 249.738C124.017 249.712 125.696 249.714 127.374 249.742C128.249 249.75 129.124 249.757 130.026 249.765C137.649 249.995 143.324 251.763 149.155 256.785C150.87 258.819 150.912 260.553 150.78 263.156C148.996 274.31 143.213 282.658 134.374 289.43C121.349 298.381 108.202 303.917 92.2491 303.617C91.2473 303.606 90.2455 303.595 89.2134 303.583C63.9564 303.122 38.5627 298.814 20.4366 280.305C19.7482 279.743 19.0598 279.181 18.3506 278.602C10.5483 272.128 7.45013 260.035 6.43657 250.305C5.42317 235.338 9.48414 221.257 13.7491 207.055C14.1185 205.771 14.4876 204.487 14.8565 203.203C19.8215 186.567 28.7355 171.368 43.7256 161.852C52.1038 157.648 59.904 158.976 68.6866 161.055Z" fill="#FBFBFB"/>
<path d="M282.937 57.0549C283.648 57.0291 284.36 57.0033 285.093 56.9768C291.842 57.9217 296.276 62.6436 301.019 67.1135C303.001 68.91 304.898 70.2943 307.124 71.7424C309.437 74.3049 309.437 74.3049 309.573 76.8283C309.335 79.37 308.97 81.8097 308.437 84.3049C309.757 84.9649 311.077 85.6249 312.437 86.3049C312.803 90.8249 312.803 90.8249 311.339 92.7424C302.611 99.9113 292.393 102.508 281.316 101.789C270.205 100.402 258.664 93.8874 251.437 85.3049C248.624 81.5224 248.019 79.0041 248.437 74.3049C248.767 73.6449 249.097 72.9849 249.437 72.3049C249.21 71.5212 248.983 70.7374 248.749 69.9299C248.437 67.3049 248.437 67.3049 249.8 65.3088C253.639 62.3913 257.66 61.6612 262.312 60.6174C263.197 60.4054 264.083 60.1933 264.995 59.9748C270.92 58.5753 276.826 57.1877 282.937 57.0549Z" fill="#070707"/>
<path d="M150.804 74.9265C156.238 78.2217 162.36 82.0767 164.436 88.3049C165.072 96.0126 165.345 102.105 160.436 108.305C153.81 115.077 146.374 116.386 137.186 116.68C128.544 116.621 121.72 113.195 115.436 107.305C113.357 104.186 112.829 102.229 112.933 98.4963C114.114 93.3586 118.239 89.8603 122.401 86.9143C127.192 84.2198 130.994 83.6137 136.436 84.3049C141.767 86.2735 145.34 89.6125 148.436 94.3049C149.165 98.2711 148.813 99.7208 146.624 103.117C143.606 106.135 141.05 106.487 136.936 106.617C132.752 106.563 132.752 106.563 130.374 104.617C129.289 101.942 129.06 100.165 129.436 97.3049C131.436 95.3049 131.436 95.3049 134.811 94.9924C138.522 95.3123 139.809 95.7824 142.436 98.3049C140.936 94.4852 138.953 92.4149 135.436 90.3049C130.24 90.2068 126.3 91.9563 122.038 94.7619C120.057 96.4021 120.057 96.4021 119.436 100.117C119.436 101.169 119.436 102.221 119.436 103.305C120.894 104.285 122.352 105.264 123.811 106.242C125.03 107.06 125.03 107.06 126.272 107.895C132.078 111.678 138.865 110.877 145.534 109.809C151.108 108.482 151.108 108.482 155.733 105.211C158.009 101.328 157.891 98.3963 157.686 93.9924C157.668 93.2518 157.65 92.5113 157.632 91.7483C157.585 89.9332 157.513 88.1189 157.436 86.3049C156.882 86.0393 156.328 85.7738 155.757 85.5002C153.436 84.3049 153.436 84.3049 151.054 82.7971C141.139 76.9498 130.821 76.5061 119.78 79.1955C116.514 80.3619 113.513 81.7074 110.436 83.3049C109.517 83.778 108.598 84.2511 107.651 84.7385C101.905 88.0539 97.1581 92.1938 92.4365 96.8049C91.6079 97.6054 91.6079 97.6054 90.7626 98.4221C82.907 106.404 82.9391 113.838 82.999 124.68C82.979 125.956 82.959 127.232 82.9384 128.547C82.9421 135.581 83.0185 142.475 87.4365 148.305C89.9985 149.909 91.3073 150.299 94.374 150.43C99.5732 148.52 101.08 144.126 103.378 139.348C105.515 134.278 106.642 128.819 106.436 123.305C105.776 122.315 105.116 121.325 104.436 120.305C102.229 119.941 102.229 119.941 99.8115 120.117C98.5856 120.158 98.5856 120.158 97.3349 120.199C96.3952 120.252 96.3952 120.252 95.4365 120.305C92.0428 125.678 92.1094 130.174 92.4365 136.305C92.7252 135.336 93.014 134.366 93.3115 133.367C94.4365 130.305 94.4365 130.305 96.4365 129.305C98.4361 129.265 100.437 129.261 102.436 129.305C102.899 133.281 102.746 134.873 100.374 138.18C97.4365 140.305 97.4365 140.305 93.8115 140.867C90.4365 140.305 90.4365 140.305 88.5615 138.867C86.4263 134.004 85.6133 129.729 87.3544 124.602C89.444 120.204 91.1823 116.885 95.4365 114.305C100.634 113.727 104.064 114.423 108.436 117.305C111.271 120.612 111.973 123.589 111.784 127.942C110.514 136.574 106.931 145.491 101.436 152.305C97.4009 155.229 94.4728 155.902 89.5849 155.715C85.9587 155.023 84.5497 153.226 82.4365 150.305C77.9513 141.501 77.0736 133.201 77.0615 123.492C77.037 122.476 77.0125 121.46 76.9873 120.412C76.9416 108.482 80.4467 100.371 88.7412 91.8713C104.21 77.1421 129.544 63.7727 150.804 74.9265Z" fill="#0F0F0F"/>
<path d="M365.249 143.867C369.51 144.452 370.698 146.062 373.437 149.305C374.2 150.089 374.963 150.872 375.749 151.68C377.944 155.095 377.888 157.32 377.437 161.305C375.437 163.305 375.437 163.305 371.937 163.555C368.437 163.305 368.437 163.305 366.437 161.305C363.025 161.506 360.604 162.734 357.687 164.367C353.345 166.633 349.269 167.125 344.437 166.305C343.447 165.645 342.457 164.985 341.437 164.305C338.053 164.669 337.12 165.569 334.374 167.867C330.384 170.847 326.845 170.829 321.987 170.774C319.068 170.237 317.709 169.152 315.437 167.305C313.112 167.523 311.625 168.201 309.589 169.324C305.936 170.989 302.349 171.14 298.437 170.305C296.155 168.497 295.044 166.793 293.437 164.305C292.929 164.738 292.421 165.171 291.897 165.617C288.667 168.231 286.301 170.122 282.187 170.992C278.397 170.045 277.512 168.577 275.437 165.305C274.94 161.711 274.94 161.711 274.999 157.805C275 156.516 275.002 155.227 275.003 153.899C275.447 150.215 276.282 148.277 278.437 145.305C283.312 146.18 283.312 146.18 284.437 147.305C284.578 149.975 284.479 152.629 284.437 155.305C284.933 154.86 285.429 154.415 285.94 153.957C289.482 151.007 291.484 149.368 296.187 149.055C300.275 150.627 301.412 152.499 303.437 156.305C306.44 155.843 307.756 155.064 310.249 153.18C313.437 151.305 313.437 151.305 317.062 151.305C320.655 152.37 322.114 153.424 324.437 156.305C327.75 155.2 330.046 153.833 332.687 151.617C335.641 149.418 337.404 149.023 341.062 149.43C343.388 149.841 345.613 150.355 347.886 151.004C351.174 151.392 352.731 150.546 355.624 148.992C356.914 148.318 356.914 148.318 358.23 147.629C364.237 144.025 364.237 144.025 365.249 143.867Z" fill="#060606"/>
<path d="M395.437 60.1174C396.952 60.0961 396.952 60.0961 398.499 60.0744C401.562 60.3147 403.702 60.9255 406.437 62.3049C409.314 66.6903 409.136 72.2617 408.437 77.3049C405.661 85.9684 399.097 90.2576 391.397 94.4026C384.053 97.6518 376.269 97.279 368.874 94.4299C366.138 93.2477 364.558 92.4266 362.437 90.3049C362.812 88.1799 362.812 88.1799 363.437 86.3049C364.097 86.3049 364.757 86.3049 365.437 86.3049C365.292 85.1705 365.148 84.0362 364.999 82.8674C364.989 76.9578 368.546 73.4154 372.437 69.3049C379.157 62.6506 386.13 60.1768 395.437 60.1174Z" fill="#060606"/>
<path d="M372.436 225.305C375.247 227.099 376.946 228.324 378.436 231.305C379.028 231.198 379.62 231.091 380.229 230.981C386.68 230.002 386.68 230.002 390.249 231.43C396.102 236.447 396.102 236.447 396.823 240.453C397.013 244.385 396.982 246.479 394.753 249.852C392.301 252.448 389.912 254.187 386.874 256.055C385.924 256.648 384.974 257.241 383.995 257.852C378.58 260.927 373.934 260.885 367.936 259.492C362.629 257.055 360.225 251.141 357.436 246.305C357.106 245.975 356.776 245.645 356.436 245.305C355.636 238.452 356.348 233.869 360.436 228.305C363.731 224.657 367.769 224.444 372.436 225.305Z" fill="#050505"/>
<path d="M260.874 220.93C264.586 223.125 266.655 225.296 268.437 229.305C269.334 234.963 268.974 239.917 265.792 244.766C263.363 247.524 260.531 249.341 257.437 251.305C257.497 251.911 257.558 252.517 257.62 253.141C258.226 259.196 258.831 265.25 259.437 271.305C257.187 272.055 257.187 272.055 254.437 272.305C249.891 269.364 248.612 264.344 247.437 259.305C247.249 255.742 247.249 255.742 247.437 253.305C245.787 253.305 244.137 253.305 242.437 253.305C242.107 251.985 241.777 250.665 241.437 249.305C242.757 248.975 244.077 248.645 245.437 248.305C245.014 245.677 244.575 243.053 244.124 240.43C244.006 239.684 243.888 238.937 243.767 238.168C243.42 236.194 242.935 234.246 242.437 232.305C241.447 231.645 240.457 230.985 239.437 230.305C238.874 226.93 238.874 226.93 239.437 223.305C245.012 217.428 253.773 217.771 260.874 220.93Z" fill="#0B0B0B"/>
<path d="M301.062 242.367C304.254 243.254 306.025 244.087 308.437 246.305C307.821 251.843 307.821 251.843 305.874 254.18C305.4 254.551 304.925 254.922 304.437 255.305C306.747 255.965 309.057 256.625 311.437 257.305C311.437 258.625 311.437 259.945 311.437 261.305C305.892 265.055 301.384 267.086 294.608 266.739C291.532 266.124 290.173 264.872 288.437 262.305C287.082 259.596 287.372 257.296 287.437 254.305C285.422 254.807 285.422 254.807 283.437 256.305C282.732 258.627 282.064 260.961 281.437 263.305C278.228 265.444 277.16 265.782 273.437 265.305C271.111 261.817 271.102 260.404 271.437 256.305C272.437 253.93 272.437 253.93 273.437 252.305C271.787 251.975 270.137 251.645 268.437 251.305C268.767 249.655 269.097 248.005 269.437 246.305C273.73 245.042 276.315 245.675 280.437 247.305C280.767 246.975 281.097 246.645 281.437 246.305C283 246.337 284.563 246.406 286.124 246.492C292.245 246.597 295.245 242.267 301.062 242.367Z" fill="#0B0B0B"/>
<path d="M138.761 136.215C143.258 138.801 145.666 141.305 147.436 146.305C149.363 154.272 150.295 164.499 145.89 171.758C140.706 177.276 131.173 179.089 123.87 179.422C121.725 179.429 119.58 179.373 117.436 179.305C121.594 176.892 125.758 176.622 130.464 176.063C135.413 174.801 137.725 172.41 140.456 168.168C145.273 158.724 145.273 158.724 145.436 148.305C144.078 145.904 144.078 145.904 142.436 144.305C142.436 143.645 142.436 142.985 142.436 142.305C137.621 140.308 134.48 139.876 129.436 141.305C125.604 143.63 121.622 146.12 118.436 149.305C117.763 152.005 117.763 152.005 118.436 155.305C121.229 159.341 124.356 162.584 128.436 165.305C131.847 165.518 134.182 165.39 137.436 164.305C136.167 168.218 134.974 170.161 131.436 172.305C127.691 173.553 125.38 173.831 121.436 173.305C118.683 171.302 116.583 168.933 114.436 166.305C113.797 165.542 113.158 164.779 112.499 163.992C110.125 157.986 110.755 151.028 113.253 145.125C118.621 136.87 129.504 132.59 138.761 136.215Z" fill="#F3F3F3"/>
<path d="M286.437 68.3049C288.214 69.8322 288.214 69.8322 289.437 71.3049C288.038 74.1799 286.494 76.9245 284.874 79.6799C282.881 83.2262 281.753 86.1915 281.437 90.3049C272.129 89.2754 264.138 85.3942 256.558 79.9572C254.864 77.4614 255.241 75.2338 255.437 72.3049C279.93 66.8915 279.93 66.8915 286.437 68.3049Z" fill="#F9F9F9"/>
<path d="M328.812 242.992C331.894 243.359 333.219 244.169 335.437 246.305C335.437 246.965 335.437 247.625 335.437 248.305C336.303 247.645 337.169 246.985 338.062 246.305C341.71 244.143 343.297 243.495 347.437 244.305C350.879 247.841 352.579 250.475 352.562 255.367C352.437 259.305 352.437 259.305 351.437 260.305C349.437 260.346 347.436 260.347 345.437 260.305C344.777 258.655 344.117 257.005 343.437 255.305C342.354 256.295 342.354 256.295 341.249 257.305C338.437 259.305 338.437 259.305 335.937 259.867C332.363 259.063 330.799 257.004 328.437 254.305C328.313 254.924 328.189 255.542 328.062 256.18C327.437 258.305 327.437 258.305 325.437 260.305C322.999 260.367 322.999 260.367 320.437 259.305C318.399 255.772 317.313 253.464 317.749 249.367C317.976 248.687 318.203 248.006 318.437 247.305C319.86 246.872 319.86 246.872 321.312 246.43C324.389 245.322 325.681 243.404 328.812 242.992Z" fill="#0B0B0B"/>
<path d="M194.437 132.305C198.486 134.734 199.997 136.885 201.437 141.305C201.702 144.024 201.702 144.024 201.687 146.805C201.694 148.182 201.694 148.182 201.702 149.586C201.287 153.837 200.258 156.368 197.433 159.59C193.119 162.059 189.382 161.853 184.499 161.742C183.177 161.753 183.177 161.753 181.829 161.764C176.631 161.713 172.929 161.191 168.437 158.305C166.039 155.363 166.082 152.12 166.179 148.399C166.783 143.488 168.821 139.677 172.437 136.305C172.33 136.969 172.223 137.633 172.112 138.317C171.32 143.871 171.32 143.871 172.562 149.242C176.369 153.431 179.322 154.526 184.937 154.805C189.079 154.704 190.145 154.527 193.562 151.93C196.277 148.128 197.002 146.018 196.437 141.305C194.645 138.702 194.645 138.702 191.437 137.305C188.074 136.973 184.804 137.099 181.437 137.305C180.447 137.305 179.457 137.305 178.437 137.305C184.007 133.467 187.572 131.713 194.437 132.305Z" fill="#F0F0F0"/>
<path d="M392.437 35.3049C394.617 36.9038 396.473 38.4726 398.437 40.3049C399.892 41.5789 401.351 42.8496 402.812 44.1174C404.02 45.1792 405.229 46.2414 406.437 47.3049C406.107 48.9549 405.777 50.6049 405.437 52.3049C394.878 51.8949 394.878 51.8949 390.437 47.3049C385.604 49.1078 381.114 51.5134 376.608 54.0022C373.668 55.5393 371.842 56.3453 368.499 56.0119C367.818 55.7786 367.138 55.5453 366.437 55.3049C365.687 53.5549 365.687 53.5549 365.437 51.3049C368.557 47.5662 372.491 45.1317 376.562 42.5549C377.194 42.1437 377.827 41.7325 378.479 41.3088C383.18 38.3049 383.18 38.3049 385.437 38.3049C385.437 37.6449 385.437 36.9849 385.437 36.3049C388.097 34.9748 389.47 34.9004 392.437 35.3049Z" fill="#0A0A0A"/>
<path d="M282.437 24.3049C285.886 26.7388 286.812 30.3894 288.187 34.2424C288.635 35.4683 289.084 36.6942 289.546 37.9573C290.374 41.0708 290.634 42.3912 289.437 45.3049C288.117 45.6349 286.797 45.9649 285.437 46.3049C278.917 38.043 278.917 38.043 277.437 33.3049C275.127 34.6249 272.817 35.9449 270.437 37.3049C270.437 38.9549 270.437 40.6049 270.437 42.3049C264.046 42.6667 264.046 42.6667 261.437 41.1174C260.437 39.3049 260.437 39.3049 260.608 36.9534C261.646 33.636 263.061 32.3647 265.687 30.1174C266.455 29.4432 267.223 28.7691 268.015 28.0744C272.696 24.654 276.653 23.7694 282.437 24.3049Z" fill="#0C0C0C"/>
<path d="M401.437 66.3049C401.726 71.9022 401.621 75.4732 398.437 80.3049C395.137 83.4257 391.634 85.5711 387.437 87.3049C386.447 86.9749 385.457 86.6449 384.437 86.3049C384.498 85.2118 384.56 84.1187 384.624 82.9924C384.781 79.4141 384.781 79.4141 383.062 77.4299C381.425 76.2401 381.425 76.2401 379.437 75.3049C379.437 74.6449 379.437 73.9849 379.437 73.3049C381.373 72.3233 383.311 71.3447 385.249 70.3674C386.328 69.8221 387.407 69.2769 388.519 68.7151C393.084 66.5089 396.394 66.2098 401.437 66.3049Z" fill="#F6F6F6"/>
<path d="M137.437 145.305C140.394 148.103 141.377 149.523 141.687 153.617C141.604 154.504 141.522 155.391 141.437 156.305C138.423 154.798 137.826 152.273 136.437 149.305C134.787 149.305 133.137 149.305 131.437 149.305C131.437 150.625 131.437 151.945 131.437 153.305C132.757 153.305 134.077 153.305 135.437 153.305C136.062 156.68 136.062 156.68 136.437 160.305C134.437 162.305 134.437 162.305 131.187 162.367C126.794 161.123 125.281 159.573 122.405 156.192C121.437 154.305 121.437 154.305 121.483 152.281C122.826 149.497 124.55 148.564 127.187 146.992C128.048 146.46 128.909 145.928 129.796 145.379C132.903 144.115 134.298 144.215 137.437 145.305Z" fill="#F2F2F2"/>
<path d="M95.4365 119.305C96.8723 119.197 98.3105 119.119 99.749 119.055C100.95 118.985 100.95 118.985 102.175 118.914C104.436 119.305 104.436 119.305 106.241 121.008C107.684 123.781 107.648 125.228 107.249 128.305C107.152 129.151 107.056 129.996 106.956 130.867C106.438 133.298 105.65 135.147 104.436 137.305C103.446 137.305 102.456 137.305 101.436 137.305C101.766 134.665 102.096 132.025 102.436 129.305C99.7965 129.965 97.1565 130.625 94.4365 131.305C94.1065 132.625 93.7765 133.945 93.4365 135.305C94.0965 135.635 94.7565 135.965 95.4365 136.305C94.4465 136.305 93.4565 136.305 92.4365 136.305C90.8286 133.089 90.9544 129.792 91.4365 126.305C92.5442 123.727 93.8691 121.656 95.4365 119.305Z" fill="#EBEBEB"/>
<path d="M177.437 138.305C178.097 139.625 178.757 140.945 179.437 142.305C180.365 142.026 180.365 142.026 181.312 141.742C183.437 141.305 183.437 141.305 185.437 142.305C185.437 141.645 185.437 140.985 185.437 140.305C190.187 141.18 190.187 141.18 192.437 142.305C192.917 147.705 192.917 147.705 190.937 150.18C187.401 151.771 184.195 152.085 180.437 151.305C177.374 149.242 177.374 149.242 175.437 146.305C175.643 140.098 175.643 140.098 177.437 138.305Z" fill="#F4F4F4"/>
<path d="M334.124 107.617C335.269 107.958 335.269 107.958 336.437 108.305C337.401 112.198 337.428 115.506 337.062 119.492C336.971 120.538 336.881 121.583 336.788 122.66C336.437 125.305 336.437 125.305 335.437 127.305C333.062 127.117 333.062 127.117 330.437 126.305C328.581 122.74 328.14 119.667 328.124 115.68C328.107 114.739 328.091 113.798 328.073 112.828C328.437 110.305 328.437 110.305 329.788 108.449C331.437 107.305 331.437 107.305 334.124 107.617Z" fill="#060606"/>
<path d="M146.437 151.305C147.097 151.305 147.757 151.305 148.437 151.305C149.195 166.311 149.195 166.311 145.89 171.758C140.706 177.276 131.173 179.089 123.87 179.422C121.725 179.429 119.58 179.373 117.437 179.305C121.594 176.892 125.758 176.622 130.464 176.063C135.47 174.786 137.755 172.419 140.421 168.063C141.022 166.858 141.61 165.647 142.187 164.43C142.489 163.83 142.792 163.231 143.104 162.613C144.934 158.864 145.956 155.443 146.437 151.305Z" fill="#D7D7D7"/>
<path d="M250.437 227.305C254.05 226.969 256.063 227.11 259.312 228.805C261.731 231.651 262.16 233.539 261.937 237.266C261.047 240.895 259.118 242.751 256.437 245.305C255.777 245.305 255.117 245.305 254.437 245.305C253.765 242.869 253.099 240.431 252.437 237.992C252.15 236.957 252.15 236.957 251.858 235.901C251.059 232.947 250.437 230.379 250.437 227.305Z" fill="#F8F8F8"/>
<path d="M124.437 264.305C127.282 265.738 129.862 267.433 132.437 269.305C131.048 274.55 127.711 277.269 123.437 280.305C120.499 281.68 120.499 281.68 118.437 282.305C118.107 281.645 117.777 280.985 117.437 280.305C118.22 279.727 119.004 279.15 119.812 278.555C122.296 276.425 123.422 275.348 124.437 272.305C124.604 269.638 124.604 269.638 124.437 267.305C122.241 266.346 122.241 266.346 119.437 266.305C117.135 267.749 115.42 269.414 113.437 271.305C113.822 269.072 114.331 267.468 115.562 265.555C118.65 263.496 120.801 263.828 124.437 264.305Z" fill="#E2E2E2"/>
<path d="M384.437 239.305C385.757 239.965 387.077 240.625 388.437 241.305C387.875 244.842 386.741 246.298 383.999 248.555C383.382 249.076 382.764 249.596 382.128 250.133C380.437 251.305 380.437 251.305 378.437 251.305C378.062 249.242 378.062 249.242 378.437 246.305C380.228 243.769 382.279 241.533 384.437 239.305Z" fill="#E5E5E5"/>
<path d="M367.437 233.305C369.499 233.742 369.499 233.742 371.437 234.305C371.767 236.615 372.097 238.925 372.437 241.305C371.859 240.996 371.282 240.686 370.687 240.367C368.594 239.379 366.691 238.788 364.437 238.305C366.312 234.43 366.312 234.43 367.437 233.305Z" fill="#DCDCDC"/>
<path d="M182.437 245.305C182.767 246.955 183.097 248.605 183.437 250.305C181.457 251.295 181.457 251.295 179.437 252.305C179.096 251.346 179.096 251.346 178.749 250.367C177.584 248.033 177.584 248.033 174.812 247.555C174.028 247.472 173.244 247.39 172.437 247.305C176.081 244.875 178.149 245.143 182.437 245.305Z" fill="#DDDDDD"/>
<path d="M146.437 151.305C147.097 151.305 147.757 151.305 148.437 151.305C148.437 155.925 148.437 160.545 148.437 165.305C148.107 165.305 147.777 165.305 147.437 165.305C147.292 164.542 147.148 163.779 146.999 162.992C146.473 160.223 146.473 160.223 145.437 157.305C145.712 155.296 146.039 153.293 146.437 151.305Z" fill="#C7C7C7"/>
<path d="M184.437 133.305C187.437 134.305 187.437 134.305 188.437 136.305C181.812 137.305 181.812 137.305 178.437 137.305C181.249 135.242 181.249 135.242 184.437 133.305Z" fill="#C7C7C7"/>
<path d="M297.437 248.305C298.757 248.305 300.077 248.305 301.437 248.305C301.107 249.295 300.777 250.285 300.437 251.305C298.787 251.635 297.137 251.965 295.437 252.305C296.097 250.985 296.757 249.665 297.437 248.305Z" fill="#D0D0D0"/>
<path d="M184.437 125.305C185.427 125.635 186.417 125.965 187.437 126.305C184.191 128.345 181.03 129.97 177.437 131.305C179.694 128.97 181.717 127.118 184.437 125.305Z" fill="#D6D6D6"/>
</svg>
