<svg width="714" height="545" viewBox="0 0 714 545" fill="none" xmlns="http://www.w3.org/2000/svg">
<path d="M192.125 95.4609C196.681 96.0165 196.681 96.0165 198.125 97.4609C198.213 99.5336 198.232 101.609 198.223 103.684C198.219 104.944 198.216 106.204 198.213 107.502C198.205 108.842 198.196 110.183 198.188 111.523C198.182 112.868 198.178 114.212 198.174 115.557C198.162 118.858 198.146 122.16 198.125 125.461C199.481 125.412 199.481 125.412 200.865 125.362C208.278 125.207 214.422 125.511 221.312 128.273C222.035 128.534 222.758 128.796 223.502 129.064C230.157 131.567 230.157 131.567 232.125 134.461C231.704 138.882 231.704 138.882 230.125 140.461C228.503 140.623 226.877 140.739 225.25 140.836C215.536 141.421 215.536 141.421 207.125 145.461C208.136 146.162 209.146 146.863 210.188 147.586C216.396 152.884 220.256 161.419 221.945 169.277C222.005 170.328 222.064 171.379 222.125 172.461C221.465 173.121 220.805 173.781 220.125 174.461C218.125 174.461 218.125 174.461 216.125 173.461C215.816 172.492 215.506 171.522 215.188 170.523C214.837 169.513 214.486 168.502 214.125 167.461C211.857 166.317 211.857 166.317 209.125 165.461C208.205 165.119 207.284 164.778 206.336 164.426C204.932 163.917 204.932 163.917 203.5 163.398C202.088 162.886 202.088 162.886 200.648 162.363C198.815 161.708 196.972 161.077 195.125 160.461C197.267 166.966 199.502 173.434 201.785 179.891C202.304 181.361 202.304 181.361 202.834 182.862C206.583 193.47 210.354 204.069 214.131 214.667C215.018 217.161 215.903 219.656 216.786 222.151C218.093 225.843 219.419 229.528 220.75 233.211C221.102 234.211 221.454 235.211 221.817 236.242C228.115 253.456 237.541 265.694 254.125 273.461C256.842 274.286 256.842 274.286 259.125 274.461C259.455 274.131 259.785 273.801 260.125 273.461C261.791 273.42 263.459 273.418 265.125 273.461C264.518 279.89 264.518 279.89 262.875 282.273C258.92 284.957 255.022 285.745 250.312 286.086C248.849 286.198 248.849 286.198 247.355 286.312C246.619 286.361 245.883 286.41 245.125 286.461C249.195 292.609 254.046 297.28 259.637 302.066C262.063 304.401 263.466 306.561 265.125 309.461C265.184 308.637 265.244 307.813 265.305 306.964C267.096 283.254 270.046 261.409 282.125 240.461C282.606 239.617 283.087 238.772 283.582 237.902C287.832 231.031 293.581 225.291 299.125 219.461C286.529 220.566 267.92 222.264 257.125 229.461C256.135 229.461 255.145 229.461 254.125 229.461C253.625 227.273 253.625 227.273 254.125 224.461C261.279 218.24 271.118 216.632 280.125 214.461C280.811 214.293 281.498 214.125 282.205 213.952C288.934 212.34 295.136 211.323 302.062 211.586C307.456 211.758 310.135 210.751 314.422 207.59C317.109 205.809 319.022 205.84 322.125 206.461C326.344 208.816 327.83 211.471 329.431 215.951C330.832 221.02 331.266 226.243 331.812 231.461C331.942 232.617 332.072 233.774 332.205 234.965C332.521 237.796 332.827 240.628 333.125 243.461C335.743 242.051 338.034 240.589 340.125 238.461C340.507 235.524 340.526 233.624 340.188 230.773C339.764 223.081 340.911 218.42 346.125 212.461C362.699 194.454 391.367 176.579 416.262 175.3C419.904 175.254 423.545 175.226 427.188 175.211C428.435 175.19 429.682 175.17 430.967 175.148C443.111 175.098 453.754 177.213 464.625 182.648C465.431 183.042 466.237 183.436 467.068 183.841C477.717 189.128 487.664 195 496.125 203.461C496.266 206.132 496.167 208.785 496.125 211.461C497.115 211.337 498.105 211.213 499.125 211.086C505.092 211.062 509.135 215.531 513.188 219.461C513.827 220.121 514.466 220.781 515.125 221.461C515.717 221.912 516.308 222.363 516.918 222.828C521.938 226.696 521.938 226.696 522.875 230.523C521.898 234.351 520.09 235.93 517.125 238.461C516.795 238.791 516.465 239.121 516.125 239.461C516.991 239.812 517.858 240.162 518.75 240.523C523.652 243.338 527.319 247.044 529.125 252.461C530.276 261.505 526.148 268.436 520.816 275.535C515.458 281.797 510.276 286.876 501.785 287.684C499.562 287.711 499.562 287.711 496.125 287.461C495.562 285.523 495.562 285.523 495.125 283.461C496.636 281.95 498.295 281.979 500.375 281.586C508.201 279.858 512.424 275.8 517.125 269.461C520.518 264.019 523.284 259.029 522.125 252.461C519.925 248.925 517.959 246.999 514.125 245.461C512.051 245.176 509.964 244.972 507.875 244.836C506.797 244.761 505.72 244.686 504.609 244.609C503.38 244.536 503.38 244.536 502.125 244.461C501.795 242.811 501.465 241.161 501.125 239.461C505.831 234.875 509.66 233.424 516.125 232.461C515.47 229.374 515.47 229.374 513.227 228.398C506.947 226.021 500.637 224.095 494.125 222.461C493.795 220.811 493.465 219.161 493.125 217.461C489.825 218.451 486.525 219.441 483.125 220.461C484.347 222.536 484.347 222.536 485.594 224.652C488.724 230.923 488.804 236.498 488.625 243.398C488.628 244.521 488.63 245.643 488.633 246.799C488.534 255.027 488.534 255.027 486.578 257.104C486.098 257.552 485.619 257.999 485.125 258.461C485.375 261.726 485.375 261.726 486.125 265.461C487.506 280.941 487.506 280.941 484.785 285.906C483.125 287.586 483.125 287.586 481.438 288.781C479.196 291.649 479.784 295.014 480.125 298.461C480.603 300.813 481.171 303.148 481.812 305.461C483.664 312.372 485.153 319.322 486.562 326.336C491.079 351.304 491.079 351.304 504.125 372.461C506.71 374.106 509.168 374.747 512.125 375.461C513.125 376.461 513.125 376.461 513.188 379.023C513.167 379.828 513.146 380.632 513.125 381.461C510.625 382.336 510.625 382.336 507.125 382.461C495.399 376.574 489.081 364.887 484.937 353.075C481.464 342.416 479.283 331.746 477.375 320.711C476.922 318.149 476.466 315.587 476.009 313.025C475.729 311.45 475.452 309.874 475.177 308.297C474.485 304.311 474.485 304.311 473.593 300.367C472.484 295.852 472.739 291.075 473.812 286.586C475.125 284.461 475.125 284.461 477.68 283.375C480.248 281.772 480.248 281.772 480.565 279.647C480.692 277.317 480.658 275.042 480.562 272.711C480.557 271.925 480.551 271.138 480.545 270.328C480.442 265.391 479.833 261.106 478.125 256.461C477.465 256.131 476.805 255.801 476.125 255.461C476.125 254.801 476.125 254.141 476.125 253.461C477.775 253.461 479.425 253.461 481.125 253.461C481.27 249.211 481.359 244.962 481.438 240.711C481.479 239.504 481.521 238.298 481.564 237.055C481.581 235.895 481.597 234.734 481.613 233.539C481.639 232.471 481.666 231.402 481.693 230.302C481.359 227.256 481.359 227.256 478.759 225.112C475.823 223.272 474.511 222.748 471.125 223.461C468.199 225.864 467.916 228.308 467.562 231.898C467.501 232.68 467.439 233.461 467.375 234.266C467.075 236.901 466.277 239.08 465.125 241.461C460.25 240.586 460.25 240.586 459.125 239.461C459.084 237.795 459.082 236.127 459.125 234.461C458.465 234.213 457.805 233.966 457.125 233.711C454.125 232.461 454.125 232.461 452.328 231.438C447.27 228.585 442.928 227.367 437.125 228.461C431.794 231.369 429.274 233.874 427.125 239.461C426.125 240.461 426.125 240.461 423.562 240.523C422.758 240.503 421.954 240.482 421.125 240.461C420.795 239.141 420.465 237.821 420.125 236.461C414.488 236.38 410.173 236.844 405.688 240.461C401.802 244.236 400.262 248.236 399.125 253.461C399.785 253.461 400.445 253.461 401.125 253.461C400.795 255.111 400.465 256.761 400.125 258.461C395.375 257.711 395.375 257.711 393.125 255.461C392.237 251.422 392.502 247.79 394.258 244.043C398.514 237.391 404.097 231.238 412.125 229.461C414.126 229.483 416.127 229.549 418.125 229.648C422.531 229.786 424.764 229.581 428.062 226.586C429.085 225.546 430.106 224.505 431.125 223.461C435.54 220.905 440.154 220.826 445.125 221.461C450.91 223.07 456.04 225.269 461.125 228.461C461.352 227.76 461.579 227.058 461.812 226.336C463.486 222.669 465.202 220.257 468.125 217.461C470.894 216.67 473.212 216.56 476.125 216.461C475.795 215.141 475.465 213.821 475.125 212.461C479.797 211.255 484.34 211.367 489.125 211.461C489.891 208.72 489.891 208.72 489.125 205.461C486.399 202.943 483.233 201.253 480 199.461C479.089 198.938 478.179 198.414 477.241 197.875C470.096 193.837 462.872 190.209 455.125 187.461C454.444 187.196 453.763 186.931 453.061 186.658C445.923 184.145 438.903 184.002 431.413 184.07C429.326 184.086 427.241 184.07 425.154 184.051C412.505 184.027 401.319 186.287 389.938 191.898C389.049 192.33 388.16 192.762 387.245 193.207C374 199.824 361.639 207.991 351.125 218.461C350.55 218.899 349.975 219.338 349.383 219.789C347.386 222.443 347.841 224.902 347.938 228.148C347.965 229.328 347.992 230.507 348.02 231.723C348.054 232.626 348.089 233.53 348.125 234.461C349.445 235.121 350.765 235.781 352.125 236.461C351.795 238.771 351.465 241.081 351.125 243.461C353.435 243.461 355.745 243.461 358.125 243.461C358.125 244.781 358.125 246.101 358.125 247.461C350.243 250.938 342.603 250.547 334.125 250.461C333.465 255.411 332.805 260.361 332.125 265.461C333.445 265.461 334.765 265.461 336.125 265.461C336.125 266.451 336.125 267.441 336.125 268.461C334.64 269.451 334.64 269.451 333.125 270.461C333.799 273.457 333.799 273.457 335.688 274.586C341.948 276.833 348.862 276.623 355.438 276.586C356.274 276.584 357.111 276.582 357.973 276.58C363.206 276.544 368.344 276.264 373.547 275.684C378.397 275.265 383.262 275.385 388.125 275.461C388.455 276.451 388.785 277.441 389.125 278.461C388.795 279.121 388.465 279.781 388.125 280.461C385.973 281.059 385.973 281.059 383.188 281.523C382.292 281.679 381.396 281.835 380.473 281.996C371.878 283.189 363.427 283.643 354.75 283.648C353.684 283.661 352.618 283.673 351.52 283.686C350.495 283.687 349.47 283.689 348.414 283.691C347.493 283.696 346.572 283.7 345.624 283.704C343.005 283.449 341.374 282.788 339.125 281.461C339.835 282.509 340.546 283.557 341.277 284.637C342.206 286.016 343.134 287.394 344.062 288.773C344.531 289.464 345 290.154 345.482 290.865C345.93 291.532 346.378 292.199 346.84 292.887C347.254 293.499 347.667 294.112 348.094 294.743C349.125 296.461 349.125 296.461 350.125 299.461C351.362 299.275 352.6 299.09 353.875 298.898C356.231 298.545 357.774 298.351 360.062 299.066C363.035 299.635 364.655 298.605 367.375 297.336C372.329 295.154 377.271 293.358 382.438 291.773C383.423 291.471 383.423 291.471 384.429 291.162C387.576 290.206 390.67 289.345 393.891 288.66C397.953 287.154 398.664 285.788 400.562 281.961C408.257 267.634 419.532 256.757 434.125 249.461C439.139 249.083 442.13 249.33 446.125 252.461C458.662 266.652 459.167 288.513 458.125 306.461C456.409 330.213 450.358 356.39 439.125 377.461C438.573 378.545 438.022 379.629 437.453 380.746C433.056 388.861 427.236 395.609 421.125 402.461C419.805 402.131 418.485 401.801 417.125 401.461C416.487 399.667 416.487 399.667 416.125 397.461C417.833 394.918 419.563 392.631 421.5 390.273C436.323 371.364 442.539 350.726 447.125 327.461C447.325 326.473 447.526 325.484 447.732 324.466C452.054 302.948 454.537 279.455 443.125 259.461C442.465 258.471 441.805 257.481 441.125 256.461C434.708 255.516 431.124 258.639 426.09 262.191C417.951 268.422 411.284 275.992 407.246 285.539C407.073 288.292 408.476 289.318 410.125 291.461C412.3 303.55 406.228 313.902 400.123 323.803C397.745 327.784 396.305 330.677 397.125 335.461C398.115 336.121 399.105 336.781 400.125 337.461C400.125 338.451 400.125 339.441 400.125 340.461C399.465 340.461 398.805 340.461 398.125 340.461C397.465 341.781 396.805 343.101 396.125 344.461C387.021 344.27 387.021 344.27 383.562 341.148C382.125 338.461 382.125 338.461 381.688 336.273C381.502 335.675 381.316 335.077 381.125 334.461C379.473 333.759 377.803 333.099 376.125 332.461C374.412 331.553 372.704 330.635 371 329.711C360.246 324.307 343.45 316.699 331.285 319.953C328.045 320.715 324.808 320.565 321.5 320.523C320.819 320.519 320.139 320.514 319.438 320.51C317.667 320.498 315.896 320.48 314.125 320.461C312.094 320.362 312.094 320.362 310.125 321.086C309.465 321.21 308.805 321.333 308.125 321.461C307.465 320.801 306.805 320.141 306.125 319.461C306.438 317.648 306.438 317.648 307.125 315.461C308.116 311.468 308.138 307.876 308 303.773C307.973 290.523 313.839 278.389 321.125 267.461C322.445 267.461 323.765 267.461 325.125 267.461C325.52 246.307 325.52 246.307 324.25 225.211C324.172 224.451 324.093 223.692 324.012 222.909C323.584 219.396 323.125 217.46 321.125 214.461C317.916 213.881 316.548 214.175 313.836 216.008C311.233 218.463 308.655 220.93 306.125 223.461C305.197 224.389 304.269 225.317 303.312 226.273C290.058 239.927 282.763 255.91 278.312 274.211C278.105 275.062 277.898 275.913 277.685 276.789C275.056 288.273 274.894 299.923 274.562 311.648C274.519 313.092 274.476 314.535 274.432 315.979C274.326 319.473 274.224 322.967 274.125 326.461C275.445 326.791 276.765 327.121 278.125 327.461C276.843 330.321 275.633 332.531 273.125 334.461C271.805 334.461 270.485 334.461 269.125 334.461C269.13 335.541 269.135 336.621 269.141 337.734C269.159 341.733 269.17 345.733 269.18 349.732C269.185 351.464 269.192 353.197 269.2 354.929C269.213 357.416 269.218 359.903 269.223 362.391C269.228 363.168 269.233 363.945 269.238 364.746C269.239 370.233 269.239 370.233 268.125 372.461C266.589 372.67 265.052 372.872 263.512 373.043C258.258 373.963 253.192 375.823 248.125 377.461C249.187 377.836 250.249 378.211 251.344 378.598C266.372 384 266.372 384 272.125 388.461C272.879 390.484 272.879 390.484 273.125 392.461C272.795 393.121 272.465 393.781 272.125 394.461C270.059 394.875 270.059 394.875 267.562 395.086C266.323 395.198 266.323 395.198 265.059 395.312C264.421 395.361 263.782 395.41 263.125 395.461C264.332 395.832 264.332 395.832 265.562 396.211C268.125 397.461 268.125 397.461 268.938 399.586C268.999 400.205 269.061 400.823 269.125 401.461C265.064 405.076 260.958 407.045 256 409.086C250.384 411.419 250.384 411.419 245.125 414.461C251.577 416.815 257.627 416.658 264.438 416.523C266.6 416.489 268.763 416.459 270.926 416.434C271.876 416.416 272.827 416.398 273.806 416.379C276.125 416.461 276.125 416.461 278.125 417.461C278.125 418.451 278.125 419.441 278.125 420.461C279.383 420.853 280.641 421.245 281.938 421.648C286.469 423.145 290.688 425.064 294.961 427.18C303.432 430.61 312.022 432.003 321.062 432.961C341.416 435.341 341.416 435.341 350.375 440.211C355.2 442.794 357.845 442.826 363.125 441.461C366.604 440.084 368.222 438.369 370.375 435.336C370.896 434.611 371.417 433.887 371.953 433.141C372.34 432.586 372.727 432.032 373.125 431.461C380.023 432.004 386.033 434.521 392.438 437.023C394.599 437.861 396.762 438.696 398.926 439.527C399.876 439.898 400.827 440.269 401.806 440.651C404.03 441.571 404.03 441.571 406.125 441.461C402.495 439.481 398.865 437.501 395.125 435.461C395.125 430.461 395.125 430.461 396.125 429.461C402.187 430.123 408.074 431.507 414.016 432.84C417.087 433.559 417.087 433.559 420.125 433.461C418.934 432.573 418.934 432.573 417.719 431.668C416.698 430.878 415.677 430.088 414.625 429.273C413.604 428.496 412.583 427.719 411.531 426.918C409.125 424.461 409.125 424.461 408.719 421.723C409.125 419.461 409.125 419.461 410.125 418.461C414.624 418.87 418.984 419.605 423.41 420.504C424.297 420.683 425.184 420.863 426.098 421.048C426.767 421.184 427.436 421.32 428.125 421.461C427.56 421.118 426.995 420.776 426.413 420.423C423.852 418.863 421.301 417.287 418.75 415.711C417.416 414.903 417.416 414.903 416.055 414.078C414.779 413.285 414.779 413.285 413.477 412.477C412.691 411.995 411.906 411.513 411.096 411.017C408.959 409.33 408.131 407.963 407.125 405.461C407.785 404.801 408.445 404.141 409.125 403.461C414.778 404.03 419.49 406.989 424.438 409.586C425.35 410.047 426.262 410.509 427.201 410.984C433.07 414.047 438.749 417.396 443.125 422.461C443.688 425.836 443.688 425.836 443.125 428.461C442.125 429.461 442.125 429.461 438.527 429.559C437.039 429.552 435.551 429.54 434.062 429.523C433.304 429.519 432.545 429.514 431.764 429.51C429.884 429.498 428.005 429.48 426.125 429.461C430.085 432.926 430.085 432.926 434.125 436.461C433.125 441.461 433.125 441.461 432.125 442.461C429.939 442.534 427.75 442.545 425.562 442.523C424.365 442.514 423.167 442.505 421.934 442.496C421.007 442.484 420.08 442.473 419.125 442.461C422.425 445.101 425.725 447.741 429.125 450.461C428.795 452.111 428.465 453.761 428.125 455.461C423.804 456.686 420.92 456.16 416.625 454.961C415.99 454.784 415.355 454.606 414.7 454.424C402.711 450.996 390.658 447.258 379.357 441.963C377.067 441.206 377.067 441.206 374.895 442.531C373.577 443.569 372.298 444.659 371.055 445.785C366.726 449.544 361.049 451.102 355.344 450.883C352.622 450.365 350.397 449.359 347.875 448.211C336.926 443.331 324.725 441.764 312.875 440.586C300.341 439.111 290.42 434.604 280.233 427.377C274.364 423.478 268.916 423.547 262.125 424.461C264.341 429.576 267.138 432.947 271.062 436.773C271.632 437.335 272.201 437.897 272.787 438.476C280.359 445.808 288.665 453.652 299.312 455.523C304.022 456.358 304.022 456.358 305.125 457.461C305.25 459.961 305.25 459.961 305.125 462.461C304.125 463.461 304.125 463.461 301.465 463.594C299.781 463.59 299.781 463.59 298.062 463.586C296.299 463.582 296.299 463.582 294.5 463.578C291.749 463.483 289.258 463.211 286.562 462.711C283.098 462.054 283.098 462.054 281 464.273C280.381 464.995 279.762 465.717 279.125 466.461C273.466 469.29 267.293 468.641 261.125 468.461C260.506 469.575 259.887 470.688 259.25 471.836C257.992 474.1 256.979 475.607 255.125 477.461C251.227 478.081 249.565 477.754 246.258 475.547C242.197 472.003 240.103 467.415 237.75 462.648C237.3 461.765 236.85 460.881 236.387 459.971C235.287 457.807 234.2 455.637 233.125 453.461C229.053 460.702 226.515 468.095 224.181 476.034C223.942 476.835 223.703 477.636 223.457 478.461C223.248 479.183 223.039 479.905 222.823 480.648C222.125 482.461 222.125 482.461 220.125 484.461C217.75 484.586 217.75 484.586 215.125 483.461C211.213 476.706 208.907 469.401 206.438 462.023C205.644 459.67 204.849 457.317 204.051 454.965C203.704 453.932 203.358 452.899 203.001 451.834C202.342 449.538 202.342 449.538 201.125 448.461C188.088 468.372 188.088 468.372 187.75 491.34C187.977 492.287 188.204 493.235 188.438 494.211C188.668 495.194 188.899 496.178 189.137 497.191C189.789 499.951 190.454 502.706 191.125 505.461C191.397 506.58 191.669 507.699 191.949 508.852C193.597 515.215 195.831 521.343 198.137 527.492C199.125 530.461 199.125 530.461 199.125 533.461C199.702 533.131 200.28 532.801 200.875 532.461C203.125 531.461 203.125 531.461 207.125 531.461C208.719 534.648 208.507 537.992 208.125 541.461C207 543.523 207 543.523 205.125 544.461C199.69 544.026 199.69 544.026 198.125 542.461C196.317 542.279 194.502 542.162 192.687 542.072C191.526 542.012 190.365 541.952 189.169 541.89C187.905 541.83 186.642 541.769 185.34 541.707C184.054 541.642 182.768 541.577 181.443 541.51C178.019 541.336 174.594 541.168 171.17 541.002C167.677 540.831 164.185 540.654 160.693 540.479C153.837 540.134 146.981 539.796 140.125 539.461C139 535.711 139 535.711 140.125 533.461C120.729 532.765 120.729 532.765 102.125 537.461C99.4219 538.215 99.4219 538.215 97.125 538.461C96.465 537.801 95.805 537.141 95.125 536.461C95.3282 533.916 95.7533 532.798 97.6562 531.074C98.6308 530.43 98.6308 530.43 99.625 529.773C115.408 518.436 126.32 500.487 130.125 481.461C130.948 476.147 131.555 470.808 132.125 465.461C131.328 465.739 130.531 466.017 129.71 466.303C126.746 467.331 123.779 468.349 120.809 469.361C119.526 469.801 118.243 470.244 116.962 470.691C115.119 471.334 113.27 471.962 111.422 472.59C110.312 472.972 109.201 473.354 108.058 473.748C105.175 474.449 103.833 474.563 101.125 473.461C100.795 473.131 100.465 472.801 100.125 472.461C100.301 469.77 100.743 467.132 101.125 464.461C99.475 464.461 97.825 464.461 96.125 464.461C95.795 462.811 95.465 461.161 95.125 459.461C98.4873 456.837 100.592 455.523 104.875 455.023C105.947 455.168 107.02 455.312 108.125 455.461C110.277 458.689 110.326 459.745 110.125 463.461C111.075 463.159 112.026 462.857 113.005 462.546C144.759 452.471 144.759 452.471 157.438 448.773C158.659 448.409 158.659 448.409 159.905 448.037C164.098 446.837 167.714 446.201 172.125 446.461C172.455 448.111 172.785 449.761 173.125 451.461C172.135 452.121 171.145 452.781 170.125 453.461C168.858 458.962 170.293 463.779 172.859 468.637C174.401 470.974 174.401 470.974 178.125 474.461C178.455 470.501 178.785 466.541 179.125 462.461C183.125 461.461 183.125 461.461 185.125 461.461C186.601 459.32 187.968 457.182 189.312 454.961C192.809 449.332 196.506 444.243 201.125 439.461C203.446 439.565 203.446 439.565 206.125 440.461C207.687 443.189 207.687 443.189 208.984 446.797C209.219 447.432 209.454 448.067 209.696 448.722C210.441 450.753 211.158 452.794 211.875 454.836C212.372 456.204 212.871 457.571 213.371 458.938C215.008 463.427 216.614 467.927 218.125 472.461C218.333 471.901 218.54 471.342 218.754 470.766C220.842 465.332 223.209 460.1 225.812 454.898C226.277 453.969 226.277 453.969 226.75 453.021C228.99 448.596 228.99 448.596 230.125 447.461C232.875 447.086 232.875 447.086 236.125 447.461C240.671 451.202 242.81 455.355 245.188 460.586C247.943 466.992 247.943 466.992 253.125 471.461C253.941 470.193 254.753 468.921 255.562 467.648C256.241 466.587 256.241 466.587 256.934 465.504C258.266 463.38 258.266 463.38 259.125 460.461C258.135 460.131 257.145 459.801 256.125 459.461C256.25 457.586 256.25 457.586 257.125 455.461C258.548 454.997 258.548 454.997 260 454.523C263.804 453.23 264.31 451.909 266.125 448.461C266.785 448.461 267.445 448.461 268.125 448.461C267.795 450.111 267.465 451.761 267.125 453.461C270.095 453.461 273.065 453.461 276.125 453.461C275.486 452.842 274.846 452.223 274.188 451.586C257.279 434.581 257.279 434.581 257.004 427.227C257.044 426.314 257.084 425.401 257.125 424.461C256.112 424.363 255.099 424.265 254.055 424.164C252.703 424.014 251.351 423.863 250 423.711C249.335 423.649 248.67 423.587 247.984 423.523C243.093 422.948 239.943 421.55 236.125 418.461C235.312 416.086 235.312 416.086 236.125 413.461C240.913 407.512 248.371 404.589 255.125 401.461C250.67 399.976 250.67 399.976 246.125 398.461C245.795 396.811 245.465 395.161 245.125 393.461C248.817 389.923 252.219 389.87 257.125 389.461C257.125 388.801 257.125 388.141 257.125 387.461C256.263 387.324 255.4 387.188 254.512 387.047C251.288 386.489 248.121 385.837 244.938 385.086C243.913 384.851 242.888 384.617 241.832 384.375C239.086 383.448 237.828 382.777 236.125 380.461C236.062 378.023 236.062 378.023 237.125 375.461C241.62 371.943 245.979 370.338 251.375 368.836C256.704 367.516 256.704 367.516 261.125 364.461C261.481 361.909 261.481 361.909 261.504 358.93C261.538 357.808 261.572 356.687 261.607 355.531C261.647 353.764 261.647 353.764 261.688 351.961C261.896 344.083 262.195 336.291 263.125 328.461C264.115 328.131 265.105 327.801 266.125 327.461C265.795 323.501 265.465 319.541 265.125 315.461C263.475 315.461 261.825 315.461 260.125 315.461C257.961 313.53 256.178 311.711 254.312 309.523C253.786 308.924 253.259 308.324 252.716 307.706C251.66 306.504 250.608 305.298 249.562 304.088C248.379 302.749 247.138 301.462 245.883 300.191C241.295 295.521 238.162 290.369 235.062 284.648C234.656 283.906 234.249 283.164 233.829 282.399C233.462 281.691 233.094 280.983 232.715 280.254C232.383 279.62 232.052 278.986 231.711 278.333C230.983 276.007 231.398 274.752 232.125 272.461C232.125 268.925 228.812 266.786 226.461 264.336C220.589 257.109 216.933 249.172 213.812 240.461C213.436 239.433 213.06 238.406 212.673 237.347C211.476 234.057 210.298 230.76 209.125 227.461C208.728 226.349 208.331 225.236 207.922 224.09C203.969 212.969 200.098 201.843 196.877 190.485C194.573 182.386 191.837 174.43 189.125 166.461C184.869 173.493 184.869 173.493 183.125 181.461C183.785 181.461 184.445 181.461 185.125 181.461C185.125 182.451 185.125 183.441 185.125 184.461C183.25 184.211 183.25 184.211 181.125 183.461C179.992 181.414 179.992 181.414 179.125 179.461C178.814 180.019 178.503 180.576 178.182 181.151C171.598 192.912 164.858 204.418 157.125 215.461C156.381 216.538 156.381 216.538 155.622 217.636C148.919 227.31 141.984 236.419 133.729 244.817C132.008 246.581 130.323 248.375 128.637 250.172C117.742 261.61 105.52 270.197 92.125 278.461C95.5833 278.52 99.0414 278.555 102.5 278.586C103.948 278.611 103.948 278.611 105.426 278.637C116.368 278.919 116.368 278.919 126.177 274.903C129.095 272.743 131.608 273.196 135.125 273.461C136.125 274.461 136.125 274.461 136.188 277.023C136.167 277.828 136.146 278.632 136.125 279.461C135.459 279.708 134.792 279.956 134.105 280.211C126.266 283.719 122.744 288.288 118.259 295.277C108.177 310.862 95.8855 318.263 78.125 322.461C86.4224 322.682 94.5726 321.82 102.812 320.961C104.901 320.745 106.99 320.53 109.08 320.319C110.967 320.128 112.854 319.932 114.741 319.736C117.896 319.48 120.962 319.336 124.125 319.461C125.125 320.461 125.125 320.461 125.562 322.773C125.418 323.66 125.274 324.547 125.125 325.461C123.733 326.412 122.33 327.351 120.887 328.223C114.212 332.914 110.791 340.84 107.188 347.898C97.0053 367.754 78.7252 382.676 58.125 391.461C55.2739 391.918 53.0516 391.705 50.125 391.461C49.465 390.801 48.805 390.141 48.125 389.461C48.1719 386.98 48.1719 386.98 49.125 384.461C51.3906 383.16 51.3906 383.16 54.375 382.148C60.4146 379.867 65.5846 376.907 71.0156 373.438C73.8022 371.666 76.6282 370.026 79.5 368.398C93.3885 359.976 99.8752 344.401 107.125 330.461C96.2221 330.932 85.4682 332.06 74.6448 333.445C73.6134 333.575 72.5821 333.705 71.5195 333.84C70.1405 334.019 70.1405 334.019 68.7336 334.201C66.1674 334.457 63.7015 334.578 61.125 334.461C60.125 333.461 60.125 333.461 59.9375 331.023C60.125 328.461 60.125 328.461 62.125 326.461C63.115 326.461 64.105 326.461 65.125 326.461C65.3519 325.739 65.5787 325.017 65.8125 324.273C68.7376 318.005 73.8805 314.842 80.125 312.461C82.4331 311.84 84.7461 311.238 87.0625 310.648C93.7723 308.808 98.1164 306.219 103.125 301.461C103.846 300.794 104.566 300.128 105.309 299.441C109.173 295.733 112.37 292.053 115.125 287.461C114.389 287.703 114.389 287.703 113.637 287.95C110.078 288.674 106.546 288.624 102.93 288.629C102.141 288.632 101.352 288.636 100.54 288.639C98.8773 288.644 97.2148 288.646 95.5522 288.646C93.0021 288.648 90.4524 288.667 87.9023 288.686C86.2865 288.688 84.6706 288.69 83.0547 288.691C82.2901 288.699 81.5255 288.706 80.7378 288.713C75.3538 288.69 75.3538 288.69 73.125 286.461C73.2825 283.411 73.5915 281.951 75.8662 279.86C76.6065 279.413 77.3467 278.965 78.1094 278.504C79.3324 277.747 79.3324 277.747 80.5801 276.974C81.4199 276.475 82.2597 275.975 83.125 275.461C84.6516 274.52 86.1777 273.579 87.7031 272.637C88.465 272.171 89.2268 271.706 90.0117 271.226C99.1042 265.637 107.233 259.627 115.125 252.461C116.112 251.593 117.1 250.726 118.117 249.832C123.554 245.007 128.525 240.083 133.125 234.461C133.937 233.51 134.749 232.558 135.586 231.578C152.296 211.664 166.675 188.76 178.125 165.461C177.48 165.744 176.834 166.027 176.169 166.319C173.244 167.591 170.31 168.839 167.375 170.086C165.851 170.755 165.851 170.755 164.297 171.438C163.317 171.85 162.337 172.262 161.328 172.688C160.427 173.075 159.527 173.463 158.599 173.862C156.125 174.461 156.125 174.461 153.8 173.572C152.971 173.022 152.971 173.022 152.125 172.461C153.488 169.37 154.311 168.311 157.062 166.086C163.164 161.106 169.601 153.509 173.125 146.461C172.176 146.482 171.228 146.502 170.25 146.523C164.214 145.682 160.292 140.517 156.125 136.461C154.678 135.116 153.221 133.781 151.75 132.461C151.144 131.904 150.538 131.347 149.914 130.773C147.979 129.354 146.47 128.874 144.125 128.461C144.455 126.811 144.785 125.161 145.125 123.461C148.86 123.959 150.937 124.336 154.125 126.461C154.62 124.976 154.62 124.976 155.125 123.461C157.812 121.898 157.812 121.898 161.125 120.461C162.012 120.069 162.899 119.677 163.812 119.273C169.765 117.813 176.213 117.726 182.125 119.461C182.146 118.43 182.166 117.398 182.188 116.336C183.001 109.48 187.202 100.384 192.125 95.4609Z" fill="#0A0A0A"/>
<path d="M375.125 0.460992C376.115 1.12099 377.105 1.78099 378.125 2.46099C377.92 10.9392 374.721 16.7529 370.562 24.0235C369.639 25.6796 369.639 25.6796 368.697 27.3692C367.187 30.0744 365.662 32.7709 364.125 35.461C367.06 33.1294 369.89 30.7723 372.625 28.211C379.749 21.9382 391.3 12.9611 401.25 13.086C406.126 13.5579 408.37 14.8875 411.937 18.086C413.836 21.8837 413.837 25.3088 413.125 29.461C410.808 35.2573 407.129 39.7566 403.125 44.461C403.826 44.4808 404.527 44.5006 405.249 44.521C408.437 44.6166 411.625 44.7261 414.812 44.836C415.915 44.8669 417.018 44.8979 418.154 44.9297C419.754 44.9877 419.754 44.9877 421.387 45.0469C422.366 45.0783 423.345 45.1098 424.354 45.1421C427.258 45.4763 429.446 46.3325 432.125 47.461C432.424 63.9343 432.704 80.4078 432.949 96.882C433.049 103.633 433.158 110.383 433.288 117.133C433.342 120.195 433.381 123.257 433.412 126.319C433.437 128.281 433.482 130.243 433.527 132.205C433.572 138.819 433.404 143.252 429.125 148.461C427.151 149.512 425.148 150.508 423.125 151.461C420.567 153.679 418.268 156.133 415.937 158.586C409.979 164.702 403.942 170.296 397.125 175.461C396.509 175.944 395.893 176.428 395.258 176.926C393.018 178.581 391.641 179.475 388.812 179.398C387.125 178.461 387.125 178.461 386.125 175.461C388.966 172.437 391.874 169.836 395.187 167.336C399.179 164.287 402.921 161.035 406.625 157.648C407.154 157.168 407.682 156.688 408.227 156.193C411.056 153.628 411.056 153.628 413.125 150.461C412.527 150.42 411.929 150.378 411.312 150.336C409.125 149.461 409.125 149.461 407.437 146.773C405.002 140.627 404.977 134.665 404.992 128.152C404.991 127.267 404.99 126.383 404.989 125.471C404.989 123.606 404.99 121.741 404.995 119.876C405 117.036 404.995 114.197 404.988 111.357C404.989 109.539 404.99 107.721 404.992 105.902C404.99 105.061 404.988 104.219 404.986 103.351C405.005 98.6212 405.402 94.1465 406.125 89.461C406.198 87.776 406.234 86.0889 406.223 84.4024C406.219 83.5226 406.216 82.6428 406.213 81.7364C406.204 80.8411 406.196 79.9459 406.187 79.0235C406.181 77.64 406.181 77.64 406.174 76.2286C406.162 73.9726 406.146 71.7169 406.125 69.461C403.991 70.4134 403.991 70.4134 402.125 72.461C401.744 75.276 401.619 77.6986 401.671 80.5125C401.67 81.3322 401.67 82.152 401.669 82.9966C401.672 85.7078 401.703 88.4179 401.734 91.129C401.742 93.008 401.747 94.887 401.751 96.766C401.767 101.713 401.806 106.659 401.85 111.606C401.891 116.653 401.909 121.701 401.93 126.748C401.973 136.653 402.041 146.557 402.125 156.461C400.475 156.791 398.825 157.121 397.125 157.461C393.256 151.658 393.976 144.485 393.992 137.723C393.991 136.802 393.99 135.881 393.989 134.932C393.989 132.992 393.99 131.051 393.995 129.111C394 126.168 393.995 123.226 393.988 120.283C393.989 118.388 393.99 116.493 393.992 114.598C393.99 113.731 393.988 112.864 393.986 111.97C394.005 106.828 394.316 101.797 394.901 96.6866C395.233 93.387 395.22 90.1523 395.187 86.836C395.178 85.6269 395.169 84.4177 395.16 83.1719C395.149 82.2773 395.137 81.3827 395.125 80.461C394.522 81.0991 393.918 81.7372 393.297 82.3946C392.098 83.634 392.098 83.634 390.875 84.8985C390.086 85.7222 389.297 86.5459 388.484 87.3946C386.132 89.4552 385.075 89.8705 382.125 90.461C382.13 91.3443 382.135 92.2277 382.141 93.1377C382.385 141.04 382.385 141.04 380.312 162.836C380.255 163.537 380.197 164.238 380.137 164.961C379.59 169.859 378.042 172.639 375.125 176.461C373.475 176.131 371.825 175.801 370.125 175.461C370.036 170.808 370.326 166.472 371.074 161.882C372.131 154.828 372.623 147.844 372.941 140.723C373.003 139.477 373.064 138.23 373.127 136.946C373.32 133.014 373.504 129.081 373.687 125.148C373.875 121.198 374.065 117.247 374.258 113.297C374.377 110.853 374.493 108.409 374.606 105.965C374.903 99.7578 375.359 93.6281 376.125 87.461C364.744 87.8619 353.46 88.4093 342.153 89.796C336.758 90.4416 331.551 90.636 326.125 90.461C326.455 91.121 326.785 91.781 327.125 92.461C327.229 95.4353 327.272 98.3864 327.27 101.361C327.274 102.283 327.277 103.205 327.28 104.155C327.29 107.214 327.292 110.273 327.293 113.332C327.296 115.452 327.299 117.572 327.303 119.692C327.309 124.14 327.311 128.588 327.31 133.035C327.31 138.743 327.324 144.451 327.341 150.159C327.352 154.538 327.354 158.918 327.354 163.297C327.355 165.402 327.359 167.507 327.367 169.611C327.377 172.551 327.374 175.491 327.368 178.431C327.373 179.306 327.379 180.18 327.385 181.081C327.353 187.119 327.353 187.119 325.125 190.461C320.25 189.586 320.25 189.586 319.125 188.461C319.025 186.256 318.997 184.048 318.996 181.84C318.993 180.801 318.993 180.801 318.99 179.74C318.986 177.43 318.989 175.119 318.992 172.809C318.991 171.194 318.99 169.58 318.989 167.965C318.988 164.563 318.99 161.16 318.995 157.758C319 153.45 318.997 149.141 318.991 144.833C318.987 141.486 318.989 138.138 318.991 134.791C318.992 133.207 318.991 131.622 318.989 130.038C318.979 121.564 319.12 113.118 319.571 104.654C319.609 103.907 319.648 103.159 319.688 102.389C319.907 98.6666 320.274 95.094 321.125 91.461C320.135 91.956 320.135 91.956 319.125 92.461C317.707 92.6904 316.282 92.8765 314.855 93.0391C297.54 95.1327 280.945 98.8195 264.276 103.937C259.308 105.461 259.308 105.461 257.125 105.461C257.054 112.869 257.002 120.278 256.97 127.687C256.954 131.13 256.933 134.573 256.899 138.016C256.753 152.862 256.901 167.388 259.155 182.091C259.293 182.995 259.431 183.899 259.573 184.83C259.703 185.609 259.832 186.388 259.966 187.19C260.147 189.783 259.733 191.944 259.125 194.461C256.75 195.086 256.75 195.086 254.125 195.461C246.873 188.209 248.906 170.154 248.87 160.482C248.87 158.829 248.872 157.176 248.875 155.523C248.876 154.723 248.877 153.923 248.878 153.099C248.901 144.761 249.111 136.522 249.902 128.216C250.284 123.487 250.27 118.765 250.25 114.023C250.254 113.07 250.258 112.117 250.262 111.135C250.26 110.212 250.259 109.29 250.258 108.34C250.257 107.521 250.256 106.702 250.254 105.858C250.196 103.399 250.196 103.399 249.483 100.833C249.365 100.05 249.247 99.2675 249.125 98.461C250.816 96.2238 252.345 94.5306 254.375 92.6485C254.926 92.1215 255.478 91.5945 256.046 91.0516C268.713 79.1704 283.864 71.4016 299.375 63.8985C300.733 63.2355 300.733 63.2355 302.119 62.5591C302.971 62.1542 303.824 61.7493 304.703 61.3321C305.839 60.7896 305.839 60.7896 306.997 60.2361C309.125 59.461 309.125 59.461 313.125 59.461C312.819 58.9045 312.513 58.348 312.198 57.7747C309.058 52.0564 305.937 46.328 302.828 40.5928C301.711 38.5385 300.589 36.487 299.461 34.4385C297.898 31.5989 296.354 28.75 294.812 25.8985C294.327 25.0256 293.841 24.1526 293.341 23.2532C292.902 22.4336 292.463 21.614 292.012 20.7696C291.622 20.056 291.232 19.3424 290.831 18.6072C289.923 15.8466 290.258 14.2087 291.125 11.461C294.551 8.03491 299.218 8.34958 303.875 8.08599C311.657 8.21452 317.732 11.6734 323.187 17.086C329.084 24.1397 332.475 33.1015 336.125 41.461C336.332 40.6128 336.54 39.7646 336.754 38.8907C340.409 24.9719 345.733 10.6433 358.312 2.46099C363.656 -0.27038 369.252 -0.3767 375.125 0.460992Z" fill="#0A0A0A"/>
<path d="M192.125 95.4609C196.681 96.0165 196.681 96.0165 198.125 97.4609C198.213 99.5336 198.232 101.609 198.223 103.684C198.219 104.944 198.216 106.204 198.213 107.502C198.205 108.842 198.196 110.183 198.188 111.523C198.182 112.868 198.178 114.212 198.174 115.557C198.162 118.858 198.146 122.16 198.125 125.461C199.481 125.412 199.481 125.412 200.865 125.362C208.278 125.207 214.422 125.511 221.312 128.273C222.035 128.534 222.758 128.796 223.502 129.064C230.157 131.567 230.157 131.567 232.125 134.461C231.704 138.882 231.704 138.882 230.125 140.461C228.503 140.623 226.877 140.739 225.25 140.836C215.536 141.421 215.536 141.421 207.125 145.461C208.136 146.162 209.146 146.863 210.188 147.586C216.396 152.884 220.256 161.419 221.945 169.277C222.005 170.328 222.064 171.379 222.125 172.461C221.465 173.121 220.805 173.781 220.125 174.461C218.125 174.461 218.125 174.461 216.125 173.461C215.816 172.492 215.506 171.522 215.188 170.523C214.837 169.513 214.486 168.502 214.125 167.461C211.857 166.317 211.857 166.317 209.125 165.461C208.205 165.119 207.284 164.778 206.336 164.426C204.932 163.917 204.932 163.917 203.5 163.398C202.088 162.886 202.088 162.886 200.648 162.363C198.815 161.708 196.972 161.077 195.125 160.461C197.267 166.966 199.502 173.434 201.785 179.891C202.304 181.361 202.304 181.361 202.834 182.862C206.583 193.47 210.354 204.069 214.131 214.667C215.018 217.161 215.903 219.656 216.786 222.151C218.093 225.843 219.419 229.528 220.75 233.211C221.102 234.211 221.454 235.211 221.817 236.242C228.115 253.456 237.541 265.694 254.125 273.461C256.842 274.286 256.842 274.286 259.125 274.461C259.455 274.131 259.785 273.801 260.125 273.461C261.791 273.42 263.459 273.418 265.125 273.461C264.518 279.89 264.518 279.89 262.875 282.273C258.92 284.957 255.022 285.745 250.312 286.086C248.849 286.198 248.849 286.198 247.355 286.312C246.619 286.361 245.883 286.41 245.125 286.461C249.17 292.572 253.977 297.217 259.539 301.969C262.277 304.607 264.235 307.165 266.125 310.461C265.875 313.336 265.875 313.336 265.125 315.461C262.988 315.832 262.988 315.832 260.125 315.461C257.961 313.53 256.178 311.711 254.312 309.523C253.786 308.924 253.259 308.324 252.716 307.706C251.66 306.504 250.608 305.298 249.562 304.088C248.379 302.749 247.138 301.462 245.883 300.191C241.295 295.521 238.162 290.369 235.062 284.648C234.656 283.906 234.249 283.164 233.829 282.399C233.462 281.691 233.094 280.983 232.715 280.254C232.383 279.62 232.052 278.986 231.711 278.333C230.983 276.007 231.398 274.752 232.125 272.461C232.125 268.925 228.812 266.786 226.461 264.336C220.589 257.109 216.933 249.172 213.812 240.461C213.436 239.433 213.06 238.406 212.673 237.347C211.476 234.057 210.298 230.76 209.125 227.461C208.728 226.349 208.331 225.236 207.922 224.09C203.969 212.969 200.098 201.843 196.877 190.485C194.573 182.386 191.837 174.43 189.125 166.461C184.869 173.493 184.869 173.493 183.125 181.461C183.785 181.461 184.445 181.461 185.125 181.461C185.125 182.451 185.125 183.441 185.125 184.461C183.25 184.211 183.25 184.211 181.125 183.461C179.992 181.414 179.992 181.414 179.125 179.461C178.814 180.019 178.503 180.576 178.182 181.151C171.598 192.912 164.858 204.418 157.125 215.461C156.381 216.538 156.381 216.538 155.622 217.636C148.919 227.31 141.984 236.419 133.729 244.817C132.008 246.581 130.323 248.375 128.637 250.172C117.742 261.61 105.52 270.197 92.125 278.461C95.5833 278.52 99.0414 278.555 102.5 278.586C103.948 278.611 103.948 278.611 105.426 278.637C116.368 278.919 116.368 278.919 126.177 274.903C129.095 272.743 131.608 273.196 135.125 273.461C136.125 274.461 136.125 274.461 136.188 277.023C136.167 277.828 136.146 278.632 136.125 279.461C135.459 279.708 134.792 279.956 134.105 280.211C126.266 283.719 122.744 288.288 118.259 295.277C108.177 310.862 95.8855 318.263 78.125 322.461C86.4224 322.682 94.5726 321.82 102.812 320.961C104.901 320.745 106.99 320.53 109.08 320.319C110.967 320.128 112.854 319.932 114.741 319.736C117.896 319.48 120.962 319.336 124.125 319.461C125.125 320.461 125.125 320.461 125.562 322.773C125.418 323.66 125.274 324.547 125.125 325.461C123.733 326.412 122.33 327.351 120.887 328.223C114.212 332.914 110.791 340.84 107.188 347.898C97.0053 367.754 78.7252 382.676 58.125 391.461C55.2739 391.918 53.0516 391.705 50.125 391.461C49.465 390.801 48.805 390.141 48.125 389.461C48.1719 386.98 48.1719 386.98 49.125 384.461C51.3906 383.16 51.3906 383.16 54.375 382.148C60.4146 379.867 65.5846 376.907 71.0156 373.438C73.8022 371.666 76.6282 370.026 79.5 368.398C93.3885 359.976 99.8752 344.401 107.125 330.461C96.2221 330.932 85.4682 332.06 74.6448 333.445C73.6134 333.575 72.5821 333.705 71.5195 333.84C70.1405 334.019 70.1405 334.019 68.7336 334.201C66.1674 334.457 63.7015 334.578 61.125 334.461C60.125 333.461 60.125 333.461 59.9375 331.023C60.125 328.461 60.125 328.461 62.125 326.461C63.115 326.461 64.105 326.461 65.125 326.461C65.3519 325.739 65.5787 325.017 65.8125 324.273C68.7376 318.005 73.8805 314.842 80.125 312.461C82.4331 311.84 84.7461 311.238 87.0625 310.648C93.7723 308.808 98.1164 306.219 103.125 301.461C103.846 300.794 104.566 300.128 105.309 299.441C109.173 295.733 112.37 292.053 115.125 287.461C114.389 287.703 114.389 287.703 113.637 287.95C110.078 288.674 106.546 288.624 102.93 288.629C102.141 288.632 101.352 288.636 100.54 288.639C98.8773 288.644 97.2148 288.646 95.5522 288.646C93.0021 288.648 90.4524 288.667 87.9023 288.686C86.2865 288.688 84.6706 288.69 83.0547 288.691C82.2901 288.699 81.5255 288.706 80.7378 288.713C75.3538 288.69 75.3538 288.69 73.125 286.461C73.2825 283.411 73.5915 281.951 75.8662 279.86C76.6065 279.413 77.3467 278.965 78.1094 278.504C79.3324 277.747 79.3324 277.747 80.5801 276.974C81.4199 276.475 82.2597 275.975 83.125 275.461C84.6516 274.52 86.1777 273.579 87.7031 272.637C88.465 272.171 89.2268 271.706 90.0117 271.226C99.1042 265.637 107.233 259.627 115.125 252.461C116.112 251.593 117.1 250.726 118.117 249.832C123.554 245.007 128.525 240.083 133.125 234.461C133.937 233.51 134.749 232.558 135.586 231.578C152.296 211.664 166.675 188.76 178.125 165.461C177.48 165.744 176.834 166.027 176.169 166.319C173.244 167.591 170.31 168.839 167.375 170.086C165.851 170.755 165.851 170.755 164.297 171.438C163.317 171.85 162.337 172.262 161.328 172.688C160.427 173.075 159.527 173.463 158.599 173.862C156.125 174.461 156.125 174.461 153.8 173.572C152.971 173.022 152.971 173.022 152.125 172.461C153.488 169.37 154.311 168.311 157.062 166.086C163.164 161.106 169.601 153.509 173.125 146.461C172.176 146.482 171.228 146.502 170.25 146.523C164.214 145.682 160.292 140.517 156.125 136.461C154.678 135.116 153.221 133.781 151.75 132.461C151.144 131.904 150.538 131.347 149.914 130.773C147.979 129.354 146.47 128.874 144.125 128.461C144.455 126.811 144.785 125.161 145.125 123.461C148.86 123.959 150.937 124.336 154.125 126.461C154.62 124.976 154.62 124.976 155.125 123.461C157.812 121.898 157.812 121.898 161.125 120.461C162.012 120.069 162.899 119.677 163.812 119.273C169.765 117.813 176.213 117.726 182.125 119.461C182.146 118.43 182.166 117.398 182.188 116.336C183.001 109.48 187.202 100.384 192.125 95.4609Z" fill="#0A0A0A"/>
<path d="M690.438 170.523C696.985 177.68 698.949 184.405 698.531 194.078C697.291 204.409 691.56 211.564 685.125 219.461C684.461 220.291 683.797 221.121 683.113 221.977C675.228 231.381 666.474 237.266 654.125 238.461C643.151 238.803 643.151 238.803 639.125 237.461C639.125 244.721 639.125 251.981 639.125 259.461C642.791 260.194 645.492 260.565 649.125 260.461C649.125 261.781 649.125 263.101 649.125 264.461C640.287 268.957 631.967 272.132 622.375 274.648C601.269 280.393 578.507 288.187 565.125 306.461C565.67 306.631 566.216 306.801 566.777 306.977C572.409 308.786 577.764 310.964 583.125 313.461C582.795 315.111 582.465 316.761 582.125 318.461C581.135 318.791 580.145 319.121 579.125 319.461C578.795 320.121 578.465 320.781 578.125 321.461C577.135 321.461 576.145 321.461 575.125 321.461C573.552 324.303 573.552 324.303 573.125 327.461C574.071 326.953 575.017 326.445 575.992 325.922C607.723 309.243 644.264 305.291 679.688 305.273C680.981 305.261 682.275 305.249 683.607 305.236C706.347 305.202 706.347 305.202 711.522 309.409C713.125 311.461 713.125 311.461 713.062 313.523C712.023 315.672 710.91 316.89 709.125 318.461C708.465 319.121 707.805 319.781 707.125 320.461C707.434 321.8 707.775 323.132 708.125 324.461C708.084 325.575 708.043 326.688 708 327.836C707.942 331.749 708.645 335.271 709.5 339.086C718.356 378.959 711.346 412.85 689.688 446.906C672.648 473.248 672.648 473.248 662.125 477.461C658.25 477.898 658.25 477.898 655.125 477.461C654.465 476.801 653.805 476.141 653.125 475.461C653.5 472.836 653.5 472.836 654.125 470.461C655.785 470.07 657.445 469.68 659.105 469.289C672.001 464.001 681.039 443.745 688.125 432.461C688.542 431.797 688.96 431.134 689.39 430.45C707.444 401.386 708.062 368.476 702.125 335.461C701.795 334.471 701.465 333.481 701.125 332.461C701.009 330.943 700.95 329.42 700.938 327.898C700.923 327.113 700.909 326.328 700.895 325.519C701.125 323.461 701.125 323.461 703.125 321.461C701.805 320.801 700.485 320.141 699.125 319.461C699.455 317.811 699.785 316.161 700.125 314.461C646.52 313.941 593.125 315.006 551.125 352.461C550.411 353.042 549.697 353.624 548.961 354.223C542.685 359.349 537.687 365.631 532.505 371.821C530.657 374.017 528.77 376.179 526.875 378.336C526.334 378.952 525.792 379.568 525.234 380.203C524.868 380.618 524.502 381.033 524.125 381.461C523.135 381.131 522.145 380.801 521.125 380.461C521.48 374.981 524.794 371.475 528.062 367.336C528.948 366.203 528.948 366.203 529.852 365.046C531.593 362.838 533.353 360.645 535.125 358.461C535.576 357.905 536.027 357.348 536.492 356.775C543.527 348.251 552.084 341.039 561.348 335.016C563.799 332.872 564.814 330.523 566.188 327.586C568.002 323.745 569.881 320.07 572.125 316.461C571.245 316.363 570.364 316.265 569.457 316.164C568.296 316.014 567.134 315.865 565.938 315.711C564.789 315.572 563.64 315.432 562.457 315.289C558.772 314.373 556.884 313.018 554.125 310.461C555.204 302.256 561.452 295.557 567.562 290.336C574.487 285.096 582.387 281.339 590.125 277.461C590.125 273.501 590.125 269.541 590.125 265.461C588.64 264.966 588.64 264.966 587.125 264.461C585.316 265.341 585.316 265.341 583.5 266.711C576.121 271.475 569.774 272.745 561.062 272.898C559.929 272.932 559.929 272.932 558.772 272.966C552.072 272.939 547.075 270.9 541.918 266.637C536.05 259.827 533.775 253.481 533.824 244.504C534.167 242.173 534.973 240.503 536.125 238.461C537.115 238.461 538.105 238.461 539.125 238.461C538.774 237.718 538.424 236.976 538.062 236.211C537.08 233.329 537.092 232.249 538.125 229.461C542.125 229.461 542.125 229.461 543.875 231.148C545.315 233.812 545.374 235.477 545.125 238.461C559 234.874 564.708 225.246 571.812 213.461C575.882 206.346 578.929 199.598 580.125 191.461C565.531 192.434 550.984 193.996 537.332 199.609C534.238 200.803 531.405 200.59 528.125 200.461C527.465 199.141 526.805 197.821 526.125 196.461C529.666 193.298 533.648 192.155 538.125 190.898C538.888 190.682 539.652 190.466 540.438 190.243C550.041 187.586 559.1 186.299 569.062 186.211C569.88 186.201 570.698 186.192 571.541 186.182C576.927 186.212 581.136 186.472 585.125 190.461C584.811 207.125 573.367 225.412 561.828 236.953C556.966 241.463 552.928 245.054 546.25 246.023C543.064 245.45 541.968 245.063 540.125 242.461C539.647 249.027 540.682 253.793 544.125 259.461C548.845 264.181 553.654 265.755 560.25 265.836C573.765 265.592 583.932 258.934 593.301 249.684C595.125 248.461 595.125 248.461 597.355 248.769C597.939 248.998 598.523 249.226 599.125 249.461C598.375 255.211 598.375 255.211 596.125 257.461C595.135 257.461 594.145 257.461 593.125 257.461C593.414 258.185 593.702 258.91 594 259.656C594.371 260.623 594.743 261.59 595.125 262.586C595.496 263.537 595.868 264.489 596.25 265.469C597.17 268.615 597.28 271.201 597.125 274.461C598.262 274.074 599.399 273.687 600.57 273.289C627.604 264.147 627.604 264.147 634.125 264.461C633.966 263.896 633.808 263.332 633.644 262.75C632.715 258.655 632.772 254.52 632.688 250.336C632.642 249.436 632.596 248.536 632.549 247.609C632.446 241.39 633.572 236.581 637.059 231.363C640.383 228.303 643.46 228.4 647.842 228.422C648.905 228.476 649.967 228.53 651.062 228.586C661.259 228.942 661.259 228.942 670.125 224.461C671.142 223.479 672.151 222.486 673.125 221.461C673.785 221.461 674.445 221.461 675.125 221.461C675.389 220.872 675.654 220.283 675.926 219.676C677.166 217.385 678.501 215.884 680.312 214.023C686.133 207.444 691.462 199.656 691.812 190.648C691.421 185.581 690.309 181.467 687.125 177.461C681.716 173.549 676.332 172.81 669.812 172.961C668.562 172.977 668.562 172.977 667.286 172.993C658.702 173.257 652.167 175.873 644.625 179.773C641.125 181.461 641.125 181.461 638.125 180.461C640.624 174.453 646.246 171.691 652.023 169.223C664.896 164.477 678.268 162.946 690.438 170.523Z" fill="#0C0C0C"/>
<path d="M162.125 456.461C162.211 457.162 162.298 457.863 162.387 458.586C163.808 468.18 166.996 474.074 174.379 480.332C176.289 481.567 177.923 481.961 180.125 482.461C180.204 483.022 180.284 483.582 180.365 484.16C182.904 501.53 187.582 517.833 193.125 534.461C185.535 534.461 177.945 534.461 170.125 534.461C172.495 532.881 174.494 531.835 177.062 530.711C181.113 528.697 183.13 526.618 185.125 522.461C185.461 519.209 185.461 519.209 185.125 516.461C183.145 516.791 181.165 517.121 179.125 517.461C178.795 518.451 178.465 519.441 178.125 520.461C178.785 520.791 179.445 521.121 180.125 521.461C175.715 525.059 173.648 526.587 167.961 526.594C166.921 526.595 165.88 526.596 164.809 526.598C163.171 526.592 163.171 526.592 161.5 526.586C159.897 526.592 159.897 526.592 158.262 526.598C153.798 526.592 149.406 526.583 144.98 525.961C140.314 525.356 135.761 525.315 131.062 525.336C130.203 525.332 129.344 525.328 128.459 525.324C123.574 525.332 118.941 525.638 114.125 526.461C115.993 523.581 117.889 520.773 119.961 518.035C124.895 511.504 128.839 504.962 132.125 497.461C132.517 496.586 132.909 495.71 133.312 494.809C137.203 484.84 137.431 474.035 138.125 463.461C141.786 462.113 145.453 460.781 149.125 459.461C149.981 459.153 150.837 458.845 151.719 458.527C152.492 458.258 153.266 457.989 154.062 457.711C154.752 457.469 155.442 457.226 156.152 456.977C158.125 456.461 158.125 456.461 162.125 456.461Z" fill="#FCFCFC"/>
<path d="M412.125 50.3985C412.9 50.403 413.674 50.4075 414.473 50.4121C416.357 50.4238 418.241 50.4417 420.125 50.461C417.206 53.5384 414.132 55.9929 410.688 58.461C400.693 65.8682 391.793 74.5574 383.125 83.461C382.466 83.1387 381.808 82.8164 381.129 82.4844C377.399 81.2134 373.959 81.0782 370.062 81.086C368.807 81.0873 368.807 81.0873 367.526 81.0886C346.481 81.4497 324.742 84.3356 304.125 88.461C303.268 88.6268 302.411 88.7926 301.528 88.9634C289.396 91.3349 277.657 94.3112 265.954 98.3135C265.086 98.6071 264.218 98.9007 263.324 99.2031C262.559 99.4698 261.795 99.7365 261.007 100.011C259.125 100.461 259.125 100.461 257.125 99.461C267.418 88.1882 280.443 80.9015 293.749 73.7637C296.238 72.3991 298.686 70.9776 301.133 69.5391C301.948 69.066 302.763 68.5929 303.603 68.1055C305.171 67.1929 306.734 66.2689 308.288 65.3321C308.995 64.926 309.702 64.5199 310.43 64.1016C311.048 63.7358 311.667 63.37 312.304 62.9932C314.125 62.461 314.125 62.461 316.256 63.2549C318.348 64.6051 319.642 66.0151 321.188 67.961C323.134 70.3976 324.459 71.6836 327.125 73.461C329.457 73.54 331.793 73.5489 334.125 73.461C334.399 70.2694 334.3 68.7522 332.625 65.961C330.95 63.1697 330.851 61.6526 331.125 58.461C332.984 58.6446 332.984 58.6446 335.125 59.461C336.391 61.7461 336.391 61.7461 337.375 64.5235C337.878 65.9021 337.878 65.9021 338.391 67.3086C338.633 68.0189 338.875 68.7292 339.125 69.461C340.775 69.461 342.425 69.461 344.125 69.461C344.62 71.441 344.62 71.441 345.125 73.461C363.769 74.7822 379.291 64.9409 393.125 53.461C393.785 52.801 394.445 52.141 395.125 51.461C400.812 50.4694 406.365 50.3336 412.125 50.3985Z" fill="#F8F8F8"/>
<path d="M51.5 393.887C54.1643 394.47 56.7199 394.752 59.4375 394.961C63.5408 395.285 67.5609 395.807 71.625 396.461C76.6568 397.269 81.6567 397.827 86.7344 398.242C89.5611 398.501 92.3365 398.934 95.125 399.461C95.0625 401.774 95.0625 401.774 94.125 404.461C93.095 404.863 92.0651 405.265 91.0039 405.68C86.2562 407.566 83.451 410.881 80.125 414.649C79.5091 415.327 78.8931 416.005 78.2585 416.704C75.2746 420.002 72.3417 423.343 69.4375 426.711C57.7394 440.109 44.2637 450.228 29.125 459.461C29.8967 459.394 30.6683 459.327 31.4634 459.258C39.8102 458.569 48.1294 458.241 56.5 458.024C66.5174 457.724 76.2359 457.14 86.125 455.461C88.4577 455.123 90.7909 454.789 93.125 454.461C93.62 456.936 93.62 456.936 94.125 459.461C86.4534 465.811 75.4247 466.155 65.875 467.086C64.6337 467.213 63.3924 467.34 62.1135 467.471C51.3305 468.501 40.5614 468.9 29.7314 468.995C22.7043 469.11 16.4823 469.824 9.73071 471.822C7.04914 472.48 4.87255 472.722 2.125 472.461C0.125 470.461 0.125 470.461 0 467.836C0.04125 467.052 0.0825 466.269 0.125 465.461C1.02219 465.06 1.91938 464.659 2.84375 464.246C22.9801 455.128 42.2333 444.018 58.125 428.461C58.9954 427.619 58.9954 427.619 59.8833 426.76C70.7326 416.257 70.7326 416.257 80.125 404.461C78.493 404.506 78.493 404.506 76.8281 404.551C71.4421 404.55 66.1989 403.778 60.875 403.024C53.6304 402.031 46.4376 401.12 39.1367 400.672C37.125 400.461 37.125 400.461 35.125 399.461C35.455 397.811 35.785 396.161 36.125 394.461C41.918 392.53 45.5949 392.474 51.5 393.887Z" fill="#0C0C0C"/>
<path d="M544.438 66.3047C552.841 69.032 559.368 72.8213 566.125 78.4609C567.013 79.1867 567.901 79.9124 568.816 80.6601C581.246 91.2746 581.246 91.2746 582.484 98.582C582.5 100.523 582.5 100.523 582.125 103.461C583.61 103.956 583.61 103.956 585.125 104.461C584.795 105.451 584.465 106.441 584.125 107.461C583.566 107.452 583.006 107.443 582.43 107.434C568.28 107.957 556.255 117.156 546.727 126.918C542.162 132.114 538.675 137.662 535.5 143.773C535.145 144.443 534.789 145.113 534.423 145.803C532.281 150.164 532.008 152.778 533.125 157.461C531.813 159.336 531.813 159.336 530.125 160.461C529.465 160.461 528.805 160.461 528.125 160.461C528.146 161.43 528.166 162.4 528.188 163.398C528.125 166.461 528.125 166.461 527.125 167.461C525.064 167.594 523.001 167.692 520.938 167.773C515.433 168.161 512.066 168.52 508.125 172.461C508.125 173.781 508.125 175.101 508.125 176.461C512.99 179.485 517.033 179.84 522.734 179.957C525.125 180.461 525.125 180.461 526.453 182.496C526.675 183.144 526.897 183.793 527.125 184.461C524.517 187.069 523.263 186.819 519.625 186.898C513.259 186.806 508.327 185.139 503.125 181.461C500.613 177.692 500.595 175.929 501.125 171.461C504.349 166.323 508.319 163.308 514.125 161.461C516.894 161.168 519.33 161.261 522.125 161.461C522.177 160.769 522.228 160.076 522.281 159.363C524.005 144.498 532.726 132.621 542.125 121.461C542.686 120.785 543.247 120.11 543.824 119.414C551.235 111.275 562.593 104.573 573.125 101.461C573.785 101.461 574.445 101.461 575.125 101.461C569.371 92.3175 562.9 86.5493 554.125 80.4609C553.355 79.9234 552.586 79.3858 551.793 78.832C544.738 74.1707 538.606 72.0066 530.125 72.4609C529.465 71.1409 528.805 69.8209 528.125 68.4609C532.714 63.672 538.597 64.817 544.438 66.3047Z" fill="#0C0C0C"/>
<path d="M426.125 54.4609C426.148 64.5791 426.166 74.6972 426.177 84.8153C426.182 89.5134 426.189 94.2114 426.2 98.9094C426.211 103.442 426.217 107.974 426.22 112.506C426.222 114.237 426.225 115.968 426.231 117.698C426.238 120.119 426.239 122.54 426.239 124.96C426.242 125.679 426.246 126.397 426.249 127.138C426.243 130.195 426.1 132.535 425.125 135.461C425.403 137.802 425.73 140.137 426.125 142.461C423.155 144.771 420.185 147.081 417.125 149.461C415.535 147.076 414.551 145.272 413.562 142.648C413.314 142.003 413.065 141.357 412.809 140.691C411.293 135.747 411.002 130.915 411.011 125.769C411.012 124.458 411.012 123.146 411.012 121.795C411.017 120.378 411.022 118.96 411.027 117.543C411.029 116.079 411.031 114.615 411.032 113.151C411.035 109.31 411.045 105.47 411.056 101.629C411.067 97.7167 411.071 93.8046 411.076 89.8926C411.086 83.024 411.1 76.1555 411.118 69.2869C411.123 67.3449 411.125 65.4029 411.125 63.4609C413.221 61.7518 415.255 60.2584 417.5 58.7734C418.103 58.3577 418.707 57.942 419.328 57.5137C423.84 54.4609 423.84 54.4609 426.125 54.4609Z" fill="#FAFAFA"/>
<path d="M582.125 484.461C585.5 485.648 585.5 485.648 588.125 487.461C589.423 490.836 589.11 493.067 588.125 496.461C588.125 497.781 588.125 499.101 588.125 500.461C583.375 499.711 583.375 499.711 581.125 497.461C581.452 494.845 581.945 492.82 583.125 490.461C580.815 490.461 578.505 490.461 576.125 490.461C576.599 494.778 579.159 496.797 582.187 499.711C583.107 500.603 584.026 501.495 584.973 502.414C586.038 503.427 586.038 503.427 587.125 504.461C588.047 502.98 588.047 502.98 588.988 501.468C589.804 500.174 590.621 498.88 591.437 497.586C591.842 496.935 592.246 496.284 592.662 495.613C594.625 492.518 596.037 490.519 599.125 488.461C602.086 488.82 602.972 489.307 605.125 491.461C605.539 493.625 605.539 493.625 605.75 496.086C605.825 496.903 605.899 497.72 605.977 498.562C606.026 499.189 606.074 499.815 606.125 500.461C604.234 501.051 604.234 501.051 602.125 501.461C600.375 500.023 600.375 500.023 599.125 498.461C596.785 501.781 594.948 504.476 594.125 508.461C596.336 507.382 598.544 506.298 600.75 505.211C601.367 504.91 601.985 504.61 602.621 504.301C605.711 502.772 608.608 501.186 611.437 499.211C614.125 497.461 614.125 497.461 616.5 497.711C617.036 497.958 617.572 498.206 618.125 498.461C619.25 502.211 619.25 502.211 618.125 504.461C617.924 505.956 617.762 507.458 617.625 508.961C617.236 513.238 617.236 513.238 616.125 515.461C617.445 516.121 618.765 516.781 620.125 517.461C620.344 520.164 620.453 521.9 619.062 524.273C615.989 526.157 613.641 525.892 610.125 525.461C607.625 524.148 607.625 524.148 606.125 521.461C606.104 517.734 606.542 514.137 607.125 510.461C606.156 511.1 605.186 511.739 604.187 512.398C600.06 514.731 595.9 516.051 591.125 515.461C588.562 513.023 588.562 513.023 587.125 510.461C586.444 511.244 585.764 512.028 585.062 512.836C580.816 516.631 576.561 517.5 571 517.898C567.125 517.461 567.125 517.461 564.125 515.336C561.806 512.003 561.507 510.435 562.125 506.461C562.785 505.801 563.445 505.141 564.125 504.461C566.062 504.648 566.062 504.648 568.125 505.461C568.535 505.969 568.945 506.476 569.367 507C571.958 509.153 574.007 508.755 577.312 508.648C578.942 508.608 578.942 508.608 580.605 508.566C581.437 508.531 582.268 508.497 583.125 508.461C580.41 505.005 577.869 502.196 574.375 499.523C571.647 497.238 571.12 496.446 569.875 492.898C570.125 489.461 570.125 489.461 572.125 486.523C575.87 483.949 577.657 483.834 582.125 484.461Z" fill="#0A0A0A"/>
<path d="M608.125 340.461C610.125 342.461 610.125 342.461 610.125 345.461C609.3 345.605 608.475 345.75 607.625 345.898C591.789 352.968 581.558 379.719 575.375 394.961C570.207 409.111 568.01 423.575 566.125 438.461C567.61 437.966 567.61 437.966 569.125 437.461C573.323 454.741 573.323 454.741 569.5 461.211C567.125 462.461 567.125 462.461 564.063 462.461C560.663 461.304 559.95 460.474 558.125 457.461C557.473 454.096 557.603 450.695 557.625 447.273C557.63 446.263 557.635 445.252 557.64 444.21C558.488 406.14 575.363 369.348 601.168 341.859C603.673 340.069 605.109 340.036 608.125 340.461Z" fill="#0A0A0A"/>
<path d="M548.125 470.461C549.445 470.461 550.765 470.461 552.125 470.461C552.504 475.567 551.387 478.647 549.062 483.172C548.752 483.785 548.441 484.398 548.121 485.029C547.133 486.971 546.13 488.903 545.125 490.836C544.449 492.157 543.775 493.479 543.101 494.801C541.455 498.027 539.794 501.246 538.125 504.461C539.115 504.461 540.105 504.461 541.125 504.461C540.81 507.924 540.422 510.047 538.375 512.898C536.125 514.461 536.125 514.461 533.562 514.461C530.567 513.232 529.543 512.377 528.125 509.461C528.437 506.336 528.437 506.336 529.125 503.461C529.125 502.801 529.125 502.141 529.125 501.461C528.351 502.575 528.351 502.575 527.562 503.711C523.685 508.085 520.214 510.217 514.375 510.898C511.125 510.461 511.125 510.461 509.187 509.086C508.125 507.461 508.125 507.461 508.125 505.461C506.64 505.956 506.64 505.956 505.125 506.461C497.312 507.324 497.312 507.324 494.062 504.961C492.453 500.67 492.234 496.702 493.922 492.457C495.65 489.272 497.089 487.485 500.125 485.461C502.824 485.484 502.824 485.484 505.812 485.836C507.303 486.002 507.303 486.002 508.824 486.172C509.583 486.267 510.343 486.363 511.125 486.461C511.687 488.398 511.687 488.398 512.125 490.461C510.229 492.357 506.83 491.827 504.254 491.984C501.74 492.29 501.74 492.29 500.125 495.461C499.735 497.451 499.393 499.451 499.125 501.461C505.548 499.658 508.507 497.463 512.484 492.105C513.296 491.291 513.296 491.291 514.125 490.461C515.445 490.461 516.765 490.461 518.125 490.461C517.469 494.946 516.424 499.13 515.125 503.461C521.172 500.362 525.776 496.44 530.687 491.773C531.416 491.104 532.145 490.434 532.896 489.744C537.212 485.677 540.673 481.56 543.816 476.528C544.464 475.505 544.464 475.505 545.125 474.461C545.592 473.714 546.06 472.966 546.541 472.197C547.064 471.624 547.586 471.051 548.125 470.461Z" fill="#0A0A0A"/>
<path d="M179.363 128.133C180.962 128.884 182.545 129.671 184.125 130.461C186.751 130.712 186.751 130.712 189.125 130.461C190.445 130.461 191.765 130.461 193.125 130.461C193.125 131.121 193.125 131.781 193.125 132.461C194.439 132.521 195.752 132.582 197.105 132.644C198.841 132.729 200.577 132.814 202.313 132.898C203.177 132.938 204.041 132.977 204.932 133.018C209.084 133.224 213.07 133.462 217.125 134.461C217.125 135.121 217.125 135.781 217.125 136.461C211.837 138.614 206.574 140.74 201.125 142.461C200.801 144.814 200.801 144.814 201.125 147.461C202.782 149.393 202.782 149.393 205 150.961C208.192 153.538 210.125 155.335 211.125 159.461C196.565 156.971 196.565 156.971 191.938 152.211C191.04 151.345 191.04 151.345 190.125 150.461C187.655 150.698 186.476 151.083 184.773 152.914C184.353 153.507 183.933 154.1 183.5 154.711C179.909 159.176 175.404 161.401 170.125 163.461C169.465 163.461 168.805 163.461 168.125 163.461C169.396 160.815 170.775 158.383 172.438 155.965C172.873 155.323 173.309 154.682 173.758 154.021C174.667 152.692 175.579 151.364 176.492 150.037C178.818 146.607 180.783 143.419 182.125 139.461C177.858 140.123 177.858 140.123 173.75 141.398C169.304 141.504 166.28 138.386 163.125 135.461C161.125 132.461 161.125 132.461 161.375 130.336C163.512 124.993 174.837 126.774 179.363 128.133Z" fill="#F6F6F6"/>
<path d="M578.125 137.773C579.125 139.461 579.125 139.461 579 141.586C578.567 142.514 578.567 142.514 578.125 143.461C577.135 143.791 576.145 144.121 575.125 144.461C575.039 145.283 574.952 146.106 574.863 146.953C573.391 158.648 569.659 167.21 561.125 175.461C558.125 177.461 558.125 177.461 555.438 177.086C554.674 176.88 553.911 176.673 553.125 176.461C553.125 174.811 553.125 173.161 553.125 171.461C555 170.398 555 170.398 557.125 169.461C557.785 169.791 558.445 170.121 559.125 170.461C559.125 169.801 559.125 169.141 559.125 168.461C558.217 168.378 557.31 168.296 556.375 168.211C553.125 167.461 553.125 167.461 550.75 166.086C548.137 161.864 548.656 157.302 549.125 152.461C549.455 151.801 549.785 151.141 550.125 150.461C546.209 153.255 546.209 153.255 544.125 157.461C542.805 157.461 541.485 157.461 540.125 157.461C539.688 155.398 539.688 155.398 540.125 152.461C542.192 149.83 544.628 147.677 547.125 145.461C548.486 144.131 548.486 144.131 549.875 142.773C557.09 137.639 569.866 132.353 578.125 137.773Z" fill="#0B0B0B"/>
<path d="M367.125 182.461C374.554 182.175 374.554 182.175 378.125 184.461C378.062 186.273 378.062 186.273 377.125 188.461C360.633 196.946 339.296 198.539 321.136 200.928C318.24 201.309 315.346 201.708 312.454 202.115C291.918 204.999 271.906 207.402 251.125 206.461C250.795 205.141 250.465 203.821 250.125 202.461C252.105 201.801 254.085 201.141 256.125 200.461C256.455 200.791 256.785 201.121 257.125 201.461C266.377 202.313 275.629 200.587 284.75 199.211C286.31 198.981 287.87 198.752 289.43 198.524C300.472 196.897 311.497 195.165 322.512 193.363C327.102 192.616 331.699 191.933 336.303 191.269C343.817 190.186 351.14 188.922 358.496 187.012C361.119 186.462 363.454 186.359 366.125 186.461C366.455 185.141 366.785 183.821 367.125 182.461Z" fill="#0D0D0D"/>
<path d="M405.125 18.461C407.062 19.5235 407.062 19.5235 408.125 21.461C408.254 28.0469 405.131 31.6619 401.125 36.461C400.166 37.7604 400.166 37.7604 399.188 39.086C394.108 44.9351 390.416 48.0634 382.484 48.6993C381.582 48.7444 380.68 48.7895 379.75 48.836C378.855 48.9043 377.961 48.9726 377.039 49.043C371.395 49.445 365.782 49.5186 360.125 49.461C366.72 39.7454 375.203 32.5244 384.875 26.0235C385.489 25.6105 386.102 25.1975 386.734 24.772C392.369 21.0971 398.163 17.5116 405.125 18.461Z" fill="#F8F8F8"/>
<path d="M469.625 465.211C472.125 465.461 472.125 465.461 474.125 467.461C473.75 469.586 473.75 469.586 473.125 471.461C472.135 471.461 471.145 471.461 470.125 471.461C469.619 473.376 469.121 475.293 468.625 477.211C468.347 478.278 468.068 479.346 467.781 480.445C466.983 483.598 466.983 483.598 467.125 487.461C468.424 486.471 468.424 486.471 469.75 485.461C473.356 483.324 475.027 482.902 479.125 483.461C481.125 485.461 481.125 485.461 481.32 488.938C481.307 490.32 481.283 491.703 481.25 493.086C481.241 493.792 481.232 494.499 481.223 495.227C481.199 496.971 481.163 498.716 481.125 500.461C482.115 499.801 483.105 499.141 484.125 498.461C486.812 498.836 486.812 498.836 489.125 499.461C488.622 503.862 487.101 506.215 484.125 509.461C481.042 511.003 478.516 510.758 475.125 510.461C473.125 509.023 473.125 509.023 472.125 506.461C472.071 500.881 473.551 495.779 475.125 490.461C474.727 490.915 474.329 491.37 473.919 491.838C472.106 493.892 470.272 495.926 468.438 497.961C467.812 498.676 467.186 499.392 466.541 500.129C465.925 500.806 465.31 501.482 464.676 502.18C463.835 503.122 463.835 503.122 462.978 504.084C460.554 505.885 459.079 505.796 456.125 505.461C454.25 504.398 454.25 504.398 453.125 502.461C453.569 496.476 455.425 491.147 457.438 485.523C457.733 484.668 458.029 483.813 458.334 482.932C464.408 465.733 464.408 465.733 469.625 465.211Z" fill="#0A0A0A"/>
<path d="M295.125 96.4609C298.75 96.8359 298.75 96.8359 302.125 97.4609C301.795 98.7809 301.465 100.101 301.125 101.461C300.465 101.461 299.805 101.461 299.125 101.461C299.261 102.732 299.396 104.003 299.536 105.312C301.148 121.414 301.596 137.471 301.813 153.637C301.863 157.337 301.93 161.036 302.002 164.735C302.056 167.622 302.099 170.509 302.141 173.395C302.171 175.417 302.211 177.439 302.251 179.461C302.264 180.687 302.278 181.914 302.292 183.178C302.308 184.25 302.324 185.322 302.341 186.427C302.107 189.717 301.292 192.386 300.125 195.461C298.475 195.461 296.825 195.461 295.125 195.461C293.438 192.087 293.926 188.259 293.888 184.545C293.875 183.621 293.862 182.698 293.848 181.746C293.806 178.682 293.772 175.618 293.738 172.555C293.713 170.432 293.687 168.31 293.661 166.188C293.608 161.736 293.559 157.284 293.513 152.832C293.452 147.115 293.378 141.398 293.3 135.681C293.243 131.297 293.194 126.914 293.149 122.53C293.125 120.422 293.098 118.313 293.068 116.205C293.027 113.262 292.999 110.32 292.974 107.377C292.959 106.499 292.944 105.621 292.929 104.716C292.918 102.63 293.011 100.544 293.125 98.4609C293.785 97.8009 294.445 97.1409 295.125 96.4609Z" fill="#0C0C0C"/>
<path d="M445.125 468.461C447.492 470.264 448.498 471.868 450.125 474.461C450.125 475.451 450.125 476.441 450.125 477.461C448.459 477.504 446.791 477.502 445.125 477.461C444.63 476.966 444.63 476.966 444.125 476.461C436.586 475.121 431.198 479.407 425.125 483.461C419.336 487.229 419.336 487.229 415.125 492.461C429.23 493.039 429.23 493.039 442.898 490.019C445.605 489.34 447.456 489.749 450.125 490.461C450.62 492.936 450.62 492.936 451.125 495.461C449.879 496.28 448.628 497.091 447.375 497.898C446.679 498.351 445.983 498.803 445.266 499.269C440.114 502.137 434.553 501.679 428.812 501.711C427.888 501.732 426.963 501.752 426.01 501.773C419.366 501.811 414.836 500.855 409.187 497.211C407.317 494.13 407.598 491.976 408.125 488.461C411.798 482.532 417.287 479.08 423.187 475.648C423.977 475.172 424.767 474.696 425.58 474.205C438.027 466.787 438.027 466.787 445.125 468.461Z" fill="#090909"/>
<path d="M297.125 14.4611C304.662 14.0155 310.042 13.7161 316.125 18.4611C320.77 23.1062 323.723 28.0561 326.375 34.0236C326.713 34.7525 327.05 35.4815 327.398 36.2325C332.125 46.5696 332.125 46.5696 332.125 52.4611C327.489 54.0065 323.885 55.1477 319.125 53.4611C315.872 49.6587 313.745 45.3994 311.463 40.9664C308.855 36.0837 305.921 31.3869 303.062 26.6486C301.92 24.7494 300.783 22.8473 299.652 20.9415C299.165 20.1258 298.678 19.3101 298.176 18.4696C297.125 16.4611 297.125 16.4611 297.125 14.4611Z" fill="#F9F9F9"/>
<path d="M373.125 3.46089C374.125 6.46089 374.125 6.46089 373.036 8.779C372.473 9.68336 371.909 10.5877 371.328 11.5195C370.392 13.0452 370.392 13.0452 369.436 14.6018C368.756 15.6896 368.076 16.7775 367.375 17.8984C365.991 20.1544 364.609 22.4122 363.231 24.6718C362.71 25.5242 362.71 25.5242 362.178 26.3938C357.194 34.5814 352.661 43.0202 348.125 51.4609C346.475 51.4609 344.825 51.4609 343.125 51.4609C340.306 45.8233 341.602 37.6759 342.996 31.7734C346.808 20.374 352.839 10.0185 363.625 4.08589C366.842 3.2817 369.824 3.33145 373.125 3.46089Z" fill="#F7F7F7"/>
<path d="M593.438 60.3984C600.736 64.5111 604.246 71.3183 606.535 79.1601C606.827 80.299 606.827 80.299 607.125 81.4609C607.33 82.2305 607.535 83.0001 607.746 83.7929C609.335 90.5743 609.787 97.5214 609.125 104.461C608.465 105.451 607.805 106.441 607.125 107.461C603.25 106.586 603.25 106.586 602.125 105.461C601.6 103.242 601.131 101.01 600.688 98.7734C600.553 98.1037 600.419 97.4339 600.281 96.7439C599.391 92.1859 598.747 87.6356 598.188 83.0234C597.202 75.9299 595.731 71.0035 590.562 65.9609C584.684 63.396 578.254 63.6914 572.125 65.4609C572.375 63.0859 572.375 63.0859 573.125 60.4609C579.155 56.491 587.138 57.6345 593.438 60.3984Z" fill="#0F0F0F"/>
<path d="M393.125 297.461C392.981 298.316 392.836 299.17 392.688 300.051C391.019 310.165 389.771 320.229 389.125 330.461C384.125 325.461 384.125 325.461 381.906 323.211C378.608 319.949 375.22 316.796 371.812 313.648C371.167 313.051 370.522 312.453 369.857 311.838C368.281 310.378 366.703 308.919 365.125 307.461C366.544 304.623 368.148 304.548 371.113 303.516C372.13 303.161 373.146 302.807 374.193 302.441C375.264 302.077 376.334 301.712 377.438 301.336C378.496 300.963 379.555 300.591 380.646 300.207C388.608 297.461 388.608 297.461 393.125 297.461Z" fill="#F5F5F5"/>
<path d="M631.562 56.9609C634.125 57.4609 634.125 57.4609 636.375 59.8359C643.663 70.7684 639.475 91.5351 637.074 103.973C636.061 107.696 634.73 110.958 633.125 114.461C632.135 114.461 631.145 114.461 630.125 114.461C628.257 110.545 627.963 107.824 628.375 103.523C628.482 102.372 628.589 101.221 628.699 100.035C629.107 96.6151 629.634 93.2349 630.188 89.8359C631.527 81.0624 631.295 72.3091 631.125 63.4609C629.475 63.7909 627.825 64.1209 626.125 64.4609C626.125 60.4609 626.125 60.4609 627.312 58.7109C629.125 57.4609 629.125 57.4609 631.562 56.9609Z" fill="#080808"/>
<path d="M665.125 106.461C668.058 108.169 670.567 110.238 673.125 112.461C673.713 112.943 674.301 113.425 674.906 113.922C678.96 117.552 681.726 121.777 684.438 126.461C684.775 127.042 685.113 127.624 685.461 128.223C688.755 134.158 690.411 139.803 690.438 146.586C690.454 147.579 690.471 148.571 690.488 149.594C690.067 152.92 689.125 154.789 687.125 157.461C684.562 158.399 684.562 158.399 682.125 158.461C681.465 157.801 680.805 157.141 680.125 156.461C680.452 153.845 680.945 151.82 682.125 149.461C683.083 139.559 679.591 131.37 673.625 123.524C668.66 117.569 663.323 111.66 656.125 108.461C656.125 107.801 656.125 107.141 656.125 106.461C659.402 104.823 661.609 105.61 665.125 106.461Z" fill="#0A0A0A"/>
<path d="M312.125 382.461C313.445 382.461 314.765 382.461 316.125 382.461C316.125 385.431 316.125 388.401 316.125 391.461C322.873 391.749 322.873 391.749 329.125 389.461C329.785 388.471 330.445 387.481 331.125 386.461C333.6 386.956 333.6 386.956 336.125 387.461C335.692 388.791 335.692 388.791 335.25 390.148C335.209 391.242 335.167 392.335 335.125 393.461C338.942 397.564 342.936 399.489 348.125 401.461C348.125 398.161 348.125 394.861 348.125 391.461C349.781 391.079 351.45 390.747 353.125 390.461C354.765 392.101 354.374 393.956 354.437 396.211C354.387 399.732 354.17 401.371 352.562 404.586C350.125 406.461 350.125 406.461 347 407.148C340.927 406.071 335.269 403.09 331.328 398.258C330.931 397.665 330.534 397.072 330.125 396.461C328.64 396.708 328.64 396.708 327.125 396.961C316.504 398.38 316.504 398.38 312.125 395.461C309.401 391.374 309.57 389.3 310.125 384.461C310.785 383.801 311.445 383.141 312.125 382.461Z" fill="#0E0E0E"/>
<path d="M187.125 313.461C188.115 313.461 189.105 313.461 190.125 313.461C190.331 314.368 190.537 315.276 190.75 316.211C191.712 319.681 193.24 322.515 195 325.648C199.338 334.071 200.606 343.189 202.125 352.461C202.244 353.177 202.362 353.893 202.484 354.631C203.074 358.235 203.623 361.844 204.125 365.461C205.445 365.791 206.765 366.121 208.125 366.461C207.795 367.451 207.465 368.441 207.125 369.461C204.375 369.773 204.375 369.773 201.125 369.461C193.164 363.092 193.586 348.512 192.399 339.125C191.55 333.007 189.993 328.114 187.066 322.637C185.592 319.228 186.114 316.961 187.125 313.461Z" fill="#0E0E0E"/>
<path d="M661.125 265.461C678.711 263.835 695.002 272.274 708.492 283.07C711.125 285.461 711.125 285.461 712.125 288.149C712.125 288.912 712.125 289.675 712.125 290.461C711.465 291.121 710.805 291.781 710.125 292.461C706.726 292.134 705.073 290.731 702.688 288.399C694.628 281.182 685.925 276.407 675.75 272.961C675.001 272.706 674.252 272.45 673.481 272.187C668.859 270.722 664.97 270.205 660.125 270.461C660.455 268.811 660.785 267.161 661.125 265.461Z" fill="#0E0E0E"/>
<path d="M329.125 281.461C329.785 281.461 330.445 281.461 331.125 281.461C332.755 284.354 334.378 287.251 336 290.148C336.46 290.965 336.92 291.782 337.395 292.623C339.558 296.495 341.638 300.266 343.125 304.461C336.974 309.68 332.492 311.094 324.434 310.672C323.672 310.602 322.91 310.533 322.125 310.461C323.586 300.559 326.359 291.058 329.125 281.461Z" fill="#F5F5F5"/>
<path d="M140.125 363.461C142.188 363.898 142.188 363.898 144.125 364.461C143.526 368.291 142.396 371.224 140.57 374.637C140.043 375.623 139.516 376.608 138.972 377.624C138.404 378.663 137.836 379.703 137.25 380.773C136.669 381.84 136.089 382.906 135.49 384.005C122.741 407.074 122.741 407.074 115.125 413.461C112.375 413.211 112.375 413.211 110.125 412.461C110.701 408.347 113.071 405.556 115.5 402.336C123.838 390.98 130.881 378.762 137.883 366.551C139.125 364.461 139.125 364.461 140.125 363.461Z" fill="#0D0D0D"/>
<path d="M223.125 326.461C224.115 326.461 225.105 326.461 226.125 326.461C225.96 327.203 225.795 327.946 225.625 328.711C223.936 341.379 225.465 353.392 233.27 363.875C233.552 364.398 233.834 364.922 234.125 365.461C233.795 366.451 233.465 367.441 233.125 368.461C230.136 368.137 228.558 367.908 226.43 365.711C223.098 360.467 220.722 355.47 219.125 349.461C218.942 348.824 218.759 348.187 218.57 347.531C217.328 341.754 217.076 335.563 220.063 330.336C222.125 327.461 222.125 327.461 223.125 326.461Z" fill="#0D0D0D"/>
<path d="M155.125 377.461C155.125 378.781 155.125 380.101 155.125 381.461C154.046 381.826 152.967 382.191 151.855 382.566C147.696 384.362 146.367 386.649 144.438 390.773C144.004 391.691 144.004 391.691 143.562 392.627C141.09 398.059 139.467 403.606 138.047 409.402C137.122 412.472 135.89 414.799 134.125 417.461C132.805 417.131 131.485 416.801 130.125 416.461C130.851 404.609 135.353 390.394 143.77 381.777C147.695 378.406 150.024 377.327 155.125 377.461Z" fill="#111111"/>
<path d="M209.125 328.461C208.878 329.368 208.63 330.276 208.375 331.211C207.042 340.995 214.11 353.305 219.125 361.461C220.61 361.956 220.61 361.956 222.125 362.461C222.125 363.781 222.125 365.101 222.125 366.461C219.5 366.898 219.5 366.898 216.125 366.461C208.394 360.871 203.937 348.52 202.125 339.461C201.808 335.717 201.654 333.38 203.375 330.023C205.125 328.461 205.125 328.461 209.125 328.461Z" fill="#101010"/>
<path d="M316.125 347.461C322.845 348.181 322.845 348.181 324.125 349.461C324.64 356.67 323.591 363.091 319.25 369.023C316.658 370.777 315.196 370.876 312.125 370.461C310.292 368.628 310.866 365.865 310.813 363.398C310.839 357.311 311.605 351.981 316.125 347.461Z" fill="#050505"/>
<path d="M366.125 361.461C367.72 363.055 367.41 364.689 367.5 366.898C367.462 373.571 364.861 379.725 360.125 384.461C357.562 384.211 357.562 384.211 355.125 383.461C352.926 379.063 354.294 373.151 355.125 368.461C357.548 363.283 360.227 359.558 366.125 361.461Z" fill="#0B0B0B"/>
<path d="M382.125 53.4609C373.157 61.1287 361.111 67.0602 349.125 66.4609C349.576 65.0003 350.036 63.5425 350.5 62.0859C350.755 61.2738 351.01 60.4617 351.273 59.625C352.125 57.4609 352.125 57.4609 354.125 55.4609C356.384 55.0503 356.384 55.0503 359.176 54.8281C360.689 54.7024 360.689 54.7024 362.232 54.5742C363.29 54.4956 364.348 54.4169 365.438 54.3359C366.484 54.2496 367.53 54.1632 368.607 54.0742C373.127 53.7117 377.589 53.4127 382.125 53.4609Z" fill="#F2F2F2"/>
<path d="M162.125 379.461C163.115 379.791 164.105 380.121 165.125 380.461C164.692 381.451 164.692 381.451 164.25 382.461C161.196 390.605 160.39 398.858 159.5 407.461C159.366 408.713 159.232 409.964 159.094 411.254C158.766 414.322 158.443 417.391 158.125 420.461C155.65 420.956 155.65 420.956 153.125 421.461C152.328 393.107 152.328 393.107 160.125 381.461C160.785 380.801 161.445 380.141 162.125 379.461Z" fill="#101010"/>
<path d="M558.125 488.461C560.063 489.148 560.063 489.148 562.125 490.461C563.915 496.138 561.692 500 559.438 505.211C558.909 506.524 558.909 506.524 558.369 507.863C558.017 508.695 557.664 509.526 557.301 510.383C556.98 511.142 556.66 511.901 556.329 512.683C555.125 514.461 555.125 514.461 553.102 515.274C551.125 515.461 551.125 515.461 549.313 514.523C547.423 511.242 548.301 507.998 549.125 504.461C550.242 501.682 551.638 499.12 553.125 496.523C553.678 495.517 553.678 495.517 554.242 494.49C556.91 489.676 556.91 489.676 558.125 488.461Z" fill="#0E0E0E"/>
<path d="M187.125 519.461C190.205 524.081 191.423 529.184 193.125 534.461C185.535 534.461 177.945 534.461 170.125 534.461C172.512 532.87 174.346 531.957 176.938 530.898C182.059 528.427 184.401 524.289 187.125 519.461Z" fill="#F3F3F3"/>
<path d="M403.125 293.461C403.785 293.461 404.445 293.461 405.125 293.461C406.147 302.014 403.71 308.251 399.125 315.461C398.465 315.791 397.805 316.121 397.125 316.461C396.927 311.308 397.546 307.09 399 302.148C399.522 300.329 399.522 300.329 400.055 298.473C401.125 295.461 401.125 295.461 403.125 293.461Z" fill="#EFEFEF"/>
<path d="M510.125 253.461C509.988 255.23 509.988 255.23 509.125 257.461C506.543 259.348 506.543 259.348 503.312 261.148C502.254 261.75 501.196 262.352 500.105 262.973C497.699 264.174 495.747 264.985 493.125 265.461C493.125 264.141 493.125 262.821 493.125 261.461C497.938 256.762 503.09 252.84 510.125 253.461Z" fill="#0D0D0D"/>
<path d="M186.125 158.461C187.059 161.471 187.169 162.327 186.125 165.461C186.785 165.461 187.445 165.461 188.125 165.461C186.352 171.034 186.352 171.034 185.062 173.461C183.84 176.069 183.512 178.621 183.125 181.461C183.785 181.461 184.445 181.461 185.125 181.461C185.125 182.451 185.125 183.441 185.125 184.461C183.805 184.131 182.485 183.801 181.125 183.461C178.701 177.765 178.701 177.765 179.848 174.238C180.58 172.708 181.333 171.187 182.105 169.676C183.481 166.687 183.728 163.705 184.125 160.461C184.785 159.801 185.445 159.141 186.125 158.461Z" fill="#414141"/>
<path d="M323.125 275.461C324.492 279.563 323.131 282.493 321.875 286.461C321.407 287.991 320.939 289.521 320.473 291.051C320.242 291.8 320.011 292.548 319.774 293.32C318.455 297.671 317.292 302.067 316.125 306.461C315.465 306.461 314.805 306.461 314.125 306.461C313.25 295.303 317.834 285.067 323.125 275.461Z" fill="#E4E4E4"/>
<path d="M576.125 489.461C578.435 489.461 580.745 489.461 583.125 489.461C583.125 492.461 583.125 492.461 582.5 495.023C582.315 496.23 582.315 496.23 582.125 497.461C584.023 499.811 584.023 499.811 587.25 499.586C588.673 499.524 588.673 499.524 590.125 499.461C589.465 501.771 588.805 504.081 588.125 506.461C587.005 505.34 585.886 504.218 584.774 503.09C583.533 501.864 582.262 500.668 580.977 499.488C580.242 498.799 579.507 498.109 578.75 497.398C578.041 496.747 577.332 496.096 576.602 495.426C575.125 493.461 575.125 493.461 575.399 491.215C575.638 490.636 575.878 490.057 576.125 489.461Z" fill="#ECECEC"/>
<path d="M599.125 497.461C599.537 497.915 599.95 498.368 600.375 498.836C602.189 500.52 603.878 501.454 606.125 502.461C603.806 505.14 601.807 506.123 598.438 507.148C597.629 507.4 596.821 507.651 595.988 507.91C595.373 508.092 594.759 508.274 594.125 508.461C594.578 503.587 595.834 501.071 599.125 497.461Z" fill="#F0F0F0"/>
<path d="M565.125 479.461C566.8 479.747 568.469 480.079 570.125 480.461C570.312 482.836 570.312 482.836 570.125 485.461C567.125 487.461 567.125 487.461 564.938 487.086C564.339 486.88 563.741 486.673 563.125 486.461C564 480.586 564 480.586 565.125 479.461Z" fill="#1C1C1C"/>
<path d="M186.125 158.461C187.059 161.471 187.169 162.327 186.125 165.461C186.785 165.461 187.445 165.461 188.125 165.461C187.465 167.441 186.805 169.421 186.125 171.461C185.135 171.461 184.145 171.461 183.125 171.461C183.239 169.669 183.366 167.877 183.5 166.086C183.57 165.088 183.639 164.09 183.711 163.062C184.125 160.461 184.125 160.461 186.125 158.461Z" fill="#6E6E6E"/>
<path d="M580.125 497.461C580.929 497.956 580.929 497.956 581.75 498.461C584.664 499.688 586.994 499.603 590.125 499.461C589.465 501.771 588.805 504.081 588.125 506.461C585.193 503.608 582.482 500.81 580.125 497.461Z" fill="#C0C0C0"/>
<path d="M266.125 448.461C266.785 448.461 267.445 448.461 268.125 448.461C267.795 450.111 267.465 451.761 267.125 453.461C270.425 453.131 273.725 452.801 277.125 452.461C277.455 453.121 277.785 453.781 278.125 454.461C276.167 454.488 274.208 454.507 272.25 454.523C271.159 454.535 270.069 454.547 268.945 454.559C266.125 454.461 266.125 454.461 264.125 453.461C264.785 451.811 265.445 450.161 266.125 448.461Z" fill="#404040"/>
<path d="M323.125 275.461C324.309 279.013 323.82 280.159 322.688 283.648C322.4 284.549 322.113 285.451 321.816 286.379C321.588 287.066 321.36 287.753 321.125 288.461C320.135 288.131 319.145 287.801 318.125 287.461C319.436 283.227 321.069 279.387 323.125 275.461Z" fill="#C8C8C8"/>
<path d="M181.125 176.461C181.455 176.461 181.785 176.461 182.125 176.461C182.125 178.111 182.125 179.761 182.125 181.461C183.115 181.461 184.105 181.461 185.125 181.461C185.125 182.451 185.125 183.441 185.125 184.461C181.25 183.586 181.25 183.586 180.125 182.461C180 179.961 180 179.961 180.125 177.461C180.455 177.131 180.785 176.801 181.125 176.461Z" fill="#222222"/>
<path d="M82.1875 320.649C84.125 321.461 84.125 321.461 87.125 323.461C83.495 323.461 79.865 323.461 76.125 323.461C80.125 320.461 80.125 320.461 82.1875 320.649Z" fill="#D1D1D1"/>
<path d="M323.125 58.4609C324.775 58.4609 326.425 58.4609 328.125 58.4609C328.125 60.4409 328.125 62.4209 328.125 64.4609C326.437 62.8155 324.771 61.1481 323.125 59.4609C323.125 59.1309 323.125 58.8009 323.125 58.4609Z" fill="#E5E5E5"/>
</svg>
