<svg width="286" height="302" viewBox="0 0 286 302" fill="none" xmlns="http://www.w3.org/2000/svg">
<path d="M250.355 192.709C251.345 193.699 251.345 193.699 252.355 194.709C252.337 200.636 249.258 203.751 245.48 207.897C244.666 208.82 244.666 208.82 243.835 209.762C240.714 213.283 237.652 216.7 233.929 219.596C225.932 226.161 220.4 235.471 214.777 244.041C212.59 247.369 210.348 250.65 208.042 253.897C207.448 254.736 206.854 255.575 206.241 256.44C204.177 258.923 201.878 260.706 199.355 262.709C198.715 263.761 198.076 264.813 197.417 265.897C191.622 274.433 178.117 281.053 168.292 283.459C165.184 284.782 164.004 285.964 161.73 288.397C155.053 295.446 145.674 301.231 135.847 301.975C134.653 301.97 133.46 301.964 132.23 301.959C131.031 301.964 129.832 301.969 128.597 301.975C125.355 301.709 125.355 301.709 123.351 300.701C120.424 299.246 117.796 299.577 114.542 299.584C99.1175 299.078 82.9738 292.386 70.3547 283.709C69.317 283.009 68.2793 282.309 67.2101 281.588C62.7248 278.518 58.2773 275.447 53.9953 272.1C48.355 267.488 48.355 267.488 41.5617 265.545C39.8865 265.814 38.2161 266.115 36.5539 266.455C34.3547 266.709 34.3547 266.709 30.7922 265.022C20.6222 256.277 14.5209 243.36 8.35467 231.709C7.54449 230.212 7.5445 230.212 6.71795 228.686C2.2992 220.273 -1.13971 211.356 0.354671 201.709C2.06978 198.088 3.10322 196.302 6.72967 194.584C12.3186 194.85 15.9086 199.214 19.7922 202.834C22.7315 205.527 24.0481 206.63 27.9797 207.647C32.5056 209.071 33.9037 211.505 36.6047 215.279C38.2458 217.558 39.9781 219.623 41.8547 221.709C44.3572 224.52 46.6955 227.405 48.9797 230.397C54.1819 237.226 54.1819 237.226 61.3547 241.709C62.0147 241.049 62.6747 240.389 63.3547 239.709C67.7702 239.093 70.2728 240.5 73.9953 242.779C75.0665 243.429 76.1377 244.079 77.2414 244.748C78.3513 245.436 79.4612 246.125 80.6047 246.834C81.6991 247.499 82.7935 248.164 83.9211 248.85C89.5593 252.293 95.061 255.802 100.346 259.771C103.036 261.027 104.537 260.459 107.355 259.709C116.755 259.865 126.082 261.258 135.355 262.709C135.417 261.637 135.478 260.564 135.542 259.459C136.355 255.709 136.355 255.709 138.312 253.338C142.525 251.083 146.327 250.92 151.042 250.647C165.526 249.573 165.526 249.573 177.355 241.709C178.86 239.771 180.304 237.794 181.749 235.811C187.171 228.713 193.902 223.729 201.249 218.799C205.906 215.665 210.372 212.337 214.71 208.775C222.288 202.561 229.53 196.642 239.445 195.131C243.792 194.171 245.52 192.298 250.355 192.709Z" fill="#020202"/>
<path d="M52.3548 0.709087C57.3027 4.02155 60.9571 8.37125 64.6048 13.0216C69.5057 19.1709 75.1395 23.9299 81.3548 28.7091C82.7122 29.7706 82.7122 29.7706 84.097 30.8536C88.8755 34.4193 92.3307 36.5781 98.3548 36.7091C98.5598 37.2634 98.7647 37.8177 98.9759 38.3888C99.2453 39.1132 99.5147 39.8377 99.7923 40.5841C100.059 41.3034 100.326 42.0227 100.601 42.7638C101.334 44.7456 101.334 44.7456 102.355 46.7091C103.035 53.507 103.035 53.507 101.343 56.4981C97.876 60.7252 94.7488 63.0205 89.3548 63.7091C84.1745 63.9139 79.4359 63.7751 74.3548 62.7091C74.3592 63.6538 74.3637 64.5984 74.3682 65.5717C74.4089 74.5016 74.4388 83.4315 74.4584 92.3614C74.4688 96.9517 74.4829 101.542 74.5057 106.132C74.5275 110.567 74.5394 115.002 74.5445 119.437C74.5482 121.124 74.5554 122.811 74.5662 124.497C74.7002 146.207 74.7002 146.207 70.4798 150.709C68.3548 151.709 68.3548 151.709 66.2298 152.147C65.611 152.332 64.9923 152.518 64.3548 152.709C63.9217 153.699 63.9217 153.699 63.4798 154.709C62.3548 156.709 62.3548 156.709 59.4173 157.647C56.3548 157.709 56.3548 157.709 54.7923 156.397C54.3179 155.84 53.8435 155.283 53.3548 154.709C52.5298 154.379 51.7048 154.049 50.8548 153.709C48.2215 152.656 47.1067 151.901 45.3548 149.709C44.3302 144.506 45.3684 139.238 46.6595 134.174C49.1202 123.84 50.6272 113.329 52.3025 102.845C57.0443 73.2775 57.0443 73.2775 61.3548 68.7091C62.3448 68.7091 63.3348 68.7091 64.3548 68.7091C64.7403 60.5076 64.7403 60.5076 61.5306 53.2286C59.9725 51.7764 58.3866 50.3536 56.7767 48.9591C50.6174 43.2369 44.6341 33.8303 44.1673 25.2716C44.2292 24.426 44.291 23.5803 44.3548 22.7091C43.736 22.441 43.1173 22.1728 42.4798 21.8966C40.3548 20.7091 40.3548 20.7091 38.3548 17.7091C37.5164 13.6221 37.6101 10.0728 39.6282 6.37706C43.538 1.08454 45.5645 -1.30286 52.3548 0.709087Z" fill="#060606"/>
<path d="M207.355 13.7091C207.355 14.3691 207.355 15.0291 207.355 15.7091C208.138 15.8328 208.922 15.9566 209.73 16.0841C212.355 16.7091 212.355 16.7091 214.355 18.7091C214.787 22.498 214.453 26.2592 212.109 29.3536C210.269 30.9547 208.368 32.3324 206.355 33.7091C202.654 36.332 198.99 38.9958 195.355 41.7091C194.512 42.302 193.669 42.895 192.8 43.5059C190.368 45.4748 188.905 46.9865 187.355 49.7091C187.397 52.7273 187.397 52.7273 188.137 55.9854C189.482 63.9071 189.664 71.6566 189.656 79.6622C189.659 81.1396 189.664 82.6169 189.669 84.0943C189.676 87.1565 189.676 90.2186 189.67 93.2808C189.665 97.2084 189.682 101.136 189.705 105.063C189.719 108.098 189.72 111.133 189.717 114.168C189.718 115.618 189.723 117.068 189.733 118.517C189.745 120.529 189.737 122.542 189.727 124.554C189.728 125.697 189.728 126.841 189.729 128.019C189.605 128.907 189.482 129.795 189.355 130.709C186.355 132.709 186.355 132.709 183.667 132.334C182.904 132.128 182.141 131.922 181.355 131.709C181.025 130.719 180.695 129.729 180.355 128.709C179.695 128.709 179.035 128.709 178.355 128.709C178.407 129.722 178.407 129.722 178.46 130.756C178.487 131.648 178.514 132.54 178.542 133.459C178.577 134.341 178.612 135.223 178.648 136.131C178.304 139.156 177.352 140.465 175.355 142.709C169.48 141.834 169.48 141.834 168.355 140.709C167.597 129.065 168.745 117.635 170.287 106.098C172.39 93.0737 172.39 93.0737 169.355 80.7091C169.378 77.6934 169.378 77.6934 169.73 74.4591C169.841 73.3814 169.951 72.3038 170.066 71.1934C170.161 70.3736 170.256 69.5538 170.355 68.7091C166.798 72.6407 164.804 75.5157 163.355 80.7091C162.355 81.7091 162.355 81.7091 159.792 82.1466C153.983 81.4072 150.215 77.7437 146.355 73.5216C144.493 68.286 144.162 62.8214 146.175 57.5684C150.811 50.3955 159.235 46.0929 166.355 41.7091C167.23 41.1586 168.105 40.6082 169.007 40.0411C171.355 38.7091 171.355 38.7091 173.769 37.9044C177.493 36.1829 179.908 33.5138 182.73 30.5841C183.304 30.0009 183.878 29.4178 184.47 28.817C187.543 25.6732 190.475 22.4617 193.292 19.0841C197.302 14.4012 201.115 11.6904 207.355 13.7091Z" fill="#030303"/>
<path d="M261.996 78.4356C266.538 80.2858 270.018 82.2376 272.355 86.7091C273.004 91.011 272.829 93.9984 270.355 97.7091C271.019 97.856 271.683 98.003 272.367 98.1544C280.492 100.218 280.492 100.218 283.48 103.397C285.972 107.8 286.032 111.815 284.898 116.663C284.268 118.631 283.559 120.54 282.792 122.459C282.525 123.147 282.258 123.835 281.982 124.544C278.996 131.979 275.672 139.957 269.417 145.147C265.818 149.619 266.921 155.204 267.355 160.709C267.542 162.108 267.746 163.505 267.98 164.897C268.104 165.825 268.227 166.753 268.355 167.709C266.355 169.709 266.355 169.709 263.855 169.959C261.355 169.709 261.355 169.709 259.355 167.709C259.16 165.545 259.16 165.545 259.23 163.084C259.248 162.267 259.266 161.45 259.285 160.608C259.308 159.981 259.331 159.355 259.355 158.709C258.781 158.669 258.208 158.629 257.617 158.588C254.24 157.276 252.967 154.626 251.167 151.647C250.784 151.03 250.4 150.414 250.005 149.779C244.968 141.603 240.008 133.25 235.859 124.584C233.721 120.498 230.867 117.086 227.999 113.49C226.037 110.171 225.693 108.5 226.355 104.709C229.629 100.543 233.907 97.2862 239.105 96.0606C243.242 95.9006 245.573 96.1504 248.98 98.5841C250.355 100.709 250.355 100.709 250.355 102.709C252.632 101.975 254.9 101.223 257.167 100.459C257.81 100.254 258.453 100.049 259.115 99.838C263.004 98.5078 265.395 97.3991 267.355 93.7091C267.606 91.0415 267.606 91.0415 267.355 88.7091C261.824 85.4138 257.822 83.8746 251.355 84.7091C247.781 86.0628 247.781 86.0628 245.355 88.7091C244.854 92.3776 244.854 92.3776 245.355 95.7091C240.605 94.9591 240.605 94.9591 238.355 92.7091C237.829 88.8554 238.209 86.9846 240.042 83.5216C245.823 76.4914 253.543 76.1099 261.996 78.4356Z" fill="#0A0A0A"/>
<path d="M275.355 103.709C278.605 105.147 278.605 105.147 280.355 107.709C281.319 119.28 272.468 132.174 265.355 140.709C262.584 137.938 262.257 134.789 261.417 131.084C260.365 126.605 259.329 122.276 257.542 118.022C256.355 114.709 256.355 114.709 256.23 112.084C260.104 103.905 266.863 102.233 275.355 103.709Z" fill="#FAFAFA"/>
<path d="M241.417 102.147C245.391 102.908 246.071 104.427 248.355 107.709C252.424 115.879 255.006 124.511 257.23 133.334C257.445 134.187 257.66 135.04 257.882 135.918C258.842 139.914 259.642 143.567 259.355 147.709C255.633 143.335 252.701 138.604 249.73 133.709C249.24 132.915 248.75 132.121 248.245 131.303C242.107 121.239 242.107 121.239 242.73 117.397C242.936 116.84 243.142 116.283 243.355 115.709C242.777 115.585 242.2 115.462 241.605 115.334C239.181 114.661 237.425 114.158 235.355 112.709C234.105 109.584 234.105 109.584 233.355 106.709C236.037 104.184 237.754 102.819 241.417 102.147Z" fill="#F2F2F2"/>
<path d="M259.355 83.7091C262.516 84.9062 265.932 86.2859 268.355 88.7091C268.787 91.8236 268.483 93.459 267.042 96.2716C262.589 100.311 256.399 102.709 250.355 102.709C249.777 101.905 249.2 101.1 248.605 100.272C246.488 97.3489 246.488 97.3489 242.605 96.8966C240.996 96.8038 240.996 96.8038 239.355 96.7091C240.345 96.0491 241.335 95.3891 242.355 94.7091C243.345 95.0391 244.335 95.3691 245.355 95.7091C245.087 94.6366 244.818 93.5641 244.542 92.4591C244.449 90.6029 244.449 90.6029 244.355 88.7091C248.841 84.1011 253.028 82.87 259.355 83.7091Z" fill="#F3F3F3"/>
<path d="M57.3547 18.7091C71.4136 30.6741 71.4136 30.6741 77.3547 36.7091C71.7466 36.2885 67.5396 34.3958 63.3547 30.7091C57.3547 22.6244 57.3547 22.6244 57.3547 18.7091Z" fill="#DDDDDD"/>
<path d="M93.6672 47.6466C95.3547 49.7091 95.3547 49.7091 95.3547 51.7091C89.1731 51.1715 84.0279 49.1633 78.3547 46.7091C78.3547 46.3791 78.3547 46.0491 78.3547 45.7091C89.3524 44.0315 89.3524 44.0315 93.6672 47.6466Z" fill="#EDEDED"/>
</svg>
