<svg width="242" height="537" viewBox="0 0 242 537" fill="none" xmlns="http://www.w3.org/2000/svg">
<path d="M113 0C115.375 0.0625 115.375 0.0625 118 1C118.549 1.72832 119.098 2.45664 119.664 3.20703C122.67 6.8015 126.126 9.0388 130 11.625C136.547 16.1135 142.464 20.843 148.191 26.332C150.381 28.4122 152.597 30.387 154.887 32.3516C158.929 35.869 162.612 39.6324 166.25 43.5625C166.893 44.2521 167.535 44.9418 168.197 45.6523C174.326 52.2719 180.184 59.1068 186 66C193.997 76.232 193.997 76.232 204 84C204.99 82.02 204.99 82.02 206 80C208.375 79.875 208.375 79.875 211 80C213 82 213 82 213.125 85.625C213.084 86.7387 213.043 87.8525 213 89C213.99 89.33 214.98 89.66 216 90C215.983 90.8779 215.983 90.8779 215.965 91.7734C215.913 96.6964 216.014 101.569 216.359 106.482C218.125 132.489 217.087 158.153 214 184C214.66 184 215.32 184 216 184C216.439 188.6 214.93 191.68 212.812 195.625C212.074 197.058 211.337 198.491 210.602 199.926C209.983 201.126 209.983 201.126 209.353 202.35C201.382 217.965 194.042 233.765 187.602 250.068C185.789 254.656 183.985 259.159 181.699 263.535C179.602 267.812 179.571 270.59 181 275C183.553 281.255 186.729 286.813 190.812 292.188C194.394 296.912 197.239 301.833 200 307.062C200.398 307.814 200.796 308.565 201.206 309.339C204 314.728 204 314.728 204 317C204.66 317 205.32 317 206 317C205.959 315.886 205.918 314.773 205.875 313.625C206 310 206 310 208 308C210.562 307.812 210.562 307.812 213 308C214 309 214 309 214.125 311.5C214 314 214 314 213 315C212.9 317.29 212.87 319.583 212.875 321.875C212.872 323.131 212.87 324.386 212.867 325.68C212.846 329.001 212.846 329.001 214 332C214.99 331.34 215.98 330.68 217 330C217.99 330 218.98 330 220 330C220.25 332.312 220.25 332.312 220 335C217.956 336.976 216.882 338 214 338C214.141 339.06 214.282 340.12 214.427 341.212C217.326 363.121 219.865 384.919 221 407C222.355 405.844 222.355 405.844 223.738 404.664C224.93 403.651 226.121 402.638 227.312 401.625C227.907 401.117 228.502 400.609 229.115 400.086C229.692 399.596 230.269 399.106 230.863 398.602C231.657 397.926 231.657 397.926 232.466 397.237C235.862 394.498 237.7 393.768 242 394C241.423 397.571 240.157 399.191 237.578 401.68C236.882 402.362 236.186 403.044 235.469 403.746C234.737 404.449 234.004 405.151 233.25 405.875C223.373 414.563 223.373 414.563 218.75 426.312C218.058 431.942 218.058 431.942 217 433C215.334 433.041 213.666 433.043 212 433C212 432.34 212 431.68 212 431C204.286 438.632 197.131 446.695 190.332 455.148C188.308 457.624 186.224 460.032 184.115 462.434C171.249 477.203 161.259 494.087 151.547 511.02C150.931 512.087 150.316 513.155 149.681 514.255C148.463 516.371 147.251 518.49 146.047 520.614C142.8 526.256 139.598 531.364 135 536C131.125 536.938 131.125 536.938 128 537C127.375 534.625 127.375 534.625 127 532C127.66 531.34 128.32 530.68 129 530C130.32 530 131.64 530 133 530C133.621 527.748 133.621 527.748 133 525C130.81 522.722 128.226 521.03 125.625 519.25C124.146 518.191 122.669 517.129 121.195 516.062C120.474 515.543 119.752 515.024 119.009 514.488C113.257 510.227 108.17 505.241 103.25 500.062C97.1403 493.854 89.6636 489.01 82.3672 484.301C73.263 478.336 65.2355 470.297 58.4023 461.836C49.6397 451.492 37.1256 446.333 25 441C24.01 442.98 24.01 442.98 23 445C20.125 444.688 20.125 444.688 17 444C12.6248 437.437 15.0155 428.103 16.0938 420.609C16.2046 419.839 16.3154 419.068 16.4296 418.274C16.5448 417.474 16.6599 416.674 16.7786 415.849C20.8173 387.603 20.5197 359.475 20 331C19.01 330.67 18.02 330.34 17 330C17.33 328.35 17.66 326.7 18 325C18.9281 324.907 18.9281 324.907 19.875 324.812C20.5763 324.544 21.2775 324.276 22 324C22.7209 322.356 23.3781 320.684 24 319C25.832 315.094 27.7656 311.238 29.6875 307.375C30.4445 305.83 30.4445 305.83 31.2168 304.254C37.3313 291.963 43.1753 281.994 54.8516 274.488C56.7571 273.168 58.284 271.86 59.875 270.188C62 268 62 268 65 267C55.504 253.798 45.7066 241.165 34.6082 229.274C29.5278 223.823 25.0569 218.261 21 212C20.3493 210.998 20.3493 210.998 19.6855 209.975C17.7231 206.95 15.7619 203.925 13.8184 200.888C9.07207 193.302 9.07207 193.302 2 188C2.3125 186.062 2.3125 186.062 3 184C3.99 183.67 4.98 183.34 6 183C5.96906 181.752 5.93812 180.504 5.90625 179.219C5.90625 173.563 6.71706 168.091 7.5 162.5C9.85291 144.36 9.51921 126.203 8 108C6.86563 108.021 5.73125 108.041 4.5625 108.062C1 108 1 108 0 107C0.384941 102.92 0.813825 99.4938 3 96C4.89696 94.5549 4.89696 94.5549 7.15015 93.2087C11.9023 90.1772 15.6827 86.6911 19.5977 82.6602C20.6155 81.6324 20.6155 81.6324 21.6539 80.5838C23.7974 78.4172 25.9305 76.2405 28.0625 74.0625C30.1998 71.8899 32.3394 69.7195 34.4818 67.5519C35.8064 66.2106 37.1279 64.8662 38.4456 63.5181C42.2262 59.6771 46.1297 56.0523 50.2176 52.5394C52.8115 50.2992 55.3046 47.9611 57.8125 45.625C62.4593 41.3323 67.2383 37.2631 72.1758 33.3047C74.6805 31.2607 77.1097 29.1499 79.5352 27.0132C85.0582 22.1907 90.8093 17.9035 96.9375 13.875C98.0022 13.1646 98.0022 13.1646 99.0884 12.4399C103.088 9.87694 106.181 8.48557 111 8C111.33 7.67 111.66 7.34 112 7C111.814 6.19563 111.629 5.39125 111.438 4.5625C111.221 3.29406 111.221 3.29406 111 2C111.66 1.34 112.32 0.68 113 0Z" fill="#FDFDFD"/>
<path d="M113 0C115.375 0.0625 115.375 0.0625 118 1C118.549 1.72832 119.098 2.45664 119.664 3.20703C122.67 6.8015 126.127 9.0388 130 11.625C136.548 16.1135 142.464 20.843 148.192 26.332C150.381 28.4122 152.597 30.387 154.887 32.3516C158.929 35.869 162.612 39.6324 166.25 43.5625C166.893 44.2521 167.535 44.9418 168.197 45.6523C174.326 52.2719 180.184 59.1068 186 66C193.997 76.232 193.997 76.232 204 84C204.99 82.02 204.99 82.02 206 80C208.375 79.875 208.375 79.875 211 80C213 82 213 82 213.125 85.625C213.084 86.7387 213.043 87.8525 213 89C213.99 89.33 214.98 89.66 216 90C215.983 90.8779 215.983 90.8779 215.965 91.7734C215.913 96.6964 216.014 101.569 216.359 106.482C218.126 132.489 217.087 158.153 214 184C214.66 184 215.32 184 216 184C216.439 188.6 214.93 191.68 212.813 195.625C212.074 197.058 211.337 198.491 210.602 199.926C209.983 201.126 209.983 201.126 209.353 202.35C201.382 217.965 194.042 233.765 187.602 250.068C185.789 254.656 183.985 259.159 181.699 263.535C179.602 267.812 179.571 270.59 181 275C183.553 281.255 186.729 286.813 190.813 292.188C194.394 296.912 197.239 301.833 200 307.062C200.398 307.814 200.796 308.565 201.206 309.339C204 314.728 204 314.728 204 317C204.66 317 205.32 317 206 317C205.959 315.886 205.918 314.773 205.875 313.625C206 310 206 310 208 308C210.563 307.812 210.563 307.812 213 308C214 309 214 309 214.125 311.5C214 314 214 314 213 315C212.901 317.29 212.87 319.583 212.875 321.875C212.873 323.131 212.87 324.386 212.867 325.68C212.846 329.001 212.846 329.001 214 332C214.99 331.34 215.98 330.68 217 330C217.99 330 218.98 330 220 330C220.25 332.312 220.25 332.312 220 335C217.956 336.976 216.882 338 214 338C214.141 339.06 214.282 340.12 214.427 341.212C217.326 363.121 219.865 384.919 221 407C222.356 405.844 222.356 405.844 223.738 404.664C224.93 403.651 226.121 402.638 227.313 401.625C227.908 401.117 228.502 400.609 229.115 400.086C229.692 399.596 230.269 399.106 230.863 398.602C231.657 397.926 231.657 397.926 232.466 397.237C235.863 394.498 237.7 393.768 242 394C241.423 397.571 240.157 399.191 237.578 401.68C236.882 402.362 236.186 403.044 235.469 403.746C234.737 404.449 234.004 405.151 233.25 405.875C223.374 414.563 223.374 414.563 218.75 426.312C218.058 431.942 218.058 431.942 217 433C215.334 433.041 213.666 433.043 212 433C212 432.34 212 431.68 212 431C204.286 438.632 197.131 446.695 190.332 455.148C188.308 457.624 186.224 460.032 184.115 462.434C171.249 477.203 161.259 494.087 151.547 511.02C150.931 512.087 150.316 513.155 149.682 514.255C148.463 516.371 147.251 518.49 146.047 520.614C142.8 526.256 139.598 531.364 135 536C131.125 536.938 131.125 536.938 128 537C127.375 534.625 127.375 534.625 127 532C127.66 531.34 128.32 530.68 129 530C130.32 530 131.64 530 133 530C133.621 527.748 133.621 527.748 133 525C130.81 522.722 128.226 521.03 125.625 519.25C124.146 518.191 122.669 517.129 121.195 516.062C120.474 515.543 119.752 515.024 119.009 514.488C113.257 510.227 108.17 505.241 103.25 500.062C97.1404 493.854 89.6637 489.01 82.3673 484.301C73.2631 478.336 65.2356 470.297 58.4025 461.836C49.6398 451.492 37.1257 446.333 25.0001 441C24.0101 442.98 24.0101 442.98 23.0001 445C20.1251 444.688 20.1251 444.688 17.0001 444C12.6249 437.437 15.0156 428.103 16.0939 420.609C16.2047 419.839 16.3156 419.068 16.4298 418.274C16.6025 417.074 16.6025 417.074 16.7787 415.849C20.8175 387.603 20.5199 359.475 20.0001 331C19.0101 330.67 18.0201 330.34 17.0001 330C17.3301 328.35 17.6601 326.7 18.0001 325C18.9283 324.907 18.9283 324.907 19.8751 324.812C20.927 324.41 20.927 324.41 22.0001 324C22.721 322.356 23.3782 320.684 24.0001 319C25.8321 315.094 27.7657 311.238 29.6876 307.375C30.1923 306.345 30.697 305.315 31.2169 304.254C37.3238 291.978 43.1622 281.962 54.8556 274.496C56.7958 273.143 58.2439 271.816 59.8126 270.062C60.5345 269.382 61.2564 268.701 62.0001 268C64.3126 268.188 64.3126 268.188 66.0001 269C65.5096 273.251 62.958 276.108 60.0001 279C58.7602 279.848 57.5093 280.681 56.2501 281.5C47.4179 287.896 42.3623 299.916 37.2545 309.311C35.0963 313.238 32.7576 316.687 29.9376 320.188C25.2265 326.705 26.6215 333.451 27.2567 341.082C28.0298 350.787 28.2792 360.455 28.3126 370.188C28.3185 371.452 28.3185 371.452 28.3246 372.741C28.3695 393.615 26.2977 414.273 24.0001 435C24.9052 435.191 24.9052 435.191 25.8285 435.387C26.6278 435.559 27.4271 435.732 28.2506 435.91C29.0396 436.079 29.8286 436.247 30.6415 436.421C34.2168 437.298 37.5174 438.633 40.8751 440.125C41.9088 440.584 41.9088 440.584 42.9633 441.051C54.8725 446.532 64.0882 455.028 72.3751 465.062C77.8749 471.431 84.9956 475.779 92.1066 480.155C102.134 486.366 110.253 494.121 118.438 502.562C124.099 508.33 130.582 513.115 137 518C137.392 517.254 137.392 517.254 137.791 516.494C139.949 512.387 142.109 508.283 144.274 504.18C145.916 501.066 147.548 497.948 149.164 494.82C161.047 471.954 177.455 452.693 195.098 434.121C199.478 429.509 203.774 424.825 208.059 420.125C210 418 210 418 211 417C211.923 402.841 210.422 388.422 209.199 374.326C208.985 371.818 208.78 369.309 208.576 366.8C208.188 362.143 207.746 357.494 207.273 352.844C207.094 351.015 206.928 349.183 206.778 347.351C205.825 335.936 203.943 327.969 196.479 319.096C193.772 315.715 191.859 312.294 189.938 308.438C187.386 303.432 184.618 298.857 181.313 294.312C176.396 287.4 173.529 280.33 170.719 272.371C165.843 258.947 157.585 249.539 147.891 239.296C142.151 233.195 137.043 226.681 132 220C131.522 219.368 131.044 218.737 130.552 218.086C125.917 211.951 121.321 205.788 116.75 199.605C115.95 198.527 115.95 198.527 115.133 197.427C114.117 196.059 113.105 194.688 112.096 193.315C109.904 190.366 107.789 187.794 105.141 185.219C104.434 184.487 103.728 183.754 103 183C103.188 180.188 103.188 180.188 104 178C111.57 179.026 115.361 184.808 119.797 190.598C122.385 194.032 124.932 197.495 127.483 200.957C136.842 213.56 146.916 225.588 157.625 237.062C161.481 241.232 165.094 245.503 168.563 250C169.189 250.81 169.189 250.81 169.829 251.637C171.858 254.314 173.633 256.926 175 260C177.304 254.68 179.545 249.356 181.469 243.887C184.864 234.243 188.717 224.912 193 215.625C193.729 214.04 193.729 214.04 194.473 212.423C194.956 211.389 195.44 210.355 195.938 209.289C196.398 208.3 196.859 207.31 197.334 206.291C199 203 199 203 200.791 200.34C207.607 189.86 207.081 179.425 207.121 167.293C207.153 165.114 207.188 162.936 207.226 160.757C207.316 155.064 207.367 149.372 207.408 143.678C207.458 137.852 207.546 132.027 207.631 126.201C207.792 114.801 207.91 103.401 208 92C206.587 91.5519 206.587 91.5519 205.144 91.0947C202.01 90.0035 200.115 88.8293 197.563 86.75C196.793 86.1248 196.023 85.4996 195.231 84.8555C194.495 84.2432 193.758 83.6309 193 83C192.378 82.5011 191.755 82.0023 191.113 81.4883C187.347 78.3987 184.162 75.0341 181.008 71.3281C178.604 68.5406 176.12 65.831 173.625 63.125C170.255 59.4686 166.92 55.7874 163.625 52.0625C160.005 48.0329 156.258 44.151 152.438 40.3125C151.92 39.7899 151.402 39.2672 150.868 38.7288C144.023 31.9105 136.647 25.8296 129 19.9375C128.245 19.3516 127.489 18.7657 126.711 18.1621C122.239 14.6983 122.239 14.6983 117.696 11.3276C116.974 10.8031 116.252 10.2787 115.508 9.73828C114.86 9.27591 114.211 8.81354 113.544 8.33716C112 7 112 7 110.875 4.25C111 2 111 2 113 0Z" fill="#090909"/>
<path d="M112 9.00005C111.677 11.9282 111.153 12.8681 108.883 14.8243C107.973 15.4392 107.063 16.054 106.125 16.6876C95.9187 23.8293 86.7455 31.9421 77.6704 40.4385C74.895 43.033 72.104 45.6105 69.3125 48.1875C68.7687 48.69 68.2249 49.1925 67.6646 49.7103C64.4637 52.6637 61.2428 55.5926 58 58.5C48.2167 67.2784 38.6224 76.258 29.0876 85.305C24.4891 89.6532 19.7926 93.8668 15 98.0001C15.2681 99.2582 15.5362 100.516 15.8125 101.813C16.2154 103.874 16.61 105.936 17 108C17.1284 108.665 17.2568 109.331 17.3892 110.016C20.7601 127.831 20.714 144.496 18.0679 162.429C16.2363 173.865 16.2363 173.865 17.6973 185.158C17.8471 186.07 17.8471 186.07 18 187C16.5625 188.75 16.5625 188.75 15 190C27.4432 208.321 27.4432 208.321 41.9375 224.938C52.5273 235.126 60.769 248.04 69.4209 259.85C73.7001 265.677 78.0064 271.487 82.4883 277.16C86.6542 282.453 90.5073 287.683 93.9375 293.5C97.5764 299.609 101.852 304.789 106.527 310.106C108.498 312.412 110.146 314.63 111.75 317.188C114.665 320.832 116.497 321.205 121 322C121.043 323.666 121.041 325.334 121 327C120.67 327.33 120.34 327.66 120 328C119.927 330.062 119.925 332.126 119.95 334.189C119.956 334.84 119.962 335.49 119.969 336.161C119.982 337.588 119.998 339.015 120.016 340.443C120.063 344.353 120.088 348.263 120.115 352.173C120.122 353 120.128 353.826 120.134 354.678C120.37 386.416 119.625 417.663 116.458 449.272C115.839 455.506 115.397 461.749 115 468C113.35 468.33 111.7 468.66 110 469C107.281 464.326 106.607 460.893 106.566 455.508C106.56 454.783 106.553 454.058 106.546 453.311C106.533 450.915 106.546 448.521 106.562 446.125C106.564 445.288 106.565 444.451 106.566 443.589C106.6 430.033 107.706 416.78 109.284 403.329C111.02 388.229 111.367 373.255 111.312 358.063C111.308 356.428 111.308 356.428 111.304 354.759C111.291 351.643 111.268 348.527 111.238 345.41C111.231 344.49 111.223 343.57 111.215 342.622C111.471 332.267 111.471 332.267 107.883 322.988C106.518 321.664 106.518 321.664 105.125 320.313C104.116 319.288 103.111 318.259 102.109 317.227C101.593 316.7 101.077 316.173 100.545 315.63C93.3723 308.063 87.334 299.551 82.3433 290.413C79.7777 285.845 76.5804 282.216 73.054 278.354C69.7562 274.574 66.9971 270.461 64.1875 266.313C56.4293 255.066 48.3545 244.398 39.054 234.386C29.8757 224.504 22.4102 214.297 15.228 202.936C13.5611 200.308 11.864 197.705 10.125 195.125C9.63258 194.385 9.14016 193.645 8.63281 192.883C6.6841 190.636 4.60429 189.404 2 188C2.3125 186.063 2.3125 186.063 3 184C3.99 183.67 4.98 183.34 6 183C5.96906 181.752 5.93812 180.504 5.90625 179.219C5.90625 173.563 6.71706 168.091 7.5 162.5C9.85291 144.36 9.51921 126.203 8 108C6.86563 108.021 5.73125 108.041 4.5625 108.063C1 108 1 108 0 107C0.384941 102.92 0.813825 99.4938 3 96.0001C4.89696 94.555 4.89696 94.555 7.15015 93.2088C11.9023 90.1773 15.6827 86.6911 19.5977 82.6602C20.6155 81.6324 20.6155 81.6324 21.6539 80.5839C23.7974 78.4172 25.9305 76.2406 28.0625 74.0626C30.1998 71.8899 32.3394 69.7195 34.4818 67.5519C35.8064 66.2106 37.1279 64.8663 38.4456 63.5181C42.2262 59.6771 46.1297 56.0523 50.2176 52.5394C52.8115 50.2992 55.3046 47.9611 57.8125 45.625C62.4593 41.3323 67.2383 37.2632 72.1758 33.3047C74.6807 31.2606 77.1099 29.1493 79.5361 27.0132C102.68 6.79266 102.68 6.79266 112 9.00005Z" fill="#0A0A0A"/>
<path d="M174 373C176.937 372.562 176.937 372.562 180 373C181.875 375 181.875 375 183 377C183.66 376.34 184.32 375.68 185 375C187.01 375.262 189.012 375.602 191 376C194.755 376.066 194.755 376.066 197.5 375.75C200 376 200 376 202.187 377.375C207.234 384.683 206.778 395.49 206 404C205.34 404.66 204.68 405.32 204 406C201.562 405.938 201.562 405.938 199 405C197.062 402.37 196.033 400.099 195 397C194.01 397.66 193.02 398.32 192 399C189.437 399.25 189.437 399.25 187 399C186.34 398.34 185.68 397.68 185 397C184.951 397.987 184.902 398.975 184.851 399.992C184.777 401.274 184.702 402.555 184.625 403.875C184.555 405.151 184.486 406.427 184.414 407.742C184 411 184 411 182 413C179.5 413.25 179.5 413.25 177 413C174.399 410.399 174.64 409.062 174.402 405.434C174.323 404.308 174.244 403.182 174.162 402.021C174.088 400.839 174.014 399.656 173.937 398.438C173.781 396.124 173.624 393.81 173.465 391.496C173.392 390.387 173.32 389.279 173.246 388.136C173.027 385.351 172.698 382.614 172.316 379.848C172 376 172 376 174 373Z" fill="#050505"/>
<path d="M121 88C121.33 89.65 121.66 91.3 122 93C121.361 93.2888 120.721 93.5775 120.063 93.875C117.848 94.8283 117.848 94.8283 117 97C116.91 98.3985 116.883 99.8013 116.887 101.203C116.888 102.083 116.889 102.964 116.89 103.872C116.897 104.84 116.903 105.807 116.91 106.805C116.914 107.82 116.918 108.836 116.922 109.883C116.981 121.718 117.162 133.552 117.372 145.386C117.439 149.183 117.498 152.98 117.557 156.777C117.599 159.208 117.641 161.639 117.684 164.07C117.7 165.197 117.717 166.324 117.734 167.485C117.754 168.532 117.774 169.579 117.795 170.657C117.81 171.571 117.826 172.485 117.842 173.428C118.002 176.031 118.428 178.458 119 181C112.701 180.515 112.701 180.515 109.796 178.379C107.384 175.183 107.505 173.17 107.514 169.187C107.51 168.51 107.507 167.833 107.503 167.135C107.495 164.9 107.517 162.665 107.539 160.43C107.542 158.868 107.542 157.305 107.542 155.743C107.545 152.466 107.562 149.19 107.588 145.913C107.622 141.737 107.63 137.562 107.629 133.386C107.629 130.157 107.64 126.927 107.655 123.698C107.661 122.16 107.665 120.622 107.666 119.084C107.712 96.7692 107.712 96.7692 113 90C116.228 87.8481 117.284 87.7992 121 88Z" fill="#0C0C0C"/>
<path d="M130 377C132.937 377.255 135.307 377.633 137.925 379.021C140.204 380.096 141.823 380.307 144.328 380.414C145.527 380.472 145.527 380.472 146.75 380.531C147.987 380.578 147.987 380.578 149.25 380.625C150.09 380.664 150.931 380.702 151.797 380.742C153.864 380.836 155.932 380.919 158 381C158.598 382.867 158.598 382.867 159 385C156.285 388.692 153.381 389.927 149 391C147.334 391.029 145.666 391.034 144 391C144.205 392.23 144.41 393.46 144.621 394.727C146.246 404.477 146.246 404.477 146.632 406.825C146.951 408.71 147.308 410.588 147.672 412.465C148 415 148 415 146.812 416.938C145 418 145 418 143 417.875C140.67 416.856 139.576 416 138 414C137.647 411.596 137.647 411.596 137.664 408.781C137.651 407.767 137.638 406.752 137.625 405.707C137.625 403.569 137.633 401.431 137.648 399.293C137.605 396.452 137.534 393.792 137 391C134.762 388.769 134.762 388.769 132 388C128.122 384.856 128.122 384.856 127.625 381.375C128 379 128 379 130 377Z" fill="#080808"/>
<path d="M161 384C162.875 384.125 162.875 384.125 165 385C167.539 390.467 167.402 396.15 167.562 402.062C167.623 404.012 167.686 405.961 167.754 407.91C167.778 408.767 167.802 409.625 167.826 410.508C168.005 413.076 168.442 415.49 169 418C166.03 418.495 166.03 418.495 163 419C159.435 415.19 158.5 412.91 158.539 407.711C158.543 406.522 158.547 405.334 158.551 404.109C158.575 402.877 158.6 401.645 158.625 400.375C158.626 399.135 158.628 397.895 158.629 396.617C158.719 387.422 158.719 387.422 161 384Z" fill="#111111"/>
<path d="M152 208C154.812 208.125 154.812 208.125 158 209C161.616 213.907 162.108 220.102 163 226C161.35 226.33 159.7 226.66 158 227C157.619 225.753 157.619 225.753 157.23 224.48C156.886 223.394 156.542 222.307 156.188 221.188C155.851 220.109 155.515 219.03 155.168 217.918C154.05 215.126 153.138 213.989 151 212C151.312 209.812 151.312 209.812 152 208Z" fill="#111111"/>
<path d="M166.625 368.313C169 369 169 369 170 370C170.041 371.666 170.043 373.334 170 375C169.01 375.33 168.02 375.66 167 376C166.67 376.99 166.34 377.98 166 379C164.125 378.688 164.125 378.688 162 378C160 375 160 375 160.187 372.438C161.374 368.878 162.898 367.869 166.625 368.313Z" fill="#131313"/>
</svg>
