<svg width="504" height="314" viewBox="0 0 504 314" fill="none" xmlns="http://www.w3.org/2000/svg">
<path d="M359.125 0.87261C360.934 2.69292 360.934 2.69292 362.562 4.99761C363.464 6.21771 363.464 6.21771 364.383 7.46245C364.958 8.25781 365.533 9.05316 366.125 9.87261C369.398 14.3176 372.271 17.0816 377.188 19.6851C383.027 23.0183 384.612 26.8255 387.125 32.8726C397.684 55.2117 411.161 75.0118 427.125 93.8726C429.415 91.9258 430.76 89.8519 432.188 87.2476C434.125 83.8726 434.125 83.8726 436.125 82.8726C438.371 77.7566 439.027 72.4148 437.633 66.939C436.656 62.9622 436.621 58.9255 437.125 54.8726C439.125 51.7476 439.125 51.7476 441.125 49.8726C443.562 50.2476 443.562 50.2476 446.125 50.8726C447.387 53.3974 447.224 55.1846 447.188 57.9976C447.178 58.9077 447.169 59.8178 447.16 60.7554C447.143 61.8034 447.143 61.8034 447.125 62.8726C448.115 63.2026 449.105 63.5326 450.125 63.8726C450.125 64.5326 450.125 65.1926 450.125 65.8726C451.61 64.8826 451.61 64.8826 453.125 63.8726C455.312 64.2476 455.312 64.2476 457.125 64.8726C457.688 66.8101 457.688 66.8101 458.125 68.8726C457.795 69.2026 457.465 69.5326 457.125 69.8726C455.977 79.7114 458.41 88.1303 461.35 97.3462C462.849 102.234 464.138 107.178 465.438 112.123C465.837 113.605 465.837 113.605 466.245 115.118C466.49 116.053 466.735 116.988 466.988 117.951C467.208 118.78 467.427 119.609 467.654 120.463C468.148 122.991 468.208 125.304 468.125 127.873C466.805 128.203 465.485 128.533 464.125 128.873C460.759 123.069 459.333 117.73 458.051 111.169C456.933 105.714 455.419 100.363 453.938 94.9976C453.526 93.5066 453.526 93.5066 453.106 91.9854C452.449 89.6136 451.789 87.2427 451.125 84.8726C450.317 94.9798 450.469 101.73 456.594 110.322C458.284 113.138 458.45 114.65 458.125 117.873C456.805 117.873 455.485 117.873 454.125 117.873C451.875 114.873 451.875 114.873 450.125 111.873C449.226 119.748 449.226 119.748 452.375 126.498C453.283 127.281 454.19 128.065 455.125 128.873C457.251 133.057 459.125 137.144 459.125 141.873C459.764 142.099 460.404 142.326 461.062 142.56C463.718 143.698 466.022 144.969 468.5 146.435C472.484 148.704 475.57 149.582 480.125 149.873C480.125 151.193 480.125 152.513 480.125 153.873C479.125 154.873 479.125 154.873 476.84 154.97C475.465 154.953 475.465 154.953 474.062 154.935C473.143 154.926 472.224 154.917 471.277 154.908C470.567 154.896 469.857 154.885 469.125 154.873C469.326 163.729 474.97 170.961 480.062 177.873C483.637 183.112 485.67 188.966 487.942 194.847C490.386 201.136 493.049 207.276 495.938 213.373C496.31 214.167 496.683 214.962 497.068 215.78C498.827 219.455 500.641 222.63 503.125 225.873C503.375 228.56 503.375 228.56 503.125 230.873C502.125 231.873 502.125 231.873 500 232.373C495.234 231.544 492.971 228.642 490.125 224.873C484.892 216.234 481.416 206.79 477.965 197.333C475.999 191.973 473.773 186.933 471.125 181.873C471.471 182.832 471.471 182.832 471.823 183.812C474.552 191.462 474.552 191.462 474.125 195.873C470.882 195.314 469.194 194.459 467.125 191.873C467.125 191.213 467.125 190.553 467.125 189.873C466.176 189.728 465.228 189.584 464.25 189.435C461.125 188.873 461.125 188.873 459.125 187.873C458.795 189.523 458.465 191.173 458.125 192.873C457.135 192.873 456.145 192.873 455.125 192.873C454.939 191.779 454.754 190.686 454.562 189.56C452.955 183.001 448.881 176.629 444.125 171.873C443.795 174.183 443.465 176.493 443.125 178.873C443.749 179.09 444.373 179.308 445.016 179.533C447.925 181.381 448.086 183.008 448.875 186.31C449.117 187.278 449.36 188.246 449.609 189.244C450.125 191.873 450.125 191.873 450.125 194.873C451.445 195.203 452.765 195.533 454.125 195.873C454.634 198.418 455.13 200.918 455.438 203.498C456.299 206.474 457.533 207.284 460.125 208.873C459.795 210.193 459.465 211.513 459.125 212.873C458.465 212.873 457.805 212.873 457.125 212.873C457.589 213.642 457.589 213.642 458.062 214.427C459.444 217.606 459.729 220.557 460.125 223.998C460.661 228.48 461.276 232.898 462.25 237.31C463.167 241.587 463.287 245.505 463.125 249.873C461.145 250.863 461.145 250.863 459.125 251.873C456.652 249.4 456.689 248.173 456.23 244.752C456.079 243.734 455.928 242.716 455.771 241.668C455.466 239.518 455.172 237.367 454.889 235.214C454.656 233.686 454.656 233.686 454.418 232.127C454.225 230.724 454.225 230.724 454.028 229.293C452.815 226.043 451.136 225.446 448.125 223.873C445.812 221.185 445.812 221.185 444.125 218.873C445.277 221.341 446.173 222.92 448.125 224.873C447.75 227.498 447.75 227.498 447.125 229.873C446.465 229.873 445.805 229.873 445.125 229.873C447.036 233.409 448.751 235.662 452.125 237.873C451.795 238.863 451.465 239.853 451.125 240.873C448.419 240.793 446.634 240.29 444.527 238.564C440.33 234.098 438.916 229.887 438.125 223.873C437.465 223.873 436.805 223.873 436.125 223.873C430.994 229.32 431.567 235.207 431.562 242.373C431.508 255.775 431.508 255.775 428.125 260.873C426.805 260.873 425.485 260.873 424.125 260.873C422.36 257.785 422.125 256.639 422.125 252.873C421.321 252.728 420.516 252.584 419.688 252.435C417.125 251.873 417.125 251.873 416.125 250.873C416.082 248.197 416.078 245.546 416.125 242.873C416.125 241.883 416.125 240.893 416.125 239.873C415.382 240.718 414.64 241.564 413.875 242.435C412.967 243.239 412.06 244.044 411.125 244.873C408.812 244.685 408.812 244.685 407.125 243.873C407.69 239.914 408.934 237.207 411.125 233.873C409.145 234.203 407.165 234.533 405.125 234.873C405.437 231.805 406.122 230.875 408.418 228.724C409.851 227.622 409.851 227.622 411.312 226.498C420.016 220.219 420.016 220.219 424.125 210.873C418.551 215.632 418.551 215.632 413.375 220.81C411.125 222.873 411.125 222.873 407.125 222.873C407.125 221.223 407.125 219.573 407.125 217.873C405.475 217.543 403.825 217.213 402.125 216.873C402.76 213.192 402.76 213.192 404.625 211.56C406.467 209.816 406.467 209.816 406.5 206.435C407.292 201.92 408.548 201.575 412.125 198.873C413.142 197.377 414.118 195.853 415.062 194.31C418.276 189.266 421.535 187.736 427.125 185.873C426.795 184.223 426.465 182.573 426.125 180.873C421.468 182.799 418.698 186.333 415.344 189.974C413.125 191.873 413.125 191.873 409.125 191.873C409.635 187.739 411.773 186.009 414.75 183.248C419.629 178.537 423.466 173.566 427.125 167.873C426.664 168.236 426.202 168.6 425.727 168.974C421.904 171.92 418.003 174.708 413.938 177.31C413.14 177.824 412.342 178.339 411.52 178.869C408.614 180.087 407.096 179.764 404.125 178.873C403.438 177.123 403.438 177.123 403.125 174.873C404.125 172.685 404.125 172.685 406.125 170.873C409.812 170.123 409.812 170.123 413.125 169.873C412.465 169.543 411.805 169.213 411.125 168.873C409.125 166.873 409.125 166.873 408.375 163.123C408.506 160.281 408.923 159.118 410.746 156.9C413.561 154.394 416.345 152.297 419.66 150.494C422.557 148.589 423.975 146.632 425.875 143.748C429.125 138.873 429.125 138.873 430.125 137.873C430.196 136.52 430.209 135.164 430.188 133.81C430.157 131.861 430.157 131.861 430.125 129.873C429.237 130.886 429.237 130.886 428.332 131.919C427.542 132.812 426.752 133.704 425.938 134.623C425.16 135.504 424.383 136.386 423.582 137.294C421.221 139.772 418.933 141.915 416.125 143.873C413.312 143.623 413.312 143.623 411.125 142.873C411.476 142.13 411.826 141.388 412.188 140.623C413.376 138.02 413.376 138.02 412.532 135.962C412.125 133.873 412.125 133.873 413.065 131.83C413.554 131.122 414.043 130.414 414.547 129.685C415.078 128.904 415.609 128.123 416.156 127.318C416.723 126.511 417.291 125.704 417.875 124.873C418.427 124.066 418.978 123.259 419.547 122.427C421.572 119.477 423.593 116.547 425.81 113.736C427.317 111.98 427.317 111.98 427.125 109.873C426.465 109.873 425.805 109.873 425.125 109.873C423.318 111.659 423.318 111.659 421.5 113.873C420.868 114.615 420.237 115.358 419.586 116.123C419.104 116.7 418.622 117.278 418.125 117.873C416.805 117.543 415.485 117.213 414.125 116.873C414.738 113.911 415.379 112.492 417.125 109.873C417.455 108.676 417.785 107.48 418.125 106.248C418.455 105.134 418.785 104.02 419.125 102.873C419.785 102.543 420.445 102.213 421.125 101.873C418.358 94.2875 414.446 87.6756 407.125 83.8726C398.127 81.8944 388.54 82.745 379.413 83.2222C378.005 83.2958 378.005 83.2958 376.568 83.3708C374.787 83.4758 373.007 83.6019 371.229 83.753C365.328 84.1698 361.567 83.1779 356.125 80.8726C350.509 80.0493 346.051 81.1038 340.688 82.8726C329.874 86.3638 329.874 86.3638 324.125 84.8726C320.443 82.5101 317.461 79.5882 314.777 76.1421C312.174 74.1419 310.322 74.4657 307.125 74.8726C304.027 76.3661 304.027 76.3661 301.062 78.3726C294.612 82.5569 294.612 82.5569 290.125 81.8726C288.125 79.8726 288.125 79.8726 287.93 76.8335C287.964 75.0585 287.964 75.0585 288 73.2476C288.018 72.0591 288.036 70.8706 288.055 69.646C288.089 68.2732 288.089 68.2732 288.125 66.8726C269.521 81.4926 247.628 99.5405 236.062 120.498C234.125 122.873 234.125 122.873 230.875 123.623C224.805 122.409 220.895 118.84 216.816 114.306C213.662 111.454 211.283 110.672 207.188 109.623C206.003 109.308 204.818 108.994 203.598 108.669C196.567 107.056 190.127 106.779 182.938 106.873C180.965 106.898 178.992 106.919 177.02 106.935C175.718 106.953 175.718 106.953 174.39 106.97C172.125 106.873 172.125 106.873 169.125 105.873C164.321 105.372 161.135 106.119 156.625 107.873C152.255 109.549 148.858 110.63 144.125 109.873C140.27 107.731 139.309 106.463 137.988 102.22C137.561 100.563 137.561 100.563 137.125 98.8726C136.424 99.5133 135.723 100.154 135 100.814C126.32 108.727 126.32 108.727 121.938 112.498C119.269 114.809 116.773 117.217 114.312 119.748C111.32 122.787 108.198 125.511 104.875 128.185C100.672 131.582 96.5393 135.034 92.5 138.623C91.9789 139.07 91.4578 139.518 90.9209 139.979C87.8382 142.756 86.4405 144.696 86.125 148.873C85.2381 149.079 84.3512 149.285 83.4375 149.498C79.2022 151.256 77.8201 153.226 75.125 156.873C76.4915 160.404 76.4915 160.404 78.25 163.748C79.5077 166.802 79.2505 169.61 79.125 172.873C79.785 173.203 80.445 173.533 81.125 173.873C81.125 175.523 81.125 177.173 81.125 178.873C75.1547 178.581 72.2305 175.844 68.125 171.873C68.7498 182.265 69.643 189.118 77.125 196.873C78.9985 199.152 80.5492 201.361 82.125 203.873C81.75 206.072 81.75 206.072 81.125 207.873C77.4375 207.374 75.5201 206.772 73.125 203.873C72.795 205.523 72.465 207.173 72.125 208.873C73.115 208.873 74.105 208.873 75.125 208.873C77.168 211.138 77.168 211.138 79.3125 214.123C80.0279 215.097 80.7434 216.072 81.4805 217.076C83.125 219.873 83.125 219.873 83.125 223.873C80.875 223.685 80.875 223.685 78.125 222.873C76.145 220.398 76.145 220.398 74.125 217.873C73.795 225.463 73.465 233.053 73.125 240.873C71.475 241.203 69.825 241.533 68.125 241.873C67.2381 242.079 66.3512 242.285 65.4375 242.498C63.125 242.873 63.125 242.873 61.125 241.873C60.465 243.193 59.805 244.513 59.125 245.873C57.475 245.543 55.825 245.213 54.125 244.873C53.0458 241.635 53.0107 239.295 53.0273 235.892C53.0306 234.729 53.0338 233.565 53.0371 232.367C53.0455 231.152 53.0539 229.937 53.0625 228.685C53.067 227.459 53.0715 226.232 53.0762 224.968C53.088 221.936 53.1044 218.905 53.125 215.873C52.5269 216.058 51.9287 216.244 51.3125 216.435C49.125 216.873 49.125 216.873 46.125 215.873C45.8775 216.591 45.63 217.309 45.375 218.048C43.9915 221.174 42.2941 223.424 40.125 226.06C39.4237 226.92 38.7225 227.78 38 228.666C36.125 230.873 36.125 230.873 34.125 232.873C32 232.498 32 232.498 30.125 231.873C30.661 227.626 33.2781 224.837 35.875 221.623C40.2045 216.134 40.2045 216.134 44.25 210.435C44.6238 209.88 44.9977 209.324 45.3828 208.752C46.4301 206.1 46.2439 203.691 46.125 200.873C45.2723 201.959 45.2723 201.959 44.4023 203.068C35.7489 213.903 35.7489 213.903 30.125 217.873C27.9258 217.513 27.9258 217.513 26.125 216.873C26.5297 211.882 28.7323 209.899 32.3125 206.56C36.2905 202.767 39.8455 198.939 43.0039 194.431C44.125 192.873 44.125 192.873 46.125 190.873C46.125 189.553 46.125 188.233 46.125 186.873C42.165 191.328 42.165 191.328 38.125 195.873C36.805 195.543 35.485 195.213 34.125 194.873C34.4983 189.522 36.1208 187.363 40.125 183.873C39.5063 183.831 38.8875 183.79 38.25 183.748C36.125 182.873 36.125 182.873 34.8125 180.185C33.2317 172.569 36.9527 166.757 40.418 160.238C42.8943 155.298 43.3496 152.439 42.125 146.873C42.455 146.213 42.785 145.553 43.125 144.873C44.445 144.873 45.765 144.873 47.125 144.873C47.125 143.883 47.125 142.893 47.125 141.873C46.4031 142.223 45.6812 142.574 44.9375 142.935C41.8127 143.977 40.2434 143.764 37.125 142.873C37.5602 136.431 39.9349 131.74 43 126.123C43.4473 125.273 43.8946 124.424 44.3555 123.548C48.2377 116.299 48.2377 116.299 51.125 113.873C51.785 113.873 52.445 113.873 53.125 113.873C53.0631 113.233 53.0012 112.594 52.9375 111.935C53.1531 108.414 54.1508 105.668 55.3242 102.365C56.6367 98.2801 57.3764 94.0914 58.125 89.8726C60 89.2476 60 89.2476 62.125 88.8726C64.125 90.8726 64.125 90.8726 64.3679 93.2076C64.3638 94.1644 64.3597 95.1212 64.3555 96.107C64.3535 97.1563 64.3516 98.2056 64.3496 99.2867C64.3312 100.938 64.3312 100.938 64.3125 102.623C64.3119 103.708 64.3112 104.793 64.3105 105.912C64.2824 111.031 64.0607 115.827 63.125 120.873C63.8263 120.893 64.5275 120.914 65.25 120.935C69.5612 122.341 71.4571 125.329 74.125 128.873C74.6058 129.504 75.0866 130.136 75.582 130.787C77.5444 133.445 79.0747 135.722 80.125 138.873C84.3564 137.144 87.4811 134.159 90.875 131.185C91.4997 130.643 92.1244 130.1 92.7681 129.542C94.0041 128.468 95.2387 127.392 96.4717 126.315C97.8211 125.138 99.1789 123.971 100.539 122.806C104.597 119.323 108.378 115.644 112.133 111.837C114.656 109.349 117.303 107.035 119.988 104.724C123.286 101.867 126.507 98.9257 129.742 95.9976C131.733 94.2218 133.755 92.5077 135.812 90.8101C138.273 88.7274 140.355 86.5201 142.438 84.0601C147.177 78.4921 152.691 73.7796 158.262 69.064C162.749 65.2472 166.503 61.217 170.168 56.5953C172.125 54.8726 172.125 54.8726 174.68 54.3765C177.125 54.8726 177.125 54.8726 178.715 56.4898C179.382 57.6074 179.382 57.6074 180.062 58.7476C180.505 59.4669 180.947 60.1862 181.402 60.9273C182.409 62.6482 183.401 64.3779 184.356 66.1277C187.982 72.5495 192.191 77.2995 197.562 82.3101C203.257 87.7761 207.638 92.7083 211.52 99.5757C213.986 103.105 217.222 105.099 220.824 107.373C222.863 108.701 224.406 109.986 226.062 111.748C228.024 114.095 228.024 114.095 231.125 114.873C231.358 114.157 231.592 113.442 231.832 112.705C233.362 109.353 235.284 107.235 237.812 104.56C240.711 101.465 243.584 98.37 246.312 95.1226C255.243 84.852 265.227 75.2757 275.793 66.7093C282.13 61.5223 288.067 56.0721 293.797 50.2203C294.456 49.548 295.115 48.8756 295.794 48.1829C298.5 45.4128 301.2 42.6368 303.885 39.8455C316.365 26.9015 329.715 16.5174 345.471 7.81888C348.863 5.89138 350.686 4.52173 352.125 0.87261C354.888 -0.509009 356.211 -0.0503432 359.125 0.87261Z" fill="#080808"/>
<path d="M357.125 9.87262C358.351 11.5953 358.351 11.5953 359.75 13.9351C363.547 19.8252 368.136 24.1433 374.203 27.6539C377.783 30.3726 378.466 32.3296 379.875 36.5601C384.465 49.2943 392.029 60.59 399.726 71.65C401.125 73.8726 401.125 73.8726 401.125 75.8726C368.379 77.6351 368.379 77.6351 363.191 75.8804C354.28 72.9518 344.589 74.751 335.773 77.1734C331.744 78.2371 329.28 78.6473 325.125 77.8726C323.058 76.0008 321.421 74.0601 319.765 71.8179C317.974 69.6938 316.727 68.8076 314.125 67.8726C306.975 67.3301 301.199 70.5105 295.125 73.8726C293.735 68.62 292.426 63.0182 295.119 58.0325C298.586 53.3706 302.919 49.5316 307.187 45.6226C308.426 44.4254 309.661 43.2249 310.892 42.0211C321.714 31.5912 333.655 23.2161 346.375 15.2476C347.201 14.7204 348.027 14.1932 348.879 13.65C349.666 13.1537 350.454 12.6574 351.265 12.1461C351.962 11.707 352.658 11.2679 353.376 10.8155C355.125 9.87262 355.125 9.87262 357.125 9.87262Z" fill="#FBFBFB"/>
<path d="M95.125 256.873C97.1875 257.31 97.1875 257.31 99.125 257.873C100.27 261.881 100.167 264.198 98.125 267.873C97.135 268.203 96.145 268.533 95.125 268.873C93.5825 270.432 93.5825 270.432 92.0625 272.373C84.7865 280.93 75.8489 287.857 67.125 294.873C80.0842 291.358 92.9725 283.029 101.813 272.873C104.125 270.873 104.125 270.873 107.75 270.373C111.125 270.873 111.125 270.873 113.125 272.06C114.125 273.873 114.125 273.873 113.813 276.56C113.472 277.705 113.472 277.705 113.125 278.873C111.805 278.873 110.485 278.873 109.125 278.873C105.66 286.298 105.66 286.298 102.125 293.873C108.325 290.475 112.839 287.472 117.293 282.017C126.22 271.568 140.425 260.817 154.641 259.669C162.393 259.537 167.767 260.494 174.125 264.998C176.497 268.408 176.934 270.344 176.645 274.435C174.152 286.13 162.04 296.887 152.535 303.474C145.579 307.975 138.648 311.938 130.125 310.873C126.652 308.848 124.422 306.763 123.125 302.873C121.805 303.203 120.485 303.533 119.125 303.873C118.795 302.883 118.465 301.893 118.125 300.873C116.795 301.399 116.795 301.399 115.438 301.935C111.98 302.914 110.514 302.764 107.125 301.873C103.252 301.727 103.252 301.727 100.063 302.56C97.125 302.873 97.125 302.873 95.25 301.748C93.728 299.211 93.8152 297.815 94.125 294.873C95.6563 291.978 95.6563 291.978 97.625 289.06C98.2747 288.084 98.9244 287.108 99.5938 286.103C100.099 285.367 100.604 284.631 101.125 283.873C98.9822 285.301 96.9451 286.741 94.9024 288.298C87.947 293.544 81.2239 298.504 73.125 301.873C72.0938 302.306 71.0625 302.739 70 303.185C66.2647 304.078 62.961 304.005 59.125 303.873C59.0013 304.594 58.8775 305.316 58.75 306.06C58.1345 308.83 57.2406 311.27 56.125 313.873C54.475 313.873 52.825 313.873 51.125 313.873C50.0406 310.57 50.0108 309.152 51.3477 305.884C52.2584 304.239 52.2584 304.239 53.1875 302.56C58.4722 292.612 63.245 281.982 64.5078 270.693C65.125 268.873 65.125 268.873 67.1797 267.615C67.8216 267.37 68.4636 267.125 69.125 266.873C69.785 267.533 70.445 268.193 71.125 268.873C70.9883 271.228 70.9883 271.228 70.4375 274.06C70.2686 274.982 70.0998 275.903 69.9258 276.853C68.9843 280.403 67.6372 283.527 66.125 286.873C76.8093 278.844 85.7401 271.011 92.9961 259.623C94.125 257.873 94.125 257.873 95.125 256.873Z" fill="#0B0B0B"/>
<path d="M158.125 143.873C161.024 144.34 161.992 144.739 164.125 146.873C165.775 147.58 167.441 148.252 169.125 148.873C168.458 151.539 167.792 154.206 167.125 156.873C168.445 157.203 169.765 157.533 171.125 157.873C171.362 158.861 171.599 159.85 171.844 160.869C173.108 165.292 175.283 169.003 177.625 172.935C182.032 180.377 184.427 186.122 184.125 194.873C182.475 194.873 180.825 194.873 179.125 194.873C178.63 191.408 178.63 191.408 178.125 187.873C176.949 187.718 176.949 187.718 175.75 187.56C173.125 186.873 173.125 186.873 171.125 183.873C171.044 185.789 170.986 187.706 170.938 189.623C170.903 190.69 170.868 191.757 170.832 192.857C171.159 196.228 171.993 197.341 174.125 199.873C174.312 202.623 174.312 202.623 174.125 204.873C173.135 204.873 172.145 204.873 171.125 204.873C171.547 205.392 171.968 205.912 172.402 206.447C177.844 213.373 177.844 213.373 178.125 217.873C175.155 218.863 175.155 218.863 172.125 219.873C172.125 220.863 172.125 221.853 172.125 222.873C173.764 224.501 173.764 224.501 175.875 226.06C179.932 229.448 182.46 232.833 184.125 237.873C184.125 238.863 184.125 239.853 184.125 240.873C187.095 241.863 187.095 241.863 190.125 242.873C189.795 244.523 189.465 246.173 189.125 247.873C184.748 248.529 182.42 247.702 178.938 245.185C175.906 242.71 173.605 240.573 172.125 236.873C171.938 233.56 171.938 233.56 172.125 230.873C169.155 229.883 169.155 229.883 166.125 228.873C164.969 232.34 164.797 235.414 164.562 239.06C164.479 240.332 164.395 241.605 164.309 242.916C164.218 244.379 164.218 244.379 164.125 245.873C160.375 246.998 160.375 246.998 158.125 245.873C158.125 241.583 158.125 237.293 158.125 232.873C157.465 232.873 156.805 232.873 156.125 232.873C156.146 233.677 156.166 234.481 156.188 235.31C156.125 237.873 156.125 237.873 155.125 238.873C153.459 238.913 151.791 238.915 150.125 238.873C149.795 237.553 149.465 236.233 149.125 234.873C148.465 234.873 147.805 234.873 147.125 234.873C146.793 230.23 146.7 227.183 149.062 223.123C151.951 218.019 151.933 212.624 152.125 206.873C143.411 212.059 138.971 219.51 134.055 228.177C132.125 230.873 132.125 230.873 129.883 231.755C129.303 231.794 128.723 231.833 128.125 231.873C128.125 228.097 128.268 227.096 129.918 223.974C130.301 223.247 130.685 222.52 131.08 221.771C131.487 221.021 131.893 220.271 132.312 219.498C132.7 218.755 133.087 218.013 133.486 217.248C136.518 211.576 139.559 206.476 145.125 202.998C149.053 200.215 151.347 197.356 153.125 192.873C153.818 187.702 153.192 182.942 152.125 177.873C152.039 175.2 152.08 172.548 152.125 169.873C151.465 169.873 150.805 169.873 150.125 169.873C149.661 170.801 149.661 170.801 149.188 171.748C148.5 173.123 147.812 174.498 147.125 175.873C148.445 176.533 149.765 177.193 151.125 177.873C150.469 181.01 149.366 183.542 147.875 186.373C145.392 191.21 143.325 196.15 141.336 201.209C140.181 203.75 138.889 205.721 137.125 207.873C136.135 207.543 135.145 207.213 134.125 206.873C134.807 203.933 135.703 201.154 136.754 198.326C137.067 197.481 137.379 196.637 137.701 195.767C138.027 194.894 138.352 194.022 138.688 193.123C139.017 192.234 139.346 191.346 139.686 190.431C140.497 188.244 141.31 186.058 142.125 183.873C139.473 182.797 136.841 181.778 134.125 180.873C135.142 176.094 137.475 172.183 139.812 167.935C140.235 167.137 140.657 166.338 141.092 165.515C143.835 160.52 146.418 157.131 151.125 153.873C151.785 153.873 152.445 153.873 153.125 153.873C153.455 152.553 153.785 151.233 154.125 149.873C154.785 149.873 155.445 149.873 156.125 149.873C156.269 149.068 156.414 148.264 156.562 147.435C157.125 144.873 157.125 144.873 158.125 143.873Z" fill="#070707"/>
<path d="M271.688 125.81C272.822 125.831 273.956 125.851 275.125 125.873C275.75 128.248 275.75 128.248 276.125 130.873C275.465 131.533 274.805 132.193 274.125 132.873C274.066 135.94 274.066 135.94 274.438 139.373C274.586 141.121 274.586 141.121 274.738 142.904C274.95 145.796 274.95 145.796 276.125 147.873C278.105 147.873 280.085 147.873 282.125 147.873C282.001 149.172 281.877 150.471 281.75 151.81C281.709 156.991 283.65 159.885 286.715 163.927C288.125 165.873 288.125 165.873 289.125 168.873C290.775 169.203 292.425 169.533 294.125 169.873C294.62 172.843 294.62 172.843 295.125 175.873C293.805 176.533 292.485 177.193 291.125 177.873C291.785 178.904 292.445 179.935 293.125 180.998C295.091 184.423 295.589 186.879 295.125 190.873C294.795 191.533 294.465 192.193 294.125 192.873C292.805 192.873 291.485 192.873 290.125 192.873C289.978 192.304 289.831 191.736 289.68 191.15C287.946 185.182 285.494 181.27 281.125 176.873C281.022 181.998 281.089 186.823 282.125 191.873C282.744 191.914 283.363 191.955 284 191.998C284.701 192.286 285.402 192.575 286.125 192.873C286.373 193.739 286.62 194.605 286.875 195.498C288.677 200.362 291.936 202.932 296.125 205.873C299.405 207.334 299.405 207.334 302.125 207.873C301.25 211.748 301.25 211.748 300.125 212.873C297.786 212.585 295.451 212.253 293.125 211.873C292.795 214.183 292.465 216.493 292.125 218.873C293.115 217.388 293.115 217.388 294.125 215.873C295.445 215.873 296.765 215.873 298.125 215.873C298.25 223.623 298.25 223.623 297.125 225.873C294.957 227.293 293.671 227.906 291.062 227.748C288.52 226.599 287.579 225.227 286.125 222.873C284.938 219.31 284.774 215.899 284.562 212.185C284.418 209.772 284.274 207.359 284.125 204.873C284.455 212.133 284.785 219.393 285.125 226.873C286.445 227.203 287.765 227.533 289.125 227.873C291.016 230.092 292.667 232.235 294.312 234.623C294.763 235.244 295.214 235.865 295.678 236.505C298.076 239.913 299.711 242.618 300.125 246.873C298.145 247.368 298.145 247.368 296.125 247.873C293.485 244.903 290.845 241.933 288.125 238.873C287.135 240.193 286.145 241.513 285.125 242.873C282.956 242.367 281.125 241.873 279.125 240.873C279.166 241.821 279.207 242.77 279.25 243.748C279.125 246.873 279.125 246.873 277.125 248.873C274.688 248.81 274.688 248.81 272.125 247.873C267.373 241.933 267.984 234.539 268.027 227.318C268.029 226.416 268.03 225.515 268.032 224.586C268.037 221.723 268.05 218.86 268.062 215.998C268.068 214.05 268.072 212.102 268.076 210.154C268.087 205.393 268.104 200.633 268.125 195.873C267.465 195.873 266.805 195.873 266.125 195.873C265.88 196.547 265.635 197.221 265.383 197.916C263.852 201.514 261.967 204.811 260 208.185C259.627 208.83 259.255 209.475 258.871 210.14C257.959 211.719 257.042 213.296 256.125 214.873C254.805 214.873 253.485 214.873 252.125 214.873C252.569 208.953 254.333 205.151 257.5 200.185C257.9 199.535 258.299 198.884 258.711 198.214C260.344 195.58 261.96 193.076 263.914 190.666C265.498 188.681 265.498 188.681 265.125 184.873C262.65 189.823 262.65 189.823 260.125 194.873C258.805 194.873 257.485 194.873 256.125 194.873C256.4 189.273 257.217 185.335 259.75 180.31C262.274 175.146 262.391 172.424 261.125 166.873C261.125 165.553 261.125 164.233 261.125 162.873C259.805 162.873 258.485 162.873 257.125 162.873C257.125 158.744 258.049 156.903 259.906 153.334C263.842 145.386 266.624 137.826 266.984 128.919C267.23 125.341 267.953 125.876 271.688 125.81Z" fill="#070707"/>
<path d="M174.125 63.8726C175.704 65.8921 177.125 67.8722 178.387 70.107C182.647 77.6239 188.14 83.1785 194.438 89.0377C198.951 93.3254 201.658 97.1424 204.125 102.873C202.528 102.641 202.528 102.641 200.898 102.404C194.111 101.554 187.271 101.485 180.441 101.267C178.881 101.211 178.881 101.211 177.289 101.154C176.345 101.124 175.401 101.093 174.428 101.062C172.125 100.873 172.125 100.873 170.125 99.8726C163.468 99.3443 158.844 100.412 152.703 102.998C150.01 103.912 147.947 104.035 145.125 103.873C145.125 102.883 145.125 101.893 145.125 100.873C145.723 100.749 146.321 100.625 146.937 100.498C149.387 99.9179 149.387 99.9179 152.125 97.8726C152.125 96.8826 152.125 95.8926 152.125 94.8726C148.75 95.4199 147.043 95.9275 144.125 97.8726C143.96 93.4084 144.242 91.0034 147.031 87.4312C152.183 82.222 157.778 77.5612 163.496 72.9898C167.135 70.0588 170.637 66.981 174.125 63.8726Z" fill="#F8F8F8"/>
<path d="M49.0625 248.998C51.125 249.873 51.125 249.873 52.125 250.873C51.9575 258.913 47.317 264.077 42.5391 270.197C41.8651 271.062 41.8651 271.062 41.1775 271.944C40.2811 273.088 39.3771 274.225 38.4651 275.356C35.3648 279.205 35.3648 279.205 34.125 283.873C34.455 284.533 34.785 285.193 35.125 285.873C35.2499 288.489 35.3102 291.068 35.3125 293.685C35.3309 294.753 35.3309 294.753 35.3496 295.843C35.3611 299.974 34.9702 303.16 33.125 306.873C31.805 306.543 30.485 306.213 29.125 305.873C29.125 299.933 29.125 293.993 29.125 287.873C26.7738 289.574 26.7738 289.574 24.375 291.31C19.5598 294.795 19.5598 294.795 17.0078 295.252C13.2559 296.489 11.8923 301.111 10.1016 304.404C8.125 306.873 8.125 306.873 5.02344 307.841C4.06695 307.852 3.11047 307.862 2.125 307.873C0.125 305.873 0.125 305.873 0 301.998C0.925624 295.213 5.10849 290.216 9.125 284.873C9.75922 284.026 10.3934 283.179 11.0469 282.306C37.3123 248.498 37.3123 248.498 49.0625 248.998Z" fill="#090909"/>
<path d="M170.125 269.873C170.125 277.322 166.111 281.646 161.125 286.873C152.181 295.151 142.694 303.11 130.125 302.873C128.771 300.164 129.06 297.863 129.125 294.873C129.74 294.61 130.355 294.348 130.989 294.078C133.785 292.886 136.58 291.692 139.375 290.498C140.343 290.085 141.311 289.673 142.309 289.248C143.243 288.848 144.178 288.448 145.141 288.037C146.429 287.487 146.429 287.487 147.743 286.926C149.907 285.969 152.02 284.951 154.125 283.873C154.125 283.213 154.125 282.553 154.125 281.873C147.242 282.384 141.51 284.386 135.125 286.935C134.159 287.312 133.194 287.689 132.199 288.078C129.838 289.001 127.48 289.933 125.125 290.873C124.465 290.213 123.805 289.553 123.125 288.873C123.654 283.771 127.416 281.017 131.125 277.873C141.866 269.769 157.217 260.837 170.125 269.873Z" fill="#F7F7F7"/>
<path d="M445.125 146.873C447.81 148.215 448.035 149.588 449.25 152.31C451.658 157.312 454.674 161.33 458.258 165.548C462.627 170.987 463.472 174.051 463.125 180.873C456.907 177.365 452.706 172.269 448.125 166.873C447.259 165.965 446.393 165.058 445.5 164.123C443.148 158.564 444.384 152.751 445.125 146.873Z" fill="#F3F3F3"/>
<path d="M61.125 129.873C64.6558 132.742 68.0128 135.569 70.875 139.123C73.0128 142.009 73.0128 142.009 76.125 143.873C75.5515 147.744 73.638 149.954 71.125 152.873C67.317 151.377 65.4308 149.212 63.125 145.873C62.5 143.685 62.5 143.685 62.125 141.873C61.465 141.213 60.805 140.553 60.125 139.873C59.8946 137.744 59.8946 137.744 59.9375 135.31C59.944 134.504 59.9504 133.699 59.9571 132.869C60.125 130.873 60.125 130.873 61.125 129.873Z" fill="#F3F3F3"/>
<path d="M54.625 262.748C57.125 262.873 57.125 262.873 58.125 263.873C57.4191 271.284 57.4191 271.284 56.125 273.873C55.3619 273.79 54.5987 273.708 53.8125 273.623C52.4822 273.746 52.4822 273.746 51.125 273.873C49.4882 275.833 49.4882 275.833 48.125 277.873C47.135 277.873 46.145 277.873 45.125 277.873C45.5178 272.635 48.4405 263.057 54.625 262.748Z" fill="#0D0D0D"/>
<path d="M450.125 81.8726C452.163 84.9292 452.882 87.1544 453.816 90.6773C454.274 92.3885 454.274 92.3885 454.74 94.1343C455.053 95.3267 455.365 96.5191 455.688 97.7476C456.004 98.9323 456.32 100.117 456.647 101.337C457.489 104.512 458.331 107.685 459.125 110.873C459.363 111.782 459.602 112.691 459.847 113.627C459.939 114.368 460.031 115.109 460.125 115.873C459.465 116.533 458.805 117.193 458.125 117.873C457.966 117.316 457.808 116.759 457.645 116.185C457.411 115.422 457.178 114.659 456.938 113.873C456.717 113.13 456.497 112.388 456.27 111.623C455.225 109.113 454.088 107.383 452.531 105.185C449.489 100.449 449.538 96.3666 449.813 90.8726C449.835 90.0025 449.858 89.1324 449.881 88.2359C449.939 86.114 450.029 83.9931 450.125 81.8726Z" fill="#CCCCCC"/>
<path d="M44.125 281.873C45.445 281.873 46.765 281.873 48.125 281.873C48.125 284.513 48.125 287.153 48.125 289.873C47.135 290.203 46.145 290.533 45.125 290.873C44.8363 291.698 44.5475 292.523 44.25 293.373C43.6931 294.61 43.6931 294.61 43.125 295.873C40.5 296.685 40.5 296.685 38.125 296.873C37.375 294.623 37.375 294.623 37.125 291.873C38.875 289.935 38.875 289.935 41.125 287.873C42.1851 285.904 43.1997 283.908 44.125 281.873Z" fill="#0E0E0E"/>
<path d="M425.125 192.873C425.455 192.873 425.785 192.873 426.125 192.873C426.623 196.025 426.909 197.846 426.125 200.873C423.463 203.711 420.361 205.735 417.125 207.873C415.455 209.202 413.786 210.533 412.125 211.873C414.753 204.426 419.691 198.492 425.125 192.873Z" fill="#E7E7E7"/>
<path d="M338.125 37.8726C337.633 42.1213 336.534 43.9622 333.312 46.7476C332.625 47.3638 331.938 47.98 331.23 48.6148C329.125 49.8726 329.125 49.8726 326.863 49.5679C326.29 49.3385 325.716 49.109 325.125 48.8726C326.559 45.514 328.319 43.5139 331.062 41.1226C331.752 40.509 332.442 39.8954 333.152 39.2632C335.125 37.8726 335.125 37.8726 338.125 37.8726Z" fill="#141414"/>
<path d="M113.938 132.123C115.02 132.494 115.02 132.494 116.125 132.873C116 134.623 116 134.623 115.125 136.873C112.312 139.185 112.312 139.185 109.125 140.873C106.75 140.623 106.75 140.623 105.125 139.873C105.453 136.813 106.182 135.814 108.375 133.56C111.125 131.873 111.125 131.873 113.938 132.123Z" fill="#181818"/>
<path d="M373.125 53.8726C376.636 54.1652 377.93 54.6826 380.5 57.1851C382.125 59.8726 382.125 59.8726 381.875 62.1851C381.627 62.742 381.38 63.2989 381.125 63.8726C379.375 63.7476 379.375 63.7476 377.125 62.8726C373.125 57.7615 373.125 57.7615 373.125 53.8726Z" fill="#141414"/>
<path d="M40.125 259.873C40.125 263.739 38.9395 264.681 36.5 267.623C35.7755 268.502 35.0511 269.381 34.3047 270.287C31.5968 273.499 28.882 276.702 26.125 279.873C25.795 279.213 25.465 278.553 25.125 277.873C26.2253 276.266 27.3304 274.662 28.4375 273.06C29.0524 272.167 29.6673 271.273 30.3008 270.353C31.8104 268.3 33.1812 266.512 35.125 264.873C35.785 264.873 36.445 264.873 37.125 264.873C37.4344 264.233 37.7438 263.594 38.0625 262.935C39.125 260.873 39.125 260.873 40.125 259.873Z" fill="#E2E2E2"/>
<path d="M151.375 94.1851C152.241 94.5254 152.241 94.5254 153.125 94.8726C152.75 97.5919 152.283 98.7148 150.312 100.685C148.125 101.873 148.125 101.873 145.875 101.56C145.298 101.333 144.72 101.106 144.125 100.873C144.5 98.1533 144.967 97.0304 146.938 95.0601C149.125 93.8726 149.125 93.8726 151.375 94.1851Z" fill="#1A1A1A"/>
<path d="M283.125 203.873C284.115 204.368 284.115 204.368 285.125 204.873C285.361 207.291 285.501 209.636 285.563 212.06C285.729 217.521 286.377 221.129 289.125 225.873C289.455 226.533 289.785 227.193 290.125 227.873C288.475 227.543 286.825 227.213 285.125 226.873C283.894 219.145 282.855 211.704 283.125 203.873Z" fill="#AFAFAF"/>
<path d="M150.125 169.873C150.785 169.873 151.445 169.873 152.125 169.873C152.125 172.513 152.125 175.153 152.125 177.873C149.155 177.378 149.155 177.378 146.125 176.873C147.445 174.563 148.765 172.253 150.125 169.873Z" fill="#F3F3F3"/>
<path d="M470.125 180.873C473.113 183.434 474.67 186.234 476.125 189.873C475.812 192.748 475.812 192.748 475.125 194.873C470.125 185.257 470.125 185.257 470.125 180.873Z" fill="#D5D5D5"/>
<path d="M265.125 183.873C265.455 183.873 265.785 183.873 266.125 183.873C266.708 187.721 265.825 189.636 263.625 192.685C262.803 193.756 261.973 194.822 261.125 195.873C259.805 195.543 258.485 195.213 257.125 194.873C258.115 194.543 259.105 194.213 260.125 193.873C261.588 191.554 261.588 191.554 262.812 188.81C263.249 187.891 263.686 186.972 264.137 186.025C264.463 185.315 264.789 184.604 265.125 183.873Z" fill="#D2D2D2"/>
<path d="M178.125 78.8726C180.105 79.3676 180.105 79.3676 182.125 79.8726C181.795 81.5226 181.465 83.1726 181.125 84.8726C179.805 84.5426 178.485 84.2126 177.125 83.8726C177.455 82.2226 177.785 80.5726 178.125 78.8726Z" fill="#1A1A1A"/>
<path d="M445.125 201.873C449.946 207.658 449.946 207.658 451.125 210.873C450.795 211.863 450.465 212.853 450.125 213.873C449.281 212.63 448.45 211.378 447.625 210.123C446.929 209.078 446.929 209.078 446.219 208.013C445.125 205.873 445.125 205.873 445.125 201.873Z" fill="#D8D8D8"/>
</svg>
