<svg width="292" height="13" viewBox="0 0 292 13" fill="none" xmlns="http://www.w3.org/2000/svg">
<g clip-path="url(#clip0_716_5137)">
<path d="M130.907 2.62077C134.592 2.62189 138.277 2.62148 141.962 2.62024C182.308 2.60702 182.308 2.60702 198.004 2.79033C198.508 2.79606 199.012 2.8018 199.531 2.80771C204.393 2.86563 209.197 2.97547 214.032 3.18835C216.729 3.28761 219.412 3.28047 222.118 3.26813C223.337 3.26557 224.555 3.26305 225.774 3.26056C226.404 3.25872 227.035 3.25689 227.684 3.255C238.322 3.22598 248.948 3.24961 259.581 3.37893C260.087 3.38476 260.594 3.39059 261.115 3.3966C267.274 3.46903 273.394 3.60554 279.527 3.84058C279.527 4.03558 279.527 4.23058 279.527 4.43149C279.043 4.43149 278.559 4.43149 278.06 4.43149C278.06 4.91899 278.06 5.40649 278.06 5.90876C275.614 5.90876 273.169 5.90876 270.723 5.90876C269.635 5.92806 268.547 5.94987 267.459 5.97339C266.837 5.98672 266.215 6.00005 265.575 6.01378C264.928 6.02788 264.282 6.04197 263.616 6.05649C262.961 6.07058 262.306 6.08467 261.631 6.09919C260.015 6.13399 258.399 6.169 256.784 6.20421C256.784 6.49671 256.784 6.78921 256.784 7.09058C253.152 7.09058 249.52 7.09058 245.779 7.09058C245.779 6.89558 245.779 6.70058 245.779 6.49967C245.294 6.49967 244.81 6.49967 244.311 6.49967C244.311 6.69467 244.311 6.88967 244.311 7.09058C234.737 7.38874 225.157 7.51932 215.561 7.64455C214.657 7.65657 213.753 7.6686 212.822 7.68098C183.311 8.07211 153.793 8.37966 124.277 8.70581C110.303 8.86025 96.328 9.01556 82.354 9.17722C81.8559 9.18298 81.3579 9.18873 80.8447 9.19466C61.7198 9.41596 42.5994 9.68083 23.48 9.97011C22.8188 9.98006 22.1575 9.99001 21.4761 10.0003C20.9022 10.009 20.3283 10.0177 19.737 10.0267C18.7831 10.0393 17.8285 10.0451 16.8741 10.0451C16.4155 9.34342 16.4155 9.34342 16.1404 8.56785C18.815 7.49075 22.8407 7.67523 26.449 7.67456C28.0578 7.67645 29.6656 7.68147 31.2741 7.69231C32.5879 7.69896 33.9021 7.69146 35.2158 7.68149C35.5789 7.53524 35.5789 7.53524 35.9494 7.38603C37.6099 7.36472 39.2583 7.38707 40.9189 7.4045C42.6806 7.41635 42.6806 7.41635 44.7535 7.09058C45.7494 7.052 46.7489 7.02741 47.7488 7.01217C48.3579 7.00225 48.9671 6.99232 49.5947 6.9821C50.2612 6.97257 50.9276 6.96305 51.6142 6.95324C52.3186 6.94214 53.023 6.93105 53.7487 6.91961C56.0913 6.88303 58.4339 6.8483 60.7767 6.81359C62.4186 6.78833 64.0605 6.76296 65.7023 6.73749C70.0473 6.67039 74.3924 6.60487 78.7376 6.53967C83.0789 6.47423 87.4201 6.40723 91.7613 6.3404C108.128 6.08918 124.496 5.84872 140.864 5.6133C97.5262 5.6133 54.1884 5.6133 9.53738 5.6133C9.77949 5.4183 10.0216 5.2233 10.271 5.02239C9.78683 4.92489 9.30261 4.82739 8.80371 4.72694C9.04582 4.43444 9.28793 4.14194 9.53738 3.84058C14.21 3.51874 18.8531 3.45741 23.586 3.39739C24.9093 3.3794 24.9093 3.3794 26.2593 3.36104C28.1402 3.33569 30.0211 3.31089 31.9021 3.2866C34.6613 3.25091 37.4204 3.21353 40.1795 3.1758C45.0495 3.11014 49.9198 3.05003 54.7904 2.99228C56.9122 2.96706 59.0338 2.94058 61.1555 2.91312C84.4029 2.61463 107.65 2.6129 130.907 2.62077Z" fill="#780000"/>
</g>
<defs>
<clipPath id="clip0_716_5137">
<rect width="292" height="13" fill="white"/>
</clipPath>
</defs>
</svg>
