<svg width="358" height="4" viewBox="0 0 358 4" fill="none" xmlns="http://www.w3.org/2000/svg">
<path d="M174.63 3.08247H0.978539C1.2959 2.8866 1.61327 2.68041 1.94386 2.47423C1.30913 2.37113 0.661175 2.27835 0 2.16495C0.317364 1.86598 0.634728 1.5567 0.965316 1.24742C7.14069 0.917526 13.2896 0.85567 19.5443 0.793814C20.708 0.783505 21.8849 0.762887 23.075 0.752577C25.561 0.721649 28.0471 0.701031 30.5331 0.680412C34.1828 0.639175 37.8325 0.608247 41.4821 0.56701C47.922 0.494845 54.3618 0.43299 60.8017 0.381443C63.6051 0.350515 66.4084 0.329897 69.2251 0.298969C99.9697 0 130.701 0 161.459 0H176.084C211.655 0 236.357 0.0515464 250.189 0.175258C250.85 0.175258 251.524 0.175258 252.212 0.195876C258.639 0.257732 264.999 0.371134 271.386 0.587629C274.956 0.690722 278.5 0.680412 282.084 0.670103H289.449C303.519 0.639175 317.562 0.670103 331.632 0.793814C332.307 0.793814 332.968 0.793814 333.656 0.814433C341.801 0.886598 349.894 1.03093 358 1.26804V1.87629H356.056V3.40206H346.35C344.909 3.42268 343.467 3.4433 342.039 3.46392C341.219 3.47423 340.4 3.49485 339.553 3.50515C338.694 3.51546 337.847 3.53608 336.961 3.54639C336.102 3.5567 336.155 3.29897 335.269 3.31959C333.127 3.35052 332.227 3.19588 330.085 3.23711C330.085 3.53608 325.788 3.10309 325.788 3.41237C320.987 3.41237 321.146 3.49485 316.2 3.49485C316.2 3.28866 314.111 3.70103 314.111 3.49485C313.463 3.49485 312.683 3.23711 312.022 3.23711C312.022 3.4433 308.941 2.85567 308.941 3.06186C296.286 3.37113 288.682 3.10309 275.988 3.23711C274.798 3.24742 270.606 3.13402 269.376 3.15464" fill="#FFFDFA"/>
</svg>
