<svg width="19" height="645" viewBox="0 0 19 645" fill="none" xmlns="http://www.w3.org/2000/svg">
<path d="M4.2248 5.3335C4.2248 8.27901 6.61261 10.6668 9.55813 10.6668C12.5036 10.6668 14.8915 8.27901 14.8915 5.3335C14.8915 2.38798 12.5036 0.000162601 9.55813 0.000162601C6.61261 0.000162601 4.2248 2.38798 4.2248 5.3335ZM9.55813 194.478L8.57309 194.65L8.57488 194.66L8.57688 194.67L9.55813 194.478ZM9.55813 508.014L10.553 507.913L10.5509 507.891L10.5478 507.87L9.55813 508.014ZM9.55813 644.333L18.1688 636.64L7.20074 633.03L9.55813 644.333ZM9.55813 5.3335L8.58735 5.09354C-6.96424 68.0102 2.1091 157.697 8.57309 194.65L9.55813 194.478L10.5432 194.305C4.09064 157.418 -4.91914 68.0712 10.5289 5.57345L9.55813 5.3335ZM9.55813 194.478L8.57688 194.67C11.3752 208.916 14.7382 233.09 15.7189 259.253C16.7002 285.432 15.2921 313.512 8.60101 335.62L9.55813 335.91L10.5153 336.199C17.3019 313.776 18.7017 285.434 17.7175 259.178C16.7327 232.905 13.3567 208.628 10.5394 194.285L9.55813 194.478ZM9.55813 335.91L8.60101 335.62C1.81126 358.054 0.415505 391.518 1.39854 424.136C2.38258 456.786 5.7559 488.718 8.56844 508.157L9.55813 508.014L10.5478 507.87C7.74464 488.496 4.3791 456.641 3.39763 424.076C2.41517 391.477 3.82728 358.297 10.5153 336.199L9.55813 335.91ZM9.55813 508.014L8.56322 508.114C10.2874 525.139 12.3146 550.406 13.2484 574.736C14.1838 599.104 14.0161 622.412 11.3919 635.588L12.3727 635.783L13.3534 635.978C16.0304 622.538 16.1813 599.002 15.247 574.659C14.3112 550.279 12.2805 524.969 10.553 507.913L9.55813 508.014Z" fill="black"/>
</svg>
